<?xml version="1.0" encoding="UTF-8" standalone="no"?><svg xmlns="http://www.w3.org/2000/svg" xmlns:xlink="http://www.w3.org/1999/xlink" clip-rule="evenodd" stroke-miterlimit="4.00" viewBox="0 0 1024 768"><desc>SVG generated by Keynote</desc><defs></defs><g transform="matrix(1.00, 0.00, -0.00, -1.00, 0.0, 768.0)"><g><clipPath id="clip-301"><path d="M 0.0 768.0 L 1024.0 768.0 L 1024.0 0.0 L 0.0 0.0 Z M 0.0 768.0 "></path></clipPath><g clip-path="url(#clip-301)"><image xlink:href="../../A6AB71EB-7077-4CA4-A4BC-733F3D27A118/assets/AC8A38799F83CDE46BAD7F0B4FE74D5F.jpeg" width="1024.00" height="768.00" transform="matrix(1.00, 0.00, -0.00, -1.00, 0.0, 768.0)"></image></g></g><image xlink:href="../../298E91F3-9693-41C6-9793-FC6420E38CF8/assets/3BA9F9C72F3D26968AA794A26435CDD1.png" width="481.00" height="1023.00" transform="matrix(1.00, 0.00, -0.00, -1.00, 300.0, 844.7)"></image><g><clipPath id="clip-302"><path d="M 340.0 629.0 L 741.0 629.0 L 741.0 40.0 L 340.0 40.0 Z M 340.0 628.7 "></path></clipPath><g clip-path="url(#clip-302)"><image xlink:href="../../298E91F3-9693-41C6-9793-FC6420E38CF8/assets/F413BAF093146F39625390A17E74CDC5.png" width="401.00" height="506.00" transform="matrix(1.00, 0.00, -0.00, -1.00, 340.0, 587.0)"></image></g></g><text xml:space="preserve" font-family="Futura-Medium" font-size="14.0" fill="#9A958D" transform="matrix(1.00, 0.00, -0.00, -1.00, 503.0, 22.0)">1</text><text xml:space="preserve" font-family="Futura-Medium" font-size="14.0" fill="#9A958D" transform="matrix(1.00, 0.00, -0.00, -1.00, 511.1, 22.0)">0</text><text xml:space="preserve" font-family="Futura-Medium" font-size="40.7" fill="#5B5753" transform="matrix(1.00, 0.00, -0.00, -1.00, 52.0, 650.0)">A</text><text xml:space="preserve" font-family="Futura-Medium" font-size="40.7" fill="#5B5753" transform="matrix(1.00, 0.00, -0.00, -1.00, 82.9, 650.0)"> </text><text xml:space="preserve" font-family="Futura-Medium" font-size="40.7" fill="#5B5753" transform="matrix(1.00, 0.00, -0.00, -1.00, 96.3, 650.0)">S</text><text xml:space="preserve" font-family="Futura-Medium" font-size="40.7" fill="#5B5753" transform="matrix(1.00, 0.00, -0.00, -1.00, 120.8, 650.0)">I</text><text xml:space="preserve" font-family="Futura-Medium" font-size="40.7" fill="#5B5753" transform="matrix(1.00, 0.00, -0.00, -1.00, 133.6, 650.0)">N</text><text xml:space="preserve" font-family="Futura-Medium" font-size="40.7" fill="#5B5753" transform="matrix(1.00, 0.00, -0.00, -1.00, 169.1, 650.0)">G</text><text xml:space="preserve" font-family="Futura-Medium" font-size="40.7" fill="#5B5753" transform="matrix(1.00, 0.00, -0.00, -1.00, 204.3, 650.0)">L</text><text xml:space="preserve" font-family="Futura-Medium" font-size="40.7" fill="#5B5753" transform="matrix(1.00, 0.00, -0.00, -1.00, 223.1, 650.0)">E</text><text xml:space="preserve" font-family="Futura-Medium" font-size="40.7" fill="#5B5753" transform="matrix(1.00, 0.00, -0.00, -1.00, 247.0, 650.0)"> </text><text xml:space="preserve" font-family="Futura-Medium" font-size="40.7" fill="#5B5753" transform="matrix(1.00, 0.00, -0.00, -1.00, 260.4, 650.0)">U</text><text xml:space="preserve" font-family="Futura-Medium" font-size="40.7" fill="#5B5753" transform="matrix(1.00, 0.00, -0.00, -1.00, 291.2, 650.0)">S</text><text xml:space="preserve" font-family="Futura-Medium" font-size="40.7" fill="#5B5753" transform="matrix(1.00, 0.00, -0.00, -1.00, 315.8, 650.0)">E</text><text xml:space="preserve" font-family="Futura-Medium" font-size="40.7" fill="#5B5753" transform="matrix(1.00, 0.00, -0.00, -1.00, 339.6, 650.0)">R</text><text xml:space="preserve" font-family="Futura-Medium" font-size="40.7" fill="#5B5753" transform="matrix(1.00, 0.00, -0.00, -1.00, 364.9, 650.0)"> </text><text xml:space="preserve" font-family="Futura-Medium" font-size="40.7" fill="#5B5753" transform="matrix(1.00, 0.00, -0.00, -1.00, 378.3, 650.0)">J</text><text xml:space="preserve" font-family="Futura-Medium" font-size="40.7" fill="#5B5753" transform="matrix(1.00, 0.00, -0.00, -1.00, 395.8, 650.0)">U</text><text xml:space="preserve" font-family="Futura-Medium" font-size="40.7" fill="#5B5753" transform="matrix(1.00, 0.00, -0.00, -1.00, 426.7, 650.0)">P</text><text xml:space="preserve" font-family="Futura-Medium" font-size="40.7" fill="#5B5753" transform="matrix(1.00, 0.00, -0.00, -1.00, 449.5, 650.0)">Y</text><text xml:space="preserve" font-family="Futura-Medium" font-size="40.7" fill="#5B5753" transform="matrix(1.00, 0.00, -0.00, -1.00, 476.7, 650.0)">T</text><text xml:space="preserve" font-family="Futura-Medium" font-size="40.7" fill="#5B5753" transform="matrix(1.00, 0.00, -0.00, -1.00, 497.2, 650.0)">E</text><text xml:space="preserve" font-family="Futura-Medium" font-size="40.7" fill="#5B5753" transform="matrix(1.00, 0.00, -0.00, -1.00, 521.0, 650.0)">R</text><text xml:space="preserve" font-family="Futura-Medium" font-size="40.7" fill="#5B5753" transform="matrix(1.00, 0.00, -0.00, -1.00, 546.3, 650.0)"> </text><text xml:space="preserve" font-family="Futura-Medium" font-size="40.7" fill="#5B5753" transform="matrix(1.00, 0.00, -0.00, -1.00, 559.7, 650.0)">N</text><text xml:space="preserve" font-family="Futura-Medium" font-size="40.7" fill="#5B5753" transform="matrix(1.00, 0.00, -0.00, -1.00, 595.1, 650.0)">O</text><text xml:space="preserve" font-family="Futura-Medium" font-size="40.7" fill="#5B5753" transform="matrix(1.00, 0.00, -0.00, -1.00, 631.2, 650.0)">T</text><text xml:space="preserve" font-family="Futura-Medium" font-size="40.7" fill="#5B5753" transform="matrix(1.00, 0.00, -0.00, -1.00, 651.7, 650.0)">E</text><text xml:space="preserve" font-family="Futura-Medium" font-size="40.7" fill="#5B5753" transform="matrix(1.00, 0.00, -0.00, -1.00, 675.5, 650.0)">B</text><text xml:space="preserve" font-family="Futura-Medium" font-size="40.7" fill="#5B5753" transform="matrix(1.00, 0.00, -0.00, -1.00, 700.2, 650.0)">O</text><text xml:space="preserve" font-family="Futura-Medium" font-size="40.7" fill="#5B5753" transform="matrix(1.00, 0.00, -0.00, -1.00, 737.4, 650.0)">O</text><text xml:space="preserve" font-family="Futura-Medium" font-size="40.7" fill="#5B5753" transform="matrix(1.00, 0.00, -0.00, -1.00, 774.5, 650.0)">K</text><text xml:space="preserve" font-family="Futura-Medium" font-size="40.7" fill="#5B5753" transform="matrix(1.00, 0.00, -0.00, -1.00, 802.3, 650.0)"> </text><text xml:space="preserve" font-family="Futura-Medium" font-size="40.7" fill="#5B5753" transform="matrix(1.00, 0.00, -0.00, -1.00, 815.7, 650.0)">S</text><text xml:space="preserve" font-family="Futura-Medium" font-size="40.7" fill="#5B5753" transform="matrix(1.00, 0.00, -0.00, -1.00, 840.2, 650.0)">E</text><text xml:space="preserve" font-family="Futura-Medium" font-size="40.7" fill="#5B5753" transform="matrix(1.00, 0.00, -0.00, -1.00, 864.1, 650.0)">R</text><text xml:space="preserve" font-family="Futura-Medium" font-size="40.7" fill="#5B5753" transform="matrix(1.00, 0.00, -0.00, -1.00, 888.3, 650.0)">V</text><text xml:space="preserve" font-family="Futura-Medium" font-size="40.7" fill="#5B5753" transform="matrix(1.00, 0.00, -0.00, -1.00, 916.6, 650.0)">E</text><text xml:space="preserve" font-family="Futura-Medium" font-size="40.7" fill="#5B5753" transform="matrix(1.00, 0.00, -0.00, -1.00, 940.5, 650.0)">R</text><image xlink:href="../../9740365A-BEC8-4F8F-94D3-3EB3392D9924/assets/2BEB04814166571CA43F15681A9AD392.png" width="225.00" height="312.00" transform="matrix(1.00, 0.00, -0.00, -1.00, 53.7, 686.0)"></image><g><clipPath id="clip-303"><path d="M 94.0 603.0 L 239.0 603.0 L 239.0 458.0 L 94.0 458.0 Z M 93.7 603.2 "></path></clipPath><g clip-path="url(#clip-303)"><image xlink:href="../../298E91F3-9693-41C6-9793-FC6420E38CF8/assets/0B95DC140BB2091A593B1CC8CC21A55A.png" width="145.00" height="145.00" transform="matrix(1.00, 0.00, -0.00, -1.00, 94.0, 603.0)"></image></g></g><g><clipPath id="clip-304"><path d="M 167.0 527.0 L 220.0 527.0 L 220.0 474.0 L 167.0 474.0 Z M 167.4 527.0 "></path></clipPath><g clip-path="url(#clip-304)"><image xlink:href="../../239C642B-A6A2-4F69-9F57-A3F2235CE1B1/assets/6F7E3E4165FBC596A84F39DA6CB74DB3.png" width="66.00" height="66.00" transform="matrix(0.80, 0.00, -0.00, -0.80, 167.0, 527.0)"></image></g></g><text xml:space="preserve" font-family="Avenir-Medium" font-size="24.0" fill="#FEFFFF" transform="matrix(1.00, 0.00, -0.00, -1.00, 562.0, 155.0)">P</text><text xml:space="preserve" font-family="Avenir-Medium" font-size="24.0" fill="#FEFFFF" transform="matrix(1.00, 0.00, -0.00, -1.00, 576.2, 155.0)">y</text><text xml:space="preserve" font-family="Avenir-Medium" font-size="24.0" fill="#FEFFFF" transform="matrix(1.00, 0.00, -0.00, -1.00, 588.2, 155.0)">t</text><text xml:space="preserve" font-family="Avenir-Medium" font-size="24.0" fill="#FEFFFF" transform="matrix(1.00, 0.00, -0.00, -1.00, 597.1, 155.0)">h</text><text xml:space="preserve" font-family="Avenir-Medium" font-size="24.0" fill="#FEFFFF" transform="matrix(1.00, 0.00, -0.00, -1.00, 610.5, 155.0)">o</text><text xml:space="preserve" font-family="Avenir-Medium" font-size="24.0" fill="#FEFFFF" transform="matrix(1.00, 0.00, -0.00, -1.00, 624.7, 155.0)">n</text><text xml:space="preserve" font-family="Avenir-Medium" font-size="24.0" fill="#FEFFFF" transform="matrix(1.00, 0.00, -0.00, -1.00, 520.0, 189.0)">R</text><text xml:space="preserve" font-family="Avenir-Medium" font-size="24.0" fill="#FEFFFF" transform="matrix(1.00, 0.00, -0.00, -1.00, 430.0, 220.0)">J</text><text xml:space="preserve" font-family="Avenir-Medium" font-size="24.0" fill="#FEFFFF" transform="matrix(1.00, 0.00, -0.00, -1.00, 441.6, 220.0)">u</text><text xml:space="preserve" font-family="Avenir-Medium" font-size="24.0" fill="#FEFFFF" transform="matrix(1.00, 0.00, -0.00, -1.00, 454.9, 220.0)">l</text><text xml:space="preserve" font-family="Avenir-Medium" font-size="24.0" fill="#FEFFFF" transform="matrix(1.00, 0.00, -0.00, -1.00, 460.7, 220.0)">i</text><text xml:space="preserve" font-family="Avenir-Medium" font-size="24.0" fill="#FEFFFF" transform="matrix(1.00, 0.00, -0.00, -1.00, 466.4, 220.0)">a</text><path d="M 89.9 0.0 L 366.8 0.0 C 392.5 0.0 405.6 0.0 419.5 4.4 C 434.7 9.9 446.7 21.9 452.3 37.1 C 456.7 51.0 456.7 64.1 456.7 90.3 L 456.7 284.8 C 456.7 310.6 456.7 323.7 452.3 337.6 C 446.7 352.8 434.7 364.8 419.5 370.3 C 405.6 374.8 392.5 374.8 366.4 374.8 L 89.9 374.8 C 64.1 374.8 51.0 374.8 37.1 370.3 C 21.9 364.8 9.9 352.8 4.4 337.6 C 0.0 323.7 0.0 310.6 0.0 284.4 L 0.0 89.9 C 0.0 64.1 0.0 51.0 4.4 37.1 C 9.9 21.9 21.9 9.9 37.1 4.4 C 51.0 0.0 64.1 0.0 90.3 0.0 Z M 89.9 0.0 " fill="none" stroke="#FF2600" stroke-width="3.00" stroke-dasharray="3.0, 3.0" transform="matrix(1.00, 0.00, 0.00, -1.00, 312.0, 444.0)"></path><g><clipPath id="clip-305"><path d="M 880.0 410.0 L 933.0 410.0 L 933.0 358.0 L 880.0 358.0 Z M 880.0 410.3 "></path></clipPath><g clip-path="url(#clip-305)"><image xlink:href="../../239C642B-A6A2-4F69-9F57-A3F2235CE1B1/assets/6F7E3E4165FBC596A84F39DA6CB74DB3.png" width="66.00" height="66.00" transform="matrix(0.80, 0.00, -0.00, -0.79, 880.0, 410.0)"></image></g></g><path d="M 0.0 0.0 L 80.2 0.0 L 81.7 0.0 " fill="none" stroke="#FF2600" stroke-width="3.00" stroke-dasharray="3.0, 3.0" transform="matrix(0.98, 0.22, 0.22, -0.98, 770.0, 364.7)"></path><path d="M 849.7 376.0 L 861.1 385.3 L 846.8 388.9 Z M 849.7 376.0 " fill="#FF2600"></path><path d="M 20.3 0.0 L 68.0 0.0 C 73.9 0.0 76.8 0.0 80.0 1.0 C 83.4 2.2 86.1 5.0 87.4 8.4 C 88.3 11.5 88.3 14.5 88.3 20.4 L 88.3 68.3 C 88.3 74.1 88.3 77.1 87.4 80.2 C 86.1 83.7 83.4 86.4 80.0 87.6 C 76.8 88.6 73.9 88.6 67.9 88.6 L 20.3 88.6 C 14.5 88.6 11.5 88.6 8.4 87.6 C 5.0 86.4 2.2 83.7 1.0 80.2 C 0.0 77.1 0.0 74.1 0.0 68.2 L 0.0 20.3 C 0.0 14.5 0.0 11.5 1.0 8.4 C 2.2 5.0 5.0 2.2 8.4 1.0 C 11.5 0.0 14.5 0.0 20.4 0.0 Z M 20.3 0.0 " fill="none" stroke="#FF2600" stroke-width="3.00" stroke-dasharray="3.0, 3.0" transform="matrix(1.00, 0.00, 0.00, -1.00, 862.1, 428.3)"></path></g></svg>