<?xml version="1.0" encoding="UTF-8" standalone="no"?><svg xmlns="http://www.w3.org/2000/svg" xmlns:xlink="http://www.w3.org/1999/xlink" clip-rule="evenodd" stroke-miterlimit="4.00" viewBox="0 0 1024 768"><desc>SVG generated by Keynote</desc><defs></defs><g transform="matrix(1.00, 0.00, -0.00, -1.00, 0.0, 768.0)"><g><clipPath id="clip-346"><path d="M 0.0 768.0 L 1024.0 768.0 L 1024.0 0.0 L 0.0 0.0 Z M 0.0 768.0 "></path></clipPath><g clip-path="url(#clip-346)"><image xlink:href="../../A6AB71EB-7077-4CA4-A4BC-733F3D27A118/assets/AC8A38799F83CDE46BAD7F0B4FE74D5F.jpeg" width="1024.00" height="768.00" transform="matrix(1.00, 0.00, -0.00, -1.00, 0.0, 768.0)"></image></g></g><text xml:space="preserve" font-family="Futura-Medium" font-size="104.0" fill="#5B5753" transform="matrix(1.00, 0.00, -0.00, -1.00, 96.0, 344.0)">H</text><text xml:space="preserve" font-family="Futura-Medium" font-size="104.0" fill="#5B5753" transform="matrix(1.00, 0.00, -0.00, -1.00, 174.4, 344.0)">O</text><text xml:space="preserve" font-family="Futura-Medium" font-size="104.0" fill="#5B5753" transform="matrix(1.00, 0.00, -0.00, -1.00, 266.0, 344.0)">W</text><text xml:space="preserve" font-family="Futura-Medium" font-size="104.0" fill="#5B5753" transform="matrix(1.00, 0.00, -0.00, -1.00, 378.3, 344.0)"> </text><text xml:space="preserve" font-family="Futura-Medium" font-size="104.0" fill="#5B5753" transform="matrix(1.00, 0.00, -0.00, -1.00, 412.4, 344.0)">I</text><text xml:space="preserve" font-family="Futura-Medium" font-size="104.0" fill="#5B5753" transform="matrix(1.00, 0.00, -0.00, -1.00, 445.1, 344.0)">T</text><text xml:space="preserve" font-family="Futura-Medium" font-size="104.0" fill="#5B5753" transform="matrix(1.00, 0.00, -0.00, -1.00, 497.4, 344.0)"> </text><text xml:space="preserve" font-family="Futura-Medium" font-size="104.0" fill="#5B5753" transform="matrix(1.00, 0.00, -0.00, -1.00, 531.5, 344.0)">W</text><text xml:space="preserve" font-family="Futura-Medium" font-size="104.0" fill="#5B5753" transform="matrix(1.00, 0.00, -0.00, -1.00, 640.3, 344.0)">O</text><text xml:space="preserve" font-family="Futura-Medium" font-size="104.0" fill="#5B5753" transform="matrix(1.00, 0.00, -0.00, -1.00, 735.3, 344.0)">R</text><text xml:space="preserve" font-family="Futura-Medium" font-size="104.0" fill="#5B5753" transform="matrix(1.00, 0.00, -0.00, -1.00, 800.0, 344.0)">K</text><text xml:space="preserve" font-family="Futura-Medium" font-size="104.0" fill="#5B5753" transform="matrix(1.00, 0.00, -0.00, -1.00, 868.0, 344.0)">S</text><text xml:space="preserve" font-family="Futura-Medium" font-size="14.0" fill="#9A958D" transform="matrix(1.00, 0.00, -0.00, -1.00, 504.0, 22.0)">1</text><text xml:space="preserve" font-family="Futura-Medium" font-size="14.0" fill="#9A958D" transform="matrix(1.00, 0.00, -0.00, -1.00, 511.8, 22.0)">2</text><image xlink:href="../../A6AB71EB-7077-4CA4-A4BC-733F3D27A118/assets/869041A4D72A9D33C3AE1818195F4319.png" width="797.00" height="139.00" transform="matrix(0.48, 0.00, -0.00, -0.48, 68.0, 690.0)"></image></g></svg>