<?xml version="1.0" encoding="UTF-8" standalone="no"?><svg xmlns="http://www.w3.org/2000/svg" xmlns:xlink="http://www.w3.org/1999/xlink" clip-rule="evenodd" stroke-miterlimit="4.00" viewBox="0 0 1024 768"><desc>SVG generated by Keynote</desc><defs></defs><g transform="matrix(1.00, 0.00, -0.00, -1.00, 0.0, 768.0)"><g><clipPath id="clip-201"><path d="M 0.0 768.0 L 1024.0 768.0 L 1024.0 0.0 L 0.0 0.0 Z M 0.0 768.0 "></path></clipPath><g clip-path="url(#clip-201)"><image xlink:href="../../A6AB71EB-7077-4CA4-A4BC-733F3D27A118/assets/AC8A38799F83CDE46BAD7F0B4FE74D5F.jpeg" width="1024.00" height="768.00" transform="matrix(1.00, 0.00, -0.00, -1.00, 0.0, 768.0)"></image></g></g><text xml:space="preserve" font-family="HumorSans" font-size="104.0" fill="#5B5753" transform="matrix(1.00, 0.00, -0.00, -1.00, 120.0, 439.0)">T</text><text xml:space="preserve" font-family="HumorSans" font-size="104.0" fill="#5B5753" transform="matrix(1.00, 0.00, -0.00, -1.00, 184.4, 439.0)">H</text><text xml:space="preserve" font-family="HumorSans" font-size="104.0" fill="#5B5753" transform="matrix(1.00, 0.00, -0.00, -1.00, 244.3, 439.0)">A</text><text xml:space="preserve" font-family="HumorSans" font-size="104.0" fill="#5B5753" transform="matrix(1.00, 0.00, -0.00, -1.00, 304.3, 439.0)">N</text><text xml:space="preserve" font-family="HumorSans" font-size="104.0" fill="#5B5753" transform="matrix(1.00, 0.00, -0.00, -1.00, 368.7, 439.0)">K</text><text xml:space="preserve" font-family="HumorSans" font-size="104.0" fill="#5B5753" transform="matrix(1.00, 0.00, -0.00, -1.00, 428.6, 439.0)">S</text><text xml:space="preserve" font-family="HumorSans" font-size="104.0" fill="#5B5753" transform="matrix(1.00, 0.00, -0.00, -1.00, 488.5, 439.0)">!</text><text xml:space="preserve" font-family="Futura-Medium" font-size="14.0" fill="#9A958D" transform="matrix(1.00, 0.00, -0.00, -1.00, 503.0, 22.0)">2</text><text xml:space="preserve" font-family="Futura-Medium" font-size="14.0" fill="#9A958D" transform="matrix(1.00, 0.00, -0.00, -1.00, 511.8, 22.0)">4</text><image xlink:href="../../A6AB71EB-7077-4CA4-A4BC-733F3D27A118/assets/869041A4D72A9D33C3AE1818195F4319.png" width="797.00" height="139.00" transform="matrix(0.48, 0.00, -0.00, -0.48, 68.0, 690.0)"></image><g><clipPath id="clip-202"><path d="M 630.5 323.9 L 799.0 323.9 L 799.0 468.3 L 630.5 468.3 Z M 630.5 323.9 "></path></clipPath><g clip-path="url(#clip-202)"><path d="M 32.0 0.0 L 131.5 0.0 C 140.7 0.0 145.3 0.0 150.3 1.6 C 155.7 3.5 159.9 7.8 161.9 13.2 C 163.5 18.1 163.5 22.8 163.5 32.1 L 163.5 107.4 C 163.5 116.6 163.5 121.2 161.9 126.2 C 159.9 131.6 155.7 135.8 150.3 137.8 C 145.3 139.4 140.7 139.4 131.4 139.4 L 32.0 139.4 C 22.8 139.4 18.1 139.4 13.2 137.8 C 7.8 135.8 3.5 131.6 1.6 126.2 C 0.0 121.2 0.0 116.6 0.0 107.3 L 0.0 32.0 C 0.0 22.8 0.0 18.1 1.6 13.2 C 3.5 7.8 7.8 3.5 13.2 1.6 C 18.1 0.0 22.8 0.0 32.1 0.0 Z M 32.0 0.0 " fill="none" stroke="#5B5753" stroke-width="3.00" transform="matrix(1.00, 0.00, 0.00, -1.00, 633.0, 465.8)"></path></g></g><g><clipPath id="clip-203"><path d="M 627.5 326.4 L 802.0 326.4 L 802.0 465.8 L 627.5 465.8 Z M 627.5 326.4 "></path></clipPath><g clip-path="url(#clip-203)"><text xml:space="preserve" font-family="Futura-Medium" font-size="34.0" fill="#F37626" transform="matrix(1.00, 0.00, -0.00, -1.00, 679.0, 383.0)">H</text><text xml:space="preserve" font-family="Futura-Medium" font-size="34.0" fill="#F37626" transform="matrix(1.00, 0.00, -0.00, -1.00, 704.6, 383.0)">U</text><text xml:space="preserve" font-family="Futura-Medium" font-size="34.0" fill="#F37626" transform="matrix(1.00, 0.00, -0.00, -1.00, 730.4, 383.0)">B</text></g></g><g><clipPath id="clip-204"><path d="M 827.0 270.0 L 884.0 270.0 L 884.0 205.0 L 827.0 205.0 Z M 827.5 270.0 "></path></clipPath><g clip-path="url(#clip-204)"><g><clipPath id="clip-205"><path d="M 827.5 204.7 L 883.9 204.7 L 883.9 270.0 L 827.5 270.0 Z M 827.5 204.7 "></path></clipPath><g clip-path="url(#clip-205)"><image xlink:href="../../239C642B-A6A2-4F69-9F57-A3F2235CE1B1/assets/6F7E3E4165FBC596A84F39DA6CB74DB3.png" width="66.00" height="66.00" transform="matrix(0.98, 0.00, -0.00, -0.98, 882.0, 255.0)"></image></g></g></g></g><g><clipPath id="clip-206"><path d="M 518.1 -5.2 L 968.0 -5.2 L 968.0 352.4 L 518.1 352.4 Z M 518.1 -5.2 "></path></clipPath><g clip-path="url(#clip-206)"><image xlink:href="B1FBF2A0A37523D560F80495FDD65FC8.png" width="450.00" height="358.00" transform="matrix(1.00, 0.00, -0.00, -1.00, 518.1, 352.4)"></image></g></g><g><clipPath id="clip-207"><path d="M 558.0 261.0 L 928.0 261.0 L 928.0 88.0 L 558.0 88.0 Z M 558.1 261.0 "></path></clipPath><g clip-path="url(#clip-207)"><g><clipPath id="clip-208"><path d="M 518.1 -5.2 L 968.0 -5.2 L 968.0 352.4 L 518.1 352.4 Z M 518.1 -5.2 "></path></clipPath><g clip-path="url(#clip-208)"><image xlink:href="../../239C642B-A6A2-4F69-9F57-A3F2235CE1B1/assets/35E2F81DBE0CC115AA442C713F44769B.png" width="373.00" height="175.00" transform="matrix(0.99, 0.00, -0.00, -0.99, 558.0, 261.0)"></image></g></g></g></g><g><clipPath id="clip-209"><path d="M 548.0 236.0 L 600.0 236.0 L 600.0 184.0 L 548.0 184.0 Z M 548.1 236.1 "></path></clipPath><g clip-path="url(#clip-209)"><g><clipPath id="clip-210"><path d="M 548.1 184.0 L 600.3 184.0 L 600.3 236.1 L 548.1 236.1 Z M 548.1 184.0 "></path></clipPath><g clip-path="url(#clip-210)"><image xlink:href="../../239C642B-A6A2-4F69-9F57-A3F2235CE1B1/assets/6F7E3E4165FBC596A84F39DA6CB74DB3.png" width="66.00" height="66.00" transform="matrix(0.79, 0.00, -0.00, -0.79, 548.0, 236.0)"></image></g></g></g></g><g><clipPath id="clip-211"><path d="M 618.0 298.0 L 671.0 298.0 L 671.0 245.0 L 618.0 245.0 Z M 618.5 297.6 "></path></clipPath><g clip-path="url(#clip-211)"><g><clipPath id="clip-212"><path d="M 618.5 245.4 L 670.7 245.4 L 670.7 297.6 L 618.5 297.6 Z M 618.5 245.4 "></path></clipPath><g clip-path="url(#clip-212)"><image xlink:href="../../239C642B-A6A2-4F69-9F57-A3F2235CE1B1/assets/6F7E3E4165FBC596A84F39DA6CB74DB3.png" width="66.00" height="66.00" transform="matrix(0.80, 0.00, -0.00, -0.80, 618.0, 298.0)"></image></g></g></g></g><g><clipPath id="clip-213"><path d="M 689.0 249.0 L 741.0 249.0 L 741.0 197.0 L 689.0 197.0 Z M 688.6 249.0 "></path></clipPath><g clip-path="url(#clip-213)"><g><clipPath id="clip-214"><path d="M 688.6 196.8 L 740.8 196.8 L 740.8 249.0 L 688.6 249.0 Z M 688.6 196.8 "></path></clipPath><g clip-path="url(#clip-214)"><image xlink:href="../../239C642B-A6A2-4F69-9F57-A3F2235CE1B1/assets/6F7E3E4165FBC596A84F39DA6CB74DB3.png" width="66.00" height="66.00" transform="matrix(0.79, 0.00, -0.00, -0.79, 689.0, 249.0)"></image></g></g></g></g><g><clipPath id="clip-215"><path d="M 755.0 256.0 L 807.0 256.0 L 807.0 204.0 L 755.0 204.0 Z M 754.8 256.0 "></path></clipPath><g clip-path="url(#clip-215)"><g><clipPath id="clip-216"><path d="M 754.8 203.8 L 807.0 203.8 L 807.0 256.0 L 754.8 256.0 Z M 754.8 203.8 "></path></clipPath><g clip-path="url(#clip-216)"><image xlink:href="../../239C642B-A6A2-4F69-9F57-A3F2235CE1B1/assets/6F7E3E4165FBC596A84F39DA6CB74DB3.png" width="66.00" height="66.00" transform="matrix(0.79, 0.00, -0.00, -0.79, 755.0, 256.0)"></image></g></g></g></g><g><clipPath id="clip-217"><path d="M 809.0 256.0 L 861.0 256.0 L 861.0 204.0 L 809.0 204.0 Z M 808.9 256.0 "></path></clipPath><g clip-path="url(#clip-217)"><g><clipPath id="clip-218"><path d="M 808.9 203.8 L 861.1 203.8 L 861.1 256.0 L 808.9 256.0 Z M 808.9 203.8 "></path></clipPath><g clip-path="url(#clip-218)"><image xlink:href="../../239C642B-A6A2-4F69-9F57-A3F2235CE1B1/assets/6F7E3E4165FBC596A84F39DA6CB74DB3.png" width="66.00" height="66.00" transform="matrix(0.79, 0.00, -0.00, -0.79, 809.0, 256.0)"></image></g></g></g></g><g><clipPath id="clip-219"><path d="M 872.0 242.0 L 924.0 242.0 L 924.0 189.0 L 872.0 189.0 Z M 871.6 241.6 "></path></clipPath><g clip-path="url(#clip-219)"><g><clipPath id="clip-220"><path d="M 871.6 189.4 L 923.8 189.4 L 923.8 241.6 L 871.6 241.6 Z M 871.6 189.4 "></path></clipPath><g clip-path="url(#clip-220)"><image xlink:href="../../239C642B-A6A2-4F69-9F57-A3F2235CE1B1/assets/6F7E3E4165FBC596A84F39DA6CB74DB3.png" width="66.00" height="66.00" transform="matrix(0.79, 0.00, -0.00, -0.80, 872.0, 242.0)"></image></g></g></g></g></g></svg>