<?xml version="1.0" encoding="UTF-8" standalone="no"?><svg xmlns="http://www.w3.org/2000/svg" xmlns:xlink="http://www.w3.org/1999/xlink" clip-rule="evenodd" stroke-miterlimit="4.00" viewBox="0 0 1024 768"><desc>SVG generated by Keynote</desc><defs></defs><g transform="matrix(1.00, 0.00, -0.00, -1.00, 0.0, 768.0)"><g><clipPath id="clip-590"><path d="M 0.0 768.0 L 1024.0 768.0 L 1024.0 0.0 L 0.0 0.0 Z M 0.0 768.0 "></path></clipPath><g clip-path="url(#clip-590)"><image xlink:href="../../A6AB71EB-7077-4CA4-A4BC-733F3D27A118/assets/AC8A38799F83CDE46BAD7F0B4FE74D5F.jpeg" width="1024.00" height="768.00" transform="matrix(1.00, 0.00, -0.00, -1.00, 0.0, 768.0)"></image></g></g><text xml:space="preserve" font-family="HumorSans" font-size="104.0" fill="#521B92" transform="matrix(1.00, 0.00, -0.00, -1.00, 126.0, 379.0)">T</text><text xml:space="preserve" font-family="HumorSans" font-size="104.0" fill="#521B92" transform="matrix(1.00, 0.00, -0.00, -1.00, 190.4, 379.0)">H</text><text xml:space="preserve" font-family="HumorSans" font-size="104.0" fill="#521B92" transform="matrix(1.00, 0.00, -0.00, -1.00, 250.3, 379.0)">A</text><text xml:space="preserve" font-family="HumorSans" font-size="104.0" fill="#521B92" transform="matrix(1.00, 0.00, -0.00, -1.00, 310.3, 379.0)">N</text><text xml:space="preserve" font-family="HumorSans" font-size="104.0" fill="#521B92" transform="matrix(1.00, 0.00, -0.00, -1.00, 374.7, 379.0)">K</text><text xml:space="preserve" font-family="HumorSans" font-size="104.0" fill="#521B92" transform="matrix(1.00, 0.00, -0.00, -1.00, 434.6, 379.0)">S</text><text xml:space="preserve" font-family="HumorSans" font-size="104.0" fill="#521B92" transform="matrix(1.00, 0.00, -0.00, -1.00, 494.5, 379.0)">!</text><text xml:space="preserve" font-family="Futura-Medium" font-size="14.0" fill="#9A958D" transform="matrix(1.00, 0.00, -0.00, -1.00, 503.0, 22.0)">2</text><text xml:space="preserve" font-family="Futura-Medium" font-size="14.0" fill="#9A958D" transform="matrix(1.00, 0.00, -0.00, -1.00, 511.9, 22.0)">6</text><image xlink:href="../../A6AB71EB-7077-4CA4-A4BC-733F3D27A118/assets/869041A4D72A9D33C3AE1818195F4319.png" width="797.00" height="139.00" transform="matrix(0.88, 0.00, -0.00, -0.89, 161.0, 694.0)"></image><g><clipPath id="clip-591"><path d="M 641.2 417.7 L 809.6 417.7 L 809.6 562.1 L 641.2 562.1 Z M 641.2 417.7 "></path></clipPath><g clip-path="url(#clip-591)"><path d="M 32.0 0.0 L 131.5 0.0 C 140.7 0.0 145.3 0.0 150.3 1.6 C 155.7 3.5 159.9 7.8 161.9 13.2 C 163.5 18.1 163.5 22.8 163.5 32.1 L 163.5 107.4 C 163.5 116.6 163.5 121.2 161.9 126.2 C 159.9 131.6 155.7 135.8 150.3 137.8 C 145.3 139.4 140.7 139.4 131.4 139.4 L 32.0 139.4 C 22.8 139.4 18.1 139.4 13.2 137.8 C 7.8 135.8 3.5 131.6 1.6 126.2 C 0.0 121.2 0.0 116.6 0.0 107.3 L 0.0 32.0 C 0.0 22.8 0.0 18.1 1.6 13.2 C 3.5 7.8 7.8 3.5 13.2 1.6 C 18.1 0.0 22.8 0.0 32.1 0.0 Z M 32.0 0.0 " fill="none" stroke="#5B5753" stroke-width="3.00" transform="matrix(1.00, 0.00, 0.00, -1.00, 643.7, 559.6)"></path></g></g><g><clipPath id="clip-592"><path d="M 638.1 420.2 L 812.7 420.2 L 812.7 559.6 L 638.1 559.6 Z M 638.1 420.2 "></path></clipPath><g clip-path="url(#clip-592)"><text xml:space="preserve" font-family="Futura-Medium" font-size="34.0" fill="#F37626" transform="matrix(1.00, 0.00, -0.00, -1.00, 690.0, 477.0)">H</text><text xml:space="preserve" font-family="Futura-Medium" font-size="34.0" fill="#F37626" transform="matrix(1.00, 0.00, -0.00, -1.00, 715.6, 477.0)">U</text><text xml:space="preserve" font-family="Futura-Medium" font-size="34.0" fill="#F37626" transform="matrix(1.00, 0.00, -0.00, -1.00, 741.4, 477.0)">B</text></g></g><g><clipPath id="clip-593"><path d="M 838.0 364.0 L 895.0 364.0 L 895.0 298.0 L 838.0 298.0 Z M 838.1 363.8 "></path></clipPath><g clip-path="url(#clip-593)"><g><clipPath id="clip-594"><path d="M 838.1 298.5 L 894.6 298.5 L 894.6 363.8 L 838.1 363.8 Z M 838.1 298.5 "></path></clipPath><g clip-path="url(#clip-594)"><image xlink:href="../../4BF76EC9-5E48-4B54-A71A-844D46C56D5B/assets/71CD65F904C7BFEA1415999BD014DEFB.png" width="68.00" height="68.00" transform="matrix(0.97, 0.00, -0.00, -0.96, 892.0, 349.0)"></image></g></g></g></g><g><clipPath id="clip-595"><path d="M 528.8 88.5 L 978.7 88.5 L 978.7 446.2 L 528.8 446.2 Z M 528.8 88.5 "></path></clipPath><g clip-path="url(#clip-595)"><image xlink:href="255A7B4D6207107C8322B76B7C0F5292.png" width="450.00" height="358.00" transform="matrix(1.00, 0.00, -0.00, -1.00, 528.8, 446.2)"></image></g></g><g><clipPath id="clip-596"><path d="M 569.0 355.0 L 939.0 355.0 L 939.0 181.0 L 569.0 181.0 Z M 568.8 354.8 "></path></clipPath><g clip-path="url(#clip-596)"><g><clipPath id="clip-597"><path d="M 528.8 88.5 L 978.7 88.5 L 978.7 446.2 L 528.8 446.2 Z M 528.8 88.5 "></path></clipPath><g clip-path="url(#clip-597)"><image xlink:href="../../239C642B-A6A2-4F69-9F57-A3F2235CE1B1/assets/35E2F81DBE0CC115AA442C713F44769B.png" width="373.00" height="175.00" transform="matrix(0.99, 0.00, -0.00, -0.99, 569.0, 355.0)"></image></g></g></g></g><g><clipPath id="clip-598"><path d="M 559.0 330.0 L 611.0 330.0 L 611.0 278.0 L 559.0 278.0 Z M 558.7 329.9 "></path></clipPath><g clip-path="url(#clip-598)"><g><clipPath id="clip-599"><path d="M 558.7 277.7 L 610.9 277.7 L 610.9 329.9 L 558.7 329.9 Z M 558.7 277.7 "></path></clipPath><g clip-path="url(#clip-599)"><image xlink:href="../../4BF76EC9-5E48-4B54-A71A-844D46C56D5B/assets/71CD65F904C7BFEA1415999BD014DEFB.png" width="68.00" height="68.00" transform="matrix(0.76, 0.00, -0.00, -0.76, 559.0, 330.0)"></image></g></g></g></g><g><clipPath id="clip-600"><path d="M 629.0 391.0 L 681.0 391.0 L 681.0 339.0 L 629.0 339.0 Z M 629.1 391.4 "></path></clipPath><g clip-path="url(#clip-600)"><g><clipPath id="clip-601"><path d="M 629.1 339.2 L 681.3 339.2 L 681.3 391.4 L 629.1 391.4 Z M 629.1 339.2 "></path></clipPath><g clip-path="url(#clip-601)"><image xlink:href="../../4BF76EC9-5E48-4B54-A71A-844D46C56D5B/assets/71CD65F904C7BFEA1415999BD014DEFB.png" width="68.00" height="68.00" transform="matrix(0.76, 0.00, -0.00, -0.76, 629.0, 391.0)"></image></g></g></g></g><g><clipPath id="clip-602"><path d="M 699.0 343.0 L 752.0 343.0 L 752.0 291.0 L 699.0 291.0 Z M 699.3 342.8 "></path></clipPath><g clip-path="url(#clip-602)"><g><clipPath id="clip-603"><path d="M 699.3 290.6 L 751.5 290.6 L 751.5 342.8 L 699.3 342.8 Z M 699.3 290.6 "></path></clipPath><g clip-path="url(#clip-603)"><image xlink:href="../../4BF76EC9-5E48-4B54-A71A-844D46C56D5B/assets/71CD65F904C7BFEA1415999BD014DEFB.png" width="68.00" height="68.00" transform="matrix(0.78, 0.00, -0.00, -0.76, 699.0, 343.0)"></image></g></g></g></g><g><clipPath id="clip-604"><path d="M 766.0 350.0 L 818.0 350.0 L 818.0 298.0 L 766.0 298.0 Z M 765.5 349.8 "></path></clipPath><g clip-path="url(#clip-604)"><g><clipPath id="clip-605"><path d="M 765.5 297.6 L 817.7 297.6 L 817.7 349.8 L 765.5 349.8 Z M 765.5 297.6 "></path></clipPath><g clip-path="url(#clip-605)"><image xlink:href="../../4BF76EC9-5E48-4B54-A71A-844D46C56D5B/assets/71CD65F904C7BFEA1415999BD014DEFB.png" width="68.00" height="68.00" transform="matrix(0.78, 0.00, -0.00, -0.76, 765.0, 350.0)"></image></g></g></g></g><g><clipPath id="clip-606"><path d="M 820.0 350.0 L 872.0 350.0 L 872.0 298.0 L 820.0 298.0 Z M 819.5 349.8 "></path></clipPath><g clip-path="url(#clip-606)"><g><clipPath id="clip-607"><path d="M 819.5 297.6 L 871.7 297.6 L 871.7 349.8 L 819.5 349.8 Z M 819.5 297.6 "></path></clipPath><g clip-path="url(#clip-607)"><image xlink:href="../../4BF76EC9-5E48-4B54-A71A-844D46C56D5B/assets/71CD65F904C7BFEA1415999BD014DEFB.png" width="68.00" height="68.00" transform="matrix(0.76, 0.00, -0.00, -0.76, 820.0, 350.0)"></image></g></g></g></g><g><clipPath id="clip-608"><path d="M 882.0 335.0 L 934.0 335.0 L 934.0 283.0 L 882.0 283.0 Z M 882.2 335.4 "></path></clipPath><g clip-path="url(#clip-608)"><g><clipPath id="clip-609"><path d="M 882.2 283.2 L 934.4 283.2 L 934.4 335.4 L 882.2 335.4 Z M 882.2 283.2 "></path></clipPath><g clip-path="url(#clip-609)"><image xlink:href="../../4BF76EC9-5E48-4B54-A71A-844D46C56D5B/assets/71CD65F904C7BFEA1415999BD014DEFB.png" width="68.00" height="68.00" transform="matrix(0.76, 0.00, -0.00, -0.76, 882.0, 335.0)"></image></g></g></g></g><text xml:space="preserve" font-family="Futura-Medium" font-size="24.0" fill="#000000" transform="matrix(1.00, 0.00, -0.00, -1.00, 76.0, 211.0)">C</text><text xml:space="preserve" font-family="Futura-Medium" font-size="24.0" fill="#000000" transform="matrix(1.00, 0.00, -0.00, -1.00, 92.8, 211.0)">a</text><text xml:space="preserve" font-family="Futura-Medium" font-size="24.0" fill="#000000" transform="matrix(1.00, 0.00, -0.00, -1.00, 107.2, 211.0)">r</text><text xml:space="preserve" font-family="Futura-Medium" font-size="24.0" fill="#000000" transform="matrix(1.00, 0.00, -0.00, -1.00, 116.0, 211.0)">o</text><text xml:space="preserve" font-family="Futura-Medium" font-size="24.0" fill="#000000" transform="matrix(1.00, 0.00, -0.00, -1.00, 130.4, 211.0)">l</text><text xml:space="preserve" font-family="Futura-Medium" font-size="24.0" fill="#000000" transform="matrix(1.00, 0.00, -0.00, -1.00, 136.4, 211.0)"> </text><text xml:space="preserve" font-family="Futura-Medium" font-size="24.0" fill="#000000" transform="matrix(1.00, 0.00, -0.00, -1.00, 143.8, 211.0)">W</text><text xml:space="preserve" font-family="Futura-Medium" font-size="24.0" fill="#000000" transform="matrix(1.00, 0.00, -0.00, -1.00, 169.4, 211.0)">i</text><text xml:space="preserve" font-family="Futura-Medium" font-size="24.0" fill="#000000" transform="matrix(1.00, 0.00, -0.00, -1.00, 175.4, 211.0)">l</text><text xml:space="preserve" font-family="Futura-Medium" font-size="24.0" fill="#000000" transform="matrix(1.00, 0.00, -0.00, -1.00, 181.4, 211.0)">l</text><text xml:space="preserve" font-family="Futura-Medium" font-size="24.0" fill="#000000" transform="matrix(1.00, 0.00, -0.00, -1.00, 187.4, 211.0)">i</text><text xml:space="preserve" font-family="Futura-Medium" font-size="24.0" fill="#000000" transform="matrix(1.00, 0.00, -0.00, -1.00, 193.3, 211.0)">n</text><text xml:space="preserve" font-family="Futura-Medium" font-size="24.0" fill="#000000" transform="matrix(1.00, 0.00, -0.00, -1.00, 206.5, 211.0)">g</text><text xml:space="preserve" font-family="Futura-Medium" font-size="24.0" fill="#000000" transform="matrix(1.00, 0.00, -0.00, -1.00, 220.9, 211.0)"> </text><text xml:space="preserve" font-family="Futura-Medium" font-size="24.0" fill="#5B5753" transform="matrix(1.00, 0.00, -0.00, -1.00, 76.0, 179.0)">P</text><text xml:space="preserve" font-family="Futura-Medium" font-size="24.0" fill="#5B5753" transform="matrix(1.00, 0.00, -0.00, -1.00, 89.0, 179.0)">r</text><text xml:space="preserve" font-family="Futura-Medium" font-size="24.0" fill="#5B5753" transform="matrix(1.00, 0.00, -0.00, -1.00, 97.7, 179.0)">o</text><text xml:space="preserve" font-family="Futura-Medium" font-size="24.0" fill="#5B5753" transform="matrix(1.00, 0.00, -0.00, -1.00, 112.2, 179.0)">j</text><text xml:space="preserve" font-family="Futura-Medium" font-size="24.0" fill="#5B5753" transform="matrix(1.00, 0.00, -0.00, -1.00, 118.1, 179.0)">e</text><text xml:space="preserve" font-family="Futura-Medium" font-size="24.0" fill="#5B5753" transform="matrix(1.00, 0.00, -0.00, -1.00, 131.4, 179.0)">c</text><text xml:space="preserve" font-family="Futura-Medium" font-size="24.0" fill="#5B5753" transform="matrix(1.00, 0.00, -0.00, -1.00, 142.8, 179.0)">t</text><text xml:space="preserve" font-family="Futura-Medium" font-size="24.0" fill="#5B5753" transform="matrix(1.00, 0.00, -0.00, -1.00, 149.4, 179.0)"> </text><text xml:space="preserve" font-family="Futura-Medium" font-size="24.0" fill="#5B5753" transform="matrix(1.00, 0.00, -0.00, -1.00, 156.8, 179.0)">J</text><text xml:space="preserve" font-family="Futura-Medium" font-size="24.0" fill="#5B5753" transform="matrix(1.00, 0.00, -0.00, -1.00, 166.7, 179.0)">u</text><text xml:space="preserve" font-family="Futura-Medium" font-size="24.0" fill="#5B5753" transform="matrix(1.00, 0.00, -0.00, -1.00, 179.7, 179.0)">p</text><text xml:space="preserve" font-family="Futura-Medium" font-size="24.0" fill="#5B5753" transform="matrix(1.00, 0.00, -0.00, -1.00, 193.6, 179.0)">y</text><text xml:space="preserve" font-family="Futura-Medium" font-size="24.0" fill="#5B5753" transform="matrix(1.00, 0.00, -0.00, -1.00, 206.7, 179.0)">t</text><text xml:space="preserve" font-family="Futura-Medium" font-size="24.0" fill="#5B5753" transform="matrix(1.00, 0.00, -0.00, -1.00, 213.4, 179.0)">e</text><text xml:space="preserve" font-family="Futura-Medium" font-size="24.0" fill="#5B5753" transform="matrix(1.00, 0.00, -0.00, -1.00, 226.7, 179.0)">r</text><text xml:space="preserve" font-family="Futura-Medium" font-size="24.0" fill="#5B5753" transform="matrix(1.00, 0.00, -0.00, -1.00, 235.7, 179.0)"> </text><text xml:space="preserve" font-family="Futura-Medium" font-size="24.0" fill="#5B5753" transform="matrix(1.00, 0.00, -0.00, -1.00, 243.1, 179.0)">a</text><text xml:space="preserve" font-family="Futura-Medium" font-size="24.0" fill="#5B5753" transform="matrix(1.00, 0.00, -0.00, -1.00, 257.5, 179.0)">t</text><text xml:space="preserve" font-family="Futura-Medium" font-size="24.0" fill="#5B5753" transform="matrix(1.00, 0.00, -0.00, -1.00, 264.1, 179.0)"> </text><text xml:space="preserve" font-family="Futura-Medium" font-size="24.0" fill="#5B5753" transform="matrix(1.00, 0.00, -0.00, -1.00, 271.5, 179.0)">C</text><text xml:space="preserve" font-family="Futura-Medium" font-size="24.0" fill="#5B5753" transform="matrix(1.00, 0.00, -0.00, -1.00, 288.3, 179.0)">a</text><text xml:space="preserve" font-family="Futura-Medium" font-size="24.0" fill="#5B5753" transform="matrix(1.00, 0.00, -0.00, -1.00, 302.6, 179.0)">l</text><text xml:space="preserve" font-family="Futura-Medium" font-size="24.0" fill="#5B5753" transform="matrix(1.00, 0.00, -0.00, -1.00, 308.6, 179.0)"> </text><text xml:space="preserve" font-family="Futura-Medium" font-size="24.0" fill="#5B5753" transform="matrix(1.00, 0.00, -0.00, -1.00, 316.0, 179.0)">P</text><text xml:space="preserve" font-family="Futura-Medium" font-size="24.0" fill="#5B5753" transform="matrix(1.00, 0.00, -0.00, -1.00, 328.3, 179.0)">o</text><text xml:space="preserve" font-family="Futura-Medium" font-size="24.0" fill="#5B5753" transform="matrix(1.00, 0.00, -0.00, -1.00, 342.7, 179.0)">l</text><text xml:space="preserve" font-family="Futura-Medium" font-size="24.0" fill="#5B5753" transform="matrix(1.00, 0.00, -0.00, -1.00, 348.9, 179.0)">y</text><text xml:space="preserve" font-family="Futura-Medium" font-size="24.0" fill="#5B5753" transform="matrix(1.00, 0.00, -0.00, -1.00, 362.0, 179.0)"> </text><text xml:space="preserve" font-family="Futura-Medium" font-size="24.0" fill="#5B5753" transform="matrix(1.00, 0.00, -0.00, -1.00, 369.4, 179.0)">S</text><text xml:space="preserve" font-family="Futura-Medium" font-size="24.0" fill="#5B5753" transform="matrix(1.00, 0.00, -0.00, -1.00, 383.3, 179.0)">L</text><text xml:space="preserve" font-family="Futura-Medium" font-size="24.0" fill="#5B5753" transform="matrix(1.00, 0.00, -0.00, -1.00, 393.3, 179.0)">O</text><text xml:space="preserve" font-family="Futura-Medium" font-size="24.0" fill="#5B5753" transform="matrix(1.00, 0.00, -0.00, -1.00, 78.0, 139.0)">T</text><text xml:space="preserve" font-family="Futura-Medium" font-size="24.0" fill="#5B5753" transform="matrix(1.00, 0.00, -0.00, -1.00, 88.5, 139.0)">w</text><text xml:space="preserve" font-family="Futura-Medium" font-size="24.0" fill="#5B5753" transform="matrix(1.00, 0.00, -0.00, -1.00, 107.1, 139.0)">i</text><text xml:space="preserve" font-family="Futura-Medium" font-size="24.0" fill="#5B5753" transform="matrix(1.00, 0.00, -0.00, -1.00, 113.1, 139.0)">t</text><text xml:space="preserve" font-family="Futura-Medium" font-size="24.0" fill="#5B5753" transform="matrix(1.00, 0.00, -0.00, -1.00, 119.6, 139.0)">t</text><text xml:space="preserve" font-family="Futura-Medium" font-size="24.0" fill="#5B5753" transform="matrix(1.00, 0.00, -0.00, -1.00, 126.4, 139.0)">e</text><text xml:space="preserve" font-family="Futura-Medium" font-size="24.0" fill="#5B5753" transform="matrix(1.00, 0.00, -0.00, -1.00, 139.7, 139.0)">r</text><text xml:space="preserve" font-family="Futura-Medium" font-size="24.0" fill="#5B5753" transform="matrix(1.00, 0.00, -0.00, -1.00, 149.0, 139.0)">:</text><text xml:space="preserve" font-family="Futura-Medium" font-size="24.0" fill="#5B5753" transform="matrix(1.00, 0.00, -0.00, -1.00, 156.4, 139.0)"> </text><text xml:space="preserve" font-family="Futura-Medium" font-size="24.0" fill="#5B5753" transform="matrix(1.00, 0.00, -0.00, -1.00, 163.8, 139.0)">@</text><text xml:space="preserve" font-family="Futura-Medium" font-size="24.0" fill="#5B5753" transform="matrix(1.00, 0.00, -0.00, -1.00, 185.0, 139.0)">w</text><text xml:space="preserve" font-family="Futura-Medium" font-size="24.0" fill="#5B5753" transform="matrix(1.00, 0.00, -0.00, -1.00, 203.5, 139.0)">i</text><text xml:space="preserve" font-family="Futura-Medium" font-size="24.0" fill="#5B5753" transform="matrix(1.00, 0.00, -0.00, -1.00, 209.5, 139.0)">l</text><text xml:space="preserve" font-family="Futura-Medium" font-size="24.0" fill="#5B5753" transform="matrix(1.00, 0.00, -0.00, -1.00, 215.5, 139.0)">l</text><text xml:space="preserve" font-family="Futura-Medium" font-size="24.0" fill="#5B5753" transform="matrix(1.00, 0.00, -0.00, -1.00, 221.5, 139.0)">i</text><text xml:space="preserve" font-family="Futura-Medium" font-size="24.0" fill="#5B5753" transform="matrix(1.00, 0.00, -0.00, -1.00, 227.4, 139.0)">n</text><text xml:space="preserve" font-family="Futura-Medium" font-size="24.0" fill="#5B5753" transform="matrix(1.00, 0.00, -0.00, -1.00, 240.6, 139.0)">g</text><text xml:space="preserve" font-family="Futura-Medium" font-size="24.0" fill="#5B5753" transform="matrix(1.00, 0.00, -0.00, -1.00, 255.0, 139.0)">c</text><text xml:space="preserve" font-family="Futura-Medium" font-size="24.0" fill="#5B5753" transform="matrix(1.00, 0.00, -0.00, -1.00, 266.4, 139.0)">a</text><text xml:space="preserve" font-family="Futura-Medium" font-size="24.0" fill="#5B5753" transform="matrix(1.00, 0.00, -0.00, -1.00, 280.8, 139.0)">r</text><text xml:space="preserve" font-family="Futura-Medium" font-size="24.0" fill="#5B5753" transform="matrix(1.00, 0.00, -0.00, -1.00, 289.5, 139.0)">o</text><text xml:space="preserve" font-family="Futura-Medium" font-size="24.0" fill="#5B5753" transform="matrix(1.00, 0.00, -0.00, -1.00, 304.0, 139.0)">l</text><text xml:space="preserve" font-family="Futura-Medium" font-size="24.0" fill="#5B5753" transform="matrix(1.00, 0.00, -0.00, -1.00, 310.0, 139.0)"> </text><text xml:space="preserve" font-family="Futura-Medium" font-size="24.0" fill="#5B5753" transform="matrix(1.00, 0.00, -0.00, -1.00, 78.0, 107.0)">G</text><text xml:space="preserve" font-family="Futura-Medium" font-size="24.0" fill="#5B5753" transform="matrix(1.00, 0.00, -0.00, -1.00, 98.2, 107.0)">i</text><text xml:space="preserve" font-family="Futura-Medium" font-size="24.0" fill="#5B5753" transform="matrix(1.00, 0.00, -0.00, -1.00, 104.2, 107.0)">t</text><text xml:space="preserve" font-family="Futura-Medium" font-size="24.0" fill="#5B5753" transform="matrix(1.00, 0.00, -0.00, -1.00, 110.8, 107.0)">H</text><text xml:space="preserve" font-family="Futura-Medium" font-size="24.0" fill="#5B5753" transform="matrix(1.00, 0.00, -0.00, -1.00, 128.4, 107.0)">u</text><text xml:space="preserve" font-family="Futura-Medium" font-size="24.0" fill="#5B5753" transform="matrix(1.00, 0.00, -0.00, -1.00, 141.5, 107.0)">b</text><text xml:space="preserve" font-family="Futura-Medium" font-size="24.0" fill="#5B5753" transform="matrix(1.00, 0.00, -0.00, -1.00, 155.8, 107.0)">:</text><text xml:space="preserve" font-family="Futura-Medium" font-size="24.0" fill="#5B5753" transform="matrix(1.00, 0.00, -0.00, -1.00, 163.2, 107.0)"> </text><text xml:space="preserve" font-family="Futura-Medium" font-size="24.0" fill="#5B5753" transform="matrix(1.00, 0.00, -0.00, -1.00, 170.6, 107.0)">@</text><text xml:space="preserve" font-family="Futura-Medium" font-size="24.0" fill="#5B5753" transform="matrix(1.00, 0.00, -0.00, -1.00, 191.8, 107.0)">w</text><text xml:space="preserve" font-family="Futura-Medium" font-size="24.0" fill="#5B5753" transform="matrix(1.00, 0.00, -0.00, -1.00, 210.3, 107.0)">i</text><text xml:space="preserve" font-family="Futura-Medium" font-size="24.0" fill="#5B5753" transform="matrix(1.00, 0.00, -0.00, -1.00, 216.3, 107.0)">l</text><text xml:space="preserve" font-family="Futura-Medium" font-size="24.0" fill="#5B5753" transform="matrix(1.00, 0.00, -0.00, -1.00, 222.3, 107.0)">l</text><text xml:space="preserve" font-family="Futura-Medium" font-size="24.0" fill="#5B5753" transform="matrix(1.00, 0.00, -0.00, -1.00, 228.3, 107.0)">i</text><text xml:space="preserve" font-family="Futura-Medium" font-size="24.0" fill="#5B5753" transform="matrix(1.00, 0.00, -0.00, -1.00, 234.2, 107.0)">n</text><text xml:space="preserve" font-family="Futura-Medium" font-size="24.0" fill="#5B5753" transform="matrix(1.00, 0.00, -0.00, -1.00, 247.4, 107.0)">g</text><text xml:space="preserve" font-family="Futura-Medium" font-size="24.0" fill="#5B5753" transform="matrix(1.00, 0.00, -0.00, -1.00, 261.8, 107.0)">c</text><text xml:space="preserve" font-family="HumorSans" font-size="24.0" fill="#005392" transform="matrix(1.00, 0.00, -0.00, -1.00, 565.0, 154.0)">A</text><text xml:space="preserve" font-family="HumorSans" font-size="24.0" fill="#005392" transform="matrix(1.00, 0.00, -0.00, -1.00, 578.8, 154.0)"> </text><text xml:space="preserve" font-family="HumorSans" font-size="24.0" fill="#005392" transform="matrix(1.00, 0.00, -0.00, -1.00, 590.9, 154.0)">T</text><text xml:space="preserve" font-family="HumorSans" font-size="24.0" fill="#005392" transform="matrix(1.00, 0.00, -0.00, -1.00, 605.7, 154.0)">H</text><text xml:space="preserve" font-family="HumorSans" font-size="24.0" fill="#005392" transform="matrix(1.00, 0.00, -0.00, -1.00, 619.6, 154.0)">I</text><text xml:space="preserve" font-family="HumorSans" font-size="24.0" fill="#005392" transform="matrix(1.00, 0.00, -0.00, -1.00, 624.7, 154.0)">N</text><text xml:space="preserve" font-family="HumorSans" font-size="24.0" fill="#005392" transform="matrix(1.00, 0.00, -0.00, -1.00, 639.5, 154.0)">G</text><text xml:space="preserve" font-family="HumorSans" font-size="24.0" fill="#005392" transform="matrix(1.00, 0.00, -0.00, -1.00, 654.4, 154.0)"> </text><text xml:space="preserve" font-family="HumorSans" font-size="24.0" fill="#005392" transform="matrix(1.00, 0.00, -0.00, -1.00, 666.4, 154.0)">T</text><text xml:space="preserve" font-family="HumorSans" font-size="24.0" fill="#005392" transform="matrix(1.00, 0.00, -0.00, -1.00, 681.3, 154.0)">O</text><text xml:space="preserve" font-family="HumorSans" font-size="24.0" fill="#005392" transform="matrix(1.00, 0.00, -0.00, -1.00, 696.7, 154.0)"> </text><text xml:space="preserve" font-family="HumorSans" font-size="24.0" fill="#005392" transform="matrix(1.00, 0.00, -0.00, -1.00, 708.7, 154.0)">G</text><text xml:space="preserve" font-family="HumorSans" font-size="24.0" fill="#005392" transform="matrix(1.00, 0.00, -0.00, -1.00, 723.6, 154.0)">I</text><text xml:space="preserve" font-family="HumorSans" font-size="24.0" fill="#005392" transform="matrix(1.00, 0.00, -0.00, -1.00, 728.7, 154.0)">V</text><text xml:space="preserve" font-family="HumorSans" font-size="24.0" fill="#005392" transform="matrix(1.00, 0.00, -0.00, -1.00, 742.0, 154.0)">E</text><text xml:space="preserve" font-family="HumorSans" font-size="24.0" fill="#005392" transform="matrix(1.00, 0.00, -0.00, -1.00, 757.9, 154.0)"> </text><text xml:space="preserve" font-family="HumorSans" font-size="24.0" fill="#005392" transform="matrix(1.00, 0.00, -0.00, -1.00, 770.0, 154.0)">E</text><text xml:space="preserve" font-family="HumorSans" font-size="24.0" fill="#005392" transform="matrix(1.00, 0.00, -0.00, -1.00, 785.9, 154.0)">A</text><text xml:space="preserve" font-family="HumorSans" font-size="24.0" fill="#005392" transform="matrix(1.00, 0.00, -0.00, -1.00, 799.7, 154.0)">C</text><text xml:space="preserve" font-family="HumorSans" font-size="24.0" fill="#005392" transform="matrix(1.00, 0.00, -0.00, -1.00, 816.1, 154.0)">H</text><text xml:space="preserve" font-family="HumorSans" font-size="24.0" fill="#005392" transform="matrix(1.00, 0.00, -0.00, -1.00, 830.0, 154.0)"> </text><text xml:space="preserve" font-family="HumorSans" font-size="24.0" fill="#005392" transform="matrix(1.00, 0.00, -0.00, -1.00, 842.0, 154.0)">P</text><text xml:space="preserve" font-family="HumorSans" font-size="24.0" fill="#005392" transform="matrix(1.00, 0.00, -0.00, -1.00, 857.4, 154.0)">E</text><text xml:space="preserve" font-family="HumorSans" font-size="24.0" fill="#005392" transform="matrix(1.00, 0.00, -0.00, -1.00, 873.3, 154.0)">R</text><text xml:space="preserve" font-family="HumorSans" font-size="24.0" fill="#005392" transform="matrix(1.00, 0.00, -0.00, -1.00, 888.7, 154.0)">S</text><text xml:space="preserve" font-family="HumorSans" font-size="24.0" fill="#005392" transform="matrix(1.00, 0.00, -0.00, -1.00, 902.5, 154.0)">O</text><text xml:space="preserve" font-family="HumorSans" font-size="24.0" fill="#005392" transform="matrix(1.00, 0.00, -0.00, -1.00, 917.9, 154.0)">N</text><text xml:space="preserve" font-family="HumorSans" font-size="24.0" fill="#005392" transform="matrix(1.00, 0.00, -0.00, -1.00, 932.8, 154.0)"> </text><text xml:space="preserve" font-family="HumorSans" font-size="24.0" fill="#005392" transform="matrix(1.00, 0.00, -0.00, -1.00, 589.0, 127.0)">T</text><text xml:space="preserve" font-family="HumorSans" font-size="24.0" fill="#005392" transform="matrix(1.00, 0.00, -0.00, -1.00, 603.9, 127.0)">H</text><text xml:space="preserve" font-family="HumorSans" font-size="24.0" fill="#005392" transform="matrix(1.00, 0.00, -0.00, -1.00, 617.7, 127.0)">E</text><text xml:space="preserve" font-family="HumorSans" font-size="24.0" fill="#005392" transform="matrix(1.00, 0.00, -0.00, -1.00, 633.6, 127.0)">I</text><text xml:space="preserve" font-family="HumorSans" font-size="24.0" fill="#005392" transform="matrix(1.00, 0.00, -0.00, -1.00, 638.7, 127.0)">R</text><text xml:space="preserve" font-family="HumorSans" font-size="24.0" fill="#005392" transform="matrix(1.00, 0.00, -0.00, -1.00, 654.1, 127.0)"> </text><text xml:space="preserve" font-family="HumorSans" font-size="24.0" fill="#005392" transform="matrix(1.00, 0.00, -0.00, -1.00, 666.1, 127.0)">O</text><text xml:space="preserve" font-family="HumorSans" font-size="24.0" fill="#005392" transform="matrix(1.00, 0.00, -0.00, -1.00, 681.5, 127.0)">W</text><text xml:space="preserve" font-family="HumorSans" font-size="24.0" fill="#005392" transform="matrix(1.00, 0.00, -0.00, -1.00, 700.5, 127.0)">N</text><text xml:space="preserve" font-family="HumorSans" font-size="24.0" fill="#005392" transform="matrix(1.00, 0.00, -0.00, -1.00, 715.4, 127.0)"> </text><text xml:space="preserve" font-family="HumorSans" font-size="24.0" fill="#005392" transform="matrix(1.00, 0.00, -0.00, -1.00, 727.4, 127.0)">S</text><text xml:space="preserve" font-family="HumorSans" font-size="24.0" fill="#005392" transform="matrix(1.00, 0.00, -0.00, -1.00, 741.3, 127.0)">H</text><text xml:space="preserve" font-family="HumorSans" font-size="24.0" fill="#005392" transform="matrix(1.00, 0.00, -0.00, -1.00, 755.1, 127.0)">I</text><text xml:space="preserve" font-family="HumorSans" font-size="24.0" fill="#005392" transform="matrix(1.00, 0.00, -0.00, -1.00, 760.2, 127.0)">N</text><text xml:space="preserve" font-family="HumorSans" font-size="24.0" fill="#005392" transform="matrix(1.00, 0.00, -0.00, -1.00, 775.1, 127.0)">Y</text><text xml:space="preserve" font-family="HumorSans" font-size="24.0" fill="#005392" transform="matrix(1.00, 0.00, -0.00, -1.00, 790.5, 127.0)"> </text><text xml:space="preserve" font-family="HumorSans" font-size="24.0" fill="#005392" transform="matrix(1.00, 0.00, -0.00, -1.00, 802.5, 127.0)">J</text><text xml:space="preserve" font-family="HumorSans" font-size="24.0" fill="#005392" transform="matrix(1.00, 0.00, -0.00, -1.00, 817.4, 127.0)">U</text><text xml:space="preserve" font-family="HumorSans" font-size="24.0" fill="#005392" transform="matrix(1.00, 0.00, -0.00, -1.00, 831.7, 127.0)">P</text><text xml:space="preserve" font-family="HumorSans" font-size="24.0" fill="#005392" transform="matrix(1.00, 0.00, -0.00, -1.00, 847.1, 127.0)">Y</text><text xml:space="preserve" font-family="HumorSans" font-size="24.0" fill="#005392" transform="matrix(1.00, 0.00, -0.00, -1.00, 862.5, 127.0)">T</text><text xml:space="preserve" font-family="HumorSans" font-size="24.0" fill="#005392" transform="matrix(1.00, 0.00, -0.00, -1.00, 877.4, 127.0)">E</text><text xml:space="preserve" font-family="HumorSans" font-size="24.0" fill="#005392" transform="matrix(1.00, 0.00, -0.00, -1.00, 893.3, 127.0)">R</text><text xml:space="preserve" font-family="HumorSans" font-size="24.0" fill="#005392" transform="matrix(1.00, 0.00, -0.00, -1.00, 908.7, 127.0)"> </text><text xml:space="preserve" font-family="HumorSans" font-size="24.0" fill="#005392" transform="matrix(1.00, 0.00, -0.00, -1.00, 638.0, 100.0)">N</text><text xml:space="preserve" font-family="HumorSans" font-size="24.0" fill="#005392" transform="matrix(1.00, 0.00, -0.00, -1.00, 652.9, 100.0)">O</text><text xml:space="preserve" font-family="HumorSans" font-size="24.0" fill="#005392" transform="matrix(1.00, 0.00, -0.00, -1.00, 668.3, 100.0)">T</text><text xml:space="preserve" font-family="HumorSans" font-size="24.0" fill="#005392" transform="matrix(1.00, 0.00, -0.00, -1.00, 683.1, 100.0)">E</text><text xml:space="preserve" font-family="HumorSans" font-size="24.0" fill="#005392" transform="matrix(1.00, 0.00, -0.00, -1.00, 699.0, 100.0)">B</text><text xml:space="preserve" font-family="HumorSans" font-size="24.0" fill="#005392" transform="matrix(1.00, 0.00, -0.00, -1.00, 713.4, 100.0)">O</text><text xml:space="preserve" font-family="HumorSans" font-size="24.0" fill="#005392" transform="matrix(1.00, 0.00, -0.00, -1.00, 728.8, 100.0)">O</text><text xml:space="preserve" font-family="HumorSans" font-size="24.0" fill="#005392" transform="matrix(1.00, 0.00, -0.00, -1.00, 744.2, 100.0)">K</text><text xml:space="preserve" font-family="HumorSans" font-size="24.0" fill="#005392" transform="matrix(1.00, 0.00, -0.00, -1.00, 758.0, 100.0)"> </text><text xml:space="preserve" font-family="HumorSans" font-size="24.0" fill="#005392" transform="matrix(1.00, 0.00, -0.00, -1.00, 770.1, 100.0)">S</text><text xml:space="preserve" font-family="HumorSans" font-size="24.0" fill="#005392" transform="matrix(1.00, 0.00, -0.00, -1.00, 783.9, 100.0)">E</text><text xml:space="preserve" font-family="HumorSans" font-size="24.0" fill="#005392" transform="matrix(1.00, 0.00, -0.00, -1.00, 799.8, 100.0)">R</text><text xml:space="preserve" font-family="HumorSans" font-size="24.0" fill="#005392" transform="matrix(1.00, 0.00, -0.00, -1.00, 815.2, 100.0)">V</text><text xml:space="preserve" font-family="HumorSans" font-size="24.0" fill="#005392" transform="matrix(1.00, 0.00, -0.00, -1.00, 828.5, 100.0)">E</text><text xml:space="preserve" font-family="HumorSans" font-size="24.0" fill="#005392" transform="matrix(1.00, 0.00, -0.00, -1.00, 844.4, 100.0)">R</text><g><clipPath id="clip-610"><path d="M 557.4 205.0 L 940.0 205.0 L 940.0 60.7 L 557.4 60.7 Z M 557.4 205.0 "></path></clipPath><g clip-path="url(#clip-610)"><path d="M -2.0 31.0 L 392.7 31.0 L 392.7 121.0 L -2.0 121.0 Z M -2.0 31.0 " fill="none" stroke="#000000" stroke-width="1.00" stroke-linejoin="round" stroke-dasharray="1.0, 2.0" transform="matrix(1.00, 0.00, 0.00, -1.00, 553.4, 209.0)"></path></g></g></g></svg>