<?xml version="1.0" encoding="UTF-8" standalone="no"?><svg xmlns="http://www.w3.org/2000/svg" xmlns:xlink="http://www.w3.org/1999/xlink" clip-rule="evenodd" stroke-miterlimit="4.00" viewBox="0 0 1024 768"><desc>SVG generated by Keynote</desc><defs></defs><g transform="matrix(1.00, 0.00, -0.00, -1.00, 0.0, 768.0)"><g><clipPath id="clip-143"><path d="M 0.0 768.0 L 1024.0 768.0 L 1024.0 0.0 L 0.0 0.0 Z M 0.0 768.0 "></path></clipPath><g clip-path="url(#clip-143)"><image xlink:href="../../A6AB71EB-7077-4CA4-A4BC-733F3D27A118/assets/AC8A38799F83CDE46BAD7F0B4FE74D5F.jpeg" width="1024.00" height="768.00" transform="matrix(1.00, 0.00, -0.00, -1.00, 0.0, 768.0)"></image></g></g><image xlink:href="../../D5E685F4-4770-4C64-9BBB-1465ABE5BA95/assets/0198903F4E358BAF9FD54ED3ECE9773C.png" width="497.00" height="1061.00" transform="matrix(1.00, 0.00, -0.00, -1.00, 496.0, 906.2)"></image><g><clipPath id="clip-144"><path d="M 536.0 683.0 L 953.0 683.0 L 953.0 70.0 L 536.0 70.0 Z M 536.0 683.0 "></path></clipPath><g clip-path="url(#clip-144)"><g><clipPath id="clip-145"><path d="M 536.0 586.0 L 953.0 586.0 L 953.0 167.7 L 536.0 167.7 L 536.0 586.0 Z M 536.0 586.0 "></path></clipPath><g clip-path="url(#clip-145)"><g><clipPath id="clip-146"><path d="M 536.0 167.0 L 953.0 167.0 L 953.0 586.0 L 536.0 586.0 Z M 536.0 167.0 "></path></clipPath><g clip-path="url(#clip-146)"><path d="M 536.0 586.0 L 953.0 586.0 L 953.0 167.7 L 536.0 167.7 Z M 536.0 586.0 " fill="#FFFFFF"></path></g></g></g></g></g></g><g><clipPath id="clip-147"><path d="M 536.0 683.0 L 953.0 683.0 L 953.0 70.0 L 536.0 70.0 Z M 536.0 683.0 "></path></clipPath><g clip-path="url(#clip-147)"><g><clipPath id="clip-148"><path d="M 536.0 586.0 L 953.0 586.0 L 953.0 167.7 L 536.0 167.7 L 536.0 586.0 Z M 536.0 586.0 "></path></clipPath><g clip-path="url(#clip-148)"><g><clipPath id="clip-149"><path d="M 536.0 586.0 L 953.0 586.0 L 953.0 167.7 L 536.0 167.7 L 536.0 586.0 Z M 536.0 586.0 "></path></clipPath><g clip-path="url(#clip-149)"><g><clipPath id="clip-150"><path d="M 536.0 167.0 L 953.0 167.0 L 953.0 586.0 L 536.0 586.0 Z M 536.0 167.0 "></path></clipPath><g clip-path="url(#clip-150)"><path d="M 603.6 400.2 L 714.5 400.2 C 727.6 400.2 738.2 389.6 738.2 376.4 L 738.2 215.3 C 738.2 202.1 727.6 191.5 714.5 191.5 L 603.6 191.5 C 590.4 191.5 579.8 202.1 579.8 215.3 L 579.8 376.4 C 579.8 389.6 590.4 400.2 603.6 400.2 Z M 603.6 400.2 " fill="#FFFFFF"></path><path d="M 80.5 222.0 L 213.5 222.0 C 229.2 222.0 242.0 234.8 242.0 250.5 L 242.0 443.5 C 242.0 459.2 229.2 472.0 213.5 472.0 L 80.5 472.0 C 64.8 472.0 52.0 459.2 52.0 443.5 L 52.0 250.5 C 52.0 234.8 64.8 222.0 80.5 222.0 Z M 80.5 222.0 " fill="none" stroke="#000000" stroke-width="1.00" stroke-miterlimit="0.00" transform="matrix(0.83, 0.00, 0.00, -0.83, 536.4, 585.6)"></path><path d="M 829.2 308.4 L 914.2 308.4 C 918.4 308.4 921.7 305.0 921.7 300.9 L 921.7 265.8 C 921.7 261.6 918.4 258.3 914.2 258.3 L 829.2 258.3 C 825.0 258.3 821.6 261.6 821.6 265.8 L 821.6 300.9 C 821.6 305.0 825.0 308.4 829.2 308.4 Z M 829.2 308.4 " fill="#FFFFFF"></path><path d="M 351.0 332.0 L 453.0 332.0 C 458.0 332.0 462.0 336.0 462.0 341.0 L 462.0 383.0 C 462.0 388.0 458.0 392.0 453.0 392.0 L 351.0 392.0 C 346.0 392.0 342.0 388.0 342.0 383.0 L 342.0 341.0 C 342.0 336.0 346.0 332.0 351.0 332.0 Z M 351.0 332.0 " fill="none" stroke="#000000" stroke-width="1.00" stroke-miterlimit="0.00" transform="matrix(0.83, 0.00, 0.00, -0.83, 536.4, 585.6)"></path><path d="M 616.5 383.5 L 701.5 383.5 C 705.7 383.5 709.1 380.2 709.1 376.0 L 709.1 340.9 C 709.1 336.8 705.7 333.4 701.5 333.4 L 616.5 333.4 C 612.3 333.4 609.0 336.8 609.0 340.9 L 609.0 376.0 C 609.0 380.2 612.3 383.5 616.5 383.5 Z M 616.5 383.5 " fill="#66FF66"></path><path d="M 96.0 242.0 L 198.0 242.0 C 203.0 242.0 207.0 246.0 207.0 251.0 L 207.0 293.0 C 207.0 298.0 203.0 302.0 198.0 302.0 L 96.0 302.0 C 91.0 302.0 87.0 298.0 87.0 293.0 L 87.0 251.0 C 87.0 246.0 91.0 242.0 96.0 242.0 Z M 96.0 242.0 " fill="none" stroke="#000000" stroke-width="1.00" stroke-miterlimit="0.00" stroke-dasharray="3.0, 3.0" transform="matrix(0.83, 0.00, 0.00, -0.83, 536.4, 585.6)"></path><path d="M 616.5 283.3 L 701.5 283.3 C 705.7 283.3 709.1 280.0 709.1 275.8 L 709.1 240.7 C 709.1 236.6 705.7 233.2 701.5 233.2 L 616.5 233.2 C 612.3 233.2 609.0 236.6 609.0 240.7 L 609.0 275.8 C 609.0 280.0 612.3 283.3 616.5 283.3 Z M 616.5 283.3 " fill="#A9C3EA"></path><path d="M 96.0 362.0 L 198.0 362.0 C 203.0 362.0 207.0 366.0 207.0 371.0 L 207.0 413.0 C 207.0 418.0 203.0 422.0 198.0 422.0 L 96.0 422.0 C 91.0 422.0 87.0 418.0 87.0 413.0 L 87.0 371.0 C 87.0 366.0 91.0 362.0 96.0 362.0 Z M 96.0 362.0 " fill="none" stroke="#000000" stroke-width="1.00" stroke-miterlimit="0.00" stroke-dasharray="3.0, 3.0" transform="matrix(0.83, 0.00, 0.00, -0.83, 536.4, 585.6)"></path><path d="M 616.5 333.4 L 701.5 333.4 C 705.7 333.4 709.1 330.1 709.1 325.9 L 709.1 290.8 C 709.1 286.7 705.7 283.3 701.5 283.3 L 616.5 283.3 C 612.3 283.3 609.0 286.7 609.0 290.8 L 609.0 325.9 C 609.0 330.1 612.3 333.4 616.5 333.4 Z M 616.5 333.4 " fill="#FFFFFF"></path><path d="M 96.0 302.0 L 198.0 302.0 C 203.0 302.0 207.0 306.0 207.0 311.0 L 207.0 353.0 C 207.0 358.0 203.0 362.0 198.0 362.0 L 96.0 362.0 C 91.0 362.0 87.0 358.0 87.0 353.0 L 87.0 311.0 C 87.0 306.0 91.0 302.0 96.0 302.0 Z M 96.0 302.0 " fill="none" stroke="#000000" stroke-width="1.00" stroke-miterlimit="0.00" stroke-dasharray="3.0, 3.0" transform="matrix(0.83, 0.00, 0.00, -0.83, 536.4, 585.6)"></path><path d="M 583.5 468.7 L 884.6 468.7 C 886.7 468.7 888.4 467.0 888.4 464.9 L 888.4 447.4 C 888.4 445.3 886.7 443.6 884.6 443.6 L 583.5 443.6 C 581.5 443.6 579.8 445.3 579.8 447.4 L 579.8 464.9 C 579.8 467.0 581.5 468.7 583.5 468.7 Z M 583.5 468.7 " fill="#FFFFFF"></path><path d="M 56.5 140.0 L 417.5 140.0 C 420.0 140.0 422.0 142.0 422.0 144.5 L 422.0 165.5 C 422.0 168.0 420.0 170.0 417.5 170.0 L 56.5 170.0 C 54.0 170.0 52.0 168.0 52.0 165.5 L 52.0 144.5 C 52.0 142.0 54.0 140.0 56.5 140.0 Z M 56.5 140.0 " fill="none" stroke="#000000" stroke-width="1.00" stroke-miterlimit="0.00" transform="matrix(0.83, 0.00, 0.00, -0.83, 536.4, 585.6)"></path><path d="M 270.0 170.0 L 270.0 240.0 C 270.0 246.7 273.3 250.0 280.0 250.0 L 392.0 250.0 C 398.7 250.0 402.0 253.3 402.0 260.0 L 402.0 325.6 " fill="none" stroke="#000000" stroke-width="1.00" stroke-miterlimit="0.00" transform="matrix(0.83, 0.00, 0.00, -0.83, 536.4, 585.6)"></path><path d="M 871.7 309.3 L 868.8 315.2 L 871.7 313.7 L 874.6 315.2 L 871.7 309.3 Z M 871.7 309.3 " fill="#000000"></path><path d="M 402.0 330.9 L 398.5 323.9 L 402.0 325.6 L 405.5 323.9 L 402.0 330.9 Z M 402.0 330.9 " fill="none" stroke="#000000" stroke-width="1.00" stroke-miterlimit="0.00" transform="matrix(0.83, 0.00, 0.00, -0.83, 536.4, 585.6)"></path><path d="M 237.0 170.0 L 237.0 190.0 C 237.0 196.7 233.7 200.0 227.0 200.0 L 162.0 200.0 C 155.3 200.0 152.0 202.6 152.0 207.8 L 152.0 215.6 " fill="none" stroke="#000000" stroke-width="1.00" stroke-miterlimit="0.00" transform="matrix(0.83, 0.00, 0.00, -0.83, 536.4, 585.6)"></path><path d="M 663.2 401.2 L 660.3 407.0 L 663.2 405.5 L 666.1 407.0 L 663.2 401.2 Z M 663.2 401.2 " fill="#000000"></path><path d="M 152.0 220.9 L 148.5 213.9 L 152.0 215.6 L 155.5 213.9 L 152.0 220.9 Z M 152.0 220.9 " fill="none" stroke="#000000" stroke-width="1.00" stroke-miterlimit="0.00" transform="matrix(0.83, 0.00, 0.00, -0.83, 536.4, 585.6)"></path><path d="M 691.5 560.5 L 776.6 560.5 C 780.8 560.5 784.1 557.2 784.1 553.0 L 784.1 518.0 C 784.1 513.8 780.8 510.4 776.6 510.4 L 691.5 510.4 C 687.4 510.4 684.0 513.8 684.0 518.0 L 684.0 553.0 C 684.0 557.2 687.4 560.5 691.5 560.5 Z M 691.5 560.5 " fill="#FFFFFF"></path><path d="M 186.0 30.0 L 288.0 30.0 C 293.0 30.0 297.0 34.0 297.0 39.0 L 297.0 81.0 C 297.0 86.0 293.0 90.0 288.0 90.0 L 186.0 90.0 C 181.0 90.0 177.0 86.0 177.0 81.0 L 177.0 39.0 C 177.0 34.0 181.0 30.0 186.0 30.0 Z M 186.0 30.0 " fill="none" stroke="#000000" stroke-width="1.00" stroke-miterlimit="0.00" transform="matrix(0.83, 0.00, 0.00, -0.83, 536.4, 585.6)"></path><path d="M 342.0 362.0 L 248.4 362.0 " fill="none" stroke="#000000" stroke-width="1.00" stroke-miterlimit="0.00" transform="matrix(0.83, 0.00, 0.00, -0.83, 536.4, 585.6)"></path><path d="M 739.2 283.3 L 745.0 286.2 L 743.6 283.3 L 745.0 280.4 L 739.2 283.3 Z M 739.2 283.3 " fill="#000000"></path><path d="M 243.1 362.0 L 250.1 358.5 L 248.4 362.0 L 250.1 365.5 L 243.1 362.0 Z M 243.1 362.0 " fill="none" stroke="#000000" stroke-width="1.00" stroke-miterlimit="0.00" transform="matrix(0.83, 0.00, 0.00, -0.83, 536.4, 585.6)"></path><path d="M 237.0 90.0 L 237.0 133.6 " fill="none" stroke="#000000" stroke-width="1.00" stroke-miterlimit="0.00" transform="matrix(0.83, 0.00, 0.00, -0.83, 536.4, 585.6)"></path><path d="M 734.1 469.6 L 731.2 475.5 L 734.1 474.0 L 737.0 475.5 L 734.1 469.6 Z M 734.1 469.6 " fill="#000000"></path><path d="M 237.0 138.9 L 233.5 131.9 L 237.0 133.6 L 240.5 131.9 L 237.0 138.9 Z M 237.0 138.9 " fill="none" stroke="#000000" stroke-width="1.00" stroke-miterlimit="0.00" transform="matrix(0.83, 0.00, 0.00, -0.83, 536.4, 585.6)"></path></g></g></g></g></g></g></g></g><g><clipPath id="clip-151"><path d="M 536.0 683.0 L 953.0 683.0 L 953.0 70.0 L 536.0 70.0 Z M 536.0 683.0 "></path></clipPath><g clip-path="url(#clip-151)"><g><clipPath id="clip-152"><path d="M 536.0 586.0 L 953.0 586.0 L 953.0 167.7 L 536.0 167.7 L 536.0 586.0 Z M 536.0 586.0 "></path></clipPath><g clip-path="url(#clip-152)"><g><clipPath id="clip-153"><path d="M 536.0 167.0 L 953.0 167.0 L 953.0 586.0 L 536.0 586.0 Z M 536.0 167.0 "></path></clipPath><g clip-path="url(#clip-153)"><path d="M 841.0 290.9 L 843.1 290.9 L 846.9 284.1 L 846.9 290.9 L 848.8 290.9 L 848.8 281.2 L 846.8 281.2 L 842.8 288.1 L 842.8 281.2 L 841.0 281.2 L 841.0 290.9 Z M 855.3 283.1 C 855.6 283.5 855.7 284.1 855.7 284.8 C 855.7 285.5 855.6 286.0 855.3 286.4 C 855.0 286.8 854.6 287.0 854.1 287.0 C 853.5 287.0 853.1 286.8 852.8 286.4 C 852.5 286.0 852.4 285.5 852.4 284.8 C 852.4 284.1 852.5 283.5 852.8 283.1 C 853.1 282.7 853.5 282.5 854.1 282.5 C 854.6 282.5 855.0 282.7 855.3 283.1 Z M 856.8 282.1 C 856.2 281.4 855.3 281.0 854.1 281.0 C 852.8 281.0 851.9 281.4 851.3 282.1 C 850.7 282.8 850.4 283.7 850.4 284.8 C 850.4 285.8 850.7 286.7 851.3 287.4 C 851.9 288.2 852.8 288.6 854.1 288.6 C 855.3 288.6 856.2 288.2 856.8 287.4 C 857.4 286.7 857.7 285.8 857.7 284.8 C 857.7 283.7 857.4 282.8 856.8 282.1 Z M 858.5 287.0 L 858.5 288.3 L 859.5 288.3 L 859.5 290.3 L 861.3 290.3 L 861.3 288.3 L 862.5 288.3 L 862.5 287.0 L 861.3 287.0 L 861.3 283.2 C 861.3 282.9 861.3 282.7 861.4 282.7 C 861.5 282.6 861.7 282.5 862.1 282.5 C 862.2 282.5 862.2 282.6 862.3 282.6 C 862.3 282.6 862.4 282.6 862.5 282.6 L 862.5 281.2 L 861.6 281.1 C 860.7 281.1 860.1 281.3 859.8 281.6 C 859.6 281.8 859.5 282.1 859.5 282.6 L 859.5 287.0 L 858.5 287.0 Z M 865.2 286.6 C 864.9 286.3 864.8 286.0 864.7 285.5 L 867.6 285.5 C 867.6 286.0 867.4 286.4 867.2 286.6 C 866.9 286.9 866.6 287.0 866.2 287.0 C 865.7 287.0 865.4 286.9 865.2 286.6 Z M 867.8 288.2 C 868.2 288.0 868.6 287.6 868.9 287.2 C 869.2 286.7 869.4 286.2 869.5 285.7 C 869.5 285.4 869.6 284.9 869.5 284.3 L 864.7 284.3 C 864.7 283.6 864.9 283.1 865.4 282.8 C 865.6 282.6 865.9 282.5 866.3 282.5 C 866.7 282.5 867.0 282.6 867.2 282.8 C 867.3 283.0 867.5 283.1 867.6 283.3 L 869.5 283.3 C 869.4 282.9 869.2 282.5 868.8 282.0 C 868.2 281.3 867.3 281.0 866.2 281.0 C 865.3 281.0 864.5 281.3 863.9 281.9 C 863.2 282.5 862.8 283.4 862.8 284.7 C 862.8 286.0 863.1 286.9 863.8 287.6 C 864.4 288.2 865.2 288.5 866.2 288.5 C 866.8 288.5 867.3 288.4 867.8 288.2 Z M 876.9 287.5 C 877.4 286.8 877.7 286.0 877.7 284.9 C 877.7 283.8 877.4 282.9 876.9 282.1 C 876.4 281.4 875.7 281.0 874.7 281.0 C 874.2 281.0 873.7 281.2 873.3 281.4 C 873.1 281.5 872.9 281.8 872.6 282.1 L 872.6 281.2 L 870.8 281.2 L 870.8 290.8 L 872.7 290.8 L 872.7 287.4 C 872.9 287.8 873.2 288.0 873.4 288.2 C 873.8 288.4 874.2 288.5 874.7 288.5 C 875.7 288.5 876.4 288.2 876.9 287.5 Z M 875.4 283.2 C 875.6 283.5 875.8 284.1 875.8 284.7 C 875.8 285.2 875.7 285.6 875.6 285.9 C 875.3 286.6 874.9 286.9 874.2 286.9 C 873.5 286.9 873.1 286.6 872.8 286.0 C 872.7 285.6 872.6 285.2 872.6 284.7 C 872.6 284.1 872.7 283.6 873.0 283.2 C 873.3 282.8 873.7 282.6 874.2 282.6 C 874.7 282.6 875.1 282.8 875.4 283.2 Z M 883.7 283.1 C 884.0 283.5 884.1 284.1 884.1 284.8 C 884.1 285.5 884.0 286.0 883.7 286.4 C 883.4 286.8 883.0 287.0 882.4 287.0 C 881.9 287.0 881.4 286.8 881.2 286.4 C 880.9 286.0 880.7 285.5 880.7 284.8 C 880.7 284.1 880.9 283.5 881.2 283.1 C 881.4 282.7 881.9 282.5 882.4 282.5 C 883.0 282.5 883.4 282.7 883.7 283.1 Z M 885.1 282.1 C 884.5 281.4 883.6 281.0 882.4 281.0 C 881.2 281.0 880.3 281.4 879.7 282.1 C 879.1 282.8 878.8 283.7 878.8 284.8 C 878.8 285.8 879.1 286.7 879.7 287.4 C 880.3 288.2 881.2 288.6 882.4 288.6 C 883.6 288.6 884.5 288.2 885.1 287.4 C 885.7 286.7 886.0 285.8 886.0 284.8 C 886.0 283.7 885.7 282.8 885.1 282.1 Z M 892.0 283.1 C 892.3 283.5 892.4 284.1 892.4 284.8 C 892.4 285.5 892.3 286.0 892.0 286.4 C 891.7 286.8 891.3 287.0 890.7 287.0 C 890.2 287.0 889.8 286.8 889.5 286.4 C 889.2 286.0 889.1 285.5 889.1 284.8 C 889.1 284.1 889.2 283.5 889.5 283.1 C 889.8 282.7 890.2 282.5 890.7 282.5 C 891.3 282.5 891.7 282.7 892.0 283.1 Z M 893.5 282.1 C 892.9 281.4 892.0 281.0 890.8 281.0 C 889.5 281.0 888.6 281.4 888.0 282.1 C 887.4 282.8 887.1 283.7 887.1 284.8 C 887.1 285.8 887.4 286.7 888.0 287.4 C 888.6 288.2 889.5 288.6 890.8 288.6 C 892.0 288.6 892.9 288.2 893.5 287.4 C 894.1 286.7 894.4 285.8 894.4 284.8 C 894.4 283.7 894.1 282.8 893.5 282.1 Z M 895.9 290.8 L 897.7 290.8 L 897.7 285.6 L 900.0 288.3 L 902.3 288.3 L 899.8 285.6 L 902.4 281.2 L 900.2 281.2 L 898.5 284.3 L 897.7 283.5 L 897.7 281.2 L 895.9 281.2 L 895.9 290.8 Z M 895.9 290.8 " fill="#000000"></path><path d="M 625.3 360.3 L 623.9 364.5 L 622.3 360.3 L 625.3 360.3 Z M 623.2 366.0 L 624.7 366.0 L 628.1 356.4 L 626.7 356.4 L 625.7 359.3 L 622.0 359.3 L 620.9 356.4 L 619.6 356.4 L 623.2 366.0 Z M 630.6 363.4 L 630.6 358.7 C 630.6 358.4 630.7 358.1 630.8 357.9 C 631.0 357.4 631.4 357.2 631.9 357.2 C 632.8 357.2 633.3 357.6 633.6 358.3 C 633.8 358.7 633.9 359.3 633.9 359.9 L 633.9 363.4 L 635.0 363.4 L 635.0 356.4 L 633.9 356.4 L 633.9 357.4 C 633.8 357.2 633.6 356.9 633.4 356.7 C 632.9 356.4 632.4 356.2 631.7 356.2 C 630.7 356.2 630.1 356.5 629.7 357.2 C 629.5 357.6 629.4 358.0 629.4 358.6 L 629.4 363.4 L 630.6 363.4 Z M 637.2 365.3 L 638.4 365.3 L 638.4 363.4 L 639.5 363.4 L 639.5 362.4 L 638.4 362.4 L 638.4 357.9 C 638.4 357.6 638.4 357.4 638.6 357.4 C 638.7 357.3 638.9 357.3 639.1 357.3 C 639.1 357.3 639.2 357.3 639.2 357.3 C 639.3 357.3 639.4 357.3 639.5 357.3 L 639.5 356.4 C 639.3 356.3 639.2 356.3 639.1 356.3 C 638.9 356.3 638.8 356.3 638.6 356.3 C 638.0 356.3 637.7 356.4 637.5 356.7 C 637.3 357.0 637.2 357.3 637.2 357.8 L 637.2 362.4 L 636.2 362.4 L 636.2 363.4 L 637.2 363.4 L 637.2 365.3 Z M 640.3 366.0 L 641.4 366.0 L 641.4 362.4 C 641.7 362.8 642.0 363.0 642.2 363.2 C 642.6 363.4 643.0 363.5 643.6 363.5 C 644.6 363.5 645.3 363.2 645.7 362.5 C 645.9 362.1 646.0 361.6 646.0 360.9 L 646.0 356.4 L 644.8 356.4 L 644.8 360.8 C 644.8 361.3 644.7 361.7 644.6 361.9 C 644.4 362.3 644.0 362.5 643.4 362.5 C 642.9 362.5 642.4 362.3 642.0 362.0 C 641.6 361.7 641.4 361.0 641.4 360.1 L 641.4 356.4 L 640.3 356.4 L 640.3 366.0 Z M 652.1 363.2 C 652.6 362.9 652.9 362.6 653.2 362.3 C 653.4 361.9 653.6 361.5 653.7 361.0 C 653.7 360.7 653.8 360.2 653.8 359.5 L 648.6 359.5 C 648.7 358.8 648.8 358.2 649.2 357.8 C 649.5 357.4 649.9 357.2 650.6 357.2 C 651.2 357.2 651.7 357.4 652.1 357.8 C 652.3 358.0 652.4 358.3 652.5 358.6 L 653.7 358.6 C 653.6 358.3 653.5 358.0 653.4 357.7 C 653.2 357.4 653.0 357.1 652.8 356.9 C 652.4 356.6 652.0 356.4 651.5 356.2 C 651.2 356.2 650.9 356.1 650.5 356.1 C 649.6 356.1 648.9 356.5 648.3 357.1 C 647.7 357.7 647.4 358.6 647.4 359.7 C 647.4 360.9 647.7 361.8 648.3 362.5 C 648.9 363.2 649.7 363.5 650.7 363.5 C 651.2 363.5 651.7 363.4 652.1 363.2 Z M 652.6 360.4 C 652.5 360.9 652.4 361.4 652.2 361.7 C 651.9 362.2 651.4 362.5 650.6 362.5 C 650.1 362.5 649.6 362.3 649.3 361.9 C 648.9 361.5 648.7 361.0 648.7 360.4 L 652.6 360.4 Z M 655.3 363.4 L 656.4 363.4 L 656.4 362.4 C 656.7 362.8 657.1 363.1 657.5 363.3 C 657.8 363.4 658.2 363.5 658.7 363.5 C 659.7 363.5 660.3 363.2 660.7 362.5 C 660.9 362.1 661.0 361.6 661.0 360.9 L 661.0 356.4 L 659.8 356.4 L 659.8 360.8 C 659.8 361.2 659.7 361.6 659.6 361.8 C 659.4 362.3 659.0 362.5 658.5 362.5 C 658.2 362.5 658.0 362.4 657.8 362.4 C 657.5 362.3 657.2 362.1 656.9 361.8 C 656.7 361.6 656.6 361.3 656.5 361.1 C 656.5 360.9 656.5 360.5 656.5 360.0 L 656.5 356.4 L 655.3 356.4 L 655.3 363.4 Z M 663.0 365.3 L 664.2 365.3 L 664.2 363.4 L 665.3 363.4 L 665.3 362.4 L 664.2 362.4 L 664.2 357.9 C 664.2 357.6 664.3 357.4 664.5 357.4 C 664.6 357.3 664.7 357.3 664.9 357.3 C 665.0 357.3 665.0 357.3 665.1 357.3 C 665.2 357.3 665.2 357.3 665.3 357.3 L 665.3 356.4 C 665.2 356.3 665.1 356.3 664.9 356.3 C 664.8 356.3 664.6 356.3 664.4 356.3 C 663.9 356.3 663.5 356.4 663.3 356.7 C 663.1 357.0 663.0 357.3 663.0 357.8 L 663.0 362.4 L 662.1 362.4 L 662.1 363.4 L 663.0 363.4 L 663.0 365.3 Z M 666.1 363.3 L 667.3 363.3 L 667.3 356.4 L 666.1 356.4 L 666.1 363.3 Z M 666.1 366.0 L 667.3 366.0 L 667.3 364.6 L 666.1 364.6 L 666.1 366.0 Z M 674.1 363.0 C 674.6 362.6 674.9 362.0 675.0 361.0 L 673.8 361.0 C 673.8 361.5 673.6 361.8 673.3 362.1 C 673.1 362.4 672.7 362.5 672.2 362.5 C 671.4 362.5 670.9 362.2 670.6 361.4 C 670.3 361.0 670.2 360.4 670.2 359.7 C 670.2 359.0 670.4 358.4 670.7 357.9 C 671.0 357.4 671.4 357.2 672.1 357.2 C 672.6 357.2 673.0 357.3 673.2 357.6 C 673.5 357.9 673.7 358.3 673.8 358.9 L 675.0 358.9 C 674.8 357.9 674.5 357.3 674.0 356.8 C 673.5 356.4 672.8 356.2 672.0 356.2 C 671.1 356.2 670.3 356.5 669.8 357.2 C 669.3 357.9 669.0 358.7 669.0 359.7 C 669.0 360.9 669.3 361.9 669.9 362.5 C 670.5 363.2 671.2 363.6 672.2 363.6 C 672.9 363.6 673.6 363.4 674.1 363.0 Z M 677.4 357.4 C 677.7 357.2 677.9 357.1 678.3 357.1 C 678.7 357.1 679.1 357.2 679.5 357.4 C 680.1 357.8 680.5 358.3 680.5 359.0 L 680.5 359.9 C 680.3 359.8 680.1 359.8 679.9 359.7 C 679.7 359.7 679.5 359.6 679.2 359.6 L 678.5 359.5 C 678.1 359.4 677.8 359.3 677.6 359.2 C 677.2 359.0 677.0 358.7 677.0 358.2 C 677.0 357.9 677.2 357.6 677.4 357.4 Z M 679.9 360.6 C 680.1 360.7 680.3 360.8 680.4 361.0 C 680.5 361.1 680.5 361.2 680.5 361.4 C 680.5 361.8 680.4 362.1 680.1 362.3 C 679.8 362.5 679.4 362.5 678.8 362.5 C 678.2 362.5 677.8 362.4 677.5 362.1 C 677.4 361.9 677.3 361.6 677.3 361.2 L 676.2 361.2 C 676.2 362.1 676.5 362.7 677.0 363.0 C 677.5 363.4 678.2 363.5 678.9 363.5 C 679.7 363.5 680.4 363.4 680.9 363.1 C 681.4 362.8 681.6 362.3 681.6 361.6 L 681.6 357.6 C 681.6 357.5 681.7 357.4 681.7 357.3 C 681.8 357.2 681.9 357.2 682.0 357.2 C 682.1 357.2 682.1 357.2 682.2 357.2 C 682.3 357.2 682.3 357.2 682.4 357.2 L 682.4 356.4 C 682.2 356.3 682.1 356.3 682.0 356.3 C 681.9 356.2 681.8 356.2 681.6 356.2 C 681.2 356.2 680.9 356.4 680.7 356.7 C 680.6 356.8 680.6 357.0 680.5 357.3 C 680.3 357.0 679.9 356.7 679.5 356.5 C 679.0 356.3 678.6 356.2 678.0 356.2 C 677.4 356.2 676.8 356.3 676.4 356.7 C 676.0 357.1 675.8 357.6 675.8 358.2 C 675.8 358.9 676.0 359.4 676.4 359.7 C 676.8 360.1 677.4 360.3 678.0 360.4 L 679.9 360.6 Z M 683.9 365.3 L 685.1 365.3 L 685.1 363.4 L 686.2 363.4 L 686.2 362.4 L 685.1 362.4 L 685.1 357.9 C 685.1 357.6 685.1 357.4 685.3 357.4 C 685.4 357.3 685.6 357.3 685.8 357.3 C 685.8 357.3 685.9 357.3 686.0 357.3 C 686.0 357.3 686.1 357.3 686.2 357.3 L 686.2 356.4 C 686.0 356.3 685.9 356.3 685.8 356.3 C 685.6 356.3 685.5 356.3 685.3 356.3 C 684.7 356.3 684.4 356.4 684.2 356.7 C 684.0 357.0 683.9 357.3 683.9 357.8 L 683.9 362.4 L 682.9 362.4 L 682.9 363.4 L 683.9 363.4 L 683.9 365.3 Z M 691.3 358.0 C 691.6 358.6 691.8 359.3 691.8 360.0 C 691.8 360.6 691.7 361.2 691.5 361.6 C 691.1 362.2 690.6 362.5 689.8 362.5 C 689.0 362.5 688.5 362.3 688.2 361.7 C 687.9 361.2 687.7 360.5 687.7 359.7 C 687.7 359.0 687.9 358.4 688.2 357.9 C 688.5 357.4 689.0 357.1 689.7 357.1 C 690.5 357.1 691.1 357.4 691.3 358.0 Z M 692.1 362.7 C 692.7 362.1 693.0 361.2 693.0 360.0 C 693.0 358.9 692.7 358.0 692.2 357.2 C 691.6 356.5 690.8 356.1 689.6 356.1 C 688.7 356.1 687.9 356.5 687.4 357.1 C 686.8 357.8 686.5 358.6 686.5 359.7 C 686.5 360.9 686.8 361.8 687.4 362.5 C 688.0 363.2 688.8 363.6 689.8 363.6 C 690.7 363.6 691.5 363.3 692.1 362.7 Z M 694.5 363.4 L 695.6 363.4 L 695.6 362.2 C 695.7 362.4 695.9 362.7 696.3 363.0 C 696.7 363.4 697.1 363.5 697.5 363.5 C 697.6 363.5 697.6 363.5 697.6 363.5 C 697.7 363.5 697.8 363.5 697.9 363.5 L 697.9 362.3 C 697.8 362.3 697.8 362.3 697.7 362.3 C 697.7 362.3 697.6 362.3 697.5 362.3 C 696.9 362.3 696.5 362.1 696.2 361.7 C 695.9 361.3 695.7 360.9 695.7 360.4 L 695.7 356.4 L 694.5 356.4 L 694.5 363.4 Z M 694.5 363.4 " fill="#000000"></path><path d="M 633.8 259.3 C 633.8 258.7 633.9 258.3 634.2 258.0 C 634.6 257.3 635.3 257.0 636.4 257.0 C 636.9 257.0 637.4 257.1 637.8 257.2 C 638.5 257.5 638.9 258.0 638.9 258.7 C 638.9 259.2 638.8 259.6 638.4 259.8 C 638.1 260.0 637.6 260.2 636.9 260.3 L 635.6 260.6 C 634.7 260.8 634.1 261.0 633.8 261.3 C 633.2 261.7 632.9 262.3 632.9 263.1 C 632.9 263.9 633.2 264.6 633.8 265.2 C 634.4 265.7 635.2 266.0 636.3 266.0 C 637.3 266.0 638.2 265.8 638.9 265.3 C 639.6 264.8 639.9 264.0 639.9 263.0 L 638.7 263.0 C 638.6 263.5 638.5 263.9 638.3 264.1 C 637.9 264.6 637.2 264.9 636.3 264.9 C 635.5 264.9 634.9 264.7 634.6 264.4 C 634.3 264.1 634.1 263.7 634.1 263.3 C 634.1 262.8 634.3 262.5 634.7 262.3 C 634.9 262.1 635.5 261.9 636.4 261.7 L 637.8 261.4 C 638.4 261.3 638.9 261.1 639.3 260.8 C 639.9 260.4 640.2 259.7 640.2 258.9 C 640.2 257.8 639.8 257.1 639.0 256.6 C 638.3 256.1 637.4 255.9 636.3 255.9 C 635.2 255.9 634.2 256.2 633.5 256.8 C 632.9 257.4 632.5 258.2 632.6 259.3 L 633.8 259.3 Z M 646.3 257.7 C 646.6 258.1 646.8 258.8 646.8 259.7 C 646.8 260.3 646.7 260.8 646.6 261.2 C 646.3 261.9 645.7 262.3 644.9 262.3 C 644.1 262.3 643.5 261.9 643.2 261.1 C 643.1 260.7 643.0 260.1 643.0 259.4 C 643.0 258.9 643.1 258.4 643.2 258.1 C 643.5 257.3 644.1 257.0 644.9 257.0 C 645.4 257.0 645.9 257.2 646.3 257.7 Z M 641.9 263.1 L 643.0 263.1 L 643.0 262.2 C 643.2 262.5 643.5 262.8 643.8 263.0 C 644.2 263.2 644.6 263.3 645.2 263.3 C 645.9 263.3 646.6 263.0 647.2 262.4 C 647.7 261.8 648.0 261.0 648.0 259.8 C 648.0 258.3 647.6 257.2 646.8 256.6 C 646.3 256.2 645.7 256.0 645.0 256.0 C 644.5 256.0 644.1 256.1 643.7 256.3 C 643.5 256.4 643.3 256.7 643.0 257.0 L 643.0 253.4 L 641.9 253.4 L 641.9 263.1 Z M 650.7 257.2 C 651.0 257.1 651.3 257.0 651.6 257.0 C 652.0 257.0 652.4 257.0 652.8 257.2 C 653.5 257.6 653.8 258.1 653.8 258.8 L 653.8 259.7 C 653.6 259.7 653.4 259.6 653.2 259.5 C 653.0 259.5 652.8 259.4 652.6 259.4 L 651.8 259.3 C 651.4 259.2 651.1 259.1 650.9 259.0 C 650.5 258.8 650.3 258.5 650.3 258.0 C 650.3 257.7 650.5 257.4 650.7 257.2 Z M 653.2 260.4 C 653.5 260.5 653.6 260.6 653.7 260.8 C 653.8 260.9 653.8 261.0 653.8 261.2 C 653.8 261.6 653.7 261.9 653.4 262.1 C 653.1 262.3 652.7 262.4 652.2 262.4 C 651.5 262.4 651.1 262.2 650.9 261.9 C 650.7 261.7 650.6 261.4 650.6 261.0 L 649.5 261.0 C 649.5 261.9 649.8 262.5 650.3 262.8 C 650.9 263.2 651.5 263.3 652.2 263.3 C 653.0 263.3 653.7 263.2 654.2 262.9 C 654.7 262.6 654.9 262.1 654.9 261.4 L 654.9 257.4 C 654.9 257.3 655.0 257.2 655.0 257.1 C 655.1 257.0 655.2 257.0 655.3 257.0 C 655.4 257.0 655.5 257.0 655.5 257.0 C 655.6 257.0 655.7 257.0 655.7 257.0 L 655.7 256.2 C 655.5 256.1 655.4 256.1 655.3 256.1 C 655.2 256.0 655.1 256.0 654.9 256.0 C 654.5 256.0 654.2 256.2 654.0 256.5 C 653.9 256.6 653.9 256.8 653.8 257.1 C 653.6 256.8 653.3 256.5 652.8 256.3 C 652.4 256.1 651.9 256.0 651.3 256.0 C 650.7 256.0 650.2 256.2 649.7 256.5 C 649.3 256.9 649.1 257.4 649.1 258.0 C 649.1 258.7 649.3 259.2 649.7 259.5 C 650.1 259.9 650.7 260.1 651.3 260.2 L 653.2 260.4 Z M 657.5 263.2 L 658.8 257.7 L 660.2 263.2 L 661.5 263.2 L 662.9 257.7 L 664.3 263.2 L 665.5 263.2 L 663.5 256.2 L 662.2 256.2 L 660.8 261.6 L 659.4 256.2 L 658.2 256.2 L 656.2 263.2 L 657.5 263.2 Z M 667.0 263.2 L 668.1 263.2 L 668.1 262.2 C 668.4 262.6 668.8 262.9 669.1 263.1 C 669.5 263.2 669.9 263.3 670.4 263.3 C 671.3 263.3 672.0 263.0 672.4 262.3 C 672.6 261.9 672.7 261.4 672.7 260.7 L 672.7 256.2 L 671.5 256.2 L 671.5 260.6 C 671.5 261.0 671.4 261.4 671.3 261.6 C 671.1 262.1 670.7 262.3 670.1 262.3 C 669.9 262.3 669.6 262.2 669.5 262.2 C 669.1 262.1 668.8 261.9 668.6 261.6 C 668.4 261.4 668.3 261.1 668.2 260.9 C 668.2 260.7 668.1 260.3 668.1 259.8 L 668.1 256.2 L 667.0 256.2 L 667.0 263.2 Z M 678.8 263.0 C 679.3 262.8 679.6 262.4 679.9 262.1 C 680.1 261.7 680.3 261.3 680.3 260.8 C 680.4 260.5 680.5 260.0 680.5 259.3 L 675.3 259.3 C 675.4 258.6 675.5 258.0 675.8 257.6 C 676.2 257.2 676.6 257.0 677.3 257.0 C 677.9 257.0 678.4 257.2 678.8 257.6 C 679.0 257.8 679.1 258.1 679.2 258.4 L 680.4 258.4 C 680.3 258.1 680.2 257.8 680.1 257.5 C 679.9 257.2 679.7 257.0 679.5 256.8 C 679.1 256.4 678.7 256.2 678.2 256.0 C 677.9 256.0 677.5 255.9 677.2 255.9 C 676.3 255.9 675.6 256.3 675.0 256.9 C 674.4 257.5 674.1 258.4 674.1 259.5 C 674.1 260.7 674.4 261.6 675.0 262.3 C 675.6 263.0 676.4 263.3 677.4 263.3 C 677.9 263.3 678.4 263.2 678.8 263.0 Z M 679.2 260.2 C 679.2 260.7 679.1 261.2 678.9 261.5 C 678.6 262.0 678.1 262.3 677.3 262.3 C 676.8 262.3 676.3 262.1 675.9 261.7 C 675.6 261.3 675.4 260.8 675.4 260.2 L 679.2 260.2 Z M 682.0 263.2 L 683.1 263.2 L 683.1 262.0 C 683.2 262.2 683.4 262.5 683.8 262.8 C 684.2 263.2 684.6 263.3 685.0 263.3 C 685.0 263.3 685.1 263.3 685.1 263.3 C 685.2 263.3 685.3 263.3 685.4 263.3 L 685.4 262.1 C 685.3 262.1 685.3 262.1 685.2 262.1 C 685.2 262.1 685.1 262.1 685.0 262.1 C 684.4 262.1 684.0 261.9 683.7 261.5 C 683.3 261.1 683.2 260.7 683.2 260.2 L 683.2 256.2 L 682.0 256.2 L 682.0 263.2 Z M 682.0 263.2 " fill="#000000"></path><path d="M 616.4 315.9 L 616.4 309.9 C 616.4 309.3 616.5 308.7 616.8 308.2 C 617.2 307.5 617.8 307.2 618.7 307.2 C 619.8 307.2 620.6 307.5 621.0 308.3 C 621.2 308.7 621.3 309.3 621.3 309.9 L 621.3 315.9 L 622.6 315.9 L 622.6 310.5 C 622.6 309.3 622.5 308.4 622.1 307.8 C 621.6 306.6 620.5 306.0 618.9 306.0 C 617.2 306.0 616.1 306.6 615.6 307.8 C 615.2 308.4 615.1 309.3 615.1 310.5 L 615.1 315.9 L 616.4 315.9 Z M 625.5 308.5 C 625.6 308.1 625.7 307.8 625.8 307.6 C 626.1 307.2 626.6 307.0 627.4 307.0 C 627.8 307.0 628.2 307.1 628.5 307.3 C 628.9 307.5 629.0 307.8 629.0 308.2 C 629.0 308.5 628.9 308.7 628.6 308.9 C 628.5 309.0 628.1 309.1 627.6 309.2 L 626.7 309.4 C 626.1 309.6 625.7 309.7 625.4 309.9 C 624.9 310.2 624.6 310.7 624.6 311.2 C 624.6 311.9 624.9 312.4 625.3 312.8 C 625.8 313.3 626.4 313.5 627.2 313.5 C 628.3 313.5 629.1 313.1 629.5 312.5 C 629.8 312.1 630.0 311.7 629.9 311.3 L 628.8 311.3 C 628.8 311.5 628.7 311.8 628.6 312.0 C 628.3 312.3 627.8 312.5 627.2 312.5 C 626.7 312.5 626.4 312.4 626.1 312.2 C 625.9 312.0 625.8 311.8 625.8 311.5 C 625.8 311.2 626.0 311.0 626.3 310.8 C 626.4 310.7 626.7 310.6 627.0 310.5 L 627.8 310.3 C 628.6 310.1 629.2 309.9 629.5 309.7 C 629.9 309.4 630.2 309.0 630.2 308.3 C 630.2 307.7 629.9 307.2 629.5 306.7 C 629.0 306.2 628.3 306.0 627.3 306.0 C 626.3 306.0 625.5 306.3 625.1 306.7 C 624.7 307.2 624.4 307.8 624.4 308.5 L 625.5 308.5 Z M 635.9 313.1 C 636.3 312.8 636.7 312.5 636.9 312.2 C 637.2 311.8 637.3 311.4 637.4 310.9 C 637.5 310.6 637.5 310.1 637.5 309.4 L 632.4 309.4 C 632.4 308.7 632.6 308.1 632.9 307.7 C 633.2 307.3 633.7 307.1 634.3 307.1 C 635.0 307.1 635.4 307.3 635.8 307.7 C 636.0 307.9 636.2 308.2 636.2 308.5 L 637.4 308.5 C 637.4 308.2 637.3 307.9 637.1 307.6 C 636.9 307.3 636.7 307.0 636.5 306.8 C 636.2 306.5 635.7 306.3 635.2 306.1 C 634.9 306.1 634.6 306.0 634.2 306.0 C 633.4 306.0 632.6 306.4 632.0 307.0 C 631.4 307.6 631.1 308.5 631.1 309.6 C 631.1 310.8 631.4 311.7 632.0 312.4 C 632.6 313.1 633.4 313.4 634.4 313.4 C 634.9 313.4 635.4 313.3 635.9 313.1 Z M 636.3 310.3 C 636.2 310.8 636.1 311.3 636.0 311.6 C 635.6 312.1 635.1 312.4 634.4 312.4 C 633.8 312.4 633.4 312.2 633.0 311.8 C 632.6 311.4 632.4 310.9 632.4 310.3 L 636.3 310.3 Z M 639.1 313.3 L 640.2 313.3 L 640.2 312.1 C 640.3 312.3 640.5 312.6 640.8 312.9 C 641.2 313.3 641.6 313.4 642.1 313.4 C 642.1 313.4 642.1 313.4 642.2 313.4 C 642.2 313.4 642.3 313.4 642.5 313.4 L 642.5 312.2 C 642.4 312.2 642.3 312.2 642.3 312.2 C 642.2 312.2 642.1 312.2 642.1 312.2 C 641.5 312.2 641.0 312.0 640.7 311.6 C 640.4 311.2 640.2 310.8 640.2 310.3 L 640.2 306.3 L 639.1 306.3 L 639.1 313.3 Z M 650.4 307.4 C 650.8 307.4 651.2 307.4 651.4 307.5 C 651.9 307.7 652.4 308.0 652.7 308.5 C 652.9 308.9 653.1 309.4 653.2 310.0 C 653.3 310.4 653.3 310.7 653.3 311.0 C 653.3 312.2 653.1 313.1 652.6 313.8 C 652.2 314.4 651.4 314.8 650.3 314.8 L 648.0 314.8 L 648.0 307.4 L 650.4 307.4 Z M 646.7 315.9 L 650.6 315.9 C 651.9 315.9 653.0 315.4 653.7 314.5 C 654.3 313.6 654.7 312.5 654.7 311.2 C 654.7 310.2 654.5 309.3 654.1 308.5 C 653.4 307.0 652.3 306.3 650.6 306.3 L 646.7 306.3 L 646.7 315.9 Z M 657.8 307.3 C 658.1 307.1 658.4 307.1 658.7 307.1 C 659.1 307.1 659.5 307.1 659.9 307.3 C 660.5 307.7 660.9 308.2 660.9 308.9 L 660.9 309.8 C 660.7 309.8 660.5 309.7 660.3 309.6 C 660.1 309.6 659.9 309.5 659.6 309.5 L 658.9 309.4 C 658.5 309.3 658.2 309.2 658.0 309.1 C 657.6 308.9 657.4 308.6 657.4 308.1 C 657.4 307.8 657.6 307.5 657.8 307.3 Z M 660.3 310.5 C 660.5 310.6 660.7 310.7 660.8 310.9 C 660.9 311.0 660.9 311.1 660.9 311.3 C 660.9 311.7 660.8 312.0 660.5 312.2 C 660.2 312.4 659.8 312.5 659.2 312.5 C 658.6 312.5 658.2 312.3 657.9 312.0 C 657.8 311.8 657.7 311.5 657.7 311.1 L 656.6 311.1 C 656.6 312.0 656.9 312.6 657.4 312.9 C 657.9 313.3 658.6 313.4 659.3 313.4 C 660.1 313.4 660.8 313.3 661.3 313.0 C 661.8 312.7 662.0 312.2 662.0 311.5 L 662.0 307.5 C 662.0 307.4 662.1 307.3 662.1 307.2 C 662.2 307.1 662.3 307.1 662.4 307.1 C 662.5 307.1 662.5 307.1 662.6 307.1 C 662.7 307.1 662.7 307.1 662.8 307.1 L 662.8 306.3 C 662.6 306.2 662.5 306.2 662.4 306.2 C 662.3 306.1 662.2 306.1 662.0 306.1 C 661.6 306.1 661.3 306.3 661.1 306.6 C 661.0 306.7 661.0 306.9 660.9 307.2 C 660.7 306.9 660.3 306.6 659.9 306.4 C 659.4 306.2 659.0 306.1 658.4 306.1 C 657.8 306.1 657.2 306.2 656.8 306.6 C 656.4 307.0 656.2 307.5 656.2 308.1 C 656.2 308.8 656.4 309.3 656.8 309.6 C 657.2 310.0 657.8 310.2 658.4 310.3 L 660.3 310.5 Z M 664.3 315.2 L 665.5 315.2 L 665.5 313.3 L 666.6 313.3 L 666.6 312.3 L 665.5 312.3 L 665.5 307.8 C 665.5 307.5 665.5 307.3 665.7 307.3 C 665.8 307.2 666.0 307.2 666.2 307.2 C 666.2 307.2 666.3 307.2 666.4 307.2 C 666.4 307.2 666.5 307.2 666.6 307.2 L 666.6 306.3 C 666.4 306.2 666.3 306.2 666.2 306.2 C 666.0 306.2 665.9 306.2 665.7 306.2 C 665.1 306.2 664.8 306.3 664.6 306.6 C 664.4 306.9 664.3 307.2 664.3 307.7 L 664.3 312.3 L 663.3 312.3 L 663.3 313.3 L 664.3 313.3 L 664.3 315.2 Z M 668.7 307.3 C 668.9 307.1 669.2 307.1 669.5 307.1 C 669.9 307.1 670.3 307.1 670.7 307.3 C 671.4 307.7 671.7 308.2 671.7 308.9 L 671.7 309.8 C 671.6 309.8 671.4 309.7 671.2 309.6 C 670.9 309.6 670.7 309.5 670.5 309.5 L 669.8 309.4 C 669.4 309.3 669.0 309.2 668.8 309.1 C 668.5 308.9 668.3 308.6 668.3 308.1 C 668.3 307.8 668.4 307.5 668.7 307.3 Z M 671.1 310.5 C 671.4 310.6 671.6 310.7 671.7 310.9 C 671.7 311.0 671.7 311.1 671.7 311.3 C 671.7 311.7 671.6 312.0 671.3 312.2 C 671.0 312.4 670.6 312.5 670.1 312.5 C 669.5 312.5 669.0 312.3 668.8 312.0 C 668.6 311.8 668.6 311.5 668.5 311.1 L 667.4 311.1 C 667.4 312.0 667.7 312.6 668.3 312.9 C 668.8 313.3 669.4 313.4 670.1 313.4 C 670.9 313.4 671.6 313.3 672.1 313.0 C 672.6 312.7 672.9 312.2 672.9 311.5 L 672.9 307.5 C 672.9 307.4 672.9 307.3 673.0 307.2 C 673.0 307.1 673.1 307.1 673.3 307.1 C 673.3 307.1 673.4 307.1 673.4 307.1 C 673.5 307.1 673.6 307.1 673.7 307.1 L 673.7 306.3 C 673.5 306.2 673.3 306.2 673.2 306.2 C 673.1 306.1 673.0 306.1 672.8 306.1 C 672.4 306.1 672.2 306.3 672.0 306.6 C 671.9 306.7 671.8 306.9 671.8 307.2 C 671.5 306.9 671.2 306.6 670.7 306.4 C 670.3 306.2 669.8 306.1 669.3 306.1 C 668.6 306.1 668.1 306.2 667.7 306.6 C 667.3 307.0 667.1 307.5 667.1 308.1 C 667.1 308.8 667.3 309.3 667.7 309.6 C 668.1 310.0 668.6 310.2 669.3 310.3 L 671.1 310.5 Z M 674.8 315.9 L 675.9 315.9 L 675.9 312.4 C 676.2 312.8 676.5 313.0 676.9 313.2 C 677.2 313.4 677.6 313.5 678.0 313.5 C 678.9 313.5 679.6 313.2 680.1 312.6 C 680.7 312.0 680.9 311.1 680.9 309.9 C 680.9 308.8 680.7 307.9 680.1 307.2 C 679.6 306.4 678.9 306.1 677.9 306.1 C 677.4 306.1 676.9 306.2 676.6 306.5 C 676.4 306.6 676.1 306.8 675.9 307.2 L 675.9 306.3 L 674.8 306.3 L 674.8 315.9 Z M 679.3 307.9 C 679.6 308.4 679.7 309.0 679.7 309.9 C 679.7 310.6 679.6 311.2 679.3 311.7 C 679.0 312.2 678.5 312.4 677.9 312.4 C 677.3 312.4 676.9 312.2 676.5 311.8 C 676.1 311.4 675.9 310.8 675.9 309.9 C 675.9 309.2 676.0 308.7 676.1 308.3 C 676.4 307.5 677.0 307.1 677.8 307.1 C 678.5 307.1 679.0 307.4 679.3 307.9 Z M 683.7 307.3 C 683.9 307.1 684.2 307.1 684.5 307.1 C 685.0 307.1 685.4 307.1 685.7 307.3 C 686.4 307.7 686.7 308.2 686.7 308.9 L 686.7 309.8 C 686.6 309.8 686.4 309.7 686.2 309.6 C 685.9 309.6 685.7 309.5 685.5 309.5 L 684.8 309.4 C 684.4 309.3 684.0 309.2 683.8 309.1 C 683.5 308.9 683.3 308.6 683.3 308.1 C 683.3 307.8 683.4 307.5 683.7 307.3 Z M 686.1 310.5 C 686.4 310.6 686.6 310.7 686.7 310.9 C 686.7 311.0 686.8 311.1 686.8 311.3 C 686.8 311.7 686.6 312.0 686.3 312.2 C 686.0 312.4 685.6 312.5 685.1 312.5 C 684.5 312.5 684.1 312.3 683.8 312.0 C 683.7 311.8 683.6 311.5 683.5 311.1 L 682.4 311.1 C 682.4 312.0 682.7 312.6 683.3 312.9 C 683.8 313.3 684.4 313.4 685.1 313.4 C 686.0 313.4 686.6 313.3 687.1 313.0 C 687.6 312.7 687.9 312.2 687.9 311.5 L 687.9 307.5 C 687.9 307.4 687.9 307.3 688.0 307.2 C 688.0 307.1 688.1 307.1 688.3 307.1 C 688.3 307.1 688.4 307.1 688.5 307.1 C 688.5 307.1 688.6 307.1 688.7 307.1 L 688.7 306.3 C 688.5 306.2 688.3 306.2 688.3 306.2 C 688.2 306.1 688.0 306.1 687.9 306.1 C 687.5 306.1 687.2 306.3 687.0 306.6 C 686.9 306.7 686.8 306.9 686.8 307.2 C 686.5 306.9 686.2 306.6 685.7 306.4 C 685.3 306.2 684.8 306.1 684.3 306.1 C 683.6 306.1 683.1 306.2 682.7 306.6 C 682.3 307.0 682.1 307.5 682.1 308.1 C 682.1 308.8 682.3 309.3 682.7 309.6 C 683.1 310.0 683.6 310.2 684.3 310.3 L 686.1 310.5 Z M 690.6 308.5 C 690.6 308.1 690.7 307.8 690.9 307.6 C 691.2 307.2 691.7 307.0 692.4 307.0 C 692.9 307.0 693.2 307.1 693.6 307.3 C 693.9 307.5 694.1 307.8 694.1 308.2 C 694.1 308.5 693.9 308.7 693.7 308.9 C 693.5 309.0 693.2 309.1 692.7 309.2 L 691.7 309.4 C 691.1 309.6 690.7 309.7 690.4 309.9 C 689.9 310.2 689.7 310.7 689.7 311.2 C 689.7 311.9 689.9 312.4 690.4 312.8 C 690.9 313.3 691.5 313.5 692.3 313.5 C 693.3 313.5 694.1 313.1 694.6 312.5 C 694.9 312.1 695.0 311.7 695.0 311.3 L 693.9 311.3 C 693.9 311.5 693.8 311.8 693.6 312.0 C 693.3 312.3 692.9 312.5 692.2 312.5 C 691.8 312.5 691.4 312.4 691.2 312.2 C 691.0 312.0 690.9 311.8 690.9 311.5 C 690.9 311.2 691.0 311.0 691.3 310.8 C 691.5 310.7 691.7 310.6 692.1 310.5 L 692.9 310.3 C 693.7 310.1 694.3 309.9 694.5 309.7 C 695.0 309.4 695.2 309.0 695.2 308.3 C 695.2 307.7 695.0 307.2 694.5 306.7 C 694.1 306.2 693.3 306.0 692.4 306.0 C 691.3 306.0 690.6 306.3 690.2 306.7 C 689.7 307.2 689.5 307.8 689.5 308.5 L 690.6 308.5 Z M 700.9 313.1 C 701.4 312.8 701.7 312.5 702.0 312.2 C 702.2 311.8 702.4 311.4 702.4 310.9 C 702.5 310.6 702.6 310.1 702.6 309.4 L 697.4 309.4 C 697.5 308.7 697.6 308.1 697.9 307.7 C 698.3 307.3 698.7 307.1 699.4 307.1 C 700.0 307.1 700.5 307.3 700.9 307.7 C 701.1 307.9 701.2 308.2 701.3 308.5 L 702.5 308.5 C 702.4 308.2 702.3 307.9 702.2 307.6 C 702.0 307.3 701.8 307.0 701.6 306.8 C 701.2 306.5 700.8 306.3 700.3 306.1 C 700.0 306.1 699.7 306.0 699.3 306.0 C 698.4 306.0 697.7 306.4 697.1 307.0 C 696.5 307.6 696.2 308.5 696.2 309.6 C 696.2 310.8 696.5 311.7 697.1 312.4 C 697.7 313.1 698.5 313.4 699.5 313.4 C 700.0 313.4 700.5 313.3 700.9 313.1 Z M 701.3 310.3 C 701.3 310.8 701.2 311.3 701.0 311.6 C 700.7 312.1 700.2 312.4 699.4 312.4 C 698.9 312.4 698.4 312.2 698.1 311.8 C 697.7 311.4 697.5 310.9 697.5 310.3 L 701.3 310.3 Z M 701.3 310.3 " fill="#000000"></path><path d="M 654.3 462.7 C 655.1 463.5 656.1 463.9 657.3 463.9 C 658.9 463.9 660.1 463.3 660.8 462.3 C 661.2 461.7 661.5 461.1 661.5 460.5 L 659.5 460.5 C 659.3 460.9 659.2 461.3 659.0 461.5 C 658.6 461.9 658.1 462.2 657.4 462.2 C 656.6 462.2 656.0 461.9 655.6 461.3 C 655.2 460.7 655.0 459.9 655.0 458.8 C 655.0 457.7 655.2 456.9 655.7 456.3 C 656.1 455.8 656.7 455.5 657.4 455.5 C 658.1 455.5 658.6 455.8 659.0 456.2 C 659.2 456.5 659.3 456.9 659.5 457.4 L 661.5 457.4 C 661.3 456.3 660.8 455.4 660.1 454.8 C 659.4 454.1 658.5 453.8 657.4 453.8 C 656.0 453.8 654.9 454.3 654.1 455.1 C 653.3 456.0 652.9 457.3 652.9 458.8 C 652.9 460.5 653.4 461.8 654.3 462.7 Z M 667.7 456.0 C 667.9 456.4 668.1 456.9 668.1 457.6 C 668.1 458.3 667.9 458.9 667.7 459.3 C 667.4 459.6 666.9 459.8 666.4 459.8 C 665.9 459.8 665.4 459.6 665.1 459.3 C 664.9 458.9 664.7 458.3 664.7 457.6 C 664.7 456.9 664.9 456.4 665.1 456.0 C 665.4 455.6 665.9 455.4 666.4 455.4 C 666.9 455.4 667.4 455.6 667.7 456.0 Z M 669.1 454.9 C 668.5 454.2 667.6 453.8 666.4 453.8 C 665.2 453.8 664.3 454.2 663.7 454.9 C 663.1 455.7 662.8 456.6 662.8 457.6 C 662.8 458.6 663.1 459.5 663.7 460.3 C 664.3 461.0 665.2 461.4 666.4 461.4 C 667.6 461.4 668.5 461.0 669.1 460.3 C 669.7 459.5 670.0 458.6 670.0 457.6 C 670.0 456.6 669.7 455.7 669.1 454.9 Z M 677.3 460.8 C 677.8 460.4 678.0 459.8 678.0 458.9 L 678.0 454.1 L 676.1 454.1 L 676.1 458.4 C 676.1 458.8 676.0 459.1 675.9 459.3 C 675.8 459.6 675.4 459.8 674.9 459.8 C 674.3 459.8 673.8 459.5 673.6 459.0 C 673.5 458.7 673.4 458.4 673.4 457.9 L 673.4 454.1 L 671.6 454.1 L 671.6 461.2 L 673.4 461.2 L 673.4 460.1 C 673.6 460.5 673.8 460.8 674.0 460.9 C 674.4 461.2 674.9 461.4 675.5 461.4 C 676.2 461.4 676.8 461.2 677.3 460.8 Z M 682.8 463.8 C 682.9 463.8 683.1 463.8 683.2 463.7 L 683.2 462.2 C 683.1 462.2 682.9 462.3 682.7 462.3 C 682.5 462.3 682.3 462.2 682.2 462.1 C 682.1 462.0 682.1 461.9 682.1 461.7 C 682.1 461.6 682.1 461.4 682.1 461.1 L 683.3 461.1 L 683.3 459.8 L 682.1 459.8 L 682.1 454.1 L 680.2 454.1 L 680.2 459.8 L 679.2 459.8 L 679.2 461.1 L 680.2 461.1 L 680.2 461.6 C 680.2 462.3 680.3 462.9 680.6 463.1 C 680.8 463.6 681.5 463.8 682.5 463.8 C 682.6 463.8 682.7 463.8 682.8 463.8 Z M 686.0 462.0 L 684.1 462.0 L 684.1 463.7 L 686.0 463.7 L 686.0 462.0 Z M 684.1 461.2 L 686.0 461.2 L 686.0 454.1 L 684.1 454.1 L 684.1 461.2 Z M 691.6 456.1 C 691.9 456.4 692.0 456.9 692.0 457.7 C 692.0 458.3 691.9 458.9 691.6 459.2 C 691.3 459.6 690.9 459.7 690.4 459.7 C 689.8 459.7 689.3 459.4 689.1 458.8 C 689.0 458.5 688.9 458.1 688.9 457.6 C 688.9 457.2 689.0 456.8 689.1 456.5 C 689.3 455.9 689.8 455.6 690.5 455.6 C 690.9 455.6 691.3 455.8 691.6 456.1 Z M 690.9 461.2 C 691.4 461.0 691.7 460.7 692.0 460.2 L 692.0 461.2 L 693.8 461.2 L 693.8 454.4 C 693.8 453.5 693.7 452.8 693.4 452.4 C 692.8 451.6 691.8 451.2 690.3 451.2 C 689.4 451.2 688.7 451.3 688.1 451.7 C 687.5 452.1 687.2 452.6 687.1 453.3 L 689.2 453.3 C 689.2 453.1 689.3 452.9 689.4 452.8 C 689.6 452.7 689.9 452.6 690.4 452.6 C 691.1 452.6 691.5 452.8 691.8 453.2 C 691.9 453.5 692.0 454.0 692.0 454.7 L 692.0 455.2 C 691.8 454.8 691.6 454.6 691.4 454.5 C 691.0 454.2 690.6 454.0 690.0 454.0 C 689.1 454.0 688.3 454.4 687.8 455.0 C 687.2 455.6 687.0 456.5 687.0 457.6 C 687.0 458.7 687.2 459.6 687.8 460.3 C 688.3 461.0 689.0 461.4 690.0 461.4 C 690.3 461.4 690.7 461.3 690.9 461.2 Z M 697.6 461.2 L 697.6 456.9 C 697.6 456.5 697.6 456.2 697.7 456.0 C 697.9 455.6 698.2 455.4 698.7 455.4 C 699.4 455.4 699.8 455.7 700.0 456.2 C 700.2 456.5 700.2 456.9 700.2 457.3 L 700.2 461.2 L 702.1 461.2 L 702.1 454.1 L 700.3 454.1 L 700.3 455.1 C 700.3 455.1 700.2 455.0 700.2 454.9 C 700.1 454.8 700.0 454.7 699.9 454.6 C 699.6 454.3 699.3 454.2 699.1 454.1 C 698.8 454.0 698.5 453.9 698.1 453.9 C 697.1 453.9 696.4 454.3 696.0 455.1 C 695.8 455.5 695.7 456.1 695.7 456.9 L 695.7 461.2 L 697.6 461.2 Z M 708.0 461.4 C 708.1 461.4 708.1 461.3 708.2 461.3 L 708.2 459.4 C 708.1 459.5 708.0 459.5 707.9 459.5 C 707.8 459.5 707.7 459.5 707.7 459.5 C 706.9 459.5 706.4 459.2 706.1 458.7 C 706.0 458.5 705.9 458.0 705.9 457.5 L 705.9 454.1 L 704.1 454.1 L 704.1 461.2 L 705.8 461.2 L 705.8 459.9 C 706.1 460.4 706.4 460.7 706.6 460.9 C 706.9 461.2 707.4 461.4 707.9 461.4 C 708.0 461.4 708.0 461.4 708.0 461.4 Z M 713.0 457.5 C 712.9 457.5 712.8 457.4 712.6 457.4 C 712.5 457.3 712.4 457.3 712.2 457.2 L 711.7 457.1 C 711.3 457.1 711.1 457.0 710.9 456.9 C 710.6 456.7 710.5 456.5 710.5 456.1 C 710.5 455.8 710.6 455.6 710.7 455.4 C 710.9 455.3 711.1 455.2 711.4 455.2 C 711.8 455.2 712.1 455.3 712.5 455.6 C 712.8 455.8 713.0 456.2 713.0 456.8 L 713.0 457.5 Z M 711.9 458.4 C 712.2 458.4 712.5 458.5 712.6 458.6 C 712.9 458.7 713.0 458.9 713.0 459.1 C 713.0 459.4 712.9 459.6 712.7 459.7 C 712.5 459.8 712.2 459.9 711.8 459.9 C 711.4 459.9 711.1 459.8 710.9 459.5 C 710.8 459.4 710.7 459.2 710.6 458.9 L 708.8 458.9 C 708.9 459.5 709.0 460.0 709.4 460.4 C 709.8 461.0 710.7 461.4 711.9 461.4 C 712.7 461.4 713.4 461.2 714.0 460.9 C 714.6 460.6 714.9 460.0 714.9 459.1 L 714.9 455.9 C 714.9 455.7 714.9 455.4 714.9 455.1 C 714.9 454.8 714.9 454.7 715.0 454.6 C 715.0 454.5 715.1 454.4 715.3 454.3 L 715.3 454.1 L 713.2 454.1 C 713.2 454.2 713.1 454.4 713.1 454.5 C 713.1 454.6 713.1 454.7 713.1 454.9 C 712.8 454.6 712.5 454.4 712.2 454.2 C 711.8 454.0 711.3 453.9 710.8 453.9 C 710.2 453.9 709.7 454.0 709.2 454.4 C 708.8 454.8 708.6 455.3 708.6 456.0 C 708.6 456.8 708.9 457.5 709.6 457.9 C 710.0 458.1 710.5 458.2 711.2 458.3 L 711.9 458.4 Z M 722.6 460.3 C 723.2 459.7 723.4 458.8 723.4 457.7 C 723.4 456.6 723.2 455.7 722.6 455.0 C 722.1 454.2 721.4 453.9 720.5 453.9 C 719.9 453.9 719.4 454.0 719.0 454.2 C 718.8 454.4 718.6 454.6 718.3 455.0 L 718.3 454.1 L 716.5 454.1 L 716.5 463.7 L 718.4 463.7 L 718.4 460.3 C 718.6 460.6 718.9 460.8 719.2 461.0 C 719.5 461.2 719.9 461.3 720.4 461.3 C 721.4 461.3 722.1 461.0 722.6 460.3 Z M 721.1 456.0 C 721.3 456.4 721.5 456.9 721.5 457.5 C 721.5 458.0 721.4 458.4 721.3 458.8 C 721.0 459.4 720.6 459.7 719.9 459.7 C 719.2 459.7 718.8 459.4 718.5 458.8 C 718.4 458.5 718.3 458.1 718.3 457.5 C 718.3 456.9 718.5 456.4 718.7 456.0 C 719.0 455.6 719.4 455.4 720.0 455.4 C 720.4 455.4 720.8 455.6 721.1 456.0 Z M 726.8 454.1 L 725.0 454.1 L 725.0 463.7 L 726.8 463.7 L 726.8 454.1 Z M 730.1 459.4 C 729.8 459.2 729.7 458.8 729.6 458.3 L 732.5 458.3 C 732.5 458.8 732.3 459.2 732.1 459.5 C 731.8 459.7 731.5 459.8 731.1 459.8 C 730.6 459.8 730.3 459.7 730.1 459.4 Z M 732.7 461.0 C 733.1 460.8 733.5 460.5 733.8 460.0 C 734.1 459.6 734.3 459.1 734.4 458.5 C 734.4 458.2 734.4 457.7 734.4 457.1 L 729.6 457.1 C 729.6 456.4 729.8 455.9 730.3 455.6 C 730.5 455.4 730.8 455.3 731.2 455.3 C 731.6 455.3 731.9 455.5 732.1 455.7 C 732.2 455.8 732.4 456.0 732.5 456.2 L 734.3 456.2 C 734.3 455.7 734.1 455.3 733.7 454.9 C 733.1 454.2 732.2 453.8 731.1 453.8 C 730.2 453.8 729.4 454.1 728.7 454.7 C 728.1 455.3 727.7 456.2 727.7 457.6 C 727.7 458.8 728.0 459.7 728.6 460.4 C 729.3 461.0 730.1 461.4 731.1 461.4 C 731.7 461.4 732.2 461.3 732.7 461.0 Z M 739.2 454.1 L 739.2 463.7 L 741.2 463.7 L 741.2 460.0 L 745.0 460.0 L 745.0 463.7 L 747.0 463.7 L 747.0 454.1 L 745.0 454.1 L 745.0 458.4 L 741.2 458.4 L 741.2 454.1 L 739.2 454.1 Z M 756.2 463.7 L 756.2 462.0 L 753.4 462.0 L 753.4 454.1 L 751.4 454.1 L 751.4 462.0 L 748.5 462.0 L 748.5 463.7 L 756.2 463.7 Z M 764.6 463.7 L 764.6 462.0 L 761.7 462.0 L 761.7 454.1 L 759.7 454.1 L 759.7 462.0 L 756.8 462.0 L 756.8 463.7 L 764.6 463.7 Z M 771.0 461.7 C 770.7 461.9 770.3 462.0 769.9 462.0 L 768.0 462.0 L 768.0 459.2 L 769.9 459.2 C 770.3 459.2 770.7 459.3 771.0 459.5 C 771.2 459.8 771.4 460.1 771.4 460.6 C 771.4 461.1 771.2 461.5 771.0 461.7 Z M 772.5 458.2 C 771.9 457.8 771.1 457.5 770.0 457.5 L 768.0 457.5 L 768.0 454.1 L 766.0 454.1 L 766.0 463.7 L 770.2 463.7 C 771.1 463.7 771.9 463.4 772.5 462.9 C 773.1 462.5 773.3 461.7 773.3 460.6 C 773.3 459.5 773.1 458.7 772.5 458.2 Z M 783.5 461.7 C 783.2 461.9 782.8 462.0 782.4 462.0 L 780.5 462.0 L 780.5 459.2 L 782.4 459.2 C 782.8 459.2 783.2 459.3 783.5 459.5 C 783.7 459.8 783.9 460.1 783.9 460.6 C 783.9 461.1 783.7 461.5 783.5 461.7 Z M 785.0 458.2 C 784.4 457.8 783.6 457.5 782.5 457.5 L 780.5 457.5 L 780.5 454.1 L 778.5 454.1 L 778.5 463.7 L 782.7 463.7 C 783.7 463.7 784.4 463.4 785.0 462.9 C 785.6 462.5 785.9 461.7 785.9 460.6 C 785.9 459.5 785.6 458.7 785.0 458.2 Z M 791.4 461.4 C 791.5 461.4 791.5 461.3 791.6 461.3 L 791.6 459.4 C 791.5 459.5 791.4 459.5 791.3 459.5 C 791.2 459.5 791.1 459.5 791.1 459.5 C 790.3 459.5 789.8 459.2 789.5 458.7 C 789.4 458.5 789.3 458.0 789.3 457.5 L 789.3 454.1 L 787.5 454.1 L 787.5 461.2 L 789.2 461.2 L 789.2 459.9 C 789.5 460.4 789.8 460.7 790.0 460.9 C 790.3 461.2 790.8 461.4 791.3 461.4 C 791.4 461.4 791.4 461.4 791.4 461.4 Z M 796.9 456.0 C 797.2 456.4 797.4 456.9 797.4 457.6 C 797.4 458.3 797.2 458.9 796.9 459.3 C 796.6 459.6 796.2 459.8 795.7 459.8 C 795.1 459.8 794.7 459.6 794.4 459.3 C 794.1 458.9 794.0 458.3 794.0 457.6 C 794.0 456.9 794.1 456.4 794.4 456.0 C 794.7 455.6 795.1 455.4 795.7 455.4 C 796.2 455.4 796.6 455.6 796.9 456.0 Z M 798.4 454.9 C 797.8 454.2 796.9 453.8 795.7 453.8 C 794.5 453.8 793.5 454.2 793.0 454.9 C 792.4 455.7 792.1 456.6 792.1 457.6 C 792.1 458.6 792.4 459.5 793.0 460.3 C 793.5 461.0 794.5 461.4 795.7 461.4 C 796.9 461.4 797.8 461.0 798.4 460.3 C 799.0 459.5 799.3 458.6 799.3 457.6 C 799.3 456.6 799.0 455.7 798.4 454.9 Z M 800.1 454.1 L 802.6 457.7 L 800.2 461.2 L 802.5 461.2 L 803.7 459.1 L 804.9 461.2 L 807.1 461.2 L 804.7 457.7 L 807.2 454.1 L 804.8 454.1 L 803.6 456.2 L 802.4 454.1 L 800.1 454.1 Z M 808.6 452.7 L 808.9 452.7 C 809.0 452.7 809.2 452.7 809.4 452.7 C 809.5 452.7 809.7 452.8 809.8 452.9 C 809.9 452.9 810.0 453.1 810.1 453.3 C 810.2 453.6 810.2 453.7 810.2 453.8 L 807.6 461.2 L 809.7 461.2 L 811.2 455.9 L 812.7 461.2 L 814.7 461.2 L 812.2 454.2 C 811.8 452.8 811.4 452.0 811.1 451.7 C 810.8 451.4 810.3 451.2 809.5 451.2 C 809.3 451.2 809.2 451.2 809.1 451.2 C 809.0 451.2 808.8 451.2 808.6 451.2 L 808.6 452.7 Z M 808.6 452.7 " fill="#000000"></path></g></g></g></g></g></g><g><clipPath id="clip-154"><path d="M 536.0 683.0 L 953.0 683.0 L 953.0 70.0 L 536.0 70.0 Z M 536.0 683.0 "></path></clipPath><g clip-path="url(#clip-154)"><g><clipPath id="clip-155"><path d="M 536.0 586.0 L 953.0 586.0 L 953.0 167.7 L 536.0 167.7 L 536.0 586.0 Z M 536.0 586.0 "></path></clipPath><g clip-path="url(#clip-155)"><g><clipPath id="clip-156"><path d="M 643.6 215.3 L 673.6 215.3 L 673.6 201.9 L 643.6 201.9 L 643.6 215.3 Z M 643.6 215.3 "></path></clipPath><g clip-path="url(#clip-156)"><g><clipPath id="clip-157"><path d="M 536.0 167.0 L 953.0 167.0 L 953.0 586.0 L 536.0 586.0 Z M 536.0 167.0 "></path></clipPath><g clip-path="url(#clip-157)"><path d="M 646.3 204.4 L 646.3 214.0 L 648.2 214.0 L 648.2 210.4 L 652.0 210.4 L 652.0 214.0 L 654.0 214.0 L 654.0 204.4 L 652.0 204.4 L 652.0 208.7 L 648.2 208.7 L 648.2 204.4 L 646.3 204.4 Z M 658.0 211.5 L 658.0 207.2 C 658.0 206.8 658.0 206.5 658.1 206.3 C 658.3 206.0 658.6 205.8 659.1 205.8 C 659.8 205.8 660.2 206.0 660.4 206.6 C 660.5 206.8 660.6 207.2 660.6 207.7 L 660.6 211.5 L 662.5 211.5 L 662.5 204.4 L 660.7 204.4 L 660.7 205.4 C 660.7 205.4 660.6 205.3 660.6 205.2 C 660.5 205.1 660.4 205.0 660.3 204.9 C 660.0 204.7 659.7 204.5 659.5 204.4 C 659.2 204.3 658.9 204.3 658.5 204.3 C 657.5 204.3 656.7 204.6 656.4 205.4 C 656.2 205.8 656.1 206.4 656.1 207.2 L 656.1 211.5 L 658.0 211.5 Z M 670.5 210.7 C 671.0 210.0 671.3 209.1 671.3 208.1 C 671.3 207.0 671.0 206.0 670.5 205.3 C 670.0 204.6 669.3 204.2 668.3 204.2 C 667.7 204.2 667.3 204.3 666.9 204.6 C 666.7 204.7 666.5 205.0 666.2 205.3 L 666.2 204.4 L 664.4 204.4 L 664.4 214.0 L 666.3 214.0 L 666.3 210.6 C 666.5 210.9 666.7 211.2 667.0 211.4 C 667.4 211.6 667.8 211.7 668.3 211.7 C 669.2 211.7 670.0 211.4 670.5 210.7 Z M 668.9 206.3 C 669.2 206.7 669.3 207.2 669.3 207.9 C 669.3 208.4 669.3 208.8 669.1 209.1 C 668.9 209.8 668.4 210.1 667.8 210.1 C 667.1 210.1 666.6 209.8 666.4 209.1 C 666.3 208.8 666.2 208.4 666.2 207.9 C 666.2 207.3 666.3 206.8 666.6 206.4 C 666.9 206.0 667.3 205.8 667.8 205.8 C 668.3 205.8 668.7 206.0 668.9 206.3 Z M 668.9 206.3 " fill="#000000"></path></g></g></g></g></g></g></g></g><g><clipPath id="clip-158"><path d="M 536.0 683.0 L 953.0 683.0 L 953.0 70.0 L 536.0 70.0 Z M 536.0 683.0 "></path></clipPath><g clip-path="url(#clip-158)"><g><clipPath id="clip-159"><path d="M 536.0 586.0 L 953.0 586.0 L 953.0 167.7 L 536.0 167.7 L 536.0 586.0 Z M 536.0 586.0 "></path></clipPath><g clip-path="url(#clip-159)"><g><clipPath id="clip-160"><path d="M 536.0 167.0 L 953.0 167.0 L 953.0 586.0 L 536.0 586.0 Z M 536.0 167.0 "></path></clipPath><g clip-path="url(#clip-160)"><path d="M 778.8 393.0 L 779.9 393.0 L 776.5 382.3 L 775.4 382.3 L 778.8 393.0 Z M 781.8 390.1 L 781.8 384.9 C 781.8 384.5 781.9 384.2 782.0 383.9 C 782.2 383.5 782.7 383.2 783.3 383.2 C 784.2 383.2 784.9 383.6 785.2 384.5 C 785.4 384.9 785.5 385.5 785.5 386.3 L 785.5 390.1 L 786.8 390.1 L 786.8 382.3 L 785.5 382.3 L 785.6 383.4 C 785.4 383.1 785.2 382.9 784.9 382.7 C 784.4 382.3 783.8 382.1 783.1 382.1 C 782.0 382.1 781.2 382.4 780.8 383.2 C 780.6 383.6 780.5 384.1 780.5 384.8 L 780.5 390.1 L 781.8 390.1 Z M 789.6 384.7 C 789.7 384.3 789.8 384.0 789.9 383.7 C 790.3 383.3 790.9 383.1 791.7 383.1 C 792.2 383.1 792.6 383.2 793.0 383.4 C 793.3 383.6 793.5 383.9 793.5 384.4 C 793.5 384.7 793.4 385.0 793.1 385.2 C 792.9 385.3 792.5 385.4 792.0 385.5 L 790.9 385.8 C 790.2 386.0 789.7 386.2 789.4 386.4 C 788.9 386.7 788.6 387.2 788.6 387.8 C 788.6 388.6 788.8 389.2 789.4 389.6 C 789.9 390.1 790.6 390.3 791.5 390.3 C 792.7 390.3 793.6 390.0 794.1 389.3 C 794.4 388.9 794.6 388.4 794.6 387.9 L 793.3 387.9 C 793.3 388.2 793.2 388.4 793.0 388.7 C 792.7 389.0 792.2 389.2 791.4 389.2 C 790.9 389.2 790.6 389.1 790.3 388.9 C 790.0 388.7 789.9 388.5 789.9 388.2 C 789.9 387.8 790.1 387.5 790.4 387.3 C 790.6 387.2 790.9 387.1 791.3 387.0 L 792.2 386.8 C 793.1 386.6 793.7 386.4 794.1 386.1 C 794.6 385.8 794.8 385.3 794.8 384.5 C 794.8 383.8 794.6 383.2 794.0 382.7 C 793.5 382.2 792.7 382.0 791.6 382.0 C 790.4 382.0 789.6 382.2 789.1 382.8 C 788.6 383.3 788.4 384.0 788.4 384.7 L 789.6 384.7 Z M 801.2 389.9 C 801.8 389.7 802.2 389.3 802.4 388.9 C 802.7 388.5 802.9 388.0 803.0 387.5 C 803.0 387.1 803.1 386.6 803.1 385.8 L 797.3 385.8 C 797.3 385.0 797.5 384.3 797.9 383.9 C 798.2 383.4 798.8 383.1 799.5 383.1 C 800.2 383.1 800.8 383.4 801.2 383.8 C 801.4 384.1 801.6 384.4 801.7 384.7 L 803.0 384.7 C 802.9 384.4 802.8 384.1 802.6 383.8 C 802.4 383.4 802.2 383.1 802.0 382.9 C 801.6 382.5 801.1 382.2 800.5 382.1 C 800.2 382.0 799.8 382.0 799.4 382.0 C 798.4 382.0 797.6 382.3 796.9 383.1 C 796.2 383.8 795.9 384.8 795.9 386.0 C 795.9 387.3 796.2 388.3 796.9 389.1 C 797.6 389.9 798.5 390.3 799.6 390.3 C 800.2 390.3 800.7 390.2 801.2 389.9 Z M 801.7 386.8 C 801.7 387.4 801.5 387.9 801.3 388.2 C 801.0 388.8 800.4 389.2 799.5 389.2 C 798.9 389.2 798.4 388.9 798.0 388.5 C 797.6 388.1 797.4 387.5 797.4 386.8 L 801.7 386.8 Z M 804.7 390.1 L 806.0 390.1 L 806.0 388.8 C 806.1 389.0 806.3 389.4 806.7 389.7 C 807.1 390.1 807.6 390.3 808.1 390.3 C 808.1 390.3 808.2 390.3 808.2 390.3 C 808.3 390.3 808.4 390.3 808.5 390.3 L 808.5 388.9 C 808.5 388.9 808.4 388.9 808.3 388.9 C 808.3 388.9 808.2 388.9 808.1 388.9 C 807.4 388.9 806.9 388.7 806.6 388.3 C 806.2 387.8 806.0 387.3 806.0 386.8 L 806.0 382.3 L 804.7 382.3 L 804.7 390.1 Z M 812.1 393.0 L 813.2 393.0 L 809.8 382.3 L 808.7 382.3 L 812.1 393.0 Z M 813.8 393.1 L 816.6 393.1 L 816.6 392.0 L 815.1 392.0 L 815.1 380.4 L 816.6 380.4 L 816.6 379.3 L 813.8 379.3 L 813.8 393.1 Z M 818.0 390.1 L 819.3 390.1 L 819.3 389.0 C 819.7 389.5 820.0 389.8 820.5 390.0 C 820.9 390.2 821.3 390.3 821.8 390.3 C 823.0 390.3 823.7 389.9 824.1 389.1 C 824.3 388.7 824.4 388.1 824.4 387.3 L 824.4 382.3 L 823.1 382.3 L 823.1 387.2 C 823.1 387.7 823.0 388.1 822.9 388.4 C 822.6 388.9 822.2 389.1 821.6 389.1 C 821.3 389.1 821.0 389.1 820.8 389.0 C 820.5 388.9 820.1 388.7 819.9 388.4 C 819.7 388.1 819.5 387.8 819.4 387.6 C 819.4 387.3 819.3 386.9 819.3 386.4 L 819.3 382.3 L 818.0 382.3 L 818.0 390.1 Z M 827.8 383.5 C 828.1 383.2 828.4 383.1 828.8 383.1 C 829.2 383.1 829.7 383.2 830.1 383.5 C 830.9 383.8 831.2 384.4 831.2 385.2 L 831.2 386.3 C 831.1 386.2 830.9 386.1 830.6 386.0 C 830.4 385.9 830.1 385.9 829.9 385.9 L 829.1 385.8 C 828.6 385.7 828.2 385.6 828.0 385.5 C 827.6 385.2 827.4 384.9 827.4 384.4 C 827.4 384.0 827.5 383.7 827.8 383.5 Z M 830.6 387.0 C 830.9 387.1 831.1 387.2 831.2 387.4 C 831.2 387.5 831.3 387.7 831.3 387.9 C 831.3 388.4 831.1 388.7 830.8 388.9 C 830.5 389.1 830.0 389.2 829.4 389.2 C 828.7 389.2 828.2 389.0 827.9 388.6 C 827.8 388.4 827.7 388.1 827.6 387.7 L 826.4 387.7 C 826.4 388.7 826.7 389.4 827.3 389.8 C 827.9 390.1 828.6 390.3 829.4 390.3 C 830.4 390.3 831.1 390.1 831.7 389.8 C 832.3 389.4 832.6 388.9 832.6 388.1 L 832.6 383.6 C 832.6 383.5 832.6 383.4 832.6 383.3 C 832.7 383.2 832.8 383.2 833.0 383.2 C 833.1 383.2 833.1 383.2 833.2 383.2 C 833.3 383.2 833.3 383.2 833.4 383.2 L 833.4 382.2 C 833.2 382.2 833.1 382.1 833.0 382.1 C 832.8 382.1 832.7 382.1 832.5 382.1 C 832.1 382.1 831.7 382.3 831.5 382.6 C 831.4 382.8 831.3 383.0 831.3 383.3 C 831.0 383.0 830.6 382.7 830.1 382.4 C 829.6 382.1 829.1 382.0 828.5 382.0 C 827.7 382.0 827.2 382.2 826.7 382.7 C 826.2 383.1 826.0 383.7 826.0 384.3 C 826.0 385.1 826.2 385.6 826.7 386.0 C 827.1 386.4 827.7 386.7 828.5 386.8 L 830.6 387.0 Z M 834.7 390.1 L 836.0 390.1 L 836.0 389.0 C 836.3 389.4 836.6 389.7 836.9 389.9 C 837.3 390.2 837.8 390.3 838.3 390.3 C 839.0 390.3 839.5 390.2 839.9 389.8 C 840.1 389.7 840.3 389.4 840.4 389.1 C 840.7 389.5 841.1 389.8 841.5 390.0 C 841.9 390.2 842.3 390.3 842.8 390.3 C 843.9 390.3 844.6 389.9 845.0 389.2 C 845.2 388.7 845.3 388.2 845.3 387.5 L 845.3 382.3 L 843.9 382.3 L 843.9 387.7 C 843.9 388.3 843.8 388.6 843.5 388.8 C 843.2 389.0 842.9 389.1 842.5 389.1 C 842.0 389.1 841.6 388.9 841.2 388.6 C 840.8 388.2 840.7 387.7 840.7 386.8 L 840.7 382.3 L 839.3 382.3 L 839.3 387.4 C 839.3 387.9 839.2 388.3 839.1 388.6 C 838.9 388.9 838.5 389.1 838.0 389.1 C 837.5 389.1 837.0 388.9 836.6 388.5 C 836.2 388.1 836.0 387.4 836.0 386.4 L 836.0 382.3 L 834.7 382.3 L 834.7 390.1 Z M 852.1 389.9 C 852.6 389.7 853.0 389.3 853.3 388.9 C 853.6 388.5 853.7 388.0 853.8 387.5 C 853.9 387.1 853.9 386.6 853.9 385.8 L 848.2 385.8 C 848.2 385.0 848.4 384.3 848.8 383.9 C 849.1 383.4 849.7 383.1 850.4 383.1 C 851.1 383.1 851.6 383.4 852.0 383.8 C 852.3 384.1 852.4 384.4 852.5 384.7 L 853.8 384.7 C 853.8 384.4 853.7 384.1 853.5 383.8 C 853.3 383.4 853.1 383.1 852.8 382.9 C 852.4 382.5 851.9 382.2 851.4 382.1 C 851.0 382.0 850.7 382.0 850.3 382.0 C 849.3 382.0 848.5 382.3 847.8 383.1 C 847.1 383.8 846.8 384.8 846.8 386.0 C 846.8 387.3 847.1 388.3 847.8 389.1 C 848.5 389.9 849.4 390.3 850.5 390.3 C 851.0 390.3 851.6 390.2 852.1 389.9 Z M 852.6 386.8 C 852.5 387.4 852.4 387.9 852.2 388.2 C 851.9 388.8 851.2 389.2 850.4 389.2 C 849.8 389.2 849.3 388.9 848.9 388.5 C 848.5 388.1 848.3 387.5 848.2 386.8 L 852.6 386.8 Z M 854.9 380.4 L 856.5 380.4 L 856.5 392.0 L 854.9 392.0 L 854.9 393.1 L 857.7 393.1 L 857.7 379.3 L 854.9 379.3 L 854.9 380.4 Z M 862.2 393.0 L 863.3 393.0 L 859.9 382.3 L 858.8 382.3 L 862.2 393.0 Z M 862.2 393.0 " fill="#000000"></path><path d="M 684.1 434.0 L 685.2 434.0 L 681.8 423.2 L 680.7 423.2 L 684.1 434.0 Z M 685.8 434.0 L 687.2 434.0 L 687.2 430.0 C 687.5 430.4 687.7 430.7 688.0 430.8 C 688.4 431.1 689.0 431.2 689.6 431.2 C 690.7 431.2 691.5 430.8 691.9 430.0 C 692.1 429.6 692.2 429.0 692.2 428.2 L 692.2 423.2 L 690.9 423.2 L 690.9 428.1 C 690.9 428.7 690.8 429.1 690.7 429.4 C 690.4 429.8 690.0 430.1 689.3 430.1 C 688.8 430.1 688.3 429.9 687.8 429.5 C 687.4 429.1 687.2 428.4 687.2 427.4 L 687.2 423.2 L 685.8 423.2 L 685.8 434.0 Z M 695.5 431.0 L 695.5 425.8 C 695.5 425.4 695.6 425.1 695.7 424.8 C 695.9 424.4 696.4 424.1 697.0 424.1 C 697.9 424.1 698.5 424.5 698.9 425.4 C 699.1 425.8 699.1 426.4 699.1 427.2 L 699.1 431.0 L 700.5 431.0 L 700.5 423.2 L 699.2 423.2 L 699.2 424.3 C 699.1 424.0 698.9 423.8 698.6 423.6 C 698.1 423.2 697.5 423.0 696.8 423.0 C 695.6 423.0 694.9 423.3 694.5 424.1 C 694.3 424.5 694.1 425.0 694.1 425.7 L 694.1 431.0 L 695.5 431.0 Z M 702.4 434.0 L 703.7 434.0 L 703.7 430.1 C 704.0 430.5 704.3 430.8 704.7 430.9 C 705.1 431.1 705.6 431.2 706.0 431.2 C 707.0 431.2 707.8 430.9 708.4 430.2 C 709.0 429.6 709.3 428.6 709.3 427.3 C 709.3 426.0 709.0 425.0 708.4 424.2 C 707.8 423.3 707.0 422.9 705.9 422.9 C 705.3 422.9 704.8 423.1 704.4 423.4 C 704.2 423.5 703.9 423.8 703.6 424.2 L 703.6 423.2 L 702.4 423.2 L 702.4 434.0 Z M 707.4 425.0 C 707.8 425.5 708.0 426.3 708.0 427.2 C 708.0 428.0 707.8 428.7 707.4 429.3 C 707.1 429.8 706.6 430.1 705.9 430.1 C 705.3 430.1 704.8 429.8 704.3 429.4 C 703.8 429.0 703.6 428.2 703.6 427.2 C 703.6 426.5 703.7 425.9 703.9 425.4 C 704.2 424.5 704.9 424.1 705.8 424.1 C 706.6 424.1 707.1 424.4 707.4 425.0 Z M 713.3 434.0 L 714.4 434.0 L 711.0 423.2 L 709.9 423.2 L 713.3 434.0 Z M 713.3 434.0 " fill="#000000"></path><path d="M 707.0 541.5 L 707.0 539.1 L 709.6 539.1 C 710.1 539.1 710.5 539.2 710.8 539.4 C 711.1 539.6 711.2 539.9 711.2 540.3 C 711.2 540.8 711.0 541.2 710.6 541.3 C 710.3 541.4 709.9 541.5 709.3 541.5 L 707.0 541.5 Z M 707.0 537.3 L 707.0 534.4 L 709.6 534.4 C 710.1 534.4 710.5 534.5 710.7 534.6 C 711.2 534.9 711.4 535.3 711.4 536.0 C 711.4 536.5 711.2 536.9 710.8 537.1 C 710.5 537.3 710.1 537.3 709.7 537.3 L 707.0 537.3 Z M 712.9 542.2 C 713.2 541.8 713.4 541.2 713.4 540.6 C 713.4 539.9 713.2 539.4 712.9 539.0 C 712.7 538.8 712.4 538.6 712.1 538.4 C 712.6 538.2 713.0 537.8 713.3 537.4 C 713.6 537.0 713.7 536.4 713.7 535.8 C 713.7 535.2 713.6 534.6 713.2 534.1 C 713.0 533.8 712.8 533.5 712.5 533.3 C 712.1 533.0 711.7 532.8 711.2 532.7 C 710.8 532.6 710.3 532.6 709.7 532.6 L 704.8 532.6 L 704.8 543.4 L 710.1 543.4 C 711.4 543.4 712.3 543.0 712.9 542.2 Z M 719.9 540.7 C 719.9 540.7 720.0 540.7 720.1 540.7 L 720.1 538.6 C 719.9 538.6 719.8 538.6 719.7 538.6 C 719.6 538.6 719.5 538.6 719.5 538.6 C 718.6 538.6 718.1 538.4 717.8 537.8 C 717.6 537.5 717.5 537.0 717.5 536.4 L 717.5 532.6 L 715.4 532.6 L 715.4 540.6 L 717.4 540.6 L 717.4 539.2 C 717.7 539.7 718.0 540.1 718.3 540.3 C 718.7 540.6 719.2 540.8 719.8 540.8 C 719.8 540.8 719.9 540.8 719.9 540.7 Z M 726.3 534.7 C 726.6 535.1 726.8 535.7 726.8 536.5 C 726.8 537.3 726.6 538.0 726.3 538.4 C 726.0 538.8 725.5 539.0 724.9 539.0 C 724.3 539.0 723.8 538.8 723.5 538.4 C 723.1 538.0 723.0 537.3 723.0 536.5 C 723.0 535.7 723.1 535.1 723.5 534.7 C 723.8 534.3 724.3 534.0 724.9 534.0 C 725.5 534.0 726.0 534.3 726.3 534.7 Z M 728.0 533.5 C 727.3 532.7 726.3 532.3 724.9 532.3 C 723.5 532.3 722.5 532.7 721.8 533.5 C 721.1 534.4 720.8 535.4 720.8 536.5 C 720.8 537.7 721.1 538.7 721.8 539.5 C 722.5 540.4 723.5 540.8 724.9 540.8 C 726.3 540.8 727.3 540.4 728.0 539.5 C 728.6 538.7 729.0 537.7 729.0 536.5 C 729.0 535.4 728.6 534.4 728.0 533.5 Z M 734.2 540.6 L 736.3 540.6 L 737.6 534.8 L 738.8 540.6 L 741.0 540.6 L 738.7 532.6 L 736.5 532.6 L 735.3 538.4 L 734.0 532.6 L 731.8 532.6 L 729.6 540.6 L 731.8 540.6 L 733.1 534.8 L 734.2 540.6 Z M 743.8 535.1 C 743.8 534.7 743.9 534.5 744.1 534.3 C 744.3 534.0 744.8 533.9 745.5 533.9 C 745.9 533.9 746.2 534.0 746.5 534.1 C 746.7 534.2 746.8 534.4 746.8 534.6 C 746.8 534.9 746.7 535.1 746.5 535.2 C 746.3 535.3 745.6 535.5 744.4 535.8 C 743.5 536.0 742.8 536.3 742.4 536.6 C 742.1 537.0 741.9 537.5 741.9 538.1 C 741.9 538.8 742.2 539.5 742.8 540.0 C 743.3 540.5 744.2 540.8 745.2 540.8 C 746.2 540.8 747.0 540.6 747.6 540.2 C 748.3 539.8 748.6 539.1 748.7 538.1 L 746.6 538.1 C 746.6 538.4 746.5 538.6 746.4 538.8 C 746.2 539.0 745.8 539.2 745.2 539.2 C 744.8 539.2 744.5 539.1 744.3 539.0 C 744.1 538.8 744.0 538.7 744.0 538.5 C 744.0 538.2 744.1 538.1 744.3 538.0 C 744.5 537.8 745.2 537.7 746.5 537.4 C 747.3 537.2 747.9 536.9 748.3 536.5 C 748.7 536.1 748.9 535.6 748.9 535.0 C 748.9 534.2 748.6 533.5 748.1 533.0 C 747.5 532.5 746.6 532.3 745.3 532.3 C 744.1 532.3 743.1 532.6 742.5 533.1 C 741.9 533.6 741.6 534.3 741.6 535.1 L 743.8 535.1 Z M 752.5 538.6 C 752.2 538.3 752.1 537.9 752.0 537.4 L 755.3 537.4 C 755.2 537.9 755.0 538.3 754.7 538.6 C 754.4 538.9 754.1 539.0 753.6 539.0 C 753.1 539.0 752.8 538.9 752.5 538.6 Z M 755.4 540.4 C 756.0 540.2 756.4 539.8 756.7 539.2 C 757.1 538.7 757.3 538.2 757.4 537.6 C 757.4 537.2 757.4 536.7 757.4 536.0 L 752.0 536.0 C 752.0 535.2 752.2 534.6 752.7 534.3 C 753.0 534.1 753.3 534.0 753.7 534.0 C 754.2 534.0 754.5 534.1 754.8 534.4 C 754.9 534.5 755.1 534.7 755.2 534.9 L 757.3 534.9 C 757.3 534.4 757.0 534.0 756.6 533.5 C 755.9 532.7 754.9 532.3 753.7 532.3 C 752.7 532.3 751.8 532.6 751.0 533.3 C 750.2 533.9 749.8 535.0 749.8 536.5 C 749.8 537.9 750.2 538.9 750.9 539.7 C 751.6 540.4 752.5 540.8 753.6 540.8 C 754.3 540.8 754.9 540.6 755.4 540.4 Z M 763.3 540.7 C 763.3 540.7 763.3 540.7 763.4 540.7 L 763.4 538.6 C 763.3 538.6 763.2 538.6 763.1 538.6 C 763.0 538.6 762.9 538.6 762.8 538.6 C 762.0 538.6 761.4 538.4 761.1 537.8 C 761.0 537.5 760.9 537.0 760.9 536.4 L 760.9 532.6 L 758.8 532.6 L 758.8 540.6 L 760.8 540.6 L 760.8 539.2 C 761.1 539.7 761.4 540.1 761.6 540.3 C 762.0 540.6 762.5 540.8 763.2 540.8 C 763.2 540.8 763.2 540.8 763.3 540.7 Z M 763.3 540.7 " fill="#000000"></path><path d="M 758.8 300.4 L 759.9 300.4 L 756.5 289.6 L 755.3 289.6 L 758.8 300.4 Z M 761.9 290.8 C 762.2 290.6 762.5 290.4 762.9 290.4 C 763.4 290.4 763.8 290.6 764.2 290.8 C 765.0 291.1 765.3 291.7 765.3 292.5 L 765.3 293.6 C 765.2 293.5 765.0 293.4 764.7 293.3 C 764.5 293.3 764.2 293.2 764.0 293.2 L 763.2 293.1 C 762.7 293.0 762.3 292.9 762.1 292.8 C 761.7 292.6 761.5 292.2 761.5 291.7 C 761.5 291.3 761.6 291.0 761.9 290.8 Z M 764.7 294.4 C 765.0 294.4 765.2 294.5 765.3 294.7 C 765.4 294.8 765.4 295.0 765.4 295.2 C 765.4 295.7 765.2 296.0 764.9 296.2 C 764.6 296.4 764.1 296.5 763.5 296.5 C 762.8 296.5 762.4 296.3 762.1 296.0 C 761.9 295.8 761.8 295.5 761.7 295.0 L 760.5 295.0 C 760.5 296.0 760.9 296.7 761.5 297.1 C 762.1 297.4 762.8 297.6 763.6 297.6 C 764.5 297.6 765.2 297.5 765.8 297.1 C 766.4 296.8 766.7 296.2 766.7 295.5 L 766.7 290.9 C 766.7 290.8 766.7 290.7 766.8 290.6 C 766.8 290.5 766.9 290.5 767.1 290.5 C 767.2 290.5 767.2 290.5 767.3 290.5 C 767.4 290.5 767.5 290.5 767.5 290.5 L 767.5 289.6 C 767.3 289.5 767.2 289.5 767.1 289.4 C 767.0 289.4 766.8 289.4 766.6 289.4 C 766.2 289.4 765.8 289.6 765.6 289.9 C 765.5 290.1 765.5 290.3 765.4 290.6 C 765.1 290.3 764.8 290.0 764.3 289.7 C 763.8 289.5 763.2 289.3 762.6 289.3 C 761.9 289.3 761.3 289.5 760.8 290.0 C 760.3 290.4 760.1 291.0 760.1 291.7 C 760.1 292.4 760.3 292.9 760.8 293.3 C 761.2 293.7 761.8 294.0 762.6 294.1 L 764.7 294.4 Z M 773.7 291.2 C 774.1 291.8 774.3 292.5 774.3 293.6 C 774.3 294.2 774.2 294.7 774.0 295.2 C 773.7 296.0 773.0 296.5 772.1 296.5 C 771.2 296.5 770.6 296.0 770.3 295.1 C 770.1 294.6 770.0 294.0 770.0 293.2 C 770.0 292.6 770.1 292.1 770.3 291.7 C 770.6 290.9 771.2 290.5 772.1 290.5 C 772.7 290.5 773.3 290.7 773.7 291.2 Z M 768.7 297.4 L 770.0 297.4 L 770.0 296.4 C 770.3 296.7 770.6 297.0 770.9 297.2 C 771.3 297.5 771.8 297.6 772.4 297.6 C 773.3 297.6 774.1 297.3 774.7 296.6 C 775.3 295.9 775.6 295.0 775.6 293.7 C 775.6 292.0 775.2 290.8 774.3 290.0 C 773.7 289.6 773.1 289.3 772.3 289.3 C 771.7 289.3 771.2 289.5 770.8 289.7 C 770.6 289.9 770.3 290.1 770.0 290.5 L 770.0 286.5 L 768.7 286.5 L 768.7 297.4 Z M 777.2 297.4 L 778.5 297.4 L 778.5 289.6 L 777.2 289.6 L 777.2 297.4 Z M 777.2 300.4 L 778.5 300.4 L 778.5 298.9 L 777.2 298.9 L 777.2 300.4 Z M 782.9 300.4 L 784.1 300.4 L 780.6 289.6 L 779.5 289.6 L 782.9 300.4 Z M 786.1 290.8 C 786.4 290.6 786.7 290.4 787.1 290.4 C 787.5 290.4 788.0 290.6 788.4 290.8 C 789.2 291.1 789.5 291.7 789.5 292.5 L 789.5 293.6 C 789.4 293.5 789.2 293.4 788.9 293.3 C 788.7 293.3 788.4 293.2 788.2 293.2 L 787.4 293.1 C 786.9 293.0 786.5 292.9 786.3 292.8 C 785.9 292.6 785.7 292.2 785.7 291.7 C 785.7 291.3 785.8 291.0 786.1 290.8 Z M 788.9 294.4 C 789.2 294.4 789.4 294.5 789.5 294.7 C 789.5 294.8 789.6 295.0 789.6 295.2 C 789.6 295.7 789.4 296.0 789.1 296.2 C 788.8 296.4 788.3 296.5 787.7 296.5 C 787.0 296.5 786.5 296.3 786.2 296.0 C 786.1 295.8 786.0 295.5 785.9 295.0 L 784.7 295.0 C 784.7 296.0 785.0 296.7 785.6 297.1 C 786.2 297.4 786.9 297.6 787.7 297.6 C 788.7 297.6 789.4 297.5 790.0 297.1 C 790.6 296.8 790.9 296.2 790.9 295.5 L 790.9 290.9 C 790.9 290.8 790.9 290.7 790.9 290.6 C 791.0 290.5 791.1 290.5 791.3 290.5 C 791.4 290.5 791.4 290.5 791.5 290.5 C 791.6 290.5 791.6 290.5 791.7 290.5 L 791.7 289.6 C 791.5 289.5 791.4 289.5 791.3 289.4 C 791.1 289.4 791.0 289.4 790.8 289.4 C 790.4 289.4 790.0 289.6 789.8 289.9 C 789.7 290.1 789.6 290.3 789.6 290.6 C 789.3 290.3 788.9 290.0 788.4 289.7 C 787.9 289.5 787.4 289.3 786.8 289.3 C 786.0 289.3 785.5 289.5 785.0 290.0 C 784.5 290.4 784.3 291.0 784.3 291.7 C 784.3 292.4 784.5 292.9 785.0 293.3 C 785.4 293.7 786.0 294.0 786.8 294.1 L 788.9 294.4 Z M 794.3 297.4 L 794.3 292.2 C 794.3 291.8 794.4 291.5 794.5 291.2 C 794.8 290.8 795.2 290.5 795.8 290.5 C 796.7 290.5 797.4 291.0 797.7 291.8 C 797.9 292.2 798.0 292.8 798.0 293.6 L 798.0 297.4 L 799.3 297.4 L 799.3 289.6 L 798.0 289.6 L 798.1 290.7 C 797.9 290.4 797.7 290.2 797.4 290.0 C 796.9 289.6 796.3 289.4 795.6 289.4 C 794.5 289.4 793.7 289.7 793.3 290.5 C 793.1 290.9 793.0 291.4 793.0 292.1 L 793.0 297.4 L 794.3 297.4 Z M 801.6 299.6 L 802.9 299.6 L 802.9 297.4 L 804.2 297.4 L 804.2 296.4 L 802.9 296.4 L 802.9 291.2 C 802.9 291.0 803.0 290.8 803.2 290.7 C 803.3 290.6 803.5 290.6 803.7 290.6 C 803.8 290.6 803.9 290.6 803.9 290.6 C 804.0 290.6 804.1 290.6 804.2 290.6 L 804.2 289.6 C 804.0 289.5 803.9 289.5 803.7 289.5 C 803.6 289.5 803.4 289.5 803.2 289.5 C 802.6 289.5 802.2 289.6 801.9 289.9 C 801.7 290.3 801.6 290.7 801.6 291.2 L 801.6 296.4 L 800.5 296.4 L 800.5 297.4 L 801.6 297.4 L 801.6 299.6 Z M 805.5 300.4 L 806.8 300.4 L 806.8 296.4 C 807.1 296.8 807.4 297.1 807.7 297.2 C 808.1 297.5 808.6 297.6 809.3 297.6 C 810.4 297.6 811.2 297.2 811.6 296.4 C 811.8 296.0 811.9 295.4 811.9 294.6 L 811.9 289.6 L 810.6 289.6 L 810.6 294.5 C 810.6 295.1 810.5 295.5 810.3 295.8 C 810.1 296.2 809.6 296.5 809.0 296.5 C 808.4 296.5 807.9 296.3 807.5 295.9 C 807.1 295.5 806.8 294.8 806.8 293.8 L 806.8 289.6 L 805.5 289.6 L 805.5 300.4 Z M 805.5 300.4 " fill="#000000"></path></g></g></g></g></g></g><text xml:space="preserve" font-family="Helvetica-Light" font-size="28.5" fill="#000000" transform="matrix(1.00, 0.00, -0.00, -1.00, 100.7, 562.9)"></text><text xml:space="preserve" font-family="Helvetica-Light" font-size="38.0" fill="#000000" transform="matrix(1.00, 0.00, -0.00, -1.00, 137.0, 560.0)">M</text><text xml:space="preserve" font-family="Helvetica-Light" font-size="38.0" fill="#000000" transform="matrix(1.00, 0.00, -0.00, -1.00, 168.7, 560.0)">a</text><text xml:space="preserve" font-family="Helvetica-Light" font-size="38.0" fill="#000000" transform="matrix(1.00, 0.00, -0.00, -1.00, 189.8, 560.0)">n</text><text xml:space="preserve" font-family="Helvetica-Light" font-size="38.0" fill="#000000" transform="matrix(1.00, 0.00, -0.00, -1.00, 210.9, 560.0)">a</text><text xml:space="preserve" font-family="Helvetica-Light" font-size="38.0" fill="#000000" transform="matrix(1.00, 0.00, -0.00, -1.00, 232.0, 560.0)">g</text><text xml:space="preserve" font-family="Helvetica-Light" font-size="38.0" fill="#000000" transform="matrix(1.00, 0.00, -0.00, -1.00, 255.3, 560.0)">e</text><text xml:space="preserve" font-family="Helvetica-Light" font-size="38.0" fill="#000000" transform="matrix(1.00, 0.00, -0.00, -1.00, 276.4, 560.0)">s</text><text xml:space="preserve" font-family="Helvetica-Light" font-size="38.0" fill="#000000" transform="matrix(1.00, 0.00, -0.00, -1.00, 295.4, 560.0)"> </text><text xml:space="preserve" font-family="Helvetica-Light" font-size="38.0" fill="#000000" transform="matrix(1.00, 0.00, -0.00, -1.00, 137.0, 514.0)">a</text><text xml:space="preserve" font-family="Helvetica-Light" font-size="38.0" fill="#000000" transform="matrix(1.00, 0.00, -0.00, -1.00, 158.1, 514.0)">u</text><text xml:space="preserve" font-family="Helvetica-Light" font-size="38.0" fill="#000000" transform="matrix(1.00, 0.00, -0.00, -1.00, 179.3, 514.0)">t</text><text xml:space="preserve" font-family="Helvetica-Light" font-size="38.0" fill="#000000" transform="matrix(1.00, 0.00, -0.00, -1.00, 189.8, 514.0)">h</text><text xml:space="preserve" font-family="Helvetica-Light" font-size="38.0" fill="#000000" transform="matrix(1.00, 0.00, -0.00, -1.00, 210.9, 514.0)">e</text><text xml:space="preserve" font-family="Helvetica-Light" font-size="38.0" fill="#000000" transform="matrix(1.00, 0.00, -0.00, -1.00, 232.1, 514.0)">n</text><text xml:space="preserve" font-family="Helvetica-Light" font-size="38.0" fill="#000000" transform="matrix(1.00, 0.00, -0.00, -1.00, 253.2, 514.0)">t</text><text xml:space="preserve" font-family="Helvetica-Light" font-size="38.0" fill="#000000" transform="matrix(1.00, 0.00, -0.00, -1.00, 263.8, 514.0)">i</text><text xml:space="preserve" font-family="Helvetica-Light" font-size="38.0" fill="#000000" transform="matrix(1.00, 0.00, -0.00, -1.00, 272.2, 514.0)">c</text><text xml:space="preserve" font-family="Helvetica-Light" font-size="38.0" fill="#000000" transform="matrix(1.00, 0.00, -0.00, -1.00, 293.3, 514.0)">a</text><text xml:space="preserve" font-family="Helvetica-Light" font-size="38.0" fill="#000000" transform="matrix(1.00, 0.00, -0.00, -1.00, 314.5, 514.0)">t</text><text xml:space="preserve" font-family="Helvetica-Light" font-size="38.0" fill="#000000" transform="matrix(1.00, 0.00, -0.00, -1.00, 325.0, 514.0)">i</text><text xml:space="preserve" font-family="Helvetica-Light" font-size="38.0" fill="#000000" transform="matrix(1.00, 0.00, -0.00, -1.00, 333.5, 514.0)">o</text><text xml:space="preserve" font-family="Helvetica-Light" font-size="38.0" fill="#000000" transform="matrix(1.00, 0.00, -0.00, -1.00, 354.6, 514.0)">n</text><text xml:space="preserve" font-family="Helvetica-Light" font-size="28.5" fill="#000000" transform="matrix(1.00, 0.00, -0.00, -1.00, 100.7, 425.9)"></text><text xml:space="preserve" font-family="Helvetica-Light" font-size="38.0" fill="#000000" transform="matrix(1.00, 0.00, -0.00, -1.00, 137.0, 423.0)">S</text><text xml:space="preserve" font-family="Helvetica-Light" font-size="38.0" fill="#000000" transform="matrix(1.00, 0.00, -0.00, -1.00, 160.2, 423.0)">p</text><text xml:space="preserve" font-family="Helvetica-Light" font-size="38.0" fill="#000000" transform="matrix(1.00, 0.00, -0.00, -1.00, 183.4, 423.0)">a</text><text xml:space="preserve" font-family="Helvetica-Light" font-size="38.0" fill="#000000" transform="matrix(1.00, 0.00, -0.00, -1.00, 204.6, 423.0)">w</text><text xml:space="preserve" font-family="Helvetica-Light" font-size="38.0" fill="#000000" transform="matrix(1.00, 0.00, -0.00, -1.00, 232.0, 423.0)">n</text><text xml:space="preserve" font-family="Helvetica-Light" font-size="38.0" fill="#000000" transform="matrix(1.00, 0.00, -0.00, -1.00, 253.1, 423.0)">s</text><text xml:space="preserve" font-family="Helvetica-Light" font-size="38.0" fill="#000000" transform="matrix(1.00, 0.00, -0.00, -1.00, 272.1, 423.0)"> </text><text xml:space="preserve" font-family="Helvetica-Light" font-size="38.0" fill="#000000" transform="matrix(1.00, 0.00, -0.00, -1.00, 282.7, 423.0)">s</text><text xml:space="preserve" font-family="Helvetica-Light" font-size="38.0" fill="#000000" transform="matrix(1.00, 0.00, -0.00, -1.00, 301.7, 423.0)">i</text><text xml:space="preserve" font-family="Helvetica-Light" font-size="38.0" fill="#000000" transform="matrix(1.00, 0.00, -0.00, -1.00, 310.1, 423.0)">n</text><text xml:space="preserve" font-family="Helvetica-Light" font-size="38.0" fill="#000000" transform="matrix(1.00, 0.00, -0.00, -1.00, 331.3, 423.0)">g</text><text xml:space="preserve" font-family="Helvetica-Light" font-size="38.0" fill="#000000" transform="matrix(1.00, 0.00, -0.00, -1.00, 354.5, 423.0)">l</text><text xml:space="preserve" font-family="Helvetica-Light" font-size="38.0" fill="#000000" transform="matrix(1.00, 0.00, -0.00, -1.00, 362.9, 423.0)">e</text><text xml:space="preserve" font-family="Helvetica-Light" font-size="38.0" fill="#000000" transform="matrix(1.00, 0.00, -0.00, -1.00, 384.0, 423.0)">-</text><text xml:space="preserve" font-family="Helvetica-Light" font-size="38.0" fill="#000000" transform="matrix(1.00, 0.00, -0.00, -1.00, 137.0, 377.0)">u</text><text xml:space="preserve" font-family="Helvetica-Light" font-size="38.0" fill="#000000" transform="matrix(1.00, 0.00, -0.00, -1.00, 158.1, 377.0)">s</text><text xml:space="preserve" font-family="Helvetica-Light" font-size="38.0" fill="#000000" transform="matrix(1.00, 0.00, -0.00, -1.00, 177.1, 377.0)">e</text><text xml:space="preserve" font-family="Helvetica-Light" font-size="38.0" fill="#000000" transform="matrix(1.00, 0.00, -0.00, -1.00, 198.3, 377.0)">r</text><text xml:space="preserve" font-family="Helvetica-Light" font-size="38.0" fill="#000000" transform="matrix(1.00, 0.00, -0.00, -1.00, 210.9, 377.0)"> </text><text xml:space="preserve" font-family="Helvetica-Light" font-size="38.0" fill="#000000" transform="matrix(1.00, 0.00, -0.00, -1.00, 221.5, 377.0)">s</text><text xml:space="preserve" font-family="Helvetica-Light" font-size="38.0" fill="#000000" transform="matrix(1.00, 0.00, -0.00, -1.00, 240.5, 377.0)">e</text><text xml:space="preserve" font-family="Helvetica-Light" font-size="38.0" fill="#000000" transform="matrix(1.00, 0.00, -0.00, -1.00, 261.6, 377.0)">r</text><text xml:space="preserve" font-family="Helvetica-Light" font-size="38.0" fill="#000000" transform="matrix(1.00, 0.00, -0.00, -1.00, 274.3, 377.0)">v</text><text xml:space="preserve" font-family="Helvetica-Light" font-size="38.0" fill="#000000" transform="matrix(1.00, 0.00, -0.00, -1.00, 293.3, 377.0)">e</text><text xml:space="preserve" font-family="Helvetica-Light" font-size="38.0" fill="#000000" transform="matrix(1.00, 0.00, -0.00, -1.00, 314.4, 377.0)">r</text><text xml:space="preserve" font-family="Helvetica-Light" font-size="38.0" fill="#000000" transform="matrix(1.00, 0.00, -0.00, -1.00, 327.0, 377.0)">s</text><text xml:space="preserve" font-family="Helvetica-Light" font-size="38.0" fill="#000000" transform="matrix(1.00, 0.00, -0.00, -1.00, 346.0, 377.0)"> </text><text xml:space="preserve" font-family="Helvetica-Light" font-size="38.0" fill="#000000" transform="matrix(1.00, 0.00, -0.00, -1.00, 356.6, 377.0)">o</text><text xml:space="preserve" font-family="Helvetica-Light" font-size="38.0" fill="#000000" transform="matrix(1.00, 0.00, -0.00, -1.00, 377.7, 377.0)">n</text><text xml:space="preserve" font-family="Helvetica-Light" font-size="38.0" fill="#000000" transform="matrix(1.00, 0.00, -0.00, -1.00, 398.9, 377.0)">-</text><text xml:space="preserve" font-family="Helvetica-Light" font-size="38.0" fill="#000000" transform="matrix(1.00, 0.00, -0.00, -1.00, 137.0, 331.0)">d</text><text xml:space="preserve" font-family="Helvetica-Light" font-size="38.0" fill="#000000" transform="matrix(1.00, 0.00, -0.00, -1.00, 160.2, 331.0)">e</text><text xml:space="preserve" font-family="Helvetica-Light" font-size="38.0" fill="#000000" transform="matrix(1.00, 0.00, -0.00, -1.00, 181.3, 331.0)">m</text><text xml:space="preserve" font-family="Helvetica-Light" font-size="38.0" fill="#000000" transform="matrix(1.00, 0.00, -0.00, -1.00, 213.0, 331.0)">a</text><text xml:space="preserve" font-family="Helvetica-Light" font-size="38.0" fill="#000000" transform="matrix(1.00, 0.00, -0.00, -1.00, 234.1, 331.0)">n</text><text xml:space="preserve" font-family="Helvetica-Light" font-size="38.0" fill="#000000" transform="matrix(1.00, 0.00, -0.00, -1.00, 255.3, 331.0)">d</text><text xml:space="preserve" font-family="Helvetica-Light" font-size="28.5" fill="#000000" transform="matrix(1.00, 0.00, -0.00, -1.00, 100.7, 242.9)"></text><text xml:space="preserve" font-family="Helvetica-Light" font-size="38.0" fill="#000000" transform="matrix(1.00, 0.00, -0.00, -1.00, 137.0, 240.0)">E</text><text xml:space="preserve" font-family="Helvetica-Light" font-size="38.0" fill="#000000" transform="matrix(1.00, 0.00, -0.00, -1.00, 160.2, 240.0)">a</text><text xml:space="preserve" font-family="Helvetica-Light" font-size="38.0" fill="#000000" transform="matrix(1.00, 0.00, -0.00, -1.00, 181.3, 240.0)">c</text><text xml:space="preserve" font-family="Helvetica-Light" font-size="38.0" fill="#000000" transform="matrix(1.00, 0.00, -0.00, -1.00, 202.5, 240.0)">h</text><text xml:space="preserve" font-family="Helvetica-Light" font-size="38.0" fill="#000000" transform="matrix(1.00, 0.00, -0.00, -1.00, 223.6, 240.0)"> </text><text xml:space="preserve" font-family="Helvetica-Light" font-size="38.0" fill="#000000" transform="matrix(1.00, 0.00, -0.00, -1.00, 234.2, 240.0)">u</text><text xml:space="preserve" font-family="Helvetica-Light" font-size="38.0" fill="#000000" transform="matrix(1.00, 0.00, -0.00, -1.00, 255.3, 240.0)">s</text><text xml:space="preserve" font-family="Helvetica-Light" font-size="38.0" fill="#000000" transform="matrix(1.00, 0.00, -0.00, -1.00, 274.3, 240.0)">e</text><text xml:space="preserve" font-family="Helvetica-Light" font-size="38.0" fill="#000000" transform="matrix(1.00, 0.00, -0.00, -1.00, 295.4, 240.0)">r</text><text xml:space="preserve" font-family="Helvetica-Light" font-size="38.0" fill="#000000" transform="matrix(1.00, 0.00, -0.00, -1.00, 308.1, 240.0)"> </text><text xml:space="preserve" font-family="Helvetica-Light" font-size="38.0" fill="#000000" transform="matrix(1.00, 0.00, -0.00, -1.00, 318.6, 240.0)">g</text><text xml:space="preserve" font-family="Helvetica-Light" font-size="38.0" fill="#000000" transform="matrix(1.00, 0.00, -0.00, -1.00, 341.9, 240.0)">e</text><text xml:space="preserve" font-family="Helvetica-Light" font-size="38.0" fill="#000000" transform="matrix(1.00, 0.00, -0.00, -1.00, 363.0, 240.0)">t</text><text xml:space="preserve" font-family="Helvetica-Light" font-size="38.0" fill="#000000" transform="matrix(1.00, 0.00, -0.00, -1.00, 373.5, 240.0)">s</text><text xml:space="preserve" font-family="Helvetica-Light" font-size="38.0" fill="#000000" transform="matrix(1.00, 0.00, -0.00, -1.00, 392.5, 240.0)"> </text><text xml:space="preserve" font-family="Helvetica-Light" font-size="38.0" fill="#000000" transform="matrix(1.00, 0.00, -0.00, -1.00, 403.1, 240.0)">a</text><text xml:space="preserve" font-family="Helvetica-Light" font-size="38.0" fill="#000000" transform="matrix(1.00, 0.00, -0.00, -1.00, 424.2, 240.0)"> </text><text xml:space="preserve" font-family="Helvetica-Light" font-size="38.0" fill="#000000" transform="matrix(1.00, 0.00, -0.00, -1.00, 137.0, 194.0)">c</text><text xml:space="preserve" font-family="Helvetica-Light" font-size="38.0" fill="#000000" transform="matrix(1.00, 0.00, -0.00, -1.00, 158.1, 194.0)">o</text><text xml:space="preserve" font-family="Helvetica-Light" font-size="38.0" fill="#000000" transform="matrix(1.00, 0.00, -0.00, -1.00, 179.3, 194.0)">m</text><text xml:space="preserve" font-family="Helvetica-Light" font-size="38.0" fill="#000000" transform="matrix(1.00, 0.00, -0.00, -1.00, 210.9, 194.0)">p</text><text xml:space="preserve" font-family="Helvetica-Light" font-size="38.0" fill="#000000" transform="matrix(1.00, 0.00, -0.00, -1.00, 234.1, 194.0)">l</text><text xml:space="preserve" font-family="Helvetica-Light" font-size="38.0" fill="#000000" transform="matrix(1.00, 0.00, -0.00, -1.00, 242.6, 194.0)">e</text><text xml:space="preserve" font-family="Helvetica-Light" font-size="38.0" fill="#000000" transform="matrix(1.00, 0.00, -0.00, -1.00, 263.7, 194.0)">t</text><text xml:space="preserve" font-family="Helvetica-Light" font-size="38.0" fill="#000000" transform="matrix(1.00, 0.00, -0.00, -1.00, 274.3, 194.0)">e</text><text xml:space="preserve" font-family="Helvetica-Light" font-size="38.0" fill="#000000" transform="matrix(1.00, 0.00, -0.00, -1.00, 295.4, 194.0)"> </text><text xml:space="preserve" font-family="Helvetica-Light" font-size="38.0" fill="#000000" transform="matrix(1.00, 0.00, -0.00, -1.00, 137.0, 148.0)">n</text><text xml:space="preserve" font-family="Helvetica-Light" font-size="38.0" fill="#000000" transform="matrix(1.00, 0.00, -0.00, -1.00, 158.1, 148.0)">o</text><text xml:space="preserve" font-family="Helvetica-Light" font-size="38.0" fill="#000000" transform="matrix(1.00, 0.00, -0.00, -1.00, 179.3, 148.0)">t</text><text xml:space="preserve" font-family="Helvetica-Light" font-size="38.0" fill="#000000" transform="matrix(1.00, 0.00, -0.00, -1.00, 189.8, 148.0)">e</text><text xml:space="preserve" font-family="Helvetica-Light" font-size="38.0" fill="#000000" transform="matrix(1.00, 0.00, -0.00, -1.00, 210.9, 148.0)">b</text><text xml:space="preserve" font-family="Helvetica-Light" font-size="38.0" fill="#000000" transform="matrix(1.00, 0.00, -0.00, -1.00, 234.2, 148.0)">o</text><text xml:space="preserve" font-family="Helvetica-Light" font-size="38.0" fill="#000000" transform="matrix(1.00, 0.00, -0.00, -1.00, 255.3, 148.0)">o</text><text xml:space="preserve" font-family="Helvetica-Light" font-size="38.0" fill="#000000" transform="matrix(1.00, 0.00, -0.00, -1.00, 276.4, 148.0)">k</text><text xml:space="preserve" font-family="Helvetica-Light" font-size="38.0" fill="#000000" transform="matrix(1.00, 0.00, -0.00, -1.00, 295.4, 148.0)"> </text><text xml:space="preserve" font-family="Helvetica-Light" font-size="38.0" fill="#000000" transform="matrix(1.00, 0.00, -0.00, -1.00, 306.0, 148.0)">s</text><text xml:space="preserve" font-family="Helvetica-Light" font-size="38.0" fill="#000000" transform="matrix(1.00, 0.00, -0.00, -1.00, 325.0, 148.0)">e</text><text xml:space="preserve" font-family="Helvetica-Light" font-size="38.0" fill="#000000" transform="matrix(1.00, 0.00, -0.00, -1.00, 346.1, 148.0)">r</text><text xml:space="preserve" font-family="Helvetica-Light" font-size="38.0" fill="#000000" transform="matrix(1.00, 0.00, -0.00, -1.00, 358.8, 148.0)">v</text><text xml:space="preserve" font-family="Helvetica-Light" font-size="38.0" fill="#000000" transform="matrix(1.00, 0.00, -0.00, -1.00, 377.8, 148.0)">e</text><text xml:space="preserve" font-family="Helvetica-Light" font-size="38.0" fill="#000000" transform="matrix(1.00, 0.00, -0.00, -1.00, 398.9, 148.0)">r</text><text xml:space="preserve" font-family="Avenir-Medium" font-size="24.0" fill="#5B5753" transform="matrix(1.00, 0.00, -0.00, -1.00, 151.0, 659.0)">W</text><text xml:space="preserve" font-family="Avenir-Medium" font-size="24.0" fill="#5B5753" transform="matrix(1.00, 0.00, -0.00, -1.00, 174.1, 659.0)">h</text><text xml:space="preserve" font-family="Avenir-Medium" font-size="24.0" fill="#5B5753" transform="matrix(1.00, 0.00, -0.00, -1.00, 187.4, 659.0)">a</text><text xml:space="preserve" font-family="Avenir-Medium" font-size="24.0" fill="#5B5753" transform="matrix(1.00, 0.00, -0.00, -1.00, 199.9, 659.0)">t</text><text xml:space="preserve" font-family="Avenir-Medium" font-size="24.0" fill="#5B5753" transform="matrix(1.00, 0.00, -0.00, -1.00, 208.8, 659.0)"> </text><text xml:space="preserve" font-family="Avenir-Medium" font-size="24.0" fill="#5B5753" transform="matrix(1.00, 0.00, -0.00, -1.00, 215.4, 659.0)">i</text><text xml:space="preserve" font-family="Avenir-Medium" font-size="24.0" fill="#5B5753" transform="matrix(1.00, 0.00, -0.00, -1.00, 221.2, 659.0)">s</text><text xml:space="preserve" font-family="Avenir-Medium" font-size="24.0" fill="#5B5753" transform="matrix(1.00, 0.00, -0.00, -1.00, 231.9, 659.0)"> </text><text xml:space="preserve" font-family="Avenir-Medium" font-size="24.0" fill="#5B5753" transform="matrix(1.00, 0.00, -0.00, -1.00, 238.5, 659.0)">J</text><text xml:space="preserve" font-family="Avenir-Medium" font-size="24.0" fill="#5B5753" transform="matrix(1.00, 0.00, -0.00, -1.00, 250.1, 659.0)">u</text><text xml:space="preserve" font-family="Avenir-Medium" font-size="24.0" fill="#5B5753" transform="matrix(1.00, 0.00, -0.00, -1.00, 263.4, 659.0)">p</text><text xml:space="preserve" font-family="Avenir-Medium" font-size="24.0" fill="#5B5753" transform="matrix(1.00, 0.00, -0.00, -1.00, 278.1, 659.0)">y</text><text xml:space="preserve" font-family="Avenir-Medium" font-size="24.0" fill="#5B5753" transform="matrix(1.00, 0.00, -0.00, -1.00, 290.1, 659.0)">t</text><text xml:space="preserve" font-family="Avenir-Medium" font-size="24.0" fill="#5B5753" transform="matrix(1.00, 0.00, -0.00, -1.00, 299.0, 659.0)">e</text><text xml:space="preserve" font-family="Avenir-Medium" font-size="24.0" fill="#5B5753" transform="matrix(1.00, 0.00, -0.00, -1.00, 312.3, 659.0)">r</text><text xml:space="preserve" font-family="Avenir-Medium" font-size="24.0" fill="#5B5753" transform="matrix(1.00, 0.00, -0.00, -1.00, 321.2, 659.0)">H</text><text xml:space="preserve" font-family="Avenir-Medium" font-size="24.0" fill="#5B5753" transform="matrix(1.00, 0.00, -0.00, -1.00, 339.0, 659.0)">u</text><text xml:space="preserve" font-family="Avenir-Medium" font-size="24.0" fill="#5B5753" transform="matrix(1.00, 0.00, -0.00, -1.00, 352.3, 659.0)">b</text><text xml:space="preserve" font-family="Avenir-Medium" font-size="24.0" fill="#5B5753" transform="matrix(1.00, 0.00, -0.00, -1.00, 367.0, 659.0)">?</text><text xml:space="preserve" font-family="Futura-Medium" font-size="14.0" fill="#9A958D" transform="matrix(1.00, 0.00, -0.00, -1.00, 503.0, 22.0)">1</text><text xml:space="preserve" font-family="Futura-Medium" font-size="14.0" fill="#9A958D" transform="matrix(1.00, 0.00, -0.00, -1.00, 510.9, 22.0)">3</text></g></svg>