<?xml version="1.0" encoding="UTF-8" standalone="no"?><svg xmlns="http://www.w3.org/2000/svg" xmlns:xlink="http://www.w3.org/1999/xlink" clip-rule="evenodd" stroke-miterlimit="4.00" viewBox="0 0 231 28"><desc>SVG generated by Keynote</desc><defs></defs><g transform="matrix(1.00, 0.00, -0.00, -1.00, 0.0, 28.0)"><text xml:space="preserve" font-family="Avenir-Medium" font-size="24.0" fill="#5B5753" transform="matrix(1.00, 0.00, -0.00, -1.00, 2.0, 9.0)">W</text><text xml:space="preserve" font-family="Avenir-Medium" font-size="24.0" fill="#5B5753" transform="matrix(1.00, 0.00, -0.00, -1.00, 25.1, 9.0)">h</text><text xml:space="preserve" font-family="Avenir-Medium" font-size="24.0" fill="#5B5753" transform="matrix(1.00, 0.00, -0.00, -1.00, 38.4, 9.0)">a</text><text xml:space="preserve" font-family="Avenir-Medium" font-size="24.0" fill="#5B5753" transform="matrix(1.00, 0.00, -0.00, -1.00, 50.9, 9.0)">t</text><text xml:space="preserve" font-family="Avenir-Medium" font-size="24.0" fill="#5B5753" transform="matrix(1.00, 0.00, -0.00, -1.00, 59.8, 9.0)"> </text><text xml:space="preserve" font-family="Avenir-Medium" font-size="24.0" fill="#5B5753" transform="matrix(1.00, 0.00, -0.00, -1.00, 66.4, 9.0)">i</text><text xml:space="preserve" font-family="Avenir-Medium" font-size="24.0" fill="#5B5753" transform="matrix(1.00, 0.00, -0.00, -1.00, 72.2, 9.0)">s</text><text xml:space="preserve" font-family="Avenir-Medium" font-size="24.0" fill="#5B5753" transform="matrix(1.00, 0.00, -0.00, -1.00, 82.9, 9.0)"> </text><text xml:space="preserve" font-family="Avenir-Medium" font-size="24.0" fill="#5B5753" transform="matrix(1.00, 0.00, -0.00, -1.00, 89.5, 9.0)">J</text><text xml:space="preserve" font-family="Avenir-Medium" font-size="24.0" fill="#5B5753" transform="matrix(1.00, 0.00, -0.00, -1.00, 101.1, 9.0)">u</text><text xml:space="preserve" font-family="Avenir-Medium" font-size="24.0" fill="#5B5753" transform="matrix(1.00, 0.00, -0.00, -1.00, 114.4, 9.0)">p</text><text xml:space="preserve" font-family="Avenir-Medium" font-size="24.0" fill="#5B5753" transform="matrix(1.00, 0.00, -0.00, -1.00, 129.1, 9.0)">y</text><text xml:space="preserve" font-family="Avenir-Medium" font-size="24.0" fill="#5B5753" transform="matrix(1.00, 0.00, -0.00, -1.00, 141.1, 9.0)">t</text><text xml:space="preserve" font-family="Avenir-Medium" font-size="24.0" fill="#5B5753" transform="matrix(1.00, 0.00, -0.00, -1.00, 150.0, 9.0)">e</text><text xml:space="preserve" font-family="Avenir-Medium" font-size="24.0" fill="#5B5753" transform="matrix(1.00, 0.00, -0.00, -1.00, 163.3, 9.0)">r</text><text xml:space="preserve" font-family="Avenir-Medium" font-size="24.0" fill="#5B5753" transform="matrix(1.00, 0.00, -0.00, -1.00, 172.2, 9.0)">H</text><text xml:space="preserve" font-family="Avenir-Medium" font-size="24.0" fill="#5B5753" transform="matrix(1.00, 0.00, -0.00, -1.00, 190.0, 9.0)">u</text><text xml:space="preserve" font-family="Avenir-Medium" font-size="24.0" fill="#5B5753" transform="matrix(1.00, 0.00, -0.00, -1.00, 203.3, 9.0)">b</text><text xml:space="preserve" font-family="Avenir-Medium" font-size="24.0" fill="#5B5753" transform="matrix(1.00, 0.00, -0.00, -1.00, 218.0, 9.0)">?</text></g></svg>