<?xml version="1.0" encoding="UTF-8" standalone="no"?><svg xmlns="http://www.w3.org/2000/svg" xmlns:xlink="http://www.w3.org/1999/xlink" clip-rule="evenodd" stroke-miterlimit="4.00" viewBox="0 0 1024 768"><desc>SVG generated by Keynote</desc><defs></defs><g transform="matrix(1.00, 0.00, -0.00, -1.00, 0.0, 768.0)"><g><clipPath id="clip-161"><path d="M 0.0 768.0 L 1024.0 768.0 L 1024.0 0.0 L 0.0 0.0 Z M 0.0 768.0 "></path></clipPath><g clip-path="url(#clip-161)"><image xlink:href="../../A6AB71EB-7077-4CA4-A4BC-733F3D27A118/assets/AC8A38799F83CDE46BAD7F0B4FE74D5F.jpeg" width="1024.00" height="768.00" transform="matrix(1.00, 0.00, -0.00, -1.00, 0.0, 768.0)"></image></g></g><text xml:space="preserve" font-family="Futura-Medium" font-size="14.0" fill="#9A958D" transform="matrix(1.00, 0.00, -0.00, -1.00, 504.0, 22.0)">1</text><text xml:space="preserve" font-family="Futura-Medium" font-size="14.0" fill="#9A958D" transform="matrix(1.00, 0.00, -0.00, -1.00, 511.8, 22.0)">4</text><text xml:space="preserve" font-family="Futura-Medium" font-size="43.7" fill="#5B5753" transform="matrix(1.00, 0.00, -0.00, -1.00, 336.0, 288.0)">U</text><text xml:space="preserve" font-family="Futura-Medium" font-size="43.7" fill="#5B5753" transform="matrix(1.00, 0.00, -0.00, -1.00, 369.1, 288.0)">S</text><text xml:space="preserve" font-family="Futura-Medium" font-size="43.7" fill="#5B5753" transform="matrix(1.00, 0.00, -0.00, -1.00, 395.5, 288.0)">E</text><text xml:space="preserve" font-family="Futura-Medium" font-size="43.7" fill="#5B5753" transform="matrix(1.00, 0.00, -0.00, -1.00, 421.1, 288.0)">R</text><text xml:space="preserve" font-family="Futura-Medium" font-size="43.7" fill="#5B5753" transform="matrix(1.00, 0.00, -0.00, -1.00, 448.2, 288.0)"> </text><text xml:space="preserve" font-family="Futura-Medium" font-size="43.7" fill="#5B5753" transform="matrix(1.00, 0.00, -0.00, -1.00, 462.6, 288.0)">D</text><text xml:space="preserve" font-family="Futura-Medium" font-size="43.7" fill="#5B5753" transform="matrix(1.00, 0.00, -0.00, -1.00, 493.5, 288.0)">A</text><text xml:space="preserve" font-family="Futura-Medium" font-size="43.7" fill="#5B5753" transform="matrix(1.00, 0.00, -0.00, -1.00, 524.9, 288.0)">T</text><text xml:space="preserve" font-family="Futura-Medium" font-size="43.7" fill="#5B5753" transform="matrix(1.00, 0.00, -0.00, -1.00, 545.1, 288.0)">A</text><text xml:space="preserve" font-family="Futura-Medium" font-size="43.7" fill="#5B5753" transform="matrix(1.00, 0.00, -0.00, -1.00, 578.3, 288.0)">B</text><text xml:space="preserve" font-family="Futura-Medium" font-size="43.7" fill="#5B5753" transform="matrix(1.00, 0.00, -0.00, -1.00, 604.5, 288.0)">A</text><text xml:space="preserve" font-family="Futura-Medium" font-size="43.7" fill="#5B5753" transform="matrix(1.00, 0.00, -0.00, -1.00, 637.8, 288.0)">S</text><text xml:space="preserve" font-family="Futura-Medium" font-size="43.7" fill="#5B5753" transform="matrix(1.00, 0.00, -0.00, -1.00, 664.1, 288.0)">E</text><text xml:space="preserve" font-family="Futura-Medium" font-size="43.7" fill="#5B5753" transform="matrix(1.00, 0.00, -0.00, -1.00, 689.7, 288.0)"> </text><text xml:space="preserve" font-family="HumorSans" font-size="43.7" fill="#5B5753" transform="matrix(1.00, 0.00, -0.00, -1.00, 97.0, 186.0)">A</text><text xml:space="preserve" font-family="HumorSans" font-size="43.7" fill="#5B5753" transform="matrix(1.00, 0.00, -0.00, -1.00, 122.2, 186.0)"> </text><text xml:space="preserve" font-family="HumorSans" font-size="43.7" fill="#5B5753" transform="matrix(1.00, 0.00, -0.00, -1.00, 144.1, 186.0)">P</text><text xml:space="preserve" font-family="HumorSans" font-size="43.7" fill="#5B5753" transform="matrix(1.00, 0.00, -0.00, -1.00, 172.1, 186.0)">L</text><text xml:space="preserve" font-family="HumorSans" font-size="43.7" fill="#5B5753" transform="matrix(1.00, 0.00, -0.00, -1.00, 196.4, 186.0)">A</text><text xml:space="preserve" font-family="HumorSans" font-size="43.7" fill="#5B5753" transform="matrix(1.00, 0.00, -0.00, -1.00, 221.6, 186.0)">C</text><text xml:space="preserve" font-family="HumorSans" font-size="43.7" fill="#5B5753" transform="matrix(1.00, 0.00, -0.00, -1.00, 251.5, 186.0)">E</text><text xml:space="preserve" font-family="HumorSans" font-size="43.7" fill="#5B5753" transform="matrix(1.00, 0.00, -0.00, -1.00, 280.4, 186.0)"> </text><text xml:space="preserve" font-family="HumorSans" font-size="43.7" fill="#5B5753" transform="matrix(1.00, 0.00, -0.00, -1.00, 302.3, 186.0)">T</text><text xml:space="preserve" font-family="HumorSans" font-size="43.7" fill="#5B5753" transform="matrix(1.00, 0.00, -0.00, -1.00, 329.4, 186.0)">O</text><text xml:space="preserve" font-family="HumorSans" font-size="43.7" fill="#5B5753" transform="matrix(1.00, 0.00, -0.00, -1.00, 357.4, 186.0)"> </text><text xml:space="preserve" font-family="HumorSans" font-size="43.7" fill="#5B5753" transform="matrix(1.00, 0.00, -0.00, -1.00, 379.3, 186.0)">K</text><text xml:space="preserve" font-family="HumorSans" font-size="43.7" fill="#5B5753" transform="matrix(1.00, 0.00, -0.00, -1.00, 404.5, 186.0)">E</text><text xml:space="preserve" font-family="HumorSans" font-size="43.7" fill="#5B5753" transform="matrix(1.00, 0.00, -0.00, -1.00, 433.4, 186.0)">E</text><text xml:space="preserve" font-family="HumorSans" font-size="43.7" fill="#5B5753" transform="matrix(1.00, 0.00, -0.00, -1.00, 462.4, 186.0)">P</text><text xml:space="preserve" font-family="HumorSans" font-size="43.7" fill="#5B5753" transform="matrix(1.00, 0.00, -0.00, -1.00, 490.4, 186.0)"> </text><text xml:space="preserve" font-family="HumorSans" font-size="43.7" fill="#5B5753" transform="matrix(1.00, 0.00, -0.00, -1.00, 512.3, 186.0)">I</text><text xml:space="preserve" font-family="HumorSans" font-size="43.7" fill="#5B5753" transform="matrix(1.00, 0.00, -0.00, -1.00, 521.6, 186.0)">N</text><text xml:space="preserve" font-family="HumorSans" font-size="43.7" fill="#5B5753" transform="matrix(1.00, 0.00, -0.00, -1.00, 548.6, 186.0)">F</text><text xml:space="preserve" font-family="HumorSans" font-size="43.7" fill="#5B5753" transform="matrix(1.00, 0.00, -0.00, -1.00, 571.9, 186.0)">O</text><text xml:space="preserve" font-family="HumorSans" font-size="43.7" fill="#5B5753" transform="matrix(1.00, 0.00, -0.00, -1.00, 599.9, 186.0)">R</text><text xml:space="preserve" font-family="HumorSans" font-size="43.7" fill="#5B5753" transform="matrix(1.00, 0.00, -0.00, -1.00, 628.0, 186.0)">M</text><text xml:space="preserve" font-family="HumorSans" font-size="43.7" fill="#5B5753" transform="matrix(1.00, 0.00, -0.00, -1.00, 657.9, 186.0)">A</text><text xml:space="preserve" font-family="HumorSans" font-size="43.7" fill="#5B5753" transform="matrix(1.00, 0.00, -0.00, -1.00, 683.1, 186.0)">T</text><text xml:space="preserve" font-family="HumorSans" font-size="43.7" fill="#5B5753" transform="matrix(1.00, 0.00, -0.00, -1.00, 710.1, 186.0)">I</text><text xml:space="preserve" font-family="HumorSans" font-size="43.7" fill="#5B5753" transform="matrix(1.00, 0.00, -0.00, -1.00, 719.4, 186.0)">O</text><text xml:space="preserve" font-family="HumorSans" font-size="43.7" fill="#5B5753" transform="matrix(1.00, 0.00, -0.00, -1.00, 747.4, 186.0)">N</text><text xml:space="preserve" font-family="HumorSans" font-size="43.7" fill="#5B5753" transform="matrix(1.00, 0.00, -0.00, -1.00, 774.4, 186.0)"> </text><text xml:space="preserve" font-family="HumorSans" font-size="43.7" fill="#5B5753" transform="matrix(1.00, 0.00, -0.00, -1.00, 796.4, 186.0)">A</text><text xml:space="preserve" font-family="HumorSans" font-size="43.7" fill="#5B5753" transform="matrix(1.00, 0.00, -0.00, -1.00, 821.5, 186.0)">B</text><text xml:space="preserve" font-family="HumorSans" font-size="43.7" fill="#5B5753" transform="matrix(1.00, 0.00, -0.00, -1.00, 847.7, 186.0)">O</text><text xml:space="preserve" font-family="HumorSans" font-size="43.7" fill="#5B5753" transform="matrix(1.00, 0.00, -0.00, -1.00, 875.7, 186.0)">U</text><text xml:space="preserve" font-family="HumorSans" font-size="43.7" fill="#5B5753" transform="matrix(1.00, 0.00, -0.00, -1.00, 901.9, 186.0)">T</text><text xml:space="preserve" font-family="HumorSans" font-size="43.7" fill="#5B5753" transform="matrix(1.00, 0.00, -0.00, -1.00, 928.9, 186.0)"> </text><text xml:space="preserve" font-family="HumorSans" font-size="43.7" fill="#5B5753" transform="matrix(1.00, 0.00, -0.00, -1.00, 215.0, 137.0)">P</text><text xml:space="preserve" font-family="HumorSans" font-size="43.7" fill="#5B5753" transform="matrix(1.00, 0.00, -0.00, -1.00, 243.0, 137.0)">E</text><text xml:space="preserve" font-family="HumorSans" font-size="43.7" fill="#5B5753" transform="matrix(1.00, 0.00, -0.00, -1.00, 271.9, 137.0)">O</text><text xml:space="preserve" font-family="HumorSans" font-size="43.7" fill="#5B5753" transform="matrix(1.00, 0.00, -0.00, -1.00, 299.9, 137.0)">P</text><text xml:space="preserve" font-family="HumorSans" font-size="43.7" fill="#5B5753" transform="matrix(1.00, 0.00, -0.00, -1.00, 327.9, 137.0)">L</text><text xml:space="preserve" font-family="HumorSans" font-size="43.7" fill="#5B5753" transform="matrix(1.00, 0.00, -0.00, -1.00, 352.2, 137.0)">E</text><text xml:space="preserve" font-family="HumorSans" font-size="43.7" fill="#5B5753" transform="matrix(1.00, 0.00, -0.00, -1.00, 381.1, 137.0)"> </text><text xml:space="preserve" font-family="HumorSans" font-size="43.7" fill="#5B5753" transform="matrix(1.00, 0.00, -0.00, -1.00, 403.0, 137.0)">U</text><text xml:space="preserve" font-family="HumorSans" font-size="43.7" fill="#5B5753" transform="matrix(1.00, 0.00, -0.00, -1.00, 429.1, 137.0)">S</text><text xml:space="preserve" font-family="HumorSans" font-size="43.7" fill="#5B5753" transform="matrix(1.00, 0.00, -0.00, -1.00, 454.3, 137.0)">I</text><text xml:space="preserve" font-family="HumorSans" font-size="43.7" fill="#5B5753" transform="matrix(1.00, 0.00, -0.00, -1.00, 463.5, 137.0)">N</text><text xml:space="preserve" font-family="HumorSans" font-size="43.7" fill="#5B5753" transform="matrix(1.00, 0.00, -0.00, -1.00, 490.5, 137.0)">G</text><text xml:space="preserve" font-family="HumorSans" font-size="43.7" fill="#5B5753" transform="matrix(1.00, 0.00, -0.00, -1.00, 517.6, 137.0)"> </text><text xml:space="preserve" font-family="HumorSans" font-size="43.7" fill="#5B5753" transform="matrix(1.00, 0.00, -0.00, -1.00, 539.5, 137.0)">J</text><text xml:space="preserve" font-family="HumorSans" font-size="43.7" fill="#5B5753" transform="matrix(1.00, 0.00, -0.00, -1.00, 566.5, 137.0)">U</text><text xml:space="preserve" font-family="HumorSans" font-size="43.7" fill="#5B5753" transform="matrix(1.00, 0.00, -0.00, -1.00, 592.6, 137.0)">P</text><text xml:space="preserve" font-family="HumorSans" font-size="43.7" fill="#5B5753" transform="matrix(1.00, 0.00, -0.00, -1.00, 620.6, 137.0)">Y</text><text xml:space="preserve" font-family="HumorSans" font-size="43.7" fill="#5B5753" transform="matrix(1.00, 0.00, -0.00, -1.00, 648.6, 137.0)">T</text><text xml:space="preserve" font-family="HumorSans" font-size="43.7" fill="#5B5753" transform="matrix(1.00, 0.00, -0.00, -1.00, 675.7, 137.0)">E</text><text xml:space="preserve" font-family="HumorSans" font-size="43.7" fill="#5B5753" transform="matrix(1.00, 0.00, -0.00, -1.00, 704.6, 137.0)">R</text><text xml:space="preserve" font-family="HumorSans" font-size="43.7" fill="#5B5753" transform="matrix(1.00, 0.00, -0.00, -1.00, 732.6, 137.0)">H</text><text xml:space="preserve" font-family="HumorSans" font-size="43.7" fill="#5B5753" transform="matrix(1.00, 0.00, -0.00, -1.00, 757.7, 137.0)">U</text><text xml:space="preserve" font-family="HumorSans" font-size="43.7" fill="#5B5753" transform="matrix(1.00, 0.00, -0.00, -1.00, 783.8, 137.0)">B</text></g></svg>