<?xml version="1.0" encoding="UTF-8" standalone="no"?><svg xmlns="http://www.w3.org/2000/svg" xmlns:xlink="http://www.w3.org/1999/xlink" clip-rule="evenodd" stroke-miterlimit="4.00" viewBox="0 0 372 125"><desc>SVG generated by Keynote</desc><defs></defs><g transform="matrix(1.00, 0.00, -0.00, -1.00, 0.0, 125.0)"><text xml:space="preserve" font-family="Helvetica-Light" font-size="28.5" fill="#000000" transform="matrix(1.00, 0.00, -0.00, -1.00, 0.1, 97.8)">•</text><text xml:space="preserve" font-family="Helvetica-Light" font-size="38.0" fill="#000000" transform="matrix(1.00, 0.00, -0.00, -1.00, 37.0, 95.0)">S</text><text xml:space="preserve" font-family="Helvetica-Light" font-size="38.0" fill="#000000" transform="matrix(1.00, 0.00, -0.00, -1.00, 60.2, 95.0)">p</text><text xml:space="preserve" font-family="Helvetica-Light" font-size="38.0" fill="#000000" transform="matrix(1.00, 0.00, -0.00, -1.00, 83.4, 95.0)">a</text><text xml:space="preserve" font-family="Helvetica-Light" font-size="38.0" fill="#000000" transform="matrix(1.00, 0.00, -0.00, -1.00, 104.6, 95.0)">w</text><text xml:space="preserve" font-family="Helvetica-Light" font-size="38.0" fill="#000000" transform="matrix(1.00, 0.00, -0.00, -1.00, 132.0, 95.0)">n</text><text xml:space="preserve" font-family="Helvetica-Light" font-size="38.0" fill="#000000" transform="matrix(1.00, 0.00, -0.00, -1.00, 153.1, 95.0)">s</text><text xml:space="preserve" font-family="Helvetica-Light" font-size="38.0" fill="#000000" transform="matrix(1.00, 0.00, -0.00, -1.00, 172.1, 95.0)"> </text><text xml:space="preserve" font-family="Helvetica-Light" font-size="38.0" fill="#000000" transform="matrix(1.00, 0.00, -0.00, -1.00, 182.7, 95.0)">s</text><text xml:space="preserve" font-family="Helvetica-Light" font-size="38.0" fill="#000000" transform="matrix(1.00, 0.00, -0.00, -1.00, 201.7, 95.0)">i</text><text xml:space="preserve" font-family="Helvetica-Light" font-size="38.0" fill="#000000" transform="matrix(1.00, 0.00, -0.00, -1.00, 210.1, 95.0)">n</text><text xml:space="preserve" font-family="Helvetica-Light" font-size="38.0" fill="#000000" transform="matrix(1.00, 0.00, -0.00, -1.00, 231.3, 95.0)">g</text><text xml:space="preserve" font-family="Helvetica-Light" font-size="38.0" fill="#000000" transform="matrix(1.00, 0.00, -0.00, -1.00, 254.5, 95.0)">l</text><text xml:space="preserve" font-family="Helvetica-Light" font-size="38.0" fill="#000000" transform="matrix(1.00, 0.00, -0.00, -1.00, 262.9, 95.0)">e</text><text xml:space="preserve" font-family="Helvetica-Light" font-size="38.0" fill="#000000" transform="matrix(1.00, 0.00, -0.00, -1.00, 284.0, 95.0)">-</text><text xml:space="preserve" font-family="Helvetica-Light" font-size="38.0" fill="#000000" transform="matrix(1.00, 0.00, -0.00, -1.00, 296.7, 95.0)">u</text><text xml:space="preserve" font-family="Helvetica-Light" font-size="38.0" fill="#000000" transform="matrix(1.00, 0.00, -0.00, -1.00, 317.8, 95.0)">s</text><text xml:space="preserve" font-family="Helvetica-Light" font-size="38.0" fill="#000000" transform="matrix(1.00, 0.00, -0.00, -1.00, 336.8, 95.0)">e</text><text xml:space="preserve" font-family="Helvetica-Light" font-size="38.0" fill="#000000" transform="matrix(1.00, 0.00, -0.00, -1.00, 357.9, 95.0)">r</text><text xml:space="preserve" font-family="Helvetica-Light" font-size="38.0" fill="#000000" transform="matrix(1.00, 0.00, -0.00, -1.00, 370.6, 95.0)"> </text><text xml:space="preserve" font-family="Helvetica-Light" font-size="38.0" fill="#000000" transform="matrix(1.00, 0.00, -0.00, -1.00, 37.0, 49.0)">n</text><text xml:space="preserve" font-family="Helvetica-Light" font-size="38.0" fill="#000000" transform="matrix(1.00, 0.00, -0.00, -1.00, 58.1, 49.0)">o</text><text xml:space="preserve" font-family="Helvetica-Light" font-size="38.0" fill="#000000" transform="matrix(1.00, 0.00, -0.00, -1.00, 79.3, 49.0)">t</text><text xml:space="preserve" font-family="Helvetica-Light" font-size="38.0" fill="#000000" transform="matrix(1.00, 0.00, -0.00, -1.00, 89.8, 49.0)">e</text><text xml:space="preserve" font-family="Helvetica-Light" font-size="38.0" fill="#000000" transform="matrix(1.00, 0.00, -0.00, -1.00, 110.9, 49.0)">b</text><text xml:space="preserve" font-family="Helvetica-Light" font-size="38.0" fill="#000000" transform="matrix(1.00, 0.00, -0.00, -1.00, 134.2, 49.0)">o</text><text xml:space="preserve" font-family="Helvetica-Light" font-size="38.0" fill="#000000" transform="matrix(1.00, 0.00, -0.00, -1.00, 155.3, 49.0)">o</text><text xml:space="preserve" font-family="Helvetica-Light" font-size="38.0" fill="#000000" transform="matrix(1.00, 0.00, -0.00, -1.00, 176.4, 49.0)">k</text><text xml:space="preserve" font-family="Helvetica-Light" font-size="38.0" fill="#000000" transform="matrix(1.00, 0.00, -0.00, -1.00, 195.4, 49.0)"> </text><text xml:space="preserve" font-family="Helvetica-Light" font-size="38.0" fill="#000000" transform="matrix(1.00, 0.00, -0.00, -1.00, 206.0, 49.0)">s</text><text xml:space="preserve" font-family="Helvetica-Light" font-size="38.0" fill="#000000" transform="matrix(1.00, 0.00, -0.00, -1.00, 225.0, 49.0)">e</text><text xml:space="preserve" font-family="Helvetica-Light" font-size="38.0" fill="#000000" transform="matrix(1.00, 0.00, -0.00, -1.00, 246.1, 49.0)">r</text><text xml:space="preserve" font-family="Helvetica-Light" font-size="38.0" fill="#000000" transform="matrix(1.00, 0.00, -0.00, -1.00, 258.8, 49.0)">v</text><text xml:space="preserve" font-family="Helvetica-Light" font-size="38.0" fill="#000000" transform="matrix(1.00, 0.00, -0.00, -1.00, 277.8, 49.0)">e</text><text xml:space="preserve" font-family="Helvetica-Light" font-size="38.0" fill="#000000" transform="matrix(1.00, 0.00, -0.00, -1.00, 298.9, 49.0)">r</text><text xml:space="preserve" font-family="Helvetica-Light" font-size="38.0" fill="#000000" transform="matrix(1.00, 0.00, -0.00, -1.00, 311.6, 49.0)">s</text><text xml:space="preserve" font-family="Helvetica-Light" font-size="38.0" fill="#000000" transform="matrix(1.00, 0.00, -0.00, -1.00, 330.6, 49.0)"> </text><text xml:space="preserve" font-family="Helvetica-Light" font-size="38.0" fill="#000000" transform="matrix(1.00, 0.00, -0.00, -1.00, 37.0, 3.0)">o</text><text xml:space="preserve" font-family="Helvetica-Light" font-size="38.0" fill="#000000" transform="matrix(1.00, 0.00, -0.00, -1.00, 58.1, 3.0)">n</text><text xml:space="preserve" font-family="Helvetica-Light" font-size="38.0" fill="#000000" transform="matrix(1.00, 0.00, -0.00, -1.00, 79.3, 3.0)">-</text><text xml:space="preserve" font-family="Helvetica-Light" font-size="38.0" fill="#000000" transform="matrix(1.00, 0.00, -0.00, -1.00, 91.9, 3.0)">d</text><text xml:space="preserve" font-family="Helvetica-Light" font-size="38.0" fill="#000000" transform="matrix(1.00, 0.00, -0.00, -1.00, 115.1, 3.0)">e</text><text xml:space="preserve" font-family="Helvetica-Light" font-size="38.0" fill="#000000" transform="matrix(1.00, 0.00, -0.00, -1.00, 136.3, 3.0)">m</text><text xml:space="preserve" font-family="Helvetica-Light" font-size="38.0" fill="#000000" transform="matrix(1.00, 0.00, -0.00, -1.00, 167.9, 3.0)">a</text><text xml:space="preserve" font-family="Helvetica-Light" font-size="38.0" fill="#000000" transform="matrix(1.00, 0.00, -0.00, -1.00, 189.0, 3.0)">n</text><text xml:space="preserve" font-family="Helvetica-Light" font-size="38.0" fill="#000000" transform="matrix(1.00, 0.00, -0.00, -1.00, 210.2, 3.0)">d</text></g></svg>