<?xml version="1.0" encoding="UTF-8" standalone="no"?><svg xmlns="http://www.w3.org/2000/svg" xmlns:xlink="http://www.w3.org/1999/xlink" clip-rule="evenodd" stroke-miterlimit="4.00" viewBox="0 0 1024 768"><desc>SVG generated by Keynote</desc><defs></defs><g transform="matrix(1.00, 0.00, -0.00, -1.00, 0.0, 768.0)"><g><clipPath id="clip-22"><path d="M 0.0 768.0 L 1024.0 768.0 L 1024.0 0.0 L 0.0 0.0 Z M 0.0 768.0 "></path></clipPath><g clip-path="url(#clip-22)"><image xlink:href="../../A6AB71EB-7077-4CA4-A4BC-733F3D27A118/assets/AC8A38799F83CDE46BAD7F0B4FE74D5F.jpeg" width="1024.00" height="768.00" transform="matrix(1.00, 0.00, -0.00, -1.00, 0.0, 768.0)"></image></g></g><image xlink:href="../../A6AB71EB-7077-4CA4-A4BC-733F3D27A118/assets/869041A4D72A9D33C3AE1818195F4319.png" width="797.00" height="139.00" transform="matrix(1.00, 0.00, -0.00, -1.00, 114.0, 678.0)"></image><text xml:space="preserve" font-family="Futura-Medium" font-size="14.0" fill="#9A958D" transform="matrix(1.00, 0.00, -0.00, -1.00, 508.0, 22.0)">7</text><path d="M 32.2 0.0 L 132.6 0.0 C 141.9 0.0 146.6 0.0 151.5 1.6 C 157.0 3.6 161.3 7.9 163.3 13.3 C 164.9 18.3 164.9 23.0 164.9 32.4 L 164.9 108.3 C 164.9 117.6 164.9 122.3 163.3 127.2 C 161.3 132.7 157.0 137.0 151.5 139.0 C 146.6 140.5 141.9 140.5 132.5 140.5 L 32.2 140.5 C 23.0 140.5 18.3 140.5 13.3 139.0 C 7.9 137.0 3.6 132.7 1.6 127.2 C 0.0 122.3 0.0 117.6 0.0 108.2 L 0.0 32.2 C 0.0 23.0 0.0 18.3 1.6 13.3 C 3.6 7.9 7.9 3.6 13.3 1.6 C 18.3 0.0 23.0 0.0 32.4 0.0 Z M 32.2 0.0 " fill="none" stroke="#5B5753" stroke-width="3.00" transform="matrix(1.00, 0.00, 0.00, -1.00, 630.0, 472.6)"></path><g><clipPath id="clip-23"><path d="M 624.5 332.1 L 800.4 332.1 L 800.4 472.6 L 624.5 472.6 Z M 624.5 332.1 "></path></clipPath><g clip-path="url(#clip-23)"><text xml:space="preserve" font-family="Futura-Medium" font-size="34.0" fill="#F37626" transform="matrix(1.00, 0.00, -0.00, -1.00, 677.0, 390.0)">H</text><text xml:space="preserve" font-family="Futura-Medium" font-size="34.0" fill="#F37626" transform="matrix(1.00, 0.00, -0.00, -1.00, 702.6, 390.0)">U</text><text xml:space="preserve" font-family="Futura-Medium" font-size="34.0" fill="#F37626" transform="matrix(1.00, 0.00, -0.00, -1.00, 728.4, 390.0)">B</text></g></g><text xml:space="preserve" font-family="HumorSans" font-size="43.7" fill="#5B5753" transform="matrix(1.00, 0.00, -0.00, -1.00, 93.0, 456.0)">A</text><text xml:space="preserve" font-family="HumorSans" font-size="43.7" fill="#5B5753" transform="matrix(1.00, 0.00, -0.00, -1.00, 118.2, 456.0)"> </text><text xml:space="preserve" font-family="HumorSans" font-size="43.7" fill="#5B5753" transform="matrix(1.00, 0.00, -0.00, -1.00, 140.1, 456.0)">T</text><text xml:space="preserve" font-family="HumorSans" font-size="43.7" fill="#5B5753" transform="matrix(1.00, 0.00, -0.00, -1.00, 167.1, 456.0)">H</text><text xml:space="preserve" font-family="HumorSans" font-size="43.7" fill="#5B5753" transform="matrix(1.00, 0.00, -0.00, -1.00, 192.3, 456.0)">I</text><text xml:space="preserve" font-family="HumorSans" font-size="43.7" fill="#5B5753" transform="matrix(1.00, 0.00, -0.00, -1.00, 201.6, 456.0)">N</text><text xml:space="preserve" font-family="HumorSans" font-size="43.7" fill="#5B5753" transform="matrix(1.00, 0.00, -0.00, -1.00, 228.6, 456.0)">G</text><text xml:space="preserve" font-family="HumorSans" font-size="43.7" fill="#5B5753" transform="matrix(1.00, 0.00, -0.00, -1.00, 255.7, 456.0)"> </text><text xml:space="preserve" font-family="HumorSans" font-size="43.7" fill="#5B5753" transform="matrix(1.00, 0.00, -0.00, -1.00, 277.6, 456.0)">T</text><text xml:space="preserve" font-family="HumorSans" font-size="43.7" fill="#5B5753" transform="matrix(1.00, 0.00, -0.00, -1.00, 304.6, 456.0)">O</text><text xml:space="preserve" font-family="HumorSans" font-size="43.7" fill="#5B5753" transform="matrix(1.00, 0.00, -0.00, -1.00, 332.7, 456.0)"> </text><text xml:space="preserve" font-family="HumorSans" font-size="43.7" fill="#5B5753" transform="matrix(1.00, 0.00, -0.00, -1.00, 354.6, 456.0)">G</text><text xml:space="preserve" font-family="HumorSans" font-size="43.7" fill="#5B5753" transform="matrix(1.00, 0.00, -0.00, -1.00, 381.7, 456.0)">I</text><text xml:space="preserve" font-family="HumorSans" font-size="43.7" fill="#5B5753" transform="matrix(1.00, 0.00, -0.00, -1.00, 390.9, 456.0)">V</text><text xml:space="preserve" font-family="HumorSans" font-size="43.7" fill="#5B5753" transform="matrix(1.00, 0.00, -0.00, -1.00, 415.2, 456.0)">E</text><text xml:space="preserve" font-family="HumorSans" font-size="43.7" fill="#5B5753" transform="matrix(1.00, 0.00, -0.00, -1.00, 444.1, 456.0)"> </text><text xml:space="preserve" font-family="HumorSans" font-size="43.7" fill="#5B5753" transform="matrix(1.00, 0.00, -0.00, -1.00, 466.0, 456.0)">A</text><text xml:space="preserve" font-family="HumorSans" font-size="43.7" fill="#5B5753" transform="matrix(1.00, 0.00, -0.00, -1.00, 491.2, 456.0)"> </text><text xml:space="preserve" font-family="HumorSans" font-size="43.7" fill="#5B5753" transform="matrix(1.00, 0.00, -0.00, -1.00, 76.0, 407.0)">J</text><text xml:space="preserve" font-family="HumorSans" font-size="43.7" fill="#5B5753" transform="matrix(1.00, 0.00, -0.00, -1.00, 103.0, 407.0)">U</text><text xml:space="preserve" font-family="HumorSans" font-size="43.7" fill="#5B5753" transform="matrix(1.00, 0.00, -0.00, -1.00, 129.2, 407.0)">P</text><text xml:space="preserve" font-family="HumorSans" font-size="43.7" fill="#5B5753" transform="matrix(1.00, 0.00, -0.00, -1.00, 157.2, 407.0)">Y</text><text xml:space="preserve" font-family="HumorSans" font-size="43.7" fill="#5B5753" transform="matrix(1.00, 0.00, -0.00, -1.00, 185.3, 407.0)">T</text><text xml:space="preserve" font-family="HumorSans" font-size="43.7" fill="#5B5753" transform="matrix(1.00, 0.00, -0.00, -1.00, 212.3, 407.0)">E</text><text xml:space="preserve" font-family="HumorSans" font-size="43.7" fill="#5B5753" transform="matrix(1.00, 0.00, -0.00, -1.00, 241.2, 407.0)">R</text><text xml:space="preserve" font-family="HumorSans" font-size="43.7" fill="#5B5753" transform="matrix(1.00, 0.00, -0.00, -1.00, 269.3, 407.0)"> </text><text xml:space="preserve" font-family="HumorSans" font-size="43.7" fill="#5B5753" transform="matrix(1.00, 0.00, -0.00, -1.00, 291.2, 407.0)">N</text><text xml:space="preserve" font-family="HumorSans" font-size="43.7" fill="#5B5753" transform="matrix(1.00, 0.00, -0.00, -1.00, 318.2, 407.0)">O</text><text xml:space="preserve" font-family="HumorSans" font-size="43.7" fill="#5B5753" transform="matrix(1.00, 0.00, -0.00, -1.00, 346.3, 407.0)">T</text><text xml:space="preserve" font-family="HumorSans" font-size="43.7" fill="#5B5753" transform="matrix(1.00, 0.00, -0.00, -1.00, 373.3, 407.0)">E</text><text xml:space="preserve" font-family="HumorSans" font-size="43.7" fill="#5B5753" transform="matrix(1.00, 0.00, -0.00, -1.00, 402.2, 407.0)">B</text><text xml:space="preserve" font-family="HumorSans" font-size="43.7" fill="#5B5753" transform="matrix(1.00, 0.00, -0.00, -1.00, 428.4, 407.0)">O</text><text xml:space="preserve" font-family="HumorSans" font-size="43.7" fill="#5B5753" transform="matrix(1.00, 0.00, -0.00, -1.00, 456.4, 407.0)">O</text><text xml:space="preserve" font-family="HumorSans" font-size="43.7" fill="#5B5753" transform="matrix(1.00, 0.00, -0.00, -1.00, 484.4, 407.0)">K</text><text xml:space="preserve" font-family="HumorSans" font-size="43.7" fill="#5B5753" transform="matrix(1.00, 0.00, -0.00, -1.00, 509.6, 407.0)"> </text><text xml:space="preserve" font-family="HumorSans" font-size="43.7" fill="#5B5753" transform="matrix(1.00, 0.00, -0.00, -1.00, 107.0, 358.0)">S</text><text xml:space="preserve" font-family="HumorSans" font-size="43.7" fill="#5B5753" transform="matrix(1.00, 0.00, -0.00, -1.00, 132.2, 358.0)">E</text><text xml:space="preserve" font-family="HumorSans" font-size="43.7" fill="#5B5753" transform="matrix(1.00, 0.00, -0.00, -1.00, 161.1, 358.0)">R</text><text xml:space="preserve" font-family="HumorSans" font-size="43.7" fill="#5B5753" transform="matrix(1.00, 0.00, -0.00, -1.00, 189.1, 358.0)">V</text><text xml:space="preserve" font-family="HumorSans" font-size="43.7" fill="#5B5753" transform="matrix(1.00, 0.00, -0.00, -1.00, 213.4, 358.0)">E</text><text xml:space="preserve" font-family="HumorSans" font-size="43.7" fill="#5B5753" transform="matrix(1.00, 0.00, -0.00, -1.00, 242.3, 358.0)">R</text><text xml:space="preserve" font-family="HumorSans" font-size="43.7" fill="#5B5753" transform="matrix(1.00, 0.00, -0.00, -1.00, 270.4, 358.0)"> </text><text xml:space="preserve" font-family="HumorSans" font-size="43.7" fill="#5B5753" transform="matrix(1.00, 0.00, -0.00, -1.00, 292.3, 358.0)">T</text><text xml:space="preserve" font-family="HumorSans" font-size="43.7" fill="#5B5753" transform="matrix(1.00, 0.00, -0.00, -1.00, 319.3, 358.0)">O</text><text xml:space="preserve" font-family="HumorSans" font-size="43.7" fill="#5B5753" transform="matrix(1.00, 0.00, -0.00, -1.00, 347.4, 358.0)"> </text><text xml:space="preserve" font-family="HumorSans" font-size="43.7" fill="#5B5753" transform="matrix(1.00, 0.00, -0.00, -1.00, 369.3, 358.0)">E</text><text xml:space="preserve" font-family="HumorSans" font-size="43.7" fill="#5B5753" transform="matrix(1.00, 0.00, -0.00, -1.00, 398.2, 358.0)">A</text><text xml:space="preserve" font-family="HumorSans" font-size="43.7" fill="#5B5753" transform="matrix(1.00, 0.00, -0.00, -1.00, 423.4, 358.0)">C</text><text xml:space="preserve" font-family="HumorSans" font-size="43.7" fill="#5B5753" transform="matrix(1.00, 0.00, -0.00, -1.00, 453.3, 358.0)">H</text><text xml:space="preserve" font-family="HumorSans" font-size="43.7" fill="#5B5753" transform="matrix(1.00, 0.00, -0.00, -1.00, 478.5, 358.0)"> </text><text xml:space="preserve" font-family="HumorSans" font-size="43.7" fill="#5B5753" transform="matrix(1.00, 0.00, -0.00, -1.00, 78.0, 309.0)">P</text><text xml:space="preserve" font-family="HumorSans" font-size="43.7" fill="#5B5753" transform="matrix(1.00, 0.00, -0.00, -1.00, 106.0, 309.0)">E</text><text xml:space="preserve" font-family="HumorSans" font-size="43.7" fill="#5B5753" transform="matrix(1.00, 0.00, -0.00, -1.00, 134.9, 309.0)">R</text><text xml:space="preserve" font-family="HumorSans" font-size="43.7" fill="#5B5753" transform="matrix(1.00, 0.00, -0.00, -1.00, 162.9, 309.0)">S</text><text xml:space="preserve" font-family="HumorSans" font-size="43.7" fill="#5B5753" transform="matrix(1.00, 0.00, -0.00, -1.00, 188.1, 309.0)">O</text><text xml:space="preserve" font-family="HumorSans" font-size="43.7" fill="#5B5753" transform="matrix(1.00, 0.00, -0.00, -1.00, 216.1, 309.0)">N</text><text xml:space="preserve" font-family="HumorSans" font-size="43.7" fill="#5B5753" transform="matrix(1.00, 0.00, -0.00, -1.00, 243.1, 309.0)"> </text><text xml:space="preserve" font-family="HumorSans" font-size="43.7" fill="#5B5753" transform="matrix(1.00, 0.00, -0.00, -1.00, 265.0, 309.0)">I</text><text xml:space="preserve" font-family="HumorSans" font-size="43.7" fill="#5B5753" transform="matrix(1.00, 0.00, -0.00, -1.00, 274.2, 309.0)">N</text><text xml:space="preserve" font-family="HumorSans" font-size="43.7" fill="#5B5753" transform="matrix(1.00, 0.00, -0.00, -1.00, 301.3, 309.0)"> </text><text xml:space="preserve" font-family="HumorSans" font-size="43.7" fill="#5B5753" transform="matrix(1.00, 0.00, -0.00, -1.00, 323.2, 309.0)">A</text><text xml:space="preserve" font-family="HumorSans" font-size="43.7" fill="#5B5753" transform="matrix(1.00, 0.00, -0.00, -1.00, 348.3, 309.0)"> </text><text xml:space="preserve" font-family="HumorSans" font-size="43.7" fill="#5B5753" transform="matrix(1.00, 0.00, -0.00, -1.00, 370.2, 309.0)">G</text><text xml:space="preserve" font-family="HumorSans" font-size="43.7" fill="#5B5753" transform="matrix(1.00, 0.00, -0.00, -1.00, 397.3, 309.0)">R</text><text xml:space="preserve" font-family="HumorSans" font-size="43.7" fill="#5B5753" transform="matrix(1.00, 0.00, -0.00, -1.00, 425.3, 309.0)">O</text><text xml:space="preserve" font-family="HumorSans" font-size="43.7" fill="#5B5753" transform="matrix(1.00, 0.00, -0.00, -1.00, 453.3, 309.0)">U</text><text xml:space="preserve" font-family="HumorSans" font-size="43.7" fill="#5B5753" transform="matrix(1.00, 0.00, -0.00, -1.00, 479.4, 309.0)">P</text><text xml:space="preserve" font-family="HumorSans" font-size="43.7" fill="#5B5753" transform="matrix(1.00, 0.00, -0.00, -1.00, 507.4, 309.0)"> </text><text xml:space="preserve" font-family="HumorSans" font-size="43.7" fill="#5B5753" transform="matrix(1.00, 0.00, -0.00, -1.00, 169.0, 260.0)">O</text><text xml:space="preserve" font-family="HumorSans" font-size="43.7" fill="#5B5753" transform="matrix(1.00, 0.00, -0.00, -1.00, 197.0, 260.0)">F</text><text xml:space="preserve" font-family="HumorSans" font-size="43.7" fill="#5B5753" transform="matrix(1.00, 0.00, -0.00, -1.00, 220.3, 260.0)"> </text><text xml:space="preserve" font-family="HumorSans" font-size="43.7" fill="#5B5753" transform="matrix(1.00, 0.00, -0.00, -1.00, 242.2, 260.0)">P</text><text xml:space="preserve" font-family="HumorSans" font-size="43.7" fill="#5B5753" transform="matrix(1.00, 0.00, -0.00, -1.00, 270.2, 260.0)">E</text><text xml:space="preserve" font-family="HumorSans" font-size="43.7" fill="#5B5753" transform="matrix(1.00, 0.00, -0.00, -1.00, 299.1, 260.0)">O</text><text xml:space="preserve" font-family="HumorSans" font-size="43.7" fill="#5B5753" transform="matrix(1.00, 0.00, -0.00, -1.00, 327.1, 260.0)">P</text><text xml:space="preserve" font-family="HumorSans" font-size="43.7" fill="#5B5753" transform="matrix(1.00, 0.00, -0.00, -1.00, 355.2, 260.0)">L</text><text xml:space="preserve" font-family="HumorSans" font-size="43.7" fill="#5B5753" transform="matrix(1.00, 0.00, -0.00, -1.00, 379.4, 260.0)">E</text><text xml:space="preserve" font-family="HumorSans" font-size="43.7" fill="#5B5753" transform="matrix(1.00, 0.00, -0.00, -1.00, 408.3, 260.0)">.</text></g></svg>