<?xml version="1.0" encoding="UTF-8" standalone="no"?><svg xmlns="http://www.w3.org/2000/svg" xmlns:xlink="http://www.w3.org/1999/xlink" clip-rule="evenodd" stroke-miterlimit="4.00" viewBox="0 0 171 147"><desc>SVG generated by Keynote</desc><defs></defs><g transform="matrix(1.00, 0.00, -0.00, -1.00, 0.0, 147.0)"><path d="M 32.2 0.0 L 132.6 0.0 C 141.9 0.0 146.6 0.0 151.5 1.6 C 157.0 3.6 161.3 7.9 163.3 13.3 C 164.9 18.3 164.9 23.0 164.9 32.4 L 164.9 108.3 C 164.9 117.6 164.9 122.3 163.3 127.2 C 161.3 132.7 157.0 137.0 151.5 139.0 C 146.6 140.5 141.9 140.5 132.5 140.5 L 32.2 140.5 C 23.0 140.5 18.3 140.5 13.3 139.0 C 7.9 137.0 3.6 132.7 1.6 127.2 C 0.0 122.3 0.0 117.6 0.0 108.2 L 0.0 32.2 C 0.0 23.0 0.0 18.3 1.6 13.3 C 3.6 7.9 7.9 3.6 13.3 1.6 C 18.3 0.0 23.0 0.0 32.4 0.0 Z M 32.2 0.0 " fill="none" stroke="#5B5753" stroke-width="3.00" transform="matrix(1.00, 0.00, 0.00, -1.00, 3.0, 143.6)"></path><g><clipPath id="clip-25"><path d="M -2.5 3.1 L 173.4 3.1 L 173.4 143.6 L -2.5 143.6 Z M -2.5 3.1 "></path></clipPath><g clip-path="url(#clip-25)"><text xml:space="preserve" font-family="Futura-Medium" font-size="34.0" fill="#F37626" transform="matrix(1.00, 0.00, -0.00, -1.00, 50.0, 61.0)">H</text><text xml:space="preserve" font-family="Futura-Medium" font-size="34.0" fill="#F37626" transform="matrix(1.00, 0.00, -0.00, -1.00, 75.6, 61.0)">U</text><text xml:space="preserve" font-family="Futura-Medium" font-size="34.0" fill="#F37626" transform="matrix(1.00, 0.00, -0.00, -1.00, 101.4, 61.0)">B</text></g></g></g></svg>