<?xml version="1.0" encoding="UTF-8" standalone="no"?><svg xmlns="http://www.w3.org/2000/svg" xmlns:xlink="http://www.w3.org/1999/xlink" clip-rule="evenodd" stroke-miterlimit="4.00" viewBox="0 0 1024 768"><desc>SVG generated by Keynote</desc><defs></defs><g transform="matrix(1.00, 0.00, -0.00, -1.00, 0.0, 768.0)"><g><clipPath id="clip-0"><path d="M 0.0 768.0 L 1024.0 768.0 L 1024.0 0.0 L 0.0 0.0 Z M 0.0 768.0 "></path></clipPath><g clip-path="url(#clip-0)"><image xlink:href="AC8A38799F83CDE46BAD7F0B4FE74D5F.jpeg" width="1024.00" height="768.00" transform="matrix(1.00, 0.00, -0.00, -1.00, 0.0, 768.0)"></image></g></g><text xml:space="preserve" font-family="HumorSans" font-size="67.0" fill="#5B5753" transform="matrix(1.00, 0.00, -0.00, -1.00, 172.0, 467.0)">A</text><text xml:space="preserve" font-family="HumorSans" font-size="67.0" fill="#5B5753" transform="matrix(1.00, 0.00, -0.00, -1.00, 210.6, 467.0)"> </text><text xml:space="preserve" font-family="HumorSans" font-size="67.0" fill="#5B5753" transform="matrix(1.00, 0.00, -0.00, -1.00, 244.2, 467.0)">“</text><text xml:space="preserve" font-family="HumorSans" font-size="67.0" fill="#5B5753" transform="matrix(1.00, 0.00, -0.00, -1.00, 268.4, 467.0)">T</text><text xml:space="preserve" font-family="HumorSans" font-size="67.0" fill="#5B5753" transform="matrix(1.00, 0.00, -0.00, -1.00, 309.9, 467.0)">H</text><text xml:space="preserve" font-family="HumorSans" font-size="67.0" fill="#5B5753" transform="matrix(1.00, 0.00, -0.00, -1.00, 348.4, 467.0)">I</text><text xml:space="preserve" font-family="HumorSans" font-size="67.0" fill="#5B5753" transform="matrix(1.00, 0.00, -0.00, -1.00, 362.6, 467.0)">N</text><text xml:space="preserve" font-family="HumorSans" font-size="67.0" fill="#5B5753" transform="matrix(1.00, 0.00, -0.00, -1.00, 404.1, 467.0)">G</text><text xml:space="preserve" font-family="HumorSans" font-size="67.0" fill="#5B5753" transform="matrix(1.00, 0.00, -0.00, -1.00, 445.6, 467.0)"> </text><text xml:space="preserve" font-family="HumorSans" font-size="67.0" fill="#5B5753" transform="matrix(1.00, 0.00, -0.00, -1.00, 479.2, 467.0)">E</text><text xml:space="preserve" font-family="HumorSans" font-size="67.0" fill="#5B5753" transform="matrix(1.00, 0.00, -0.00, -1.00, 523.5, 467.0)">X</text><text xml:space="preserve" font-family="HumorSans" font-size="67.0" fill="#5B5753" transform="matrix(1.00, 0.00, -0.00, -1.00, 567.9, 467.0)">P</text><text xml:space="preserve" font-family="HumorSans" font-size="67.0" fill="#5B5753" transform="matrix(1.00, 0.00, -0.00, -1.00, 610.8, 467.0)">L</text><text xml:space="preserve" font-family="HumorSans" font-size="67.0" fill="#5B5753" transform="matrix(1.00, 0.00, -0.00, -1.00, 648.0, 467.0)">A</text><text xml:space="preserve" font-family="HumorSans" font-size="67.0" fill="#5B5753" transform="matrix(1.00, 0.00, -0.00, -1.00, 686.6, 467.0)">I</text><text xml:space="preserve" font-family="HumorSans" font-size="67.0" fill="#5B5753" transform="matrix(1.00, 0.00, -0.00, -1.00, 700.8, 467.0)">N</text><text xml:space="preserve" font-family="HumorSans" font-size="67.0" fill="#5B5753" transform="matrix(1.00, 0.00, -0.00, -1.00, 742.3, 467.0)">E</text><text xml:space="preserve" font-family="HumorSans" font-size="67.0" fill="#5B5753" transform="matrix(1.00, 0.00, -0.00, -1.00, 786.6, 467.0)">R</text><text xml:space="preserve" font-family="HumorSans" font-size="67.0" fill="#5B5753" transform="matrix(1.00, 0.00, -0.00, -1.00, 829.6, 467.0)">”</text><text xml:space="preserve" font-family="HumorSans" font-size="67.0" fill="#5B5753" transform="matrix(1.00, 0.00, -0.00, -1.00, 853.8, 467.0)"> </text><text xml:space="preserve" font-family="HumorSans" font-size="67.0" fill="#5B5753" transform="matrix(1.00, 0.00, -0.00, -1.00, 355.0, 392.0)">O</text><text xml:space="preserve" font-family="HumorSans" font-size="67.0" fill="#5B5753" transform="matrix(1.00, 0.00, -0.00, -1.00, 397.9, 392.0)">V</text><text xml:space="preserve" font-family="HumorSans" font-size="67.0" fill="#5B5753" transform="matrix(1.00, 0.00, -0.00, -1.00, 435.1, 392.0)">E</text><text xml:space="preserve" font-family="HumorSans" font-size="67.0" fill="#5B5753" transform="matrix(1.00, 0.00, -0.00, -1.00, 479.4, 392.0)">R</text><text xml:space="preserve" font-family="HumorSans" font-size="67.0" fill="#5B5753" transform="matrix(1.00, 0.00, -0.00, -1.00, 522.4, 392.0)">V</text><text xml:space="preserve" font-family="HumorSans" font-size="67.0" fill="#5B5753" transform="matrix(1.00, 0.00, -0.00, -1.00, 559.5, 392.0)">I</text><text xml:space="preserve" font-family="HumorSans" font-size="67.0" fill="#5B5753" transform="matrix(1.00, 0.00, -0.00, -1.00, 573.7, 392.0)">E</text><text xml:space="preserve" font-family="HumorSans" font-size="67.0" fill="#5B5753" transform="matrix(1.00, 0.00, -0.00, -1.00, 618.0, 392.0)">W</text><text xml:space="preserve" font-family="Futura-Medium" font-size="24.0" fill="#5B5753" transform="matrix(1.00, 0.00, -0.00, -1.00, 678.0, 123.0)">T</text><text xml:space="preserve" font-family="Futura-Medium" font-size="24.0" fill="#5B5753" transform="matrix(1.00, 0.00, -0.00, -1.00, 688.5, 123.0)">w</text><text xml:space="preserve" font-family="Futura-Medium" font-size="24.0" fill="#5B5753" transform="matrix(1.00, 0.00, -0.00, -1.00, 707.1, 123.0)">i</text><text xml:space="preserve" font-family="Futura-Medium" font-size="24.0" fill="#5B5753" transform="matrix(1.00, 0.00, -0.00, -1.00, 713.1, 123.0)">t</text><text xml:space="preserve" font-family="Futura-Medium" font-size="24.0" fill="#5B5753" transform="matrix(1.00, 0.00, -0.00, -1.00, 719.6, 123.0)">t</text><text xml:space="preserve" font-family="Futura-Medium" font-size="24.0" fill="#5B5753" transform="matrix(1.00, 0.00, -0.00, -1.00, 726.4, 123.0)">e</text><text xml:space="preserve" font-family="Futura-Medium" font-size="24.0" fill="#5B5753" transform="matrix(1.00, 0.00, -0.00, -1.00, 739.7, 123.0)">r</text><text xml:space="preserve" font-family="Futura-Medium" font-size="24.0" fill="#5B5753" transform="matrix(1.00, 0.00, -0.00, -1.00, 749.0, 123.0)">:</text><text xml:space="preserve" font-family="Futura-Medium" font-size="24.0" fill="#5B5753" transform="matrix(1.00, 0.00, -0.00, -1.00, 756.4, 123.0)"> </text><text xml:space="preserve" font-family="Futura-Medium" font-size="24.0" fill="#5B5753" transform="matrix(1.00, 0.00, -0.00, -1.00, 763.8, 123.0)">@</text><text xml:space="preserve" font-family="Futura-Medium" font-size="24.0" fill="#5B5753" transform="matrix(1.00, 0.00, -0.00, -1.00, 785.0, 123.0)">w</text><text xml:space="preserve" font-family="Futura-Medium" font-size="24.0" fill="#5B5753" transform="matrix(1.00, 0.00, -0.00, -1.00, 803.5, 123.0)">i</text><text xml:space="preserve" font-family="Futura-Medium" font-size="24.0" fill="#5B5753" transform="matrix(1.00, 0.00, -0.00, -1.00, 809.5, 123.0)">l</text><text xml:space="preserve" font-family="Futura-Medium" font-size="24.0" fill="#5B5753" transform="matrix(1.00, 0.00, -0.00, -1.00, 815.5, 123.0)">l</text><text xml:space="preserve" font-family="Futura-Medium" font-size="24.0" fill="#5B5753" transform="matrix(1.00, 0.00, -0.00, -1.00, 821.5, 123.0)">i</text><text xml:space="preserve" font-family="Futura-Medium" font-size="24.0" fill="#5B5753" transform="matrix(1.00, 0.00, -0.00, -1.00, 827.4, 123.0)">n</text><text xml:space="preserve" font-family="Futura-Medium" font-size="24.0" fill="#5B5753" transform="matrix(1.00, 0.00, -0.00, -1.00, 840.6, 123.0)">g</text><text xml:space="preserve" font-family="Futura-Medium" font-size="24.0" fill="#5B5753" transform="matrix(1.00, 0.00, -0.00, -1.00, 855.0, 123.0)">c</text><text xml:space="preserve" font-family="Futura-Medium" font-size="24.0" fill="#5B5753" transform="matrix(1.00, 0.00, -0.00, -1.00, 866.4, 123.0)">a</text><text xml:space="preserve" font-family="Futura-Medium" font-size="24.0" fill="#5B5753" transform="matrix(1.00, 0.00, -0.00, -1.00, 880.8, 123.0)">r</text><text xml:space="preserve" font-family="Futura-Medium" font-size="24.0" fill="#5B5753" transform="matrix(1.00, 0.00, -0.00, -1.00, 889.5, 123.0)">o</text><text xml:space="preserve" font-family="Futura-Medium" font-size="24.0" fill="#5B5753" transform="matrix(1.00, 0.00, -0.00, -1.00, 904.0, 123.0)">l</text><text xml:space="preserve" font-family="Futura-Medium" font-size="24.0" fill="#5B5753" transform="matrix(1.00, 0.00, -0.00, -1.00, 910.0, 123.0)"> </text><text xml:space="preserve" font-family="Futura-Medium" font-size="24.0" fill="#5B5753" transform="matrix(1.00, 0.00, -0.00, -1.00, 678.0, 91.0)">G</text><text xml:space="preserve" font-family="Futura-Medium" font-size="24.0" fill="#5B5753" transform="matrix(1.00, 0.00, -0.00, -1.00, 698.2, 91.0)">i</text><text xml:space="preserve" font-family="Futura-Medium" font-size="24.0" fill="#5B5753" transform="matrix(1.00, 0.00, -0.00, -1.00, 704.2, 91.0)">t</text><text xml:space="preserve" font-family="Futura-Medium" font-size="24.0" fill="#5B5753" transform="matrix(1.00, 0.00, -0.00, -1.00, 710.8, 91.0)">H</text><text xml:space="preserve" font-family="Futura-Medium" font-size="24.0" fill="#5B5753" transform="matrix(1.00, 0.00, -0.00, -1.00, 728.4, 91.0)">u</text><text xml:space="preserve" font-family="Futura-Medium" font-size="24.0" fill="#5B5753" transform="matrix(1.00, 0.00, -0.00, -1.00, 741.5, 91.0)">b</text><text xml:space="preserve" font-family="Futura-Medium" font-size="24.0" fill="#5B5753" transform="matrix(1.00, 0.00, -0.00, -1.00, 755.8, 91.0)">:</text><text xml:space="preserve" font-family="Futura-Medium" font-size="24.0" fill="#5B5753" transform="matrix(1.00, 0.00, -0.00, -1.00, 763.2, 91.0)"> </text><text xml:space="preserve" font-family="Futura-Medium" font-size="24.0" fill="#5B5753" transform="matrix(1.00, 0.00, -0.00, -1.00, 770.6, 91.0)">@</text><text xml:space="preserve" font-family="Futura-Medium" font-size="24.0" fill="#5B5753" transform="matrix(1.00, 0.00, -0.00, -1.00, 791.8, 91.0)">w</text><text xml:space="preserve" font-family="Futura-Medium" font-size="24.0" fill="#5B5753" transform="matrix(1.00, 0.00, -0.00, -1.00, 810.3, 91.0)">i</text><text xml:space="preserve" font-family="Futura-Medium" font-size="24.0" fill="#5B5753" transform="matrix(1.00, 0.00, -0.00, -1.00, 816.3, 91.0)">l</text><text xml:space="preserve" font-family="Futura-Medium" font-size="24.0" fill="#5B5753" transform="matrix(1.00, 0.00, -0.00, -1.00, 822.3, 91.0)">l</text><text xml:space="preserve" font-family="Futura-Medium" font-size="24.0" fill="#5B5753" transform="matrix(1.00, 0.00, -0.00, -1.00, 828.3, 91.0)">i</text><text xml:space="preserve" font-family="Futura-Medium" font-size="24.0" fill="#5B5753" transform="matrix(1.00, 0.00, -0.00, -1.00, 834.2, 91.0)">n</text><text xml:space="preserve" font-family="Futura-Medium" font-size="24.0" fill="#5B5753" transform="matrix(1.00, 0.00, -0.00, -1.00, 847.4, 91.0)">g</text><text xml:space="preserve" font-family="Futura-Medium" font-size="24.0" fill="#5B5753" transform="matrix(1.00, 0.00, -0.00, -1.00, 861.8, 91.0)">c</text><image xlink:href="869041A4D72A9D33C3AE1818195F4319.png" width="797.00" height="139.00" transform="matrix(1.00, 0.00, -0.00, -1.00, 114.0, 683.0)"></image><text xml:space="preserve" font-family="Futura-Medium" font-size="14.0" fill="#9A958D" transform="matrix(1.00, 0.00, -0.00, -1.00, 508.0, 22.0)">1</text><text xml:space="preserve" font-family="Futura-Medium" font-size="24.0" fill="#5B5753" transform="matrix(1.00, 0.00, -0.00, -1.00, 102.0, 123.0)">C</text><text xml:space="preserve" font-family="Futura-Medium" font-size="24.0" fill="#5B5753" transform="matrix(1.00, 0.00, -0.00, -1.00, 118.8, 123.0)">a</text><text xml:space="preserve" font-family="Futura-Medium" font-size="24.0" fill="#5B5753" transform="matrix(1.00, 0.00, -0.00, -1.00, 133.2, 123.0)">r</text><text xml:space="preserve" font-family="Futura-Medium" font-size="24.0" fill="#5B5753" transform="matrix(1.00, 0.00, -0.00, -1.00, 142.0, 123.0)">o</text><text xml:space="preserve" font-family="Futura-Medium" font-size="24.0" fill="#5B5753" transform="matrix(1.00, 0.00, -0.00, -1.00, 156.4, 123.0)">l</text><text xml:space="preserve" font-family="Futura-Medium" font-size="24.0" fill="#5B5753" transform="matrix(1.00, 0.00, -0.00, -1.00, 162.4, 123.0)"> </text><text xml:space="preserve" font-family="Futura-Medium" font-size="24.0" fill="#5B5753" transform="matrix(1.00, 0.00, -0.00, -1.00, 169.8, 123.0)">W</text><text xml:space="preserve" font-family="Futura-Medium" font-size="24.0" fill="#5B5753" transform="matrix(1.00, 0.00, -0.00, -1.00, 195.4, 123.0)">i</text><text xml:space="preserve" font-family="Futura-Medium" font-size="24.0" fill="#5B5753" transform="matrix(1.00, 0.00, -0.00, -1.00, 201.4, 123.0)">l</text><text xml:space="preserve" font-family="Futura-Medium" font-size="24.0" fill="#5B5753" transform="matrix(1.00, 0.00, -0.00, -1.00, 207.4, 123.0)">l</text><text xml:space="preserve" font-family="Futura-Medium" font-size="24.0" fill="#5B5753" transform="matrix(1.00, 0.00, -0.00, -1.00, 213.4, 123.0)">i</text><text xml:space="preserve" font-family="Futura-Medium" font-size="24.0" fill="#5B5753" transform="matrix(1.00, 0.00, -0.00, -1.00, 219.3, 123.0)">n</text><text xml:space="preserve" font-family="Futura-Medium" font-size="24.0" fill="#5B5753" transform="matrix(1.00, 0.00, -0.00, -1.00, 232.5, 123.0)">g</text><text xml:space="preserve" font-family="Futura-Medium" font-size="24.0" fill="#5B5753" transform="matrix(1.00, 0.00, -0.00, -1.00, 246.9, 123.0)"> </text><text xml:space="preserve" font-family="Futura-Medium" font-size="24.0" fill="#5B5753" transform="matrix(1.00, 0.00, -0.00, -1.00, 102.0, 91.0)">P</text><text xml:space="preserve" font-family="Futura-Medium" font-size="24.0" fill="#5B5753" transform="matrix(1.00, 0.00, -0.00, -1.00, 115.0, 91.0)">r</text><text xml:space="preserve" font-family="Futura-Medium" font-size="24.0" fill="#5B5753" transform="matrix(1.00, 0.00, -0.00, -1.00, 123.7, 91.0)">o</text><text xml:space="preserve" font-family="Futura-Medium" font-size="24.0" fill="#5B5753" transform="matrix(1.00, 0.00, -0.00, -1.00, 138.2, 91.0)">j</text><text xml:space="preserve" font-family="Futura-Medium" font-size="24.0" fill="#5B5753" transform="matrix(1.00, 0.00, -0.00, -1.00, 144.1, 91.0)">e</text><text xml:space="preserve" font-family="Futura-Medium" font-size="24.0" fill="#5B5753" transform="matrix(1.00, 0.00, -0.00, -1.00, 157.4, 91.0)">c</text><text xml:space="preserve" font-family="Futura-Medium" font-size="24.0" fill="#5B5753" transform="matrix(1.00, 0.00, -0.00, -1.00, 168.8, 91.0)">t</text><text xml:space="preserve" font-family="Futura-Medium" font-size="24.0" fill="#5B5753" transform="matrix(1.00, 0.00, -0.00, -1.00, 175.4, 91.0)"> </text><text xml:space="preserve" font-family="Futura-Medium" font-size="24.0" fill="#5B5753" transform="matrix(1.00, 0.00, -0.00, -1.00, 182.8, 91.0)">J</text><text xml:space="preserve" font-family="Futura-Medium" font-size="24.0" fill="#5B5753" transform="matrix(1.00, 0.00, -0.00, -1.00, 192.7, 91.0)">u</text><text xml:space="preserve" font-family="Futura-Medium" font-size="24.0" fill="#5B5753" transform="matrix(1.00, 0.00, -0.00, -1.00, 205.7, 91.0)">p</text><text xml:space="preserve" font-family="Futura-Medium" font-size="24.0" fill="#5B5753" transform="matrix(1.00, 0.00, -0.00, -1.00, 219.6, 91.0)">y</text><text xml:space="preserve" font-family="Futura-Medium" font-size="24.0" fill="#5B5753" transform="matrix(1.00, 0.00, -0.00, -1.00, 232.7, 91.0)">t</text><text xml:space="preserve" font-family="Futura-Medium" font-size="24.0" fill="#5B5753" transform="matrix(1.00, 0.00, -0.00, -1.00, 239.4, 91.0)">e</text><text xml:space="preserve" font-family="Futura-Medium" font-size="24.0" fill="#5B5753" transform="matrix(1.00, 0.00, -0.00, -1.00, 252.7, 91.0)">r</text><text xml:space="preserve" font-family="Futura-Medium" font-size="24.0" fill="#5B5753" transform="matrix(1.00, 0.00, -0.00, -1.00, 261.7, 91.0)"> </text><text xml:space="preserve" font-family="Futura-Medium" font-size="24.0" fill="#5B5753" transform="matrix(1.00, 0.00, -0.00, -1.00, 269.1, 91.0)">a</text><text xml:space="preserve" font-family="Futura-Medium" font-size="24.0" fill="#5B5753" transform="matrix(1.00, 0.00, -0.00, -1.00, 283.5, 91.0)">t</text><text xml:space="preserve" font-family="Futura-Medium" font-size="24.0" fill="#5B5753" transform="matrix(1.00, 0.00, -0.00, -1.00, 290.1, 91.0)"> </text><text xml:space="preserve" font-family="Futura-Medium" font-size="24.0" fill="#5B5753" transform="matrix(1.00, 0.00, -0.00, -1.00, 297.5, 91.0)">C</text><text xml:space="preserve" font-family="Futura-Medium" font-size="24.0" fill="#5B5753" transform="matrix(1.00, 0.00, -0.00, -1.00, 314.3, 91.0)">a</text><text xml:space="preserve" font-family="Futura-Medium" font-size="24.0" fill="#5B5753" transform="matrix(1.00, 0.00, -0.00, -1.00, 328.6, 91.0)">l</text><text xml:space="preserve" font-family="Futura-Medium" font-size="24.0" fill="#5B5753" transform="matrix(1.00, 0.00, -0.00, -1.00, 334.6, 91.0)"> </text><text xml:space="preserve" font-family="Futura-Medium" font-size="24.0" fill="#5B5753" transform="matrix(1.00, 0.00, -0.00, -1.00, 342.0, 91.0)">P</text><text xml:space="preserve" font-family="Futura-Medium" font-size="24.0" fill="#5B5753" transform="matrix(1.00, 0.00, -0.00, -1.00, 354.3, 91.0)">o</text><text xml:space="preserve" font-family="Futura-Medium" font-size="24.0" fill="#5B5753" transform="matrix(1.00, 0.00, -0.00, -1.00, 368.7, 91.0)">l</text><text xml:space="preserve" font-family="Futura-Medium" font-size="24.0" fill="#5B5753" transform="matrix(1.00, 0.00, -0.00, -1.00, 374.9, 91.0)">y</text><text xml:space="preserve" font-family="Futura-Medium" font-size="24.0" fill="#5B5753" transform="matrix(1.00, 0.00, -0.00, -1.00, 388.0, 91.0)"> </text><text xml:space="preserve" font-family="Futura-Medium" font-size="24.0" fill="#5B5753" transform="matrix(1.00, 0.00, -0.00, -1.00, 395.4, 91.0)">S</text><text xml:space="preserve" font-family="Futura-Medium" font-size="24.0" fill="#5B5753" transform="matrix(1.00, 0.00, -0.00, -1.00, 409.3, 91.0)">L</text><text xml:space="preserve" font-family="Futura-Medium" font-size="24.0" fill="#5B5753" transform="matrix(1.00, 0.00, -0.00, -1.00, 419.3, 91.0)">O</text><text xml:space="preserve" font-family="Futura-Medium" font-size="37.0" fill="#5B5753" transform="matrix(1.00, 0.00, -0.00, -1.00, 350.0, 242.0)">J</text><text xml:space="preserve" font-family="Futura-Medium" font-size="37.0" fill="#5B5753" transform="matrix(1.00, 0.00, -0.00, -1.00, 365.2, 242.0)">u</text><text xml:space="preserve" font-family="Futura-Medium" font-size="37.0" fill="#5B5753" transform="matrix(1.00, 0.00, -0.00, -1.00, 385.3, 242.0)">p</text><text xml:space="preserve" font-family="Futura-Medium" font-size="37.0" fill="#5B5753" transform="matrix(1.00, 0.00, -0.00, -1.00, 406.7, 242.0)">y</text><text xml:space="preserve" font-family="Futura-Medium" font-size="37.0" fill="#5B5753" transform="matrix(1.00, 0.00, -0.00, -1.00, 426.9, 242.0)">t</text><text xml:space="preserve" font-family="Futura-Medium" font-size="37.0" fill="#5B5753" transform="matrix(1.00, 0.00, -0.00, -1.00, 437.3, 242.0)">e</text><text xml:space="preserve" font-family="Futura-Medium" font-size="37.0" fill="#5B5753" transform="matrix(1.00, 0.00, -0.00, -1.00, 457.8, 242.0)">r</text><text xml:space="preserve" font-family="Futura-Medium" font-size="37.0" fill="#5B5753" transform="matrix(1.00, 0.00, -0.00, -1.00, 471.6, 242.0)">D</text><text xml:space="preserve" font-family="Futura-Medium" font-size="37.0" fill="#5B5753" transform="matrix(1.00, 0.00, -0.00, -1.00, 498.5, 242.0)">a</text><text xml:space="preserve" font-family="Futura-Medium" font-size="37.0" fill="#5B5753" transform="matrix(1.00, 0.00, -0.00, -1.00, 521.0, 242.0)">y</text><text xml:space="preserve" font-family="Futura-Medium" font-size="37.0" fill="#5B5753" transform="matrix(1.00, 0.00, -0.00, -1.00, 541.1, 242.0)"> </text><text xml:space="preserve" font-family="Futura-Medium" font-size="37.0" fill="#5B5753" transform="matrix(1.00, 0.00, -0.00, -1.00, 552.5, 242.0)">A</text><text xml:space="preserve" font-family="Futura-Medium" font-size="37.0" fill="#5B5753" transform="matrix(1.00, 0.00, -0.00, -1.00, 580.3, 242.0)">t</text><text xml:space="preserve" font-family="Futura-Medium" font-size="37.0" fill="#5B5753" transform="matrix(1.00, 0.00, -0.00, -1.00, 590.5, 242.0)">l</text><text xml:space="preserve" font-family="Futura-Medium" font-size="37.0" fill="#5B5753" transform="matrix(1.00, 0.00, -0.00, -1.00, 599.7, 242.0)">a</text><text xml:space="preserve" font-family="Futura-Medium" font-size="37.0" fill="#5B5753" transform="matrix(1.00, 0.00, -0.00, -1.00, 621.9, 242.0)">n</text><text xml:space="preserve" font-family="Futura-Medium" font-size="37.0" fill="#5B5753" transform="matrix(1.00, 0.00, -0.00, -1.00, 642.2, 242.0)">t</text><text xml:space="preserve" font-family="Futura-Medium" font-size="37.0" fill="#5B5753" transform="matrix(1.00, 0.00, -0.00, -1.00, 652.6, 242.0)">a</text><text xml:space="preserve" font-family="Futura-Medium" font-size="37.0" fill="#5B5753" transform="matrix(1.00, 0.00, -0.00, -1.00, 674.8, 242.0)"> </text><text xml:space="preserve" font-family="Futura-Medium" font-size="37.0" fill="#5B5753" transform="matrix(1.00, 0.00, -0.00, -1.00, 373.0, 193.0)">A</text><text xml:space="preserve" font-family="Futura-Medium" font-size="37.0" fill="#5B5753" transform="matrix(1.00, 0.00, -0.00, -1.00, 400.4, 193.0)">u</text><text xml:space="preserve" font-family="Futura-Medium" font-size="37.0" fill="#5B5753" transform="matrix(1.00, 0.00, -0.00, -1.00, 420.5, 193.0)">g</text><text xml:space="preserve" font-family="Futura-Medium" font-size="37.0" fill="#5B5753" transform="matrix(1.00, 0.00, -0.00, -1.00, 442.6, 193.0)">u</text><text xml:space="preserve" font-family="Futura-Medium" font-size="37.0" fill="#5B5753" transform="matrix(1.00, 0.00, -0.00, -1.00, 462.8, 193.0)">s</text><text xml:space="preserve" font-family="Futura-Medium" font-size="37.0" fill="#5B5753" transform="matrix(1.00, 0.00, -0.00, -1.00, 477.8, 193.0)">t</text><text xml:space="preserve" font-family="Futura-Medium" font-size="37.0" fill="#5B5753" transform="matrix(1.00, 0.00, -0.00, -1.00, 487.9, 193.0)"> </text><text xml:space="preserve" font-family="Futura-Medium" font-size="37.0" fill="#5B5753" transform="matrix(1.00, 0.00, -0.00, -1.00, 499.4, 193.0)">1</text><text xml:space="preserve" font-family="Futura-Medium" font-size="37.0" fill="#5B5753" transform="matrix(1.00, 0.00, -0.00, -1.00, 519.5, 193.0)">3</text><text xml:space="preserve" font-family="Futura-Medium" font-size="37.0" fill="#5B5753" transform="matrix(1.00, 0.00, -0.00, -1.00, 542.4, 193.0)">,</text><text xml:space="preserve" font-family="Futura-Medium" font-size="37.0" fill="#5B5753" transform="matrix(1.00, 0.00, -0.00, -1.00, 553.8, 193.0)"> </text><text xml:space="preserve" font-family="Futura-Medium" font-size="37.0" fill="#5B5753" transform="matrix(1.00, 0.00, -0.00, -1.00, 565.2, 193.0)">2</text><text xml:space="preserve" font-family="Futura-Medium" font-size="37.0" fill="#5B5753" transform="matrix(1.00, 0.00, -0.00, -1.00, 588.1, 193.0)">0</text><text xml:space="preserve" font-family="Futura-Medium" font-size="37.0" fill="#5B5753" transform="matrix(1.00, 0.00, -0.00, -1.00, 608.1, 193.0)">1</text><text xml:space="preserve" font-family="Futura-Medium" font-size="37.0" fill="#5B5753" transform="matrix(1.00, 0.00, -0.00, -1.00, 627.7, 193.0)">6</text></g></svg>