<?xml version="1.0" encoding="UTF-8" standalone="no"?><svg xmlns="http://www.w3.org/2000/svg" xmlns:xlink="http://www.w3.org/1999/xlink" clip-rule="evenodd" stroke-miterlimit="4.00" viewBox="0 0 671 100"><desc>SVG generated by Keynote</desc><defs></defs><g transform="matrix(1.00, 0.00, -0.00, -1.00, 0.0, 100.0)"><text xml:space="preserve" font-family="Helvetica-Light" font-size="34.1" fill="#000000" transform="matrix(1.00, 0.00, -0.00, -1.00, 0.1, 68.5)">•</text><text xml:space="preserve" font-family="Helvetica-Light" font-size="45.5" fill="#000000" transform="matrix(1.00, 0.00, -0.00, -1.00, 44.0, 65.0)">S</text><text xml:space="preserve" font-family="Helvetica-Light" font-size="45.5" fill="#000000" transform="matrix(1.00, 0.00, -0.00, -1.00, 71.8, 65.0)">a</text><text xml:space="preserve" font-family="Helvetica-Light" font-size="45.5" fill="#000000" transform="matrix(1.00, 0.00, -0.00, -1.00, 97.1, 65.0)">g</text><text xml:space="preserve" font-family="Helvetica-Light" font-size="45.5" fill="#000000" transform="matrix(1.00, 0.00, -0.00, -1.00, 124.9, 65.0)">e</text><text xml:space="preserve" font-family="Helvetica-Light" font-size="45.5" fill="#000000" transform="matrix(1.00, 0.00, -0.00, -1.00, 150.2, 65.0)">M</text><text xml:space="preserve" font-family="Helvetica-Light" font-size="45.5" fill="#000000" transform="matrix(1.00, 0.00, -0.00, -1.00, 188.1, 65.0)">a</text><text xml:space="preserve" font-family="Helvetica-Light" font-size="45.5" fill="#000000" transform="matrix(1.00, 0.00, -0.00, -1.00, 213.4, 65.0)">t</text><text xml:space="preserve" font-family="Helvetica-Light" font-size="45.5" fill="#000000" transform="matrix(1.00, 0.00, -0.00, -1.00, 226.0, 65.0)">h</text><text xml:space="preserve" font-family="Helvetica-Light" font-size="45.5" fill="#000000" transform="matrix(1.00, 0.00, -0.00, -1.00, 251.3, 65.0)">C</text><text xml:space="preserve" font-family="Helvetica-Light" font-size="45.5" fill="#000000" transform="matrix(1.00, 0.00, -0.00, -1.00, 284.2, 65.0)">l</text><text xml:space="preserve" font-family="Helvetica-Light" font-size="45.5" fill="#000000" transform="matrix(1.00, 0.00, -0.00, -1.00, 294.3, 65.0)">o</text><text xml:space="preserve" font-family="Helvetica-Light" font-size="45.5" fill="#000000" transform="matrix(1.00, 0.00, -0.00, -1.00, 319.6, 65.0)">u</text><text xml:space="preserve" font-family="Helvetica-Light" font-size="45.5" fill="#000000" transform="matrix(1.00, 0.00, -0.00, -1.00, 344.9, 65.0)">d</text><text xml:space="preserve" font-family="Helvetica-Light" font-size="45.5" fill="#000000" transform="matrix(1.00, 0.00, -0.00, -1.00, 372.7, 65.0)"> </text><text xml:space="preserve" font-family="Helvetica-Light" font-size="45.5" fill="#000000" transform="matrix(1.00, 0.00, -0.00, -1.00, 385.3, 65.0)">i</text><text xml:space="preserve" font-family="Helvetica-Light" font-size="45.5" fill="#000000" transform="matrix(1.00, 0.00, -0.00, -1.00, 395.4, 65.0)">s</text><text xml:space="preserve" font-family="Helvetica-Light" font-size="45.5" fill="#000000" transform="matrix(1.00, 0.00, -0.00, -1.00, 418.2, 65.0)"> </text><text xml:space="preserve" font-family="Helvetica-LightOblique" font-style="italic" font-size="45.5" fill="#000000" transform="matrix(1.00, 0.00, -0.00, -1.00, 430.8, 65.0)">h</text><text xml:space="preserve" font-family="Helvetica-LightOblique" font-style="italic" font-size="45.5" fill="#000000" transform="matrix(1.00, 0.00, -0.00, -1.00, 456.1, 65.0)">o</text><text xml:space="preserve" font-family="Helvetica-LightOblique" font-style="italic" font-size="45.5" fill="#000000" transform="matrix(1.00, 0.00, -0.00, -1.00, 481.4, 65.0)">s</text><text xml:space="preserve" font-family="Helvetica-LightOblique" font-style="italic" font-size="45.5" fill="#000000" transform="matrix(1.00, 0.00, -0.00, -1.00, 504.2, 65.0)">t</text><text xml:space="preserve" font-family="Helvetica-LightOblique" font-style="italic" font-size="45.5" fill="#000000" transform="matrix(1.00, 0.00, -0.00, -1.00, 516.8, 65.0)">e</text><text xml:space="preserve" font-family="Helvetica-LightOblique" font-style="italic" font-size="45.5" fill="#000000" transform="matrix(1.00, 0.00, -0.00, -1.00, 542.1, 65.0)">d</text><text xml:space="preserve" font-family="Helvetica-Light" font-size="45.5" fill="#000000" transform="matrix(1.00, 0.00, -0.00, -1.00, 569.9, 65.0)"> </text><text xml:space="preserve" font-family="Helvetica-Light" font-size="45.5" fill="#000000" transform="matrix(1.00, 0.00, -0.00, -1.00, 582.6, 65.0)">a</text><text xml:space="preserve" font-family="Helvetica-Light" font-size="45.5" fill="#000000" transform="matrix(1.00, 0.00, -0.00, -1.00, 607.9, 65.0)">n</text><text xml:space="preserve" font-family="Helvetica-Light" font-size="45.5" fill="#000000" transform="matrix(1.00, 0.00, -0.00, -1.00, 633.2, 65.0)">d</text><text xml:space="preserve" font-family="Helvetica-Light" font-size="45.5" fill="#000000" transform="matrix(1.00, 0.00, -0.00, -1.00, 661.0, 65.0)"> </text><text xml:space="preserve" font-family="Helvetica-Light" font-size="45.5" fill="#000000" transform="matrix(1.00, 0.00, -0.00, -1.00, 44.0, 11.0)">p</text><text xml:space="preserve" font-family="Helvetica-Light" font-size="45.5" fill="#000000" transform="matrix(1.00, 0.00, -0.00, -1.00, 71.8, 11.0)">r</text><text xml:space="preserve" font-family="Helvetica-Light" font-size="45.5" fill="#000000" transform="matrix(1.00, 0.00, -0.00, -1.00, 86.1, 11.0)">o</text><text xml:space="preserve" font-family="Helvetica-Light" font-size="45.5" fill="#000000" transform="matrix(1.00, 0.00, -0.00, -1.00, 111.4, 11.0)">v</text><text xml:space="preserve" font-family="Helvetica-Light" font-size="45.5" fill="#000000" transform="matrix(1.00, 0.00, -0.00, -1.00, 134.2, 11.0)">i</text><text xml:space="preserve" font-family="Helvetica-Light" font-size="45.5" fill="#000000" transform="matrix(1.00, 0.00, -0.00, -1.00, 144.3, 11.0)">d</text><text xml:space="preserve" font-family="Helvetica-Light" font-size="45.5" fill="#000000" transform="matrix(1.00, 0.00, -0.00, -1.00, 172.1, 11.0)">e</text><text xml:space="preserve" font-family="Helvetica-Light" font-size="45.5" fill="#000000" transform="matrix(1.00, 0.00, -0.00, -1.00, 197.4, 11.0)">s</text><text xml:space="preserve" font-family="Helvetica-Light" font-size="45.5" fill="#000000" transform="matrix(1.00, 0.00, -0.00, -1.00, 220.1, 11.0)"> </text><text xml:space="preserve" font-family="Helvetica-Light" font-size="45.5" fill="#000000" transform="matrix(1.00, 0.00, -0.00, -1.00, 232.8, 11.0)">r</text><text xml:space="preserve" font-family="Helvetica-Light" font-size="45.5" fill="#000000" transform="matrix(1.00, 0.00, -0.00, -1.00, 247.1, 11.0)">e</text><text xml:space="preserve" font-family="Helvetica-Light" font-size="45.5" fill="#000000" transform="matrix(1.00, 0.00, -0.00, -1.00, 272.4, 11.0)">a</text><text xml:space="preserve" font-family="Helvetica-Light" font-size="45.5" fill="#000000" transform="matrix(1.00, 0.00, -0.00, -1.00, 297.7, 11.0)">l</text><text xml:space="preserve" font-family="Helvetica-Light" font-size="45.5" fill="#000000" transform="matrix(1.00, 0.00, -0.00, -1.00, 307.8, 11.0)">t</text><text xml:space="preserve" font-family="Helvetica-Light" font-size="45.5" fill="#000000" transform="matrix(1.00, 0.00, -0.00, -1.00, 320.5, 11.0)">i</text><text xml:space="preserve" font-family="Helvetica-Light" font-size="45.5" fill="#000000" transform="matrix(1.00, 0.00, -0.00, -1.00, 330.6, 11.0)">m</text><text xml:space="preserve" font-family="Helvetica-Light" font-size="45.5" fill="#000000" transform="matrix(1.00, 0.00, -0.00, -1.00, 368.5, 11.0)">e</text><text xml:space="preserve" font-family="Helvetica-Light" font-size="45.5" fill="#000000" transform="matrix(1.00, 0.00, -0.00, -1.00, 393.8, 11.0)">-</text><text xml:space="preserve" font-family="Helvetica-Light" font-size="45.5" fill="#000000" transform="matrix(1.00, 0.00, -0.00, -1.00, 408.9, 11.0)">c</text><text xml:space="preserve" font-family="Helvetica-Light" font-size="45.5" fill="#000000" transform="matrix(1.00, 0.00, -0.00, -1.00, 434.2, 11.0)">o</text><text xml:space="preserve" font-family="Helvetica-Light" font-size="45.5" fill="#000000" transform="matrix(1.00, 0.00, -0.00, -1.00, 459.5, 11.0)">l</text><text xml:space="preserve" font-family="Helvetica-Light" font-size="45.5" fill="#000000" transform="matrix(1.00, 0.00, -0.00, -1.00, 469.6, 11.0)">l</text><text xml:space="preserve" font-family="Helvetica-Light" font-size="45.5" fill="#000000" transform="matrix(1.00, 0.00, -0.00, -1.00, 479.7, 11.0)">a</text><text xml:space="preserve" font-family="Helvetica-Light" font-size="45.5" fill="#000000" transform="matrix(1.00, 0.00, -0.00, -1.00, 505.0, 11.0)">b</text><text xml:space="preserve" font-family="Helvetica-Light" font-size="45.5" fill="#000000" transform="matrix(1.00, 0.00, -0.00, -1.00, 532.8, 11.0)">o</text><text xml:space="preserve" font-family="Helvetica-Light" font-size="45.5" fill="#000000" transform="matrix(1.00, 0.00, -0.00, -1.00, 558.1, 11.0)">r</text><text xml:space="preserve" font-family="Helvetica-Light" font-size="45.5" fill="#000000" transform="matrix(1.00, 0.00, -0.00, -1.00, 573.3, 11.0)">a</text><text xml:space="preserve" font-family="Helvetica-Light" font-size="45.5" fill="#000000" transform="matrix(1.00, 0.00, -0.00, -1.00, 598.6, 11.0)">t</text><text xml:space="preserve" font-family="Helvetica-Light" font-size="45.5" fill="#000000" transform="matrix(1.00, 0.00, -0.00, -1.00, 611.2, 11.0)">i</text><text xml:space="preserve" font-family="Helvetica-Light" font-size="45.5" fill="#000000" transform="matrix(1.00, 0.00, -0.00, -1.00, 621.3, 11.0)">o</text><text xml:space="preserve" font-family="Helvetica-Light" font-size="45.5" fill="#000000" transform="matrix(1.00, 0.00, -0.00, -1.00, 646.6, 11.0)">n</text></g></svg>