<?xml version="1.0" encoding="UTF-8" standalone="no"?><svg xmlns="http://www.w3.org/2000/svg" xmlns:xlink="http://www.w3.org/1999/xlink" clip-rule="evenodd" stroke-miterlimit="4.00" viewBox="0 0 660 47"><desc>SVG generated by Keynote</desc><defs></defs><g transform="matrix(1.00, 0.00, -0.00, -1.00, 0.0, 47.0)"><text xml:space="preserve" font-family="Helvetica-Light" font-size="34.1" fill="#000000" transform="matrix(1.00, 0.00, -0.00, -1.00, 0.1, 15.2)">•</text><text xml:space="preserve" font-family="Helvetica-Light" font-size="45.5" fill="#000000" transform="matrix(1.00, 0.00, -0.00, -1.00, 44.0, 11.0)">b</text><text xml:space="preserve" font-family="Helvetica-Light" font-size="45.5" fill="#000000" transform="matrix(1.00, 0.00, -0.00, -1.00, 71.8, 11.0)">i</text><text xml:space="preserve" font-family="Helvetica-Light" font-size="45.5" fill="#000000" transform="matrix(1.00, 0.00, -0.00, -1.00, 81.9, 11.0)">n</text><text xml:space="preserve" font-family="Helvetica-Light" font-size="45.5" fill="#000000" transform="matrix(1.00, 0.00, -0.00, -1.00, 107.2, 11.0)">d</text><text xml:space="preserve" font-family="Helvetica-Light" font-size="45.5" fill="#000000" transform="matrix(1.00, 0.00, -0.00, -1.00, 135.0, 11.0)">e</text><text xml:space="preserve" font-family="Helvetica-Light" font-size="45.5" fill="#000000" transform="matrix(1.00, 0.00, -0.00, -1.00, 160.3, 11.0)">r</text><text xml:space="preserve" font-family="Helvetica-Light" font-size="45.5" fill="#000000" transform="matrix(1.00, 0.00, -0.00, -1.00, 175.4, 11.0)">:</text><text xml:space="preserve" font-family="Helvetica-Light" font-size="45.5" fill="#000000" transform="matrix(1.00, 0.00, -0.00, -1.00, 188.1, 11.0)"> </text><text xml:space="preserve" font-family="Helvetica-Light" font-size="45.5" fill="#000000" transform="matrix(1.00, 0.00, -0.00, -1.00, 200.7, 11.0)">t</text><text xml:space="preserve" font-family="Helvetica-Light" font-size="45.5" fill="#000000" transform="matrix(1.00, 0.00, -0.00, -1.00, 213.4, 11.0)">m</text><text xml:space="preserve" font-family="Helvetica-Light" font-size="45.5" fill="#000000" transform="matrix(1.00, 0.00, -0.00, -1.00, 251.3, 11.0)">p</text><text xml:space="preserve" font-family="Helvetica-Light" font-size="45.5" fill="#000000" transform="matrix(1.00, 0.00, -0.00, -1.00, 279.1, 11.0)">n</text><text xml:space="preserve" font-family="Helvetica-Light" font-size="45.5" fill="#000000" transform="matrix(1.00, 0.00, -0.00, -1.00, 304.4, 11.0)">b</text><text xml:space="preserve" font-family="Helvetica-Light" font-size="45.5" fill="#000000" transform="matrix(1.00, 0.00, -0.00, -1.00, 332.2, 11.0)"> </text><text xml:space="preserve" font-family="Helvetica-Light" font-size="45.5" fill="#000000" transform="matrix(1.00, 0.00, -0.00, -1.00, 344.8, 11.0)">+</text><text xml:space="preserve" font-family="Helvetica-Light" font-size="45.5" fill="#000000" transform="matrix(1.00, 0.00, -0.00, -1.00, 374.9, 11.0)"> </text><text xml:space="preserve" font-family="Helvetica-Light" font-size="45.5" fill="#000000" transform="matrix(1.00, 0.00, -0.00, -1.00, 387.5, 11.0)">G</text><text xml:space="preserve" font-family="Helvetica-Light" font-size="45.5" fill="#000000" transform="matrix(1.00, 0.00, -0.00, -1.00, 422.9, 11.0)">i</text><text xml:space="preserve" font-family="Helvetica-Light" font-size="45.5" fill="#000000" transform="matrix(1.00, 0.00, -0.00, -1.00, 433.0, 11.0)">t</text><text xml:space="preserve" font-family="Helvetica-Light" font-size="45.5" fill="#000000" transform="matrix(1.00, 0.00, -0.00, -1.00, 445.7, 11.0)">H</text><text xml:space="preserve" font-family="Helvetica-Light" font-size="45.5" fill="#000000" transform="matrix(1.00, 0.00, -0.00, -1.00, 478.5, 11.0)">u</text><text xml:space="preserve" font-family="Helvetica-Light" font-size="45.5" fill="#000000" transform="matrix(1.00, 0.00, -0.00, -1.00, 503.8, 11.0)">b</text><text xml:space="preserve" font-family="Helvetica-Light" font-size="45.5" fill="#000000" transform="matrix(1.00, 0.00, -0.00, -1.00, 531.6, 11.0)"> </text><text xml:space="preserve" font-family="Helvetica-Light" font-size="45.5" fill="#000000" transform="matrix(1.00, 0.00, -0.00, -1.00, 544.3, 11.0)">r</text><text xml:space="preserve" font-family="Helvetica-Light" font-size="45.5" fill="#000000" transform="matrix(1.00, 0.00, -0.00, -1.00, 558.6, 11.0)">e</text><text xml:space="preserve" font-family="Helvetica-Light" font-size="45.5" fill="#000000" transform="matrix(1.00, 0.00, -0.00, -1.00, 583.9, 11.0)">p</text><text xml:space="preserve" font-family="Helvetica-Light" font-size="45.5" fill="#000000" transform="matrix(1.00, 0.00, -0.00, -1.00, 611.7, 11.0)">o</text><text xml:space="preserve" font-family="Helvetica-Light" font-size="45.5" fill="#000000" transform="matrix(1.00, 0.00, -0.00, -1.00, 637.0, 11.0)">s</text></g></svg>