<?xml version="1.0" encoding="UTF-8" standalone="no"?><svg xmlns="http://www.w3.org/2000/svg" xmlns:xlink="http://www.w3.org/1999/xlink" clip-rule="evenodd" stroke-miterlimit="4.00" viewBox="0 0 1024 768"><desc>SVG generated by Keynote</desc><defs></defs><g transform="matrix(1.00, 0.00, -0.00, -1.00, 0.0, 768.0)"><g><clipPath id="clip-568"><path d="M 0.0 768.0 L 1024.0 768.0 L 1024.0 0.0 L 0.0 0.0 Z M 0.0 768.0 "></path></clipPath><g clip-path="url(#clip-568)"><image xlink:href="../../A6AB71EB-7077-4CA4-A4BC-733F3D27A118/assets/AC8A38799F83CDE46BAD7F0B4FE74D5F.jpeg" width="1024.00" height="768.00" transform="matrix(1.00, 0.00, -0.00, -1.00, 0.0, 768.0)"></image></g></g><g><clipPath id="clip-569"><path d="M 23.7 599.4 L 1000.3 599.4 L 1000.3 677.2 L 23.7 677.2 Z M 23.7 599.4 "></path></clipPath><g clip-path="url(#clip-569)"><text xml:space="preserve" font-family="Helvetica" font-size="65.0" fill="#000000" transform="matrix(1.00, 0.00, -0.00, -1.00, 95.0, 614.0)">W</text><text xml:space="preserve" font-family="Helvetica" font-size="65.0" fill="#000000" transform="matrix(1.00, 0.00, -0.00, -1.00, 156.3, 614.0)">h</text><text xml:space="preserve" font-family="Helvetica" font-size="65.0" fill="#000000" transform="matrix(1.00, 0.00, -0.00, -1.00, 192.4, 614.0)">e</text><text xml:space="preserve" font-family="Helvetica" font-size="65.0" fill="#000000" transform="matrix(1.00, 0.00, -0.00, -1.00, 228.5, 614.0)">n</text><text xml:space="preserve" font-family="Helvetica" font-size="65.0" fill="#000000" transform="matrix(1.00, 0.00, -0.00, -1.00, 264.6, 614.0)"> </text><text xml:space="preserve" font-family="Helvetica-BoldOblique" font-style="italic" font-weight="bold" font-size="65.0" fill="#000000" transform="matrix(1.00, 0.00, -0.00, -1.00, 282.7, 614.0)">n</text><text xml:space="preserve" font-family="Helvetica-BoldOblique" font-style="italic" font-weight="bold" font-size="65.0" fill="#000000" transform="matrix(1.00, 0.00, -0.00, -1.00, 322.4, 614.0)">o</text><text xml:space="preserve" font-family="Helvetica-BoldOblique" font-style="italic" font-weight="bold" font-size="65.0" fill="#000000" transform="matrix(1.00, 0.00, -0.00, -1.00, 362.1, 614.0)">t</text><text xml:space="preserve" font-family="Helvetica" font-size="65.0" fill="#000000" transform="matrix(1.00, 0.00, -0.00, -1.00, 383.7, 614.0)"> </text><text xml:space="preserve" font-family="Helvetica" font-size="65.0" fill="#000000" transform="matrix(1.00, 0.00, -0.00, -1.00, 401.8, 614.0)">t</text><text xml:space="preserve" font-family="Helvetica" font-size="65.0" fill="#000000" transform="matrix(1.00, 0.00, -0.00, -1.00, 419.8, 614.0)">o</text><text xml:space="preserve" font-family="Helvetica" font-size="65.0" fill="#000000" transform="matrix(1.00, 0.00, -0.00, -1.00, 455.9, 614.0)"> </text><text xml:space="preserve" font-family="Helvetica" font-size="65.0" fill="#000000" transform="matrix(1.00, 0.00, -0.00, -1.00, 474.0, 614.0)">u</text><text xml:space="preserve" font-family="Helvetica" font-size="65.0" fill="#000000" transform="matrix(1.00, 0.00, -0.00, -1.00, 510.1, 614.0)">s</text><text xml:space="preserve" font-family="Helvetica" font-size="65.0" fill="#000000" transform="matrix(1.00, 0.00, -0.00, -1.00, 542.6, 614.0)">e</text><text xml:space="preserve" font-family="Helvetica" font-size="65.0" fill="#000000" transform="matrix(1.00, 0.00, -0.00, -1.00, 578.7, 614.0)"> </text><text xml:space="preserve" font-family="Helvetica" font-size="65.0" fill="#000000" transform="matrix(1.00, 0.00, -0.00, -1.00, 596.8, 614.0)">J</text><text xml:space="preserve" font-family="Helvetica" font-size="65.0" fill="#000000" transform="matrix(1.00, 0.00, -0.00, -1.00, 629.3, 614.0)">u</text><text xml:space="preserve" font-family="Helvetica" font-size="65.0" fill="#000000" transform="matrix(1.00, 0.00, -0.00, -1.00, 665.4, 614.0)">p</text><text xml:space="preserve" font-family="Helvetica" font-size="65.0" fill="#000000" transform="matrix(1.00, 0.00, -0.00, -1.00, 701.5, 614.0)">y</text><text xml:space="preserve" font-family="Helvetica" font-size="65.0" fill="#000000" transform="matrix(1.00, 0.00, -0.00, -1.00, 734.0, 614.0)">t</text><text xml:space="preserve" font-family="Helvetica" font-size="65.0" fill="#000000" transform="matrix(1.00, 0.00, -0.00, -1.00, 752.1, 614.0)">e</text><text xml:space="preserve" font-family="Helvetica" font-size="65.0" fill="#000000" transform="matrix(1.00, 0.00, -0.00, -1.00, 788.2, 614.0)">r</text><text xml:space="preserve" font-family="Helvetica" font-size="65.0" fill="#000000" transform="matrix(1.00, 0.00, -0.00, -1.00, 809.8, 614.0)">H</text><text xml:space="preserve" font-family="Helvetica" font-size="65.0" fill="#000000" transform="matrix(1.00, 0.00, -0.00, -1.00, 856.8, 614.0)">u</text><text xml:space="preserve" font-family="Helvetica" font-size="65.0" fill="#000000" transform="matrix(1.00, 0.00, -0.00, -1.00, 892.9, 614.0)">b</text></g></g><text xml:space="preserve" font-family="Helvetica-Light" font-size="34.1" fill="#000000" transform="matrix(1.00, 0.00, -0.00, -1.00, 106.1, 480.0)">•</text><text xml:space="preserve" font-family="Helvetica-Light" font-size="45.5" fill="#000000" transform="matrix(1.00, 0.00, -0.00, -1.00, 150.0, 476.0)">t</text><text xml:space="preserve" font-family="Helvetica-Light" font-size="45.5" fill="#000000" transform="matrix(1.00, 0.00, -0.00, -1.00, 162.6, 476.0)">m</text><text xml:space="preserve" font-family="Helvetica-Light" font-size="45.5" fill="#000000" transform="matrix(1.00, 0.00, -0.00, -1.00, 200.6, 476.0)">p</text><text xml:space="preserve" font-family="Helvetica-Light" font-size="45.5" fill="#000000" transform="matrix(1.00, 0.00, -0.00, -1.00, 228.4, 476.0)">n</text><text xml:space="preserve" font-family="Helvetica-Light" font-size="45.5" fill="#000000" transform="matrix(1.00, 0.00, -0.00, -1.00, 253.6, 476.0)">b</text><text xml:space="preserve" font-family="Helvetica-Light" font-size="45.5" fill="#000000" transform="matrix(1.00, 0.00, -0.00, -1.00, 281.4, 476.0)">:</text><text xml:space="preserve" font-family="Helvetica-Light" font-size="45.5" fill="#000000" transform="matrix(1.00, 0.00, -0.00, -1.00, 294.1, 476.0)"> </text><text xml:space="preserve" font-family="Helvetica-Light" font-size="45.5" fill="#000000" transform="matrix(1.00, 0.00, -0.00, -1.00, 306.7, 476.0)">a</text><text xml:space="preserve" font-family="Helvetica-Light" font-size="45.5" fill="#000000" transform="matrix(1.00, 0.00, -0.00, -1.00, 332.0, 476.0)">n</text><text xml:space="preserve" font-family="Helvetica-Light" font-size="45.5" fill="#000000" transform="matrix(1.00, 0.00, -0.00, -1.00, 357.3, 476.0)">o</text><text xml:space="preserve" font-family="Helvetica-Light" font-size="45.5" fill="#000000" transform="matrix(1.00, 0.00, -0.00, -1.00, 382.6, 476.0)">n</text><text xml:space="preserve" font-family="Helvetica-Light" font-size="45.5" fill="#000000" transform="matrix(1.00, 0.00, -0.00, -1.00, 407.9, 476.0)">y</text><text xml:space="preserve" font-family="Helvetica-Light" font-size="45.5" fill="#000000" transform="matrix(1.00, 0.00, -0.00, -1.00, 430.7, 476.0)">m</text><text xml:space="preserve" font-family="Helvetica-Light" font-size="45.5" fill="#000000" transform="matrix(1.00, 0.00, -0.00, -1.00, 468.6, 476.0)">o</text><text xml:space="preserve" font-family="Helvetica-Light" font-size="45.5" fill="#000000" transform="matrix(1.00, 0.00, -0.00, -1.00, 493.9, 476.0)">u</text><text xml:space="preserve" font-family="Helvetica-Light" font-size="45.5" fill="#000000" transform="matrix(1.00, 0.00, -0.00, -1.00, 519.2, 476.0)">s</text><text xml:space="preserve" font-family="Helvetica-Light" font-size="45.5" fill="#000000" transform="matrix(1.00, 0.00, -0.00, -1.00, 541.9, 476.0)">,</text><text xml:space="preserve" font-family="Helvetica-Light" font-size="45.5" fill="#000000" transform="matrix(1.00, 0.00, -0.00, -1.00, 554.6, 476.0)"> </text><text xml:space="preserve" font-family="Helvetica-Light" font-size="45.5" fill="#000000" transform="matrix(1.00, 0.00, -0.00, -1.00, 567.2, 476.0)">e</text><text xml:space="preserve" font-family="Helvetica-Light" font-size="45.5" fill="#000000" transform="matrix(1.00, 0.00, -0.00, -1.00, 592.5, 476.0)">p</text><text xml:space="preserve" font-family="Helvetica-Light" font-size="45.5" fill="#000000" transform="matrix(1.00, 0.00, -0.00, -1.00, 620.3, 476.0)">h</text><text xml:space="preserve" font-family="Helvetica-Light" font-size="45.5" fill="#000000" transform="matrix(1.00, 0.00, -0.00, -1.00, 645.6, 476.0)">e</text><text xml:space="preserve" font-family="Helvetica-Light" font-size="45.5" fill="#000000" transform="matrix(1.00, 0.00, -0.00, -1.00, 670.9, 476.0)">m</text><text xml:space="preserve" font-family="Helvetica-Light" font-size="45.5" fill="#000000" transform="matrix(1.00, 0.00, -0.00, -1.00, 708.8, 476.0)">e</text><text xml:space="preserve" font-family="Helvetica-Light" font-size="45.5" fill="#000000" transform="matrix(1.00, 0.00, -0.00, -1.00, 734.1, 476.0)">r</text><text xml:space="preserve" font-family="Helvetica-Light" font-size="45.5" fill="#000000" transform="matrix(1.00, 0.00, -0.00, -1.00, 749.3, 476.0)">a</text><text xml:space="preserve" font-family="Helvetica-Light" font-size="45.5" fill="#000000" transform="matrix(1.00, 0.00, -0.00, -1.00, 774.6, 476.0)">l</text><text xml:space="preserve" font-family="Helvetica-Light" font-size="45.5" fill="#000000" transform="matrix(1.00, 0.00, -0.00, -1.00, 784.7, 476.0)"> </text><text xml:space="preserve" font-family="Helvetica-Light" font-size="45.5" fill="#000000" transform="matrix(1.00, 0.00, -0.00, -1.00, 150.0, 422.0)">n</text><text xml:space="preserve" font-family="Helvetica-Light" font-size="45.5" fill="#000000" transform="matrix(1.00, 0.00, -0.00, -1.00, 175.3, 422.0)">o</text><text xml:space="preserve" font-family="Helvetica-Light" font-size="45.5" fill="#000000" transform="matrix(1.00, 0.00, -0.00, -1.00, 200.6, 422.0)">t</text><text xml:space="preserve" font-family="Helvetica-Light" font-size="45.5" fill="#000000" transform="matrix(1.00, 0.00, -0.00, -1.00, 213.2, 422.0)">e</text><text xml:space="preserve" font-family="Helvetica-Light" font-size="45.5" fill="#000000" transform="matrix(1.00, 0.00, -0.00, -1.00, 238.5, 422.0)">b</text><text xml:space="preserve" font-family="Helvetica-Light" font-size="45.5" fill="#000000" transform="matrix(1.00, 0.00, -0.00, -1.00, 266.3, 422.0)">o</text><text xml:space="preserve" font-family="Helvetica-Light" font-size="45.5" fill="#000000" transform="matrix(1.00, 0.00, -0.00, -1.00, 291.6, 422.0)">o</text><text xml:space="preserve" font-family="Helvetica-Light" font-size="45.5" fill="#000000" transform="matrix(1.00, 0.00, -0.00, -1.00, 316.9, 422.0)">k</text><text xml:space="preserve" font-family="Helvetica-Light" font-size="45.5" fill="#000000" transform="matrix(1.00, 0.00, -0.00, -1.00, 339.7, 422.0)">s</text><text xml:space="preserve" font-family="Helvetica-Light" font-size="34.1" fill="#000000" transform="matrix(1.00, 0.00, -0.00, -1.00, 106.1, 318.2)">•</text><text xml:space="preserve" font-family="Helvetica-Light" font-size="45.5" fill="#000000" transform="matrix(1.00, 0.00, -0.00, -1.00, 150.0, 314.0)">b</text><text xml:space="preserve" font-family="Helvetica-Light" font-size="45.5" fill="#000000" transform="matrix(1.00, 0.00, -0.00, -1.00, 177.8, 314.0)">i</text><text xml:space="preserve" font-family="Helvetica-Light" font-size="45.5" fill="#000000" transform="matrix(1.00, 0.00, -0.00, -1.00, 187.9, 314.0)">n</text><text xml:space="preserve" font-family="Helvetica-Light" font-size="45.5" fill="#000000" transform="matrix(1.00, 0.00, -0.00, -1.00, 213.2, 314.0)">d</text><text xml:space="preserve" font-family="Helvetica-Light" font-size="45.5" fill="#000000" transform="matrix(1.00, 0.00, -0.00, -1.00, 241.0, 314.0)">e</text><text xml:space="preserve" font-family="Helvetica-Light" font-size="45.5" fill="#000000" transform="matrix(1.00, 0.00, -0.00, -1.00, 266.3, 314.0)">r</text><text xml:space="preserve" font-family="Helvetica-Light" font-size="45.5" fill="#000000" transform="matrix(1.00, 0.00, -0.00, -1.00, 281.4, 314.0)">:</text><text xml:space="preserve" font-family="Helvetica-Light" font-size="45.5" fill="#000000" transform="matrix(1.00, 0.00, -0.00, -1.00, 294.1, 314.0)"> </text><text xml:space="preserve" font-family="Helvetica-Light" font-size="45.5" fill="#000000" transform="matrix(1.00, 0.00, -0.00, -1.00, 306.7, 314.0)">t</text><text xml:space="preserve" font-family="Helvetica-Light" font-size="45.5" fill="#000000" transform="matrix(1.00, 0.00, -0.00, -1.00, 319.4, 314.0)">m</text><text xml:space="preserve" font-family="Helvetica-Light" font-size="45.5" fill="#000000" transform="matrix(1.00, 0.00, -0.00, -1.00, 357.3, 314.0)">p</text><text xml:space="preserve" font-family="Helvetica-Light" font-size="45.5" fill="#000000" transform="matrix(1.00, 0.00, -0.00, -1.00, 385.1, 314.0)">n</text><text xml:space="preserve" font-family="Helvetica-Light" font-size="45.5" fill="#000000" transform="matrix(1.00, 0.00, -0.00, -1.00, 410.4, 314.0)">b</text><text xml:space="preserve" font-family="Helvetica-Light" font-size="45.5" fill="#000000" transform="matrix(1.00, 0.00, -0.00, -1.00, 438.2, 314.0)"> </text><text xml:space="preserve" font-family="Helvetica-Light" font-size="45.5" fill="#000000" transform="matrix(1.00, 0.00, -0.00, -1.00, 450.8, 314.0)">+</text><text xml:space="preserve" font-family="Helvetica-Light" font-size="45.5" fill="#000000" transform="matrix(1.00, 0.00, -0.00, -1.00, 480.9, 314.0)"> </text><text xml:space="preserve" font-family="Helvetica-Light" font-size="45.5" fill="#000000" transform="matrix(1.00, 0.00, -0.00, -1.00, 493.5, 314.0)">G</text><text xml:space="preserve" font-family="Helvetica-Light" font-size="45.5" fill="#000000" transform="matrix(1.00, 0.00, -0.00, -1.00, 528.9, 314.0)">i</text><text xml:space="preserve" font-family="Helvetica-Light" font-size="45.5" fill="#000000" transform="matrix(1.00, 0.00, -0.00, -1.00, 539.0, 314.0)">t</text><text xml:space="preserve" font-family="Helvetica-Light" font-size="45.5" fill="#000000" transform="matrix(1.00, 0.00, -0.00, -1.00, 551.7, 314.0)">H</text><text xml:space="preserve" font-family="Helvetica-Light" font-size="45.5" fill="#000000" transform="matrix(1.00, 0.00, -0.00, -1.00, 584.5, 314.0)">u</text><text xml:space="preserve" font-family="Helvetica-Light" font-size="45.5" fill="#000000" transform="matrix(1.00, 0.00, -0.00, -1.00, 609.8, 314.0)">b</text><text xml:space="preserve" font-family="Helvetica-Light" font-size="45.5" fill="#000000" transform="matrix(1.00, 0.00, -0.00, -1.00, 637.6, 314.0)"> </text><text xml:space="preserve" font-family="Helvetica-Light" font-size="45.5" fill="#000000" transform="matrix(1.00, 0.00, -0.00, -1.00, 650.3, 314.0)">r</text><text xml:space="preserve" font-family="Helvetica-Light" font-size="45.5" fill="#000000" transform="matrix(1.00, 0.00, -0.00, -1.00, 664.6, 314.0)">e</text><text xml:space="preserve" font-family="Helvetica-Light" font-size="45.5" fill="#000000" transform="matrix(1.00, 0.00, -0.00, -1.00, 689.9, 314.0)">p</text><text xml:space="preserve" font-family="Helvetica-Light" font-size="45.5" fill="#000000" transform="matrix(1.00, 0.00, -0.00, -1.00, 717.7, 314.0)">o</text><text xml:space="preserve" font-family="Helvetica-Light" font-size="45.5" fill="#000000" transform="matrix(1.00, 0.00, -0.00, -1.00, 743.0, 314.0)">s</text><text xml:space="preserve" font-family="Helvetica-Light" font-size="34.1" fill="#000000" transform="matrix(1.00, 0.00, -0.00, -1.00, 106.1, 210.5)">•</text><text xml:space="preserve" font-family="Helvetica-Light" font-size="45.5" fill="#000000" transform="matrix(1.00, 0.00, -0.00, -1.00, 150.0, 207.0)">S</text><text xml:space="preserve" font-family="Helvetica-Light" font-size="45.5" fill="#000000" transform="matrix(1.00, 0.00, -0.00, -1.00, 177.8, 207.0)">a</text><text xml:space="preserve" font-family="Helvetica-Light" font-size="45.5" fill="#000000" transform="matrix(1.00, 0.00, -0.00, -1.00, 203.1, 207.0)">g</text><text xml:space="preserve" font-family="Helvetica-Light" font-size="45.5" fill="#000000" transform="matrix(1.00, 0.00, -0.00, -1.00, 230.9, 207.0)">e</text><text xml:space="preserve" font-family="Helvetica-Light" font-size="45.5" fill="#000000" transform="matrix(1.00, 0.00, -0.00, -1.00, 256.2, 207.0)">M</text><text xml:space="preserve" font-family="Helvetica-Light" font-size="45.5" fill="#000000" transform="matrix(1.00, 0.00, -0.00, -1.00, 294.1, 207.0)">a</text><text xml:space="preserve" font-family="Helvetica-Light" font-size="45.5" fill="#000000" transform="matrix(1.00, 0.00, -0.00, -1.00, 319.4, 207.0)">t</text><text xml:space="preserve" font-family="Helvetica-Light" font-size="45.5" fill="#000000" transform="matrix(1.00, 0.00, -0.00, -1.00, 332.0, 207.0)">h</text><text xml:space="preserve" font-family="Helvetica-Light" font-size="45.5" fill="#000000" transform="matrix(1.00, 0.00, -0.00, -1.00, 357.3, 207.0)">C</text><text xml:space="preserve" font-family="Helvetica-Light" font-size="45.5" fill="#000000" transform="matrix(1.00, 0.00, -0.00, -1.00, 390.2, 207.0)">l</text><text xml:space="preserve" font-family="Helvetica-Light" font-size="45.5" fill="#000000" transform="matrix(1.00, 0.00, -0.00, -1.00, 400.3, 207.0)">o</text><text xml:space="preserve" font-family="Helvetica-Light" font-size="45.5" fill="#000000" transform="matrix(1.00, 0.00, -0.00, -1.00, 425.6, 207.0)">u</text><text xml:space="preserve" font-family="Helvetica-Light" font-size="45.5" fill="#000000" transform="matrix(1.00, 0.00, -0.00, -1.00, 450.9, 207.0)">d</text><text xml:space="preserve" font-family="Helvetica-Light" font-size="45.5" fill="#000000" transform="matrix(1.00, 0.00, -0.00, -1.00, 478.7, 207.0)"> </text><text xml:space="preserve" font-family="Helvetica-Light" font-size="45.5" fill="#000000" transform="matrix(1.00, 0.00, -0.00, -1.00, 491.3, 207.0)">i</text><text xml:space="preserve" font-family="Helvetica-Light" font-size="45.5" fill="#000000" transform="matrix(1.00, 0.00, -0.00, -1.00, 501.4, 207.0)">s</text><text xml:space="preserve" font-family="Helvetica-Light" font-size="45.5" fill="#000000" transform="matrix(1.00, 0.00, -0.00, -1.00, 524.2, 207.0)"> </text><text xml:space="preserve" font-family="Helvetica-LightOblique" font-style="italic" font-size="45.5" fill="#000000" transform="matrix(1.00, 0.00, -0.00, -1.00, 536.8, 207.0)">h</text><text xml:space="preserve" font-family="Helvetica-LightOblique" font-style="italic" font-size="45.5" fill="#000000" transform="matrix(1.00, 0.00, -0.00, -1.00, 562.1, 207.0)">o</text><text xml:space="preserve" font-family="Helvetica-LightOblique" font-style="italic" font-size="45.5" fill="#000000" transform="matrix(1.00, 0.00, -0.00, -1.00, 587.4, 207.0)">s</text><text xml:space="preserve" font-family="Helvetica-LightOblique" font-style="italic" font-size="45.5" fill="#000000" transform="matrix(1.00, 0.00, -0.00, -1.00, 610.2, 207.0)">t</text><text xml:space="preserve" font-family="Helvetica-LightOblique" font-style="italic" font-size="45.5" fill="#000000" transform="matrix(1.00, 0.00, -0.00, -1.00, 622.8, 207.0)">e</text><text xml:space="preserve" font-family="Helvetica-LightOblique" font-style="italic" font-size="45.5" fill="#000000" transform="matrix(1.00, 0.00, -0.00, -1.00, 648.1, 207.0)">d</text><text xml:space="preserve" font-family="Helvetica-Light" font-size="45.5" fill="#000000" transform="matrix(1.00, 0.00, -0.00, -1.00, 675.9, 207.0)"> </text><text xml:space="preserve" font-family="Helvetica-Light" font-size="45.5" fill="#000000" transform="matrix(1.00, 0.00, -0.00, -1.00, 688.6, 207.0)">a</text><text xml:space="preserve" font-family="Helvetica-Light" font-size="45.5" fill="#000000" transform="matrix(1.00, 0.00, -0.00, -1.00, 713.9, 207.0)">n</text><text xml:space="preserve" font-family="Helvetica-Light" font-size="45.5" fill="#000000" transform="matrix(1.00, 0.00, -0.00, -1.00, 739.2, 207.0)">d</text><text xml:space="preserve" font-family="Helvetica-Light" font-size="45.5" fill="#000000" transform="matrix(1.00, 0.00, -0.00, -1.00, 767.0, 207.0)"> </text><text xml:space="preserve" font-family="Helvetica-Light" font-size="45.5" fill="#000000" transform="matrix(1.00, 0.00, -0.00, -1.00, 150.0, 153.0)">p</text><text xml:space="preserve" font-family="Helvetica-Light" font-size="45.5" fill="#000000" transform="matrix(1.00, 0.00, -0.00, -1.00, 177.8, 153.0)">r</text><text xml:space="preserve" font-family="Helvetica-Light" font-size="45.5" fill="#000000" transform="matrix(1.00, 0.00, -0.00, -1.00, 192.1, 153.0)">o</text><text xml:space="preserve" font-family="Helvetica-Light" font-size="45.5" fill="#000000" transform="matrix(1.00, 0.00, -0.00, -1.00, 217.4, 153.0)">v</text><text xml:space="preserve" font-family="Helvetica-Light" font-size="45.5" fill="#000000" transform="matrix(1.00, 0.00, -0.00, -1.00, 240.2, 153.0)">i</text><text xml:space="preserve" font-family="Helvetica-Light" font-size="45.5" fill="#000000" transform="matrix(1.00, 0.00, -0.00, -1.00, 250.3, 153.0)">d</text><text xml:space="preserve" font-family="Helvetica-Light" font-size="45.5" fill="#000000" transform="matrix(1.00, 0.00, -0.00, -1.00, 278.1, 153.0)">e</text><text xml:space="preserve" font-family="Helvetica-Light" font-size="45.5" fill="#000000" transform="matrix(1.00, 0.00, -0.00, -1.00, 303.4, 153.0)">s</text><text xml:space="preserve" font-family="Helvetica-Light" font-size="45.5" fill="#000000" transform="matrix(1.00, 0.00, -0.00, -1.00, 326.1, 153.0)"> </text><text xml:space="preserve" font-family="Helvetica-Light" font-size="45.5" fill="#000000" transform="matrix(1.00, 0.00, -0.00, -1.00, 338.8, 153.0)">r</text><text xml:space="preserve" font-family="Helvetica-Light" font-size="45.5" fill="#000000" transform="matrix(1.00, 0.00, -0.00, -1.00, 353.1, 153.0)">e</text><text xml:space="preserve" font-family="Helvetica-Light" font-size="45.5" fill="#000000" transform="matrix(1.00, 0.00, -0.00, -1.00, 378.4, 153.0)">a</text><text xml:space="preserve" font-family="Helvetica-Light" font-size="45.5" fill="#000000" transform="matrix(1.00, 0.00, -0.00, -1.00, 403.7, 153.0)">l</text><text xml:space="preserve" font-family="Helvetica-Light" font-size="45.5" fill="#000000" transform="matrix(1.00, 0.00, -0.00, -1.00, 413.8, 153.0)">t</text><text xml:space="preserve" font-family="Helvetica-Light" font-size="45.5" fill="#000000" transform="matrix(1.00, 0.00, -0.00, -1.00, 426.5, 153.0)">i</text><text xml:space="preserve" font-family="Helvetica-Light" font-size="45.5" fill="#000000" transform="matrix(1.00, 0.00, -0.00, -1.00, 436.6, 153.0)">m</text><text xml:space="preserve" font-family="Helvetica-Light" font-size="45.5" fill="#000000" transform="matrix(1.00, 0.00, -0.00, -1.00, 474.5, 153.0)">e</text><text xml:space="preserve" font-family="Helvetica-Light" font-size="45.5" fill="#000000" transform="matrix(1.00, 0.00, -0.00, -1.00, 499.8, 153.0)">-</text><text xml:space="preserve" font-family="Helvetica-Light" font-size="45.5" fill="#000000" transform="matrix(1.00, 0.00, -0.00, -1.00, 514.9, 153.0)">c</text><text xml:space="preserve" font-family="Helvetica-Light" font-size="45.5" fill="#000000" transform="matrix(1.00, 0.00, -0.00, -1.00, 540.2, 153.0)">o</text><text xml:space="preserve" font-family="Helvetica-Light" font-size="45.5" fill="#000000" transform="matrix(1.00, 0.00, -0.00, -1.00, 565.5, 153.0)">l</text><text xml:space="preserve" font-family="Helvetica-Light" font-size="45.5" fill="#000000" transform="matrix(1.00, 0.00, -0.00, -1.00, 575.6, 153.0)">l</text><text xml:space="preserve" font-family="Helvetica-Light" font-size="45.5" fill="#000000" transform="matrix(1.00, 0.00, -0.00, -1.00, 585.7, 153.0)">a</text><text xml:space="preserve" font-family="Helvetica-Light" font-size="45.5" fill="#000000" transform="matrix(1.00, 0.00, -0.00, -1.00, 611.0, 153.0)">b</text><text xml:space="preserve" font-family="Helvetica-Light" font-size="45.5" fill="#000000" transform="matrix(1.00, 0.00, -0.00, -1.00, 638.8, 153.0)">o</text><text xml:space="preserve" font-family="Helvetica-Light" font-size="45.5" fill="#000000" transform="matrix(1.00, 0.00, -0.00, -1.00, 664.1, 153.0)">r</text><text xml:space="preserve" font-family="Helvetica-Light" font-size="45.5" fill="#000000" transform="matrix(1.00, 0.00, -0.00, -1.00, 679.3, 153.0)">a</text><text xml:space="preserve" font-family="Helvetica-Light" font-size="45.5" fill="#000000" transform="matrix(1.00, 0.00, -0.00, -1.00, 704.6, 153.0)">t</text><text xml:space="preserve" font-family="Helvetica-Light" font-size="45.5" fill="#000000" transform="matrix(1.00, 0.00, -0.00, -1.00, 717.2, 153.0)">i</text><text xml:space="preserve" font-family="Helvetica-Light" font-size="45.5" fill="#000000" transform="matrix(1.00, 0.00, -0.00, -1.00, 727.3, 153.0)">o</text><text xml:space="preserve" font-family="Helvetica-Light" font-size="45.5" fill="#000000" transform="matrix(1.00, 0.00, -0.00, -1.00, 752.6, 153.0)">n</text><text xml:space="preserve" font-family="Futura-Medium" font-size="14.0" fill="#9A958D" transform="matrix(1.00, 0.00, -0.00, -1.00, 504.0, 22.0)">2</text><text xml:space="preserve" font-family="Futura-Medium" font-size="14.0" fill="#9A958D" transform="matrix(1.00, 0.00, -0.00, -1.00, 511.7, 22.0)">1</text><text xml:space="preserve" font-family="Avenir-Medium" font-size="28.0" fill="#5B5753" transform="matrix(1.00, 0.00, -0.00, -1.00, 132.0, 551.0)">R</text><text xml:space="preserve" font-family="Avenir-Medium" font-size="28.0" fill="#5B5753" transform="matrix(1.00, 0.00, -0.00, -1.00, 149.7, 551.0)">e</text><text xml:space="preserve" font-family="Avenir-Medium" font-size="28.0" fill="#5B5753" transform="matrix(1.00, 0.00, -0.00, -1.00, 165.8, 551.0)">m</text><text xml:space="preserve" font-family="Avenir-Medium" font-size="28.0" fill="#5B5753" transform="matrix(1.00, 0.00, -0.00, -1.00, 190.2, 551.0)">e</text><text xml:space="preserve" font-family="Avenir-Medium" font-size="28.0" fill="#5B5753" transform="matrix(1.00, 0.00, -0.00, -1.00, 206.3, 551.0)">m</text><text xml:space="preserve" font-family="Avenir-Medium" font-size="28.0" fill="#5B5753" transform="matrix(1.00, 0.00, -0.00, -1.00, 230.8, 551.0)">b</text><text xml:space="preserve" font-family="Avenir-Medium" font-size="28.0" fill="#5B5753" transform="matrix(1.00, 0.00, -0.00, -1.00, 248.4, 551.0)">e</text><text xml:space="preserve" font-family="Avenir-Medium" font-size="28.0" fill="#5B5753" transform="matrix(1.00, 0.00, -0.00, -1.00, 264.6, 551.0)">r</text><text xml:space="preserve" font-family="Avenir-Medium" font-size="28.0" fill="#5B5753" transform="matrix(1.00, 0.00, -0.00, -1.00, 275.5, 551.0)">:</text><text xml:space="preserve" font-family="Avenir-Medium" font-size="28.0" fill="#5B5753" transform="matrix(1.00, 0.00, -0.00, -1.00, 283.8, 551.0)"> </text><text xml:space="preserve" font-family="Avenir-Medium" font-size="28.0" fill="#5B5753" transform="matrix(1.00, 0.00, -0.00, -1.00, 292.2, 551.0)">J</text><text xml:space="preserve" font-family="Avenir-Medium" font-size="28.0" fill="#5B5753" transform="matrix(1.00, 0.00, -0.00, -1.00, 306.2, 551.0)">u</text><text xml:space="preserve" font-family="Avenir-Medium" font-size="28.0" fill="#5B5753" transform="matrix(1.00, 0.00, -0.00, -1.00, 322.3, 551.0)">p</text><text xml:space="preserve" font-family="Avenir-Medium" font-size="28.0" fill="#5B5753" transform="matrix(1.00, 0.00, -0.00, -1.00, 340.0, 551.0)">y</text><text xml:space="preserve" font-family="Avenir-Medium" font-size="28.0" fill="#5B5753" transform="matrix(1.00, 0.00, -0.00, -1.00, 354.6, 551.0)">t</text><text xml:space="preserve" font-family="Avenir-Medium" font-size="28.0" fill="#5B5753" transform="matrix(1.00, 0.00, -0.00, -1.00, 365.5, 551.0)">e</text><text xml:space="preserve" font-family="Avenir-Medium" font-size="28.0" fill="#5B5753" transform="matrix(1.00, 0.00, -0.00, -1.00, 381.6, 551.0)">r</text><text xml:space="preserve" font-family="Avenir-Medium" font-size="28.0" fill="#5B5753" transform="matrix(1.00, 0.00, -0.00, -1.00, 392.5, 551.0)">H</text><text xml:space="preserve" font-family="Avenir-Medium" font-size="28.0" fill="#5B5753" transform="matrix(1.00, 0.00, -0.00, -1.00, 413.8, 551.0)">u</text><text xml:space="preserve" font-family="Avenir-Medium" font-size="28.0" fill="#5B5753" transform="matrix(1.00, 0.00, -0.00, -1.00, 430.0, 551.0)">b</text><text xml:space="preserve" font-family="Avenir-Medium" font-size="28.0" fill="#5B5753" transform="matrix(1.00, 0.00, -0.00, -1.00, 447.6, 551.0)"> </text><text xml:space="preserve" font-family="Avenir-Medium" font-size="28.0" fill="#5B5753" transform="matrix(1.00, 0.00, -0.00, -1.00, 456.0, 551.0)">i</text><text xml:space="preserve" font-family="Avenir-Medium" font-size="28.0" fill="#5B5753" transform="matrix(1.00, 0.00, -0.00, -1.00, 463.3, 551.0)">s</text><text xml:space="preserve" font-family="Avenir-Medium" font-size="28.0" fill="#5B5753" transform="matrix(1.00, 0.00, -0.00, -1.00, 476.3, 551.0)"> </text><text xml:space="preserve" font-family="Avenir-Medium" font-size="28.0" fill="#5B5753" transform="matrix(1.00, 0.00, -0.00, -1.00, 484.6, 551.0)">A</text><text xml:space="preserve" font-family="Avenir-Medium" font-size="28.0" fill="#5B5753" transform="matrix(1.00, 0.00, -0.00, -1.00, 504.9, 551.0)">u</text><text xml:space="preserve" font-family="Avenir-Medium" font-size="28.0" fill="#5B5753" transform="matrix(1.00, 0.00, -0.00, -1.00, 521.0, 551.0)">t</text><text xml:space="preserve" font-family="Avenir-Medium" font-size="28.0" fill="#5B5753" transform="matrix(1.00, 0.00, -0.00, -1.00, 531.9, 551.0)">h</text><text xml:space="preserve" font-family="Avenir-Medium" font-size="28.0" fill="#5B5753" transform="matrix(1.00, 0.00, -0.00, -1.00, 548.1, 551.0)">e</text><text xml:space="preserve" font-family="Avenir-Medium" font-size="28.0" fill="#5B5753" transform="matrix(1.00, 0.00, -0.00, -1.00, 564.2, 551.0)">n</text><text xml:space="preserve" font-family="Avenir-Medium" font-size="28.0" fill="#5B5753" transform="matrix(1.00, 0.00, -0.00, -1.00, 580.3, 551.0)">t</text><text xml:space="preserve" font-family="Avenir-Medium" font-size="28.0" fill="#5B5753" transform="matrix(1.00, 0.00, -0.00, -1.00, 591.2, 551.0)">i</text><text xml:space="preserve" font-family="Avenir-Medium" font-size="28.0" fill="#5B5753" transform="matrix(1.00, 0.00, -0.00, -1.00, 598.5, 551.0)">c</text><text xml:space="preserve" font-family="Avenir-Medium" font-size="28.0" fill="#5B5753" transform="matrix(1.00, 0.00, -0.00, -1.00, 612.6, 551.0)">a</text><text xml:space="preserve" font-family="Avenir-Medium" font-size="28.0" fill="#5B5753" transform="matrix(1.00, 0.00, -0.00, -1.00, 627.7, 551.0)">t</text><text xml:space="preserve" font-family="Avenir-Medium" font-size="28.0" fill="#5B5753" transform="matrix(1.00, 0.00, -0.00, -1.00, 638.6, 551.0)">e</text><text xml:space="preserve" font-family="Avenir-Medium" font-size="28.0" fill="#5B5753" transform="matrix(1.00, 0.00, -0.00, -1.00, 654.7, 551.0)">d</text><text xml:space="preserve" font-family="Avenir-Medium" font-size="28.0" fill="#5B5753" transform="matrix(1.00, 0.00, -0.00, -1.00, 672.4, 551.0)"> </text><text xml:space="preserve" font-family="Avenir-Medium" font-size="28.0" fill="#5B5753" transform="matrix(1.00, 0.00, -0.00, -1.00, 680.7, 551.0)">a</text><text xml:space="preserve" font-family="Avenir-Medium" font-size="28.0" fill="#5B5753" transform="matrix(1.00, 0.00, -0.00, -1.00, 695.8, 551.0)">n</text><text xml:space="preserve" font-family="Avenir-Medium" font-size="28.0" fill="#5B5753" transform="matrix(1.00, 0.00, -0.00, -1.00, 711.9, 551.0)">d</text><text xml:space="preserve" font-family="Avenir-Medium" font-size="28.0" fill="#5B5753" transform="matrix(1.00, 0.00, -0.00, -1.00, 729.6, 551.0)"> </text><text xml:space="preserve" font-family="Avenir-Medium" font-size="28.0" fill="#5B5753" transform="matrix(1.00, 0.00, -0.00, -1.00, 737.9, 551.0)">P</text><text xml:space="preserve" font-family="Avenir-Medium" font-size="28.0" fill="#5B5753" transform="matrix(1.00, 0.00, -0.00, -1.00, 755.1, 551.0)">e</text><text xml:space="preserve" font-family="Avenir-Medium" font-size="28.0" fill="#5B5753" transform="matrix(1.00, 0.00, -0.00, -1.00, 771.2, 551.0)">r</text><text xml:space="preserve" font-family="Avenir-Medium" font-size="28.0" fill="#5B5753" transform="matrix(1.00, 0.00, -0.00, -1.00, 782.2, 551.0)">s</text><text xml:space="preserve" font-family="Avenir-Medium" font-size="28.0" fill="#5B5753" transform="matrix(1.00, 0.00, -0.00, -1.00, 795.2, 551.0)">i</text><text xml:space="preserve" font-family="Avenir-Medium" font-size="28.0" fill="#5B5753" transform="matrix(1.00, 0.00, -0.00, -1.00, 802.4, 551.0)">s</text><text xml:space="preserve" font-family="Avenir-Medium" font-size="28.0" fill="#5B5753" transform="matrix(1.00, 0.00, -0.00, -1.00, 815.4, 551.0)">t</text><text xml:space="preserve" font-family="Avenir-Medium" font-size="28.0" fill="#5B5753" transform="matrix(1.00, 0.00, -0.00, -1.00, 826.3, 551.0)">e</text><text xml:space="preserve" font-family="Avenir-Medium" font-size="28.0" fill="#5B5753" transform="matrix(1.00, 0.00, -0.00, -1.00, 842.5, 551.0)">n</text><text xml:space="preserve" font-family="Avenir-Medium" font-size="28.0" fill="#5B5753" transform="matrix(1.00, 0.00, -0.00, -1.00, 858.6, 551.0)">t</text><text xml:space="preserve" font-family="Avenir-Medium" font-size="28.0" fill="#5B5753" transform="matrix(1.00, 0.00, -0.00, -1.00, 869.5, 551.0)">.</text></g></svg>