<?xml version="1.0" encoding="UTF-8" standalone="no"?><svg xmlns="http://www.w3.org/2000/svg" xmlns:xlink="http://www.w3.org/1999/xlink" clip-rule="evenodd" stroke-miterlimit="4.00" viewBox="0 0 401 132"><desc>SVG generated by Keynote</desc><defs></defs><g transform="matrix(1.00, 0.00, -0.00, -1.00, 0.0, 132.0)"><text xml:space="preserve" font-family="Helvetica-Light" font-size="28.5" fill="#000000" transform="matrix(1.00, 0.00, -0.00, -1.00, 0.7, 104.5)">•</text><text xml:space="preserve" font-family="Helvetica-Light" font-size="38.0" fill="#000000" transform="matrix(1.00, 0.00, -0.00, -1.00, 37.0, 101.0)">H</text><text xml:space="preserve" font-family="Helvetica-Light" font-size="38.0" fill="#000000" transform="matrix(1.00, 0.00, -0.00, -1.00, 64.4, 101.0)">u</text><text xml:space="preserve" font-family="Helvetica-Light" font-size="38.0" fill="#000000" transform="matrix(1.00, 0.00, -0.00, -1.00, 85.6, 101.0)">b</text><text xml:space="preserve" font-family="Helvetica-Light" font-size="38.0" fill="#000000" transform="matrix(1.00, 0.00, -0.00, -1.00, 108.8, 101.0)"> </text><text xml:space="preserve" font-family="Helvetica-Light" font-size="38.0" fill="#000000" transform="matrix(1.00, 0.00, -0.00, -1.00, 119.3, 101.0)">(</text><text xml:space="preserve" font-family="Helvetica-Light" font-size="38.0" fill="#000000" transform="matrix(1.00, 0.00, -0.00, -1.00, 132.0, 101.0)">U</text><text xml:space="preserve" font-family="Helvetica-Light" font-size="38.0" fill="#000000" transform="matrix(1.00, 0.00, -0.00, -1.00, 159.4, 101.0)">s</text><text xml:space="preserve" font-family="Helvetica-Light" font-size="38.0" fill="#000000" transform="matrix(1.00, 0.00, -0.00, -1.00, 178.4, 101.0)">e</text><text xml:space="preserve" font-family="Helvetica-Light" font-size="38.0" fill="#000000" transform="matrix(1.00, 0.00, -0.00, -1.00, 199.6, 101.0)">r</text><text xml:space="preserve" font-family="Helvetica-Light" font-size="38.0" fill="#000000" transform="matrix(1.00, 0.00, -0.00, -1.00, 212.2, 101.0)"> </text><text xml:space="preserve" font-family="Helvetica-Light" font-size="38.0" fill="#000000" transform="matrix(1.00, 0.00, -0.00, -1.00, 222.8, 101.0)">D</text><text xml:space="preserve" font-family="Helvetica-Light" font-size="38.0" fill="#000000" transform="matrix(1.00, 0.00, -0.00, -1.00, 250.2, 101.0)">a</text><text xml:space="preserve" font-family="Helvetica-Light" font-size="38.0" fill="#000000" transform="matrix(1.00, 0.00, -0.00, -1.00, 271.3, 101.0)">t</text><text xml:space="preserve" font-family="Helvetica-Light" font-size="38.0" fill="#000000" transform="matrix(1.00, 0.00, -0.00, -1.00, 281.9, 101.0)">a</text><text xml:space="preserve" font-family="Helvetica-Light" font-size="38.0" fill="#000000" transform="matrix(1.00, 0.00, -0.00, -1.00, 303.0, 101.0)">b</text><text xml:space="preserve" font-family="Helvetica-Light" font-size="38.0" fill="#000000" transform="matrix(1.00, 0.00, -0.00, -1.00, 326.3, 101.0)">a</text><text xml:space="preserve" font-family="Helvetica-Light" font-size="38.0" fill="#000000" transform="matrix(1.00, 0.00, -0.00, -1.00, 347.4, 101.0)">s</text><text xml:space="preserve" font-family="Helvetica-Light" font-size="38.0" fill="#000000" transform="matrix(1.00, 0.00, -0.00, -1.00, 366.4, 101.0)">e</text><text xml:space="preserve" font-family="Helvetica-Light" font-size="38.0" fill="#000000" transform="matrix(1.00, 0.00, -0.00, -1.00, 387.5, 101.0)">,</text><text xml:space="preserve" font-family="Helvetica-Light" font-size="38.0" fill="#000000" transform="matrix(1.00, 0.00, -0.00, -1.00, 398.1, 101.0)"> </text><text xml:space="preserve" font-family="Helvetica-Light" font-size="38.0" fill="#000000" transform="matrix(1.00, 0.00, -0.00, -1.00, 37.0, 55.0)">A</text><text xml:space="preserve" font-family="Helvetica-Light" font-size="38.0" fill="#000000" transform="matrix(1.00, 0.00, -0.00, -1.00, 62.3, 55.0)">u</text><text xml:space="preserve" font-family="Helvetica-Light" font-size="38.0" fill="#000000" transform="matrix(1.00, 0.00, -0.00, -1.00, 83.5, 55.0)">t</text><text xml:space="preserve" font-family="Helvetica-Light" font-size="38.0" fill="#000000" transform="matrix(1.00, 0.00, -0.00, -1.00, 94.0, 55.0)">h</text><text xml:space="preserve" font-family="Helvetica-Light" font-size="38.0" fill="#000000" transform="matrix(1.00, 0.00, -0.00, -1.00, 115.2, 55.0)">e</text><text xml:space="preserve" font-family="Helvetica-Light" font-size="38.0" fill="#000000" transform="matrix(1.00, 0.00, -0.00, -1.00, 136.3, 55.0)">n</text><text xml:space="preserve" font-family="Helvetica-Light" font-size="38.0" fill="#000000" transform="matrix(1.00, 0.00, -0.00, -1.00, 157.4, 55.0)">t</text><text xml:space="preserve" font-family="Helvetica-Light" font-size="38.0" fill="#000000" transform="matrix(1.00, 0.00, -0.00, -1.00, 168.0, 55.0)">i</text><text xml:space="preserve" font-family="Helvetica-Light" font-size="38.0" fill="#000000" transform="matrix(1.00, 0.00, -0.00, -1.00, 176.4, 55.0)">c</text><text xml:space="preserve" font-family="Helvetica-Light" font-size="38.0" fill="#000000" transform="matrix(1.00, 0.00, -0.00, -1.00, 197.6, 55.0)">a</text><text xml:space="preserve" font-family="Helvetica-Light" font-size="38.0" fill="#000000" transform="matrix(1.00, 0.00, -0.00, -1.00, 218.7, 55.0)">t</text><text xml:space="preserve" font-family="Helvetica-Light" font-size="38.0" fill="#000000" transform="matrix(1.00, 0.00, -0.00, -1.00, 229.2, 55.0)">o</text><text xml:space="preserve" font-family="Helvetica-Light" font-size="38.0" fill="#000000" transform="matrix(1.00, 0.00, -0.00, -1.00, 250.4, 55.0)">r</text><text xml:space="preserve" font-family="Helvetica-Light" font-size="38.0" fill="#000000" transform="matrix(1.00, 0.00, -0.00, -1.00, 259.5, 55.0)">,</text><text xml:space="preserve" font-family="Helvetica-Light" font-size="38.0" fill="#000000" transform="matrix(1.00, 0.00, -0.00, -1.00, 270.1, 55.0)"> </text><text xml:space="preserve" font-family="Helvetica-Light" font-size="38.0" fill="#000000" transform="matrix(1.00, 0.00, -0.00, -1.00, 37.0, 9.0)">S</text><text xml:space="preserve" font-family="Helvetica-Light" font-size="38.0" fill="#000000" transform="matrix(1.00, 0.00, -0.00, -1.00, 60.2, 9.0)">p</text><text xml:space="preserve" font-family="Helvetica-Light" font-size="38.0" fill="#000000" transform="matrix(1.00, 0.00, -0.00, -1.00, 83.4, 9.0)">a</text><text xml:space="preserve" font-family="Helvetica-Light" font-size="38.0" fill="#000000" transform="matrix(1.00, 0.00, -0.00, -1.00, 104.6, 9.0)">w</text><text xml:space="preserve" font-family="Helvetica-Light" font-size="38.0" fill="#000000" transform="matrix(1.00, 0.00, -0.00, -1.00, 132.0, 9.0)">n</text><text xml:space="preserve" font-family="Helvetica-Light" font-size="38.0" fill="#000000" transform="matrix(1.00, 0.00, -0.00, -1.00, 153.1, 9.0)">e</text><text xml:space="preserve" font-family="Helvetica-Light" font-size="38.0" fill="#000000" transform="matrix(1.00, 0.00, -0.00, -1.00, 174.3, 9.0)">r</text><text xml:space="preserve" font-family="Helvetica-Light" font-size="38.0" fill="#000000" transform="matrix(1.00, 0.00, -0.00, -1.00, 186.9, 9.0)">)</text></g></svg>