<?xml version="1.0" encoding="UTF-8" standalone="no"?><svg xmlns="http://www.w3.org/2000/svg" xmlns:xlink="http://www.w3.org/1999/xlink" clip-rule="evenodd" stroke-miterlimit="4.00" viewBox="0 0 252 40"><desc>SVG generated by Keynote</desc><defs></defs><g transform="matrix(1.00, 0.00, -0.00, -1.00, 0.0, 40.0)"><text xml:space="preserve" font-family="Avenir-Book" font-size="28.5" fill="#000000" transform="matrix(1.00, 0.00, -0.00, -1.00, 0.2, 10.7)">•</text><text xml:space="preserve" font-family="Avenir-Book" font-size="38.0" fill="#000000" transform="matrix(1.00, 0.00, -0.00, -1.00, 37.0, 8.0)">E</text><text xml:space="preserve" font-family="Avenir-Book" font-size="38.0" fill="#000000" transform="matrix(1.00, 0.00, -0.00, -1.00, 59.5, 8.0)">n</text><text xml:space="preserve" font-family="Avenir-Book" font-size="38.0" fill="#000000" transform="matrix(1.00, 0.00, -0.00, -1.00, 80.7, 8.0)">v</text><text xml:space="preserve" font-family="Avenir-Book" font-size="38.0" fill="#000000" transform="matrix(1.00, 0.00, -0.00, -1.00, 99.0, 8.0)">i</text><text xml:space="preserve" font-family="Avenir-Book" font-size="38.0" fill="#000000" transform="matrix(1.00, 0.00, -0.00, -1.00, 108.1, 8.0)">r</text><text xml:space="preserve" font-family="Avenir-Book" font-size="38.0" fill="#000000" transform="matrix(1.00, 0.00, -0.00, -1.00, 120.0, 8.0)">o</text><text xml:space="preserve" font-family="Avenir-Book" font-size="38.0" fill="#000000" transform="matrix(1.00, 0.00, -0.00, -1.00, 142.6, 8.0)">n</text><text xml:space="preserve" font-family="Avenir-Book" font-size="38.0" fill="#000000" transform="matrix(1.00, 0.00, -0.00, -1.00, 163.7, 8.0)">m</text><text xml:space="preserve" font-family="Avenir-Book" font-size="38.0" fill="#000000" transform="matrix(1.00, 0.00, -0.00, -1.00, 196.1, 8.0)">e</text><text xml:space="preserve" font-family="Avenir-Book" font-size="38.0" fill="#000000" transform="matrix(1.00, 0.00, -0.00, -1.00, 217.2, 8.0)">n</text><text xml:space="preserve" font-family="Avenir-Book" font-size="38.0" fill="#000000" transform="matrix(1.00, 0.00, -0.00, -1.00, 238.3, 8.0)">t</text></g></svg>