<?xml version="1.0" encoding="UTF-8" standalone="no"?><svg xmlns="http://www.w3.org/2000/svg" xmlns:xlink="http://www.w3.org/1999/xlink" clip-rule="evenodd" stroke-miterlimit="4.00" viewBox="0 0 605 46"><desc>SVG generated by Keynote</desc><defs></defs><g transform="matrix(1.00, 0.00, -0.00, -1.00, 0.0, 46.0)"><text xml:space="preserve" font-family="Futura-Medium" font-size="49.6" fill="#5B5753" transform="matrix(1.00, 0.00, -0.00, -1.00, 2.0, 4.0)">W</text><text xml:space="preserve" font-family="Futura-Medium" font-size="49.6" fill="#5B5753" transform="matrix(1.00, 0.00, -0.00, -1.00, 55.5, 4.0)">H</text><text xml:space="preserve" font-family="Futura-Medium" font-size="49.6" fill="#5B5753" transform="matrix(1.00, 0.00, -0.00, -1.00, 92.9, 4.0)">A</text><text xml:space="preserve" font-family="Futura-Medium" font-size="49.6" fill="#5B5753" transform="matrix(1.00, 0.00, -0.00, -1.00, 128.5, 4.0)">T</text><text xml:space="preserve" font-family="Futura-Medium" font-size="49.6" fill="#5B5753" transform="matrix(1.00, 0.00, -0.00, -1.00, 153.5, 4.0)"> </text><text xml:space="preserve" font-family="Futura-Medium" font-size="49.6" fill="#5B5753" transform="matrix(1.00, 0.00, -0.00, -1.00, 169.7, 4.0)">I</text><text xml:space="preserve" font-family="Futura-Medium" font-size="49.6" fill="#5B5753" transform="matrix(1.00, 0.00, -0.00, -1.00, 185.3, 4.0)">S</text><text xml:space="preserve" font-family="Futura-Medium" font-size="49.6" fill="#5B5753" transform="matrix(1.00, 0.00, -0.00, -1.00, 215.2, 4.0)"> </text><text xml:space="preserve" font-family="Futura-Medium" font-size="49.6" fill="#5B5753" transform="matrix(1.00, 0.00, -0.00, -1.00, 231.5, 4.0)">A</text><text xml:space="preserve" font-family="Futura-Medium" font-size="49.6" fill="#5B5753" transform="matrix(1.00, 0.00, -0.00, -1.00, 269.2, 4.0)"> </text><text xml:space="preserve" font-family="Futura-Medium" font-size="49.6" fill="#5B5753" transform="matrix(1.00, 0.00, -0.00, -1.00, 285.5, 4.0)">N</text><text xml:space="preserve" font-family="Futura-Medium" font-size="49.6" fill="#5B5753" transform="matrix(1.00, 0.00, -0.00, -1.00, 328.7, 4.0)">O</text><text xml:space="preserve" font-family="Futura-Medium" font-size="49.6" fill="#5B5753" transform="matrix(1.00, 0.00, -0.00, -1.00, 372.6, 4.0)">T</text><text xml:space="preserve" font-family="Futura-Medium" font-size="49.6" fill="#5B5753" transform="matrix(1.00, 0.00, -0.00, -1.00, 397.6, 4.0)">E</text><text xml:space="preserve" font-family="Futura-Medium" font-size="49.6" fill="#5B5753" transform="matrix(1.00, 0.00, -0.00, -1.00, 426.6, 4.0)">B</text><text xml:space="preserve" font-family="Futura-Medium" font-size="49.6" fill="#5B5753" transform="matrix(1.00, 0.00, -0.00, -1.00, 456.6, 4.0)">O</text><text xml:space="preserve" font-family="Futura-Medium" font-size="49.6" fill="#5B5753" transform="matrix(1.00, 0.00, -0.00, -1.00, 501.9, 4.0)">O</text><text xml:space="preserve" font-family="Futura-Medium" font-size="49.6" fill="#5B5753" transform="matrix(1.00, 0.00, -0.00, -1.00, 547.2, 4.0)">K</text><text xml:space="preserve" font-family="Futura-Medium" font-size="49.6" fill="#5B5753" transform="matrix(1.00, 0.00, -0.00, -1.00, 581.0, 4.0)">?</text></g></svg>