<?xml version="1.0" encoding="UTF-8" standalone="no"?><svg xmlns="http://www.w3.org/2000/svg" xmlns:xlink="http://www.w3.org/1999/xlink" clip-rule="evenodd" stroke-miterlimit="4.00" viewBox="0 0 1024 768"><desc>SVG generated by Keynote</desc><defs></defs><g transform="matrix(1.00, 0.00, -0.00, -1.00, 0.0, 768.0)"><g><clipPath id="clip-575"><path d="M 0.0 768.0 L 1024.0 768.0 L 1024.0 0.0 L 0.0 0.0 Z M 0.0 768.0 "></path></clipPath><g clip-path="url(#clip-575)"><image xlink:href="../../A6AB71EB-7077-4CA4-A4BC-733F3D27A118/assets/AC8A38799F83CDE46BAD7F0B4FE74D5F.jpeg" width="1024.00" height="768.00" transform="matrix(1.00, 0.00, -0.00, -1.00, 0.0, 768.0)"></image></g></g><text xml:space="preserve" font-family="Futura-Medium" font-size="14.0" fill="#9A958D" transform="matrix(1.00, 0.00, -0.00, -1.00, 503.0, 22.0)">2</text><text xml:space="preserve" font-family="Futura-Medium" font-size="14.0" fill="#9A958D" transform="matrix(1.00, 0.00, -0.00, -1.00, 511.9, 22.0)">3</text><text xml:space="preserve" font-family="Avenir-Book" font-size="34.0" fill="#000000" transform="matrix(1.00, 0.00, -0.00, -1.00, 77.0, 456.0)">h</text><text xml:space="preserve" font-family="Avenir-Book" font-size="34.0" fill="#000000" transform="matrix(1.00, 0.00, -0.00, -1.00, 95.9, 456.0)">t</text><text xml:space="preserve" font-family="Avenir-Book" font-size="34.0" fill="#000000" transform="matrix(1.00, 0.00, -0.00, -1.00, 107.2, 456.0)">t</text><text xml:space="preserve" font-family="Avenir-Book" font-size="34.0" fill="#000000" transform="matrix(1.00, 0.00, -0.00, -1.00, 118.5, 456.0)">p</text><text xml:space="preserve" font-family="Avenir-Book" font-size="34.0" fill="#000000" transform="matrix(1.00, 0.00, -0.00, -1.00, 139.3, 456.0)">s</text><text xml:space="preserve" font-family="Avenir-Book" font-size="34.0" fill="#000000" transform="matrix(1.00, 0.00, -0.00, -1.00, 153.7, 456.0)">:</text><text xml:space="preserve" font-family="Avenir-Book" font-size="34.0" fill="#000000" transform="matrix(1.00, 0.00, -0.00, -1.00, 163.2, 456.0)">/</text><text xml:space="preserve" font-family="Avenir-Book" font-size="34.0" fill="#000000" transform="matrix(1.00, 0.00, -0.00, -1.00, 175.8, 456.0)">/</text><text xml:space="preserve" font-family="Avenir-Book" font-size="34.0" fill="#000000" transform="matrix(1.00, 0.00, -0.00, -1.00, 188.3, 456.0)">g</text><text xml:space="preserve" font-family="Avenir-Book" font-size="34.0" fill="#000000" transform="matrix(1.00, 0.00, -0.00, -1.00, 209.1, 456.0)">i</text><text xml:space="preserve" font-family="Avenir-Book" font-size="34.0" fill="#000000" transform="matrix(1.00, 0.00, -0.00, -1.00, 217.3, 456.0)">t</text><text xml:space="preserve" font-family="Avenir-Book" font-size="34.0" fill="#000000" transform="matrix(1.00, 0.00, -0.00, -1.00, 228.6, 456.0)">h</text><text xml:space="preserve" font-family="Avenir-Book" font-size="34.0" fill="#000000" transform="matrix(1.00, 0.00, -0.00, -1.00, 247.5, 456.0)">u</text><text xml:space="preserve" font-family="Avenir-Book" font-size="34.0" fill="#000000" transform="matrix(1.00, 0.00, -0.00, -1.00, 266.4, 456.0)">b</text><text xml:space="preserve" font-family="Avenir-Book" font-size="34.0" fill="#000000" transform="matrix(1.00, 0.00, -0.00, -1.00, 287.2, 456.0)">.</text><text xml:space="preserve" font-family="Avenir-Book" font-size="34.0" fill="#000000" transform="matrix(1.00, 0.00, -0.00, -1.00, 296.6, 456.0)">c</text><text xml:space="preserve" font-family="Avenir-Book" font-size="34.0" fill="#000000" transform="matrix(1.00, 0.00, -0.00, -1.00, 313.0, 456.0)">o</text><text xml:space="preserve" font-family="Avenir-Book" font-size="34.0" fill="#000000" transform="matrix(1.00, 0.00, -0.00, -1.00, 333.2, 456.0)">m</text><text xml:space="preserve" font-family="Avenir-Book" font-size="34.0" fill="#000000" transform="matrix(1.00, 0.00, -0.00, -1.00, 362.1, 456.0)">/</text><text xml:space="preserve" font-family="Avenir-Book" font-size="34.0" fill="#000000" transform="matrix(1.00, 0.00, -0.00, -1.00, 374.7, 456.0)">j</text><text xml:space="preserve" font-family="Avenir-Book" font-size="34.0" fill="#000000" transform="matrix(1.00, 0.00, -0.00, -1.00, 382.9, 456.0)">u</text><text xml:space="preserve" font-family="Avenir-Book" font-size="34.0" fill="#000000" transform="matrix(1.00, 0.00, -0.00, -1.00, 401.8, 456.0)">p</text><text xml:space="preserve" font-family="Avenir-Book" font-size="34.0" fill="#000000" transform="matrix(1.00, 0.00, -0.00, -1.00, 422.5, 456.0)">y</text><text xml:space="preserve" font-family="Avenir-Book" font-size="34.0" fill="#000000" transform="matrix(1.00, 0.00, -0.00, -1.00, 438.9, 456.0)">t</text><text xml:space="preserve" font-family="Avenir-Book" font-size="34.0" fill="#000000" transform="matrix(1.00, 0.00, -0.00, -1.00, 450.2, 456.0)">e</text><text xml:space="preserve" font-family="Avenir-Book" font-size="34.0" fill="#000000" transform="matrix(1.00, 0.00, -0.00, -1.00, 469.1, 456.0)">r</text><text xml:space="preserve" font-family="Avenir-Book" font-size="34.0" fill="#000000" transform="matrix(1.00, 0.00, -0.00, -1.00, 480.4, 456.0)">h</text><text xml:space="preserve" font-family="Avenir-Book" font-size="34.0" fill="#000000" transform="matrix(1.00, 0.00, -0.00, -1.00, 499.3, 456.0)">u</text><text xml:space="preserve" font-family="Avenir-Book" font-size="34.0" fill="#000000" transform="matrix(1.00, 0.00, -0.00, -1.00, 518.2, 456.0)">b</text><text xml:space="preserve" font-family="Avenir-Book" font-size="34.0" fill="#000000" transform="matrix(1.00, 0.00, -0.00, -1.00, 539.0, 456.0)">/</text><text xml:space="preserve" font-family="Avenir-Book" font-size="34.0" fill="#000000" transform="matrix(1.00, 0.00, -0.00, -1.00, 551.6, 456.0)">j</text><text xml:space="preserve" font-family="Avenir-Book" font-size="34.0" fill="#000000" transform="matrix(1.00, 0.00, -0.00, -1.00, 559.7, 456.0)">u</text><text xml:space="preserve" font-family="Avenir-Book" font-size="34.0" fill="#000000" transform="matrix(1.00, 0.00, -0.00, -1.00, 578.6, 456.0)">p</text><text xml:space="preserve" font-family="Avenir-Book" font-size="34.0" fill="#000000" transform="matrix(1.00, 0.00, -0.00, -1.00, 599.4, 456.0)">y</text><text xml:space="preserve" font-family="Avenir-Book" font-size="34.0" fill="#000000" transform="matrix(1.00, 0.00, -0.00, -1.00, 615.8, 456.0)">t</text><text xml:space="preserve" font-family="Avenir-Book" font-size="34.0" fill="#000000" transform="matrix(1.00, 0.00, -0.00, -1.00, 627.1, 456.0)">e</text><text xml:space="preserve" font-family="Avenir-Book" font-size="34.0" fill="#000000" transform="matrix(1.00, 0.00, -0.00, -1.00, 646.0, 456.0)">r</text><text xml:space="preserve" font-family="Avenir-Book" font-size="34.0" fill="#000000" transform="matrix(1.00, 0.00, -0.00, -1.00, 657.3, 456.0)">h</text><text xml:space="preserve" font-family="Avenir-Book" font-size="34.0" fill="#000000" transform="matrix(1.00, 0.00, -0.00, -1.00, 676.2, 456.0)">u</text><text xml:space="preserve" font-family="Avenir-Book" font-size="34.0" fill="#000000" transform="matrix(1.00, 0.00, -0.00, -1.00, 695.1, 456.0)">b</text><text xml:space="preserve" font-family="Avenir-Book" font-size="34.0" fill="#000000" transform="matrix(1.00, 0.00, -0.00, -1.00, 715.9, 456.0)">-</text><text xml:space="preserve" font-family="Avenir-Book" font-size="34.0" fill="#000000" transform="matrix(1.00, 0.00, -0.00, -1.00, 727.2, 456.0)">d</text><text xml:space="preserve" font-family="Avenir-Book" font-size="34.0" fill="#000000" transform="matrix(1.00, 0.00, -0.00, -1.00, 748.0, 456.0)">e</text><text xml:space="preserve" font-family="Avenir-Book" font-size="34.0" fill="#000000" transform="matrix(1.00, 0.00, -0.00, -1.00, 766.9, 456.0)">p</text><text xml:space="preserve" font-family="Avenir-Book" font-size="34.0" fill="#000000" transform="matrix(1.00, 0.00, -0.00, -1.00, 787.6, 456.0)">l</text><text xml:space="preserve" font-family="Avenir-Book" font-size="34.0" fill="#000000" transform="matrix(1.00, 0.00, -0.00, -1.00, 795.8, 456.0)">o</text><text xml:space="preserve" font-family="Avenir-Book" font-size="34.0" fill="#000000" transform="matrix(1.00, 0.00, -0.00, -1.00, 816.0, 456.0)">y</text><text xml:space="preserve" font-family="Avenir-Book" font-size="34.0" fill="#000000" transform="matrix(1.00, 0.00, -0.00, -1.00, 832.3, 456.0)">-</text><text xml:space="preserve" font-family="Avenir-Book" font-size="34.0" fill="#000000" transform="matrix(1.00, 0.00, -0.00, -1.00, 843.7, 456.0)">d</text><text xml:space="preserve" font-family="Avenir-Book" font-size="34.0" fill="#000000" transform="matrix(1.00, 0.00, -0.00, -1.00, 864.4, 456.0)">o</text><text xml:space="preserve" font-family="Avenir-Book" font-size="34.0" fill="#000000" transform="matrix(1.00, 0.00, -0.00, -1.00, 884.6, 456.0)">c</text><text xml:space="preserve" font-family="Avenir-Book" font-size="34.0" fill="#000000" transform="matrix(1.00, 0.00, -0.00, -1.00, 901.0, 456.0)">k</text><text xml:space="preserve" font-family="Avenir-Book" font-size="34.0" fill="#000000" transform="matrix(1.00, 0.00, -0.00, -1.00, 917.4, 456.0)">e</text><text xml:space="preserve" font-family="Avenir-Book" font-size="34.0" fill="#000000" transform="matrix(1.00, 0.00, -0.00, -1.00, 936.3, 456.0)">r</text><text xml:space="preserve" font-family="Avenir-Book" font-size="34.0" fill="#000000" transform="matrix(1.00, 0.00, -0.00, -1.00, 947.6, 456.0)"> </text><g><clipPath id="clip-576"><path d="M 75.7 451.3 L 947.3 451.3 L 947.3 455.0 L 75.7 455.0 Z M 75.7 451.3 "></path></clipPath><g clip-path="url(#clip-576)"><path d="M 9.5 41.7 L 880.0 41.7 " fill="none" stroke="#000000" stroke-width="1.70" stroke-miterlimit="0.00" transform="matrix(1.00, 0.00, 0.00, -1.00, 67.3, 494.8)"></path></g></g><text xml:space="preserve" font-family="Avenir-Book" font-size="34.0" fill="#000000" transform="matrix(1.00, 0.00, -0.00, -1.00, 139.0, 410.0)">d</text><text xml:space="preserve" font-family="Avenir-Book" font-size="34.0" fill="#000000" transform="matrix(1.00, 0.00, -0.00, -1.00, 159.8, 410.0)">o</text><text xml:space="preserve" font-family="Avenir-Book" font-size="34.0" fill="#000000" transform="matrix(1.00, 0.00, -0.00, -1.00, 179.9, 410.0)">c</text><text xml:space="preserve" font-family="Avenir-Book" font-size="34.0" fill="#000000" transform="matrix(1.00, 0.00, -0.00, -1.00, 196.3, 410.0)">k</text><text xml:space="preserve" font-family="Avenir-Book" font-size="34.0" fill="#000000" transform="matrix(1.00, 0.00, -0.00, -1.00, 212.7, 410.0)">e</text><text xml:space="preserve" font-family="Avenir-Book" font-size="34.0" fill="#000000" transform="matrix(1.00, 0.00, -0.00, -1.00, 231.6, 410.0)">r</text><text xml:space="preserve" font-family="Avenir-Book" font-size="34.0" fill="#000000" transform="matrix(1.00, 0.00, -0.00, -1.00, 241.0, 410.0)">-</text><text xml:space="preserve" font-family="Avenir-Book" font-size="34.0" fill="#000000" transform="matrix(1.00, 0.00, -0.00, -1.00, 252.4, 410.0)">c</text><text xml:space="preserve" font-family="Avenir-Book" font-size="34.0" fill="#000000" transform="matrix(1.00, 0.00, -0.00, -1.00, 268.7, 410.0)">o</text><text xml:space="preserve" font-family="Avenir-Book" font-size="34.0" fill="#000000" transform="matrix(1.00, 0.00, -0.00, -1.00, 288.9, 410.0)">m</text><text xml:space="preserve" font-family="Avenir-Book" font-size="34.0" fill="#000000" transform="matrix(1.00, 0.00, -0.00, -1.00, 317.9, 410.0)">p</text><text xml:space="preserve" font-family="Avenir-Book" font-size="34.0" fill="#000000" transform="matrix(1.00, 0.00, -0.00, -1.00, 338.6, 410.0)">o</text><text xml:space="preserve" font-family="Avenir-Book" font-size="34.0" fill="#000000" transform="matrix(1.00, 0.00, -0.00, -1.00, 358.8, 410.0)">s</text><text xml:space="preserve" font-family="Avenir-Book" font-size="34.0" fill="#000000" transform="matrix(1.00, 0.00, -0.00, -1.00, 373.3, 410.0)">e</text><text xml:space="preserve" font-family="Avenir-Book" font-size="34.0" fill="#000000" transform="matrix(1.00, 0.00, -0.00, -1.00, 392.2, 410.0)">,</text><text xml:space="preserve" font-family="Avenir-Book" font-size="34.0" fill="#000000" transform="matrix(1.00, 0.00, -0.00, -1.00, 401.7, 410.0)"> </text><text xml:space="preserve" font-family="Avenir-Book" font-size="34.0" fill="#000000" transform="matrix(1.00, 0.00, -0.00, -1.00, 411.1, 410.0)">D</text><text xml:space="preserve" font-family="Avenir-Book" font-size="34.0" fill="#000000" transform="matrix(1.00, 0.00, -0.00, -1.00, 436.3, 410.0)">o</text><text xml:space="preserve" font-family="Avenir-Book" font-size="34.0" fill="#000000" transform="matrix(1.00, 0.00, -0.00, -1.00, 456.5, 410.0)">c</text><text xml:space="preserve" font-family="Avenir-Book" font-size="34.0" fill="#000000" transform="matrix(1.00, 0.00, -0.00, -1.00, 472.8, 410.0)">k</text><text xml:space="preserve" font-family="Avenir-Book" font-size="34.0" fill="#000000" transform="matrix(1.00, 0.00, -0.00, -1.00, 489.2, 410.0)">e</text><text xml:space="preserve" font-family="Avenir-Book" font-size="34.0" fill="#000000" transform="matrix(1.00, 0.00, -0.00, -1.00, 508.1, 410.0)">r</text><text xml:space="preserve" font-family="Avenir-Book" font-size="34.0" fill="#000000" transform="matrix(1.00, 0.00, -0.00, -1.00, 519.4, 410.0)">S</text><text xml:space="preserve" font-family="Avenir-Book" font-size="34.0" fill="#000000" transform="matrix(1.00, 0.00, -0.00, -1.00, 538.3, 410.0)">p</text><text xml:space="preserve" font-family="Avenir-Book" font-size="34.0" fill="#000000" transform="matrix(1.00, 0.00, -0.00, -1.00, 559.1, 410.0)">a</text><text xml:space="preserve" font-family="Avenir-Book" font-size="34.0" fill="#000000" transform="matrix(1.00, 0.00, -0.00, -1.00, 576.8, 410.0)">w</text><text xml:space="preserve" font-family="Avenir-Book" font-size="34.0" fill="#000000" transform="matrix(1.00, 0.00, -0.00, -1.00, 601.3, 410.0)">n</text><text xml:space="preserve" font-family="Avenir-Book" font-size="34.0" fill="#000000" transform="matrix(1.00, 0.00, -0.00, -1.00, 620.2, 410.0)">e</text><text xml:space="preserve" font-family="Avenir-Book" font-size="34.0" fill="#000000" transform="matrix(1.00, 0.00, -0.00, -1.00, 639.1, 410.0)">r</text><text xml:space="preserve" font-family="Avenir-Book" font-size="34.0" fill="#000000" transform="matrix(1.00, 0.00, -0.00, -1.00, 647.3, 410.0)">,</text><text xml:space="preserve" font-family="Avenir-Book" font-size="34.0" fill="#000000" transform="matrix(1.00, 0.00, -0.00, -1.00, 656.7, 410.0)"> </text><text xml:space="preserve" font-family="Avenir-Book" font-size="34.0" fill="#000000" transform="matrix(1.00, 0.00, -0.00, -1.00, 666.2, 410.0)">H</text><text xml:space="preserve" font-family="Avenir-Book" font-size="34.0" fill="#000000" transform="matrix(1.00, 0.00, -0.00, -1.00, 690.7, 410.0)">u</text><text xml:space="preserve" font-family="Avenir-Book" font-size="34.0" fill="#000000" transform="matrix(1.00, 0.00, -0.00, -1.00, 709.6, 410.0)">b</text><text xml:space="preserve" font-family="Avenir-Book" font-size="34.0" fill="#000000" transform="matrix(1.00, 0.00, -0.00, -1.00, 730.4, 410.0)"> </text><text xml:space="preserve" font-family="Avenir-Book" font-size="34.0" fill="#000000" transform="matrix(1.00, 0.00, -0.00, -1.00, 739.8, 410.0)">i</text><text xml:space="preserve" font-family="Avenir-Book" font-size="34.0" fill="#000000" transform="matrix(1.00, 0.00, -0.00, -1.00, 748.0, 410.0)">n</text><text xml:space="preserve" font-family="Avenir-Book" font-size="34.0" fill="#000000" transform="matrix(1.00, 0.00, -0.00, -1.00, 766.9, 410.0)"> </text><text xml:space="preserve" font-family="Avenir-Book" font-size="34.0" fill="#000000" transform="matrix(1.00, 0.00, -0.00, -1.00, 776.4, 410.0)">D</text><text xml:space="preserve" font-family="Avenir-Book" font-size="34.0" fill="#000000" transform="matrix(1.00, 0.00, -0.00, -1.00, 801.6, 410.0)">o</text><text xml:space="preserve" font-family="Avenir-Book" font-size="34.0" fill="#000000" transform="matrix(1.00, 0.00, -0.00, -1.00, 821.7, 410.0)">c</text><text xml:space="preserve" font-family="Avenir-Book" font-size="34.0" fill="#000000" transform="matrix(1.00, 0.00, -0.00, -1.00, 838.1, 410.0)">k</text><text xml:space="preserve" font-family="Avenir-Book" font-size="34.0" fill="#000000" transform="matrix(1.00, 0.00, -0.00, -1.00, 854.5, 410.0)">e</text><text xml:space="preserve" font-family="Avenir-Book" font-size="34.0" fill="#000000" transform="matrix(1.00, 0.00, -0.00, -1.00, 873.4, 410.0)">r</text><text xml:space="preserve" font-family="Avenir-Book" font-size="34.0" fill="#000000" transform="matrix(1.00, 0.00, -0.00, -1.00, 63.0, 260.0)">h</text><text xml:space="preserve" font-family="Avenir-Book" font-size="34.0" fill="#000000" transform="matrix(1.00, 0.00, -0.00, -1.00, 81.9, 260.0)">t</text><text xml:space="preserve" font-family="Avenir-Book" font-size="34.0" fill="#000000" transform="matrix(1.00, 0.00, -0.00, -1.00, 93.2, 260.0)">t</text><text xml:space="preserve" font-family="Avenir-Book" font-size="34.0" fill="#000000" transform="matrix(1.00, 0.00, -0.00, -1.00, 104.5, 260.0)">p</text><text xml:space="preserve" font-family="Avenir-Book" font-size="34.0" fill="#000000" transform="matrix(1.00, 0.00, -0.00, -1.00, 125.3, 260.0)">s</text><text xml:space="preserve" font-family="Avenir-Book" font-size="34.0" fill="#000000" transform="matrix(1.00, 0.00, -0.00, -1.00, 139.7, 260.0)">:</text><text xml:space="preserve" font-family="Avenir-Book" font-size="34.0" fill="#000000" transform="matrix(1.00, 0.00, -0.00, -1.00, 149.2, 260.0)">/</text><text xml:space="preserve" font-family="Avenir-Book" font-size="34.0" fill="#000000" transform="matrix(1.00, 0.00, -0.00, -1.00, 161.8, 260.0)">/</text><text xml:space="preserve" font-family="Avenir-Book" font-size="34.0" fill="#000000" transform="matrix(1.00, 0.00, -0.00, -1.00, 174.3, 260.0)">g</text><text xml:space="preserve" font-family="Avenir-Book" font-size="34.0" fill="#000000" transform="matrix(1.00, 0.00, -0.00, -1.00, 195.1, 260.0)">i</text><text xml:space="preserve" font-family="Avenir-Book" font-size="34.0" fill="#000000" transform="matrix(1.00, 0.00, -0.00, -1.00, 203.3, 260.0)">t</text><text xml:space="preserve" font-family="Avenir-Book" font-size="34.0" fill="#000000" transform="matrix(1.00, 0.00, -0.00, -1.00, 214.6, 260.0)">h</text><text xml:space="preserve" font-family="Avenir-Book" font-size="34.0" fill="#000000" transform="matrix(1.00, 0.00, -0.00, -1.00, 233.5, 260.0)">u</text><text xml:space="preserve" font-family="Avenir-Book" font-size="34.0" fill="#000000" transform="matrix(1.00, 0.00, -0.00, -1.00, 252.4, 260.0)">b</text><text xml:space="preserve" font-family="Avenir-Book" font-size="34.0" fill="#000000" transform="matrix(1.00, 0.00, -0.00, -1.00, 273.2, 260.0)">.</text><text xml:space="preserve" font-family="Avenir-Book" font-size="34.0" fill="#000000" transform="matrix(1.00, 0.00, -0.00, -1.00, 282.6, 260.0)">c</text><text xml:space="preserve" font-family="Avenir-Book" font-size="34.0" fill="#000000" transform="matrix(1.00, 0.00, -0.00, -1.00, 299.0, 260.0)">o</text><text xml:space="preserve" font-family="Avenir-Book" font-size="34.0" fill="#000000" transform="matrix(1.00, 0.00, -0.00, -1.00, 319.2, 260.0)">m</text><text xml:space="preserve" font-family="Avenir-Book" font-size="34.0" fill="#000000" transform="matrix(1.00, 0.00, -0.00, -1.00, 348.1, 260.0)">/</text><text xml:space="preserve" font-family="Avenir-Book" font-size="34.0" fill="#000000" transform="matrix(1.00, 0.00, -0.00, -1.00, 360.7, 260.0)">j</text><text xml:space="preserve" font-family="Avenir-Book" font-size="34.0" fill="#000000" transform="matrix(1.00, 0.00, -0.00, -1.00, 368.9, 260.0)">u</text><text xml:space="preserve" font-family="Avenir-Book" font-size="34.0" fill="#000000" transform="matrix(1.00, 0.00, -0.00, -1.00, 387.8, 260.0)">p</text><text xml:space="preserve" font-family="Avenir-Book" font-size="34.0" fill="#000000" transform="matrix(1.00, 0.00, -0.00, -1.00, 408.5, 260.0)">y</text><text xml:space="preserve" font-family="Avenir-Book" font-size="34.0" fill="#000000" transform="matrix(1.00, 0.00, -0.00, -1.00, 424.9, 260.0)">t</text><text xml:space="preserve" font-family="Avenir-Book" font-size="34.0" fill="#000000" transform="matrix(1.00, 0.00, -0.00, -1.00, 436.2, 260.0)">e</text><text xml:space="preserve" font-family="Avenir-Book" font-size="34.0" fill="#000000" transform="matrix(1.00, 0.00, -0.00, -1.00, 455.1, 260.0)">r</text><text xml:space="preserve" font-family="Avenir-Book" font-size="34.0" fill="#000000" transform="matrix(1.00, 0.00, -0.00, -1.00, 466.4, 260.0)">h</text><text xml:space="preserve" font-family="Avenir-Book" font-size="34.0" fill="#000000" transform="matrix(1.00, 0.00, -0.00, -1.00, 485.3, 260.0)">u</text><text xml:space="preserve" font-family="Avenir-Book" font-size="34.0" fill="#000000" transform="matrix(1.00, 0.00, -0.00, -1.00, 504.2, 260.0)">b</text><text xml:space="preserve" font-family="Avenir-Book" font-size="34.0" fill="#000000" transform="matrix(1.00, 0.00, -0.00, -1.00, 525.0, 260.0)">/</text><text xml:space="preserve" font-family="Avenir-Book" font-size="34.0" fill="#000000" transform="matrix(1.00, 0.00, -0.00, -1.00, 537.6, 260.0)">j</text><text xml:space="preserve" font-family="Avenir-Book" font-size="34.0" fill="#000000" transform="matrix(1.00, 0.00, -0.00, -1.00, 545.7, 260.0)">u</text><text xml:space="preserve" font-family="Avenir-Book" font-size="34.0" fill="#000000" transform="matrix(1.00, 0.00, -0.00, -1.00, 564.6, 260.0)">p</text><text xml:space="preserve" font-family="Avenir-Book" font-size="34.0" fill="#000000" transform="matrix(1.00, 0.00, -0.00, -1.00, 585.4, 260.0)">y</text><text xml:space="preserve" font-family="Avenir-Book" font-size="34.0" fill="#000000" transform="matrix(1.00, 0.00, -0.00, -1.00, 601.8, 260.0)">t</text><text xml:space="preserve" font-family="Avenir-Book" font-size="34.0" fill="#000000" transform="matrix(1.00, 0.00, -0.00, -1.00, 613.1, 260.0)">e</text><text xml:space="preserve" font-family="Avenir-Book" font-size="34.0" fill="#000000" transform="matrix(1.00, 0.00, -0.00, -1.00, 632.0, 260.0)">r</text><text xml:space="preserve" font-family="Avenir-Book" font-size="34.0" fill="#000000" transform="matrix(1.00, 0.00, -0.00, -1.00, 643.3, 260.0)">h</text><text xml:space="preserve" font-family="Avenir-Book" font-size="34.0" fill="#000000" transform="matrix(1.00, 0.00, -0.00, -1.00, 662.2, 260.0)">u</text><text xml:space="preserve" font-family="Avenir-Book" font-size="34.0" fill="#000000" transform="matrix(1.00, 0.00, -0.00, -1.00, 681.1, 260.0)">b</text><text xml:space="preserve" font-family="Avenir-Book" font-size="34.0" fill="#000000" transform="matrix(1.00, 0.00, -0.00, -1.00, 701.9, 260.0)">-</text><text xml:space="preserve" font-family="Avenir-Book" font-size="34.0" fill="#000000" transform="matrix(1.00, 0.00, -0.00, -1.00, 713.2, 260.0)">d</text><text xml:space="preserve" font-family="Avenir-Book" font-size="34.0" fill="#000000" transform="matrix(1.00, 0.00, -0.00, -1.00, 734.0, 260.0)">e</text><text xml:space="preserve" font-family="Avenir-Book" font-size="34.0" fill="#000000" transform="matrix(1.00, 0.00, -0.00, -1.00, 752.9, 260.0)">p</text><text xml:space="preserve" font-family="Avenir-Book" font-size="34.0" fill="#000000" transform="matrix(1.00, 0.00, -0.00, -1.00, 773.6, 260.0)">l</text><text xml:space="preserve" font-family="Avenir-Book" font-size="34.0" fill="#000000" transform="matrix(1.00, 0.00, -0.00, -1.00, 781.8, 260.0)">o</text><text xml:space="preserve" font-family="Avenir-Book" font-size="34.0" fill="#000000" transform="matrix(1.00, 0.00, -0.00, -1.00, 802.0, 260.0)">y</text><text xml:space="preserve" font-family="Avenir-Book" font-size="34.0" fill="#000000" transform="matrix(1.00, 0.00, -0.00, -1.00, 818.3, 260.0)">-</text><text xml:space="preserve" font-family="Avenir-Book" font-size="34.0" fill="#000000" transform="matrix(1.00, 0.00, -0.00, -1.00, 829.7, 260.0)">t</text><text xml:space="preserve" font-family="Avenir-Book" font-size="34.0" fill="#000000" transform="matrix(1.00, 0.00, -0.00, -1.00, 841.0, 260.0)">e</text><text xml:space="preserve" font-family="Avenir-Book" font-size="34.0" fill="#000000" transform="matrix(1.00, 0.00, -0.00, -1.00, 859.9, 260.0)">a</text><text xml:space="preserve" font-family="Avenir-Book" font-size="34.0" fill="#000000" transform="matrix(1.00, 0.00, -0.00, -1.00, 877.5, 260.0)">c</text><text xml:space="preserve" font-family="Avenir-Book" font-size="34.0" fill="#000000" transform="matrix(1.00, 0.00, -0.00, -1.00, 893.9, 260.0)">h</text><text xml:space="preserve" font-family="Avenir-Book" font-size="34.0" fill="#000000" transform="matrix(1.00, 0.00, -0.00, -1.00, 912.8, 260.0)">i</text><text xml:space="preserve" font-family="Avenir-Book" font-size="34.0" fill="#000000" transform="matrix(1.00, 0.00, -0.00, -1.00, 921.0, 260.0)">n</text><text xml:space="preserve" font-family="Avenir-Book" font-size="34.0" fill="#000000" transform="matrix(1.00, 0.00, -0.00, -1.00, 939.9, 260.0)">g</text><text xml:space="preserve" font-family="Avenir-Book" font-size="34.0" fill="#000000" transform="matrix(1.00, 0.00, -0.00, -1.00, 960.6, 260.0)"> </text><g><clipPath id="clip-577"><path d="M 62.2 255.3 L 960.8 255.3 L 960.8 259.0 L 62.2 259.0 Z M 62.2 255.3 "></path></clipPath><g clip-path="url(#clip-577)"><path d="M 10.9 41.7 L 908.5 41.7 " fill="none" stroke="#000000" stroke-width="1.70" stroke-miterlimit="0.00" transform="matrix(1.00, 0.00, 0.00, -1.00, 52.3, 298.9)"></path></g></g><text xml:space="preserve" font-family="Avenir-Book" font-size="34.0" fill="#000000" transform="matrix(1.00, 0.00, -0.00, -1.00, 295.0, 214.0)">a</text><text xml:space="preserve" font-family="Avenir-Book" font-size="34.0" fill="#000000" transform="matrix(1.00, 0.00, -0.00, -1.00, 312.6, 214.0)">n</text><text xml:space="preserve" font-family="Avenir-Book" font-size="34.0" fill="#000000" transform="matrix(1.00, 0.00, -0.00, -1.00, 331.6, 214.0)">s</text><text xml:space="preserve" font-family="Avenir-Book" font-size="34.0" fill="#000000" transform="matrix(1.00, 0.00, -0.00, -1.00, 346.0, 214.0)">i</text><text xml:space="preserve" font-family="Avenir-Book" font-size="34.0" fill="#000000" transform="matrix(1.00, 0.00, -0.00, -1.00, 354.2, 214.0)">b</text><text xml:space="preserve" font-family="Avenir-Book" font-size="34.0" fill="#000000" transform="matrix(1.00, 0.00, -0.00, -1.00, 375.0, 214.0)">l</text><text xml:space="preserve" font-family="Avenir-Book" font-size="34.0" fill="#000000" transform="matrix(1.00, 0.00, -0.00, -1.00, 383.1, 214.0)">e</text><text xml:space="preserve" font-family="Avenir-Book" font-size="34.0" fill="#000000" transform="matrix(1.00, 0.00, -0.00, -1.00, 402.0, 214.0)">,</text><text xml:space="preserve" font-family="Avenir-Book" font-size="34.0" fill="#000000" transform="matrix(1.00, 0.00, -0.00, -1.00, 411.5, 214.0)"> </text><text xml:space="preserve" font-family="Avenir-Book" font-size="34.0" fill="#000000" transform="matrix(1.00, 0.00, -0.00, -1.00, 420.9, 214.0)">n</text><text xml:space="preserve" font-family="Avenir-Book" font-size="34.0" fill="#000000" transform="matrix(1.00, 0.00, -0.00, -1.00, 439.8, 214.0)">o</text><text xml:space="preserve" font-family="Avenir-Book" font-size="34.0" fill="#000000" transform="matrix(1.00, 0.00, -0.00, -1.00, 460.0, 214.0)"> </text><text xml:space="preserve" font-family="Avenir-Book" font-size="34.0" fill="#000000" transform="matrix(1.00, 0.00, -0.00, -1.00, 469.5, 214.0)">d</text><text xml:space="preserve" font-family="Avenir-Book" font-size="34.0" fill="#000000" transform="matrix(1.00, 0.00, -0.00, -1.00, 490.2, 214.0)">o</text><text xml:space="preserve" font-family="Avenir-Book" font-size="34.0" fill="#000000" transform="matrix(1.00, 0.00, -0.00, -1.00, 510.4, 214.0)">c</text><text xml:space="preserve" font-family="Avenir-Book" font-size="34.0" fill="#000000" transform="matrix(1.00, 0.00, -0.00, -1.00, 526.8, 214.0)">k</text><text xml:space="preserve" font-family="Avenir-Book" font-size="34.0" fill="#000000" transform="matrix(1.00, 0.00, -0.00, -1.00, 543.2, 214.0)">e</text><text xml:space="preserve" font-family="Avenir-Book" font-size="34.0" fill="#000000" transform="matrix(1.00, 0.00, -0.00, -1.00, 562.1, 214.0)">r</text><text xml:space="preserve" font-family="Avenir-Book" font-size="34.0" fill="#000000" transform="matrix(1.00, 0.00, -0.00, -1.00, 570.2, 214.0)">,</text><text xml:space="preserve" font-family="Avenir-Book" font-size="34.0" fill="#000000" transform="matrix(1.00, 0.00, -0.00, -1.00, 579.7, 214.0)"> </text><text xml:space="preserve" font-family="Avenir-Book" font-size="34.0" fill="#000000" transform="matrix(1.00, 0.00, -0.00, -1.00, 589.1, 214.0)">n</text><text xml:space="preserve" font-family="Avenir-Book" font-size="34.0" fill="#000000" transform="matrix(1.00, 0.00, -0.00, -1.00, 608.0, 214.0)">b</text><text xml:space="preserve" font-family="Avenir-Book" font-size="34.0" fill="#000000" transform="matrix(1.00, 0.00, -0.00, -1.00, 628.8, 214.0)">g</text><text xml:space="preserve" font-family="Avenir-Book" font-size="34.0" fill="#000000" transform="matrix(1.00, 0.00, -0.00, -1.00, 649.6, 214.0)">r</text><text xml:space="preserve" font-family="Avenir-Book" font-size="34.0" fill="#000000" transform="matrix(1.00, 0.00, -0.00, -1.00, 660.9, 214.0)">a</text><text xml:space="preserve" font-family="Avenir-Book" font-size="34.0" fill="#000000" transform="matrix(1.00, 0.00, -0.00, -1.00, 678.5, 214.0)">d</text><text xml:space="preserve" font-family="Avenir-Book" font-size="34.0" fill="#000000" transform="matrix(1.00, 0.00, -0.00, -1.00, 699.3, 214.0)">e</text><text xml:space="preserve" font-family="Avenir-Book" font-size="34.0" fill="#000000" transform="matrix(1.00, 0.00, -0.00, -1.00, 718.2, 214.0)">r</text><text xml:space="preserve" font-family="Futura-Medium" font-size="49.3" fill="#000000" transform="matrix(1.00, 0.00, -0.00, -1.00, 250.0, 637.0)">R</text><text xml:space="preserve" font-family="Futura-Medium" font-size="49.3" fill="#000000" transform="matrix(1.00, 0.00, -0.00, -1.00, 278.9, 637.0)">e</text><text xml:space="preserve" font-family="Futura-Medium" font-size="49.3" fill="#000000" transform="matrix(1.00, 0.00, -0.00, -1.00, 306.1, 637.0)">f</text><text xml:space="preserve" font-family="Futura-Medium" font-size="49.3" fill="#000000" transform="matrix(1.00, 0.00, -0.00, -1.00, 321.5, 637.0)">e</text><text xml:space="preserve" font-family="Futura-Medium" font-size="49.3" fill="#000000" transform="matrix(1.00, 0.00, -0.00, -1.00, 348.8, 637.0)">r</text><text xml:space="preserve" font-family="Futura-Medium" font-size="49.3" fill="#000000" transform="matrix(1.00, 0.00, -0.00, -1.00, 366.9, 637.0)">e</text><text xml:space="preserve" font-family="Futura-Medium" font-size="49.3" fill="#000000" transform="matrix(1.00, 0.00, -0.00, -1.00, 394.2, 637.0)">n</text><text xml:space="preserve" font-family="Futura-Medium" font-size="49.3" fill="#000000" transform="matrix(1.00, 0.00, -0.00, -1.00, 421.2, 637.0)">c</text><text xml:space="preserve" font-family="Futura-Medium" font-size="49.3" fill="#000000" transform="matrix(1.00, 0.00, -0.00, -1.00, 444.7, 637.0)">e</text><text xml:space="preserve" font-family="Futura-Medium" font-size="49.3" fill="#000000" transform="matrix(1.00, 0.00, -0.00, -1.00, 471.9, 637.0)"> </text><text xml:space="preserve" font-family="Futura-Medium" font-size="49.3" fill="#000000" transform="matrix(1.00, 0.00, -0.00, -1.00, 487.1, 637.0)">D</text><text xml:space="preserve" font-family="Futura-Medium" font-size="49.3" fill="#000000" transform="matrix(1.00, 0.00, -0.00, -1.00, 522.9, 637.0)">e</text><text xml:space="preserve" font-family="Futura-Medium" font-size="49.3" fill="#000000" transform="matrix(1.00, 0.00, -0.00, -1.00, 550.2, 637.0)">p</text><text xml:space="preserve" font-family="Futura-Medium" font-size="49.3" fill="#000000" transform="matrix(1.00, 0.00, -0.00, -1.00, 579.7, 637.0)">l</text><text xml:space="preserve" font-family="Futura-Medium" font-size="49.3" fill="#000000" transform="matrix(1.00, 0.00, -0.00, -1.00, 592.0, 637.0)">o</text><text xml:space="preserve" font-family="Futura-Medium" font-size="49.3" fill="#000000" transform="matrix(1.00, 0.00, -0.00, -1.00, 620.5, 637.0)">y</text><text xml:space="preserve" font-family="Futura-Medium" font-size="49.3" fill="#000000" transform="matrix(1.00, 0.00, -0.00, -1.00, 647.3, 637.0)">m</text><text xml:space="preserve" font-family="Futura-Medium" font-size="49.3" fill="#000000" transform="matrix(1.00, 0.00, -0.00, -1.00, 686.3, 637.0)">e</text><text xml:space="preserve" font-family="Futura-Medium" font-size="49.3" fill="#000000" transform="matrix(1.00, 0.00, -0.00, -1.00, 713.5, 637.0)">n</text><text xml:space="preserve" font-family="Futura-Medium" font-size="49.3" fill="#000000" transform="matrix(1.00, 0.00, -0.00, -1.00, 740.6, 637.0)">t</text><text xml:space="preserve" font-family="Futura-Medium" font-size="49.3" fill="#000000" transform="matrix(1.00, 0.00, -0.00, -1.00, 754.1, 637.0)">s</text></g></svg>