<?xml version="1.0" encoding="UTF-8" standalone="no"?><svg xmlns="http://www.w3.org/2000/svg" xmlns:xlink="http://www.w3.org/1999/xlink" clip-rule="evenodd" stroke-miterlimit="4.00" viewBox="0 0 854 37"><desc>SVG generated by Keynote</desc><defs></defs><g transform="matrix(1.00, 0.00, -0.00, -1.00, 0.0, 37.0)"><text xml:space="preserve" font-family="Helvetica-Light" font-size="25.9" fill="#000000" transform="matrix(1.00, 0.00, -0.00, -1.00, 0.1, 13.4)">•</text><text xml:space="preserve" font-family="Helvetica-Light" font-size="34.5" fill="#000000" transform="matrix(1.00, 0.00, -0.00, -1.00, 34.0, 10.0)">A</text><text xml:space="preserve" font-family="Helvetica-Light" font-size="34.5" fill="#000000" transform="matrix(1.00, 0.00, -0.00, -1.00, 57.0, 10.0)"> </text><text xml:space="preserve" font-family="Helvetica-Light" font-size="34.5" fill="#000000" transform="matrix(1.00, 0.00, -0.00, -1.00, 66.6, 10.0)">c</text><text xml:space="preserve" font-family="Helvetica-Light" font-size="34.5" fill="#000000" transform="matrix(1.00, 0.00, -0.00, -1.00, 85.8, 10.0)">l</text><text xml:space="preserve" font-family="Helvetica-Light" font-size="34.5" fill="#000000" transform="matrix(1.00, 0.00, -0.00, -1.00, 93.4, 10.0)">a</text><text xml:space="preserve" font-family="Helvetica-Light" font-size="34.5" fill="#000000" transform="matrix(1.00, 0.00, -0.00, -1.00, 112.6, 10.0)">s</text><text xml:space="preserve" font-family="Helvetica-Light" font-size="34.5" fill="#000000" transform="matrix(1.00, 0.00, -0.00, -1.00, 129.9, 10.0)">s</text><text xml:space="preserve" font-family="Helvetica-Light" font-size="34.5" fill="#000000" transform="matrix(1.00, 0.00, -0.00, -1.00, 147.1, 10.0)"> </text><text xml:space="preserve" font-family="Helvetica-Light" font-size="34.5" fill="#000000" transform="matrix(1.00, 0.00, -0.00, -1.00, 156.7, 10.0)">w</text><text xml:space="preserve" font-family="Helvetica-Light" font-size="34.5" fill="#000000" transform="matrix(1.00, 0.00, -0.00, -1.00, 181.6, 10.0)">h</text><text xml:space="preserve" font-family="Helvetica-Light" font-size="34.5" fill="#000000" transform="matrix(1.00, 0.00, -0.00, -1.00, 200.8, 10.0)">e</text><text xml:space="preserve" font-family="Helvetica-Light" font-size="34.5" fill="#000000" transform="matrix(1.00, 0.00, -0.00, -1.00, 220.0, 10.0)">r</text><text xml:space="preserve" font-family="Helvetica-Light" font-size="34.5" fill="#000000" transform="matrix(1.00, 0.00, -0.00, -1.00, 230.9, 10.0)">e</text><text xml:space="preserve" font-family="Helvetica-Light" font-size="34.5" fill="#000000" transform="matrix(1.00, 0.00, -0.00, -1.00, 250.0, 10.0)"> </text><text xml:space="preserve" font-family="Helvetica-Light" font-size="34.5" fill="#000000" transform="matrix(1.00, 0.00, -0.00, -1.00, 259.6, 10.0)">s</text><text xml:space="preserve" font-family="Helvetica-Light" font-size="34.5" fill="#000000" transform="matrix(1.00, 0.00, -0.00, -1.00, 276.9, 10.0)">t</text><text xml:space="preserve" font-family="Helvetica-Light" font-size="34.5" fill="#000000" transform="matrix(1.00, 0.00, -0.00, -1.00, 286.5, 10.0)">u</text><text xml:space="preserve" font-family="Helvetica-Light" font-size="34.5" fill="#000000" transform="matrix(1.00, 0.00, -0.00, -1.00, 305.7, 10.0)">d</text><text xml:space="preserve" font-family="Helvetica-Light" font-size="34.5" fill="#000000" transform="matrix(1.00, 0.00, -0.00, -1.00, 326.7, 10.0)">e</text><text xml:space="preserve" font-family="Helvetica-Light" font-size="34.5" fill="#000000" transform="matrix(1.00, 0.00, -0.00, -1.00, 345.9, 10.0)">n</text><text xml:space="preserve" font-family="Helvetica-Light" font-size="34.5" fill="#000000" transform="matrix(1.00, 0.00, -0.00, -1.00, 365.1, 10.0)">t</text><text xml:space="preserve" font-family="Helvetica-Light" font-size="34.5" fill="#000000" transform="matrix(1.00, 0.00, -0.00, -1.00, 374.7, 10.0)">s</text><text xml:space="preserve" font-family="Helvetica-Light" font-size="34.5" fill="#000000" transform="matrix(1.00, 0.00, -0.00, -1.00, 391.9, 10.0)"> </text><text xml:space="preserve" font-family="Helvetica-Light" font-size="34.5" fill="#000000" transform="matrix(1.00, 0.00, -0.00, -1.00, 401.5, 10.0)">c</text><text xml:space="preserve" font-family="Helvetica-Light" font-size="34.5" fill="#000000" transform="matrix(1.00, 0.00, -0.00, -1.00, 420.7, 10.0)">a</text><text xml:space="preserve" font-family="Helvetica-Light" font-size="34.5" fill="#000000" transform="matrix(1.00, 0.00, -0.00, -1.00, 439.9, 10.0)">n</text><text xml:space="preserve" font-family="Helvetica-Light" font-size="34.5" fill="#000000" transform="matrix(1.00, 0.00, -0.00, -1.00, 459.1, 10.0)"> </text><text xml:space="preserve" font-family="Helvetica-Light" font-size="34.5" fill="#000000" transform="matrix(1.00, 0.00, -0.00, -1.00, 468.7, 10.0)">d</text><text xml:space="preserve" font-family="Helvetica-Light" font-size="34.5" fill="#000000" transform="matrix(1.00, 0.00, -0.00, -1.00, 489.7, 10.0)">o</text><text xml:space="preserve" font-family="Helvetica-Light" font-size="34.5" fill="#000000" transform="matrix(1.00, 0.00, -0.00, -1.00, 508.9, 10.0)"> </text><text xml:space="preserve" font-family="Helvetica-Light" font-size="34.5" fill="#000000" transform="matrix(1.00, 0.00, -0.00, -1.00, 518.5, 10.0)">h</text><text xml:space="preserve" font-family="Helvetica-Light" font-size="34.5" fill="#000000" transform="matrix(1.00, 0.00, -0.00, -1.00, 537.7, 10.0)">o</text><text xml:space="preserve" font-family="Helvetica-Light" font-size="34.5" fill="#000000" transform="matrix(1.00, 0.00, -0.00, -1.00, 556.9, 10.0)">m</text><text xml:space="preserve" font-family="Helvetica-Light" font-size="34.5" fill="#000000" transform="matrix(1.00, 0.00, -0.00, -1.00, 585.6, 10.0)">e</text><text xml:space="preserve" font-family="Helvetica-Light" font-size="34.5" fill="#000000" transform="matrix(1.00, 0.00, -0.00, -1.00, 604.8, 10.0)">w</text><text xml:space="preserve" font-family="Helvetica-Light" font-size="34.5" fill="#000000" transform="matrix(1.00, 0.00, -0.00, -1.00, 629.7, 10.0)">o</text><text xml:space="preserve" font-family="Helvetica-Light" font-size="34.5" fill="#000000" transform="matrix(1.00, 0.00, -0.00, -1.00, 648.9, 10.0)">r</text><text xml:space="preserve" font-family="Helvetica-Light" font-size="34.5" fill="#000000" transform="matrix(1.00, 0.00, -0.00, -1.00, 660.4, 10.0)">k</text><text xml:space="preserve" font-family="Helvetica-Light" font-size="34.5" fill="#000000" transform="matrix(1.00, 0.00, -0.00, -1.00, 677.6, 10.0)"> </text><text xml:space="preserve" font-family="Helvetica-Light" font-size="34.5" fill="#000000" transform="matrix(1.00, 0.00, -0.00, -1.00, 687.2, 10.0)">(</text><text xml:space="preserve" font-family="Helvetica-Light" font-size="34.5" fill="#000000" transform="matrix(1.00, 0.00, -0.00, -1.00, 698.7, 10.0)">n</text><text xml:space="preserve" font-family="Helvetica-Light" font-size="34.5" fill="#000000" transform="matrix(1.00, 0.00, -0.00, -1.00, 717.9, 10.0)">b</text><text xml:space="preserve" font-family="Helvetica-Light" font-size="34.5" fill="#000000" transform="matrix(1.00, 0.00, -0.00, -1.00, 739.0, 10.0)">g</text><text xml:space="preserve" font-family="Helvetica-Light" font-size="34.5" fill="#000000" transform="matrix(1.00, 0.00, -0.00, -1.00, 760.1, 10.0)">r</text><text xml:space="preserve" font-family="Helvetica-Light" font-size="34.5" fill="#000000" transform="matrix(1.00, 0.00, -0.00, -1.00, 771.5, 10.0)">a</text><text xml:space="preserve" font-family="Helvetica-Light" font-size="34.5" fill="#000000" transform="matrix(1.00, 0.00, -0.00, -1.00, 790.7, 10.0)">d</text><text xml:space="preserve" font-family="Helvetica-Light" font-size="34.5" fill="#000000" transform="matrix(1.00, 0.00, -0.00, -1.00, 811.8, 10.0)">e</text><text xml:space="preserve" font-family="Helvetica-Light" font-size="34.5" fill="#000000" transform="matrix(1.00, 0.00, -0.00, -1.00, 831.0, 10.0)">r</text><text xml:space="preserve" font-family="Helvetica-Light" font-size="34.5" fill="#000000" transform="matrix(1.00, 0.00, -0.00, -1.00, 842.5, 10.0)">)</text></g></svg>