<?xml version="1.0" encoding="UTF-8" standalone="no"?><svg xmlns="http://www.w3.org/2000/svg" xmlns:xlink="http://www.w3.org/1999/xlink" clip-rule="evenodd" stroke-miterlimit="4.00" viewBox="0 0 835 71"><desc>SVG generated by Keynote</desc><defs></defs><g transform="matrix(1.00, 0.00, -0.00, -1.00, 0.0, 71.0)"><text xml:space="preserve" font-family="Helvetica-Light" font-size="25.9" fill="#000000" transform="matrix(1.00, 0.00, -0.00, -1.00, 0.1, 47.9)">•</text><text xml:space="preserve" font-family="Helvetica-Light" font-size="34.5" fill="#000000" transform="matrix(1.00, 0.00, -0.00, -1.00, 34.0, 44.0)">A</text><text xml:space="preserve" font-family="Helvetica-Light" font-size="34.5" fill="#000000" transform="matrix(1.00, 0.00, -0.00, -1.00, 57.0, 44.0)"> </text><text xml:space="preserve" font-family="Helvetica-Light" font-size="34.5" fill="#000000" transform="matrix(1.00, 0.00, -0.00, -1.00, 66.6, 44.0)">r</text><text xml:space="preserve" font-family="Helvetica-Light" font-size="34.5" fill="#000000" transform="matrix(1.00, 0.00, -0.00, -1.00, 77.5, 44.0)">e</text><text xml:space="preserve" font-family="Helvetica-Light" font-size="34.5" fill="#000000" transform="matrix(1.00, 0.00, -0.00, -1.00, 96.7, 44.0)">s</text><text xml:space="preserve" font-family="Helvetica-Light" font-size="34.5" fill="#000000" transform="matrix(1.00, 0.00, -0.00, -1.00, 113.9, 44.0)">e</text><text xml:space="preserve" font-family="Helvetica-Light" font-size="34.5" fill="#000000" transform="matrix(1.00, 0.00, -0.00, -1.00, 133.1, 44.0)">a</text><text xml:space="preserve" font-family="Helvetica-Light" font-size="34.5" fill="#000000" transform="matrix(1.00, 0.00, -0.00, -1.00, 152.3, 44.0)">r</text><text xml:space="preserve" font-family="Helvetica-Light" font-size="34.5" fill="#000000" transform="matrix(1.00, 0.00, -0.00, -1.00, 163.1, 44.0)">c</text><text xml:space="preserve" font-family="Helvetica-Light" font-size="34.5" fill="#000000" transform="matrix(1.00, 0.00, -0.00, -1.00, 182.3, 44.0)">h</text><text xml:space="preserve" font-family="Helvetica-Light" font-size="34.5" fill="#000000" transform="matrix(1.00, 0.00, -0.00, -1.00, 201.5, 44.0)"> </text><text xml:space="preserve" font-family="Helvetica-Light" font-size="34.5" fill="#000000" transform="matrix(1.00, 0.00, -0.00, -1.00, 211.1, 44.0)">g</text><text xml:space="preserve" font-family="Helvetica-Light" font-size="34.5" fill="#000000" transform="matrix(1.00, 0.00, -0.00, -1.00, 232.2, 44.0)">r</text><text xml:space="preserve" font-family="Helvetica-Light" font-size="34.5" fill="#000000" transform="matrix(1.00, 0.00, -0.00, -1.00, 243.0, 44.0)">o</text><text xml:space="preserve" font-family="Helvetica-Light" font-size="34.5" fill="#000000" transform="matrix(1.00, 0.00, -0.00, -1.00, 262.2, 44.0)">u</text><text xml:space="preserve" font-family="Helvetica-Light" font-size="34.5" fill="#000000" transform="matrix(1.00, 0.00, -0.00, -1.00, 281.4, 44.0)">p</text><text xml:space="preserve" font-family="Helvetica-Light" font-size="34.5" fill="#000000" transform="matrix(1.00, 0.00, -0.00, -1.00, 302.5, 44.0)"> </text><text xml:space="preserve" font-family="Helvetica-Light" font-size="34.5" fill="#000000" transform="matrix(1.00, 0.00, -0.00, -1.00, 312.1, 44.0)">w</text><text xml:space="preserve" font-family="Helvetica-Light" font-size="34.5" fill="#000000" transform="matrix(1.00, 0.00, -0.00, -1.00, 337.0, 44.0)">i</text><text xml:space="preserve" font-family="Helvetica-Light" font-size="34.5" fill="#000000" transform="matrix(1.00, 0.00, -0.00, -1.00, 344.6, 44.0)">t</text><text xml:space="preserve" font-family="Helvetica-Light" font-size="34.5" fill="#000000" transform="matrix(1.00, 0.00, -0.00, -1.00, 354.2, 44.0)">h</text><text xml:space="preserve" font-family="Helvetica-Light" font-size="34.5" fill="#000000" transform="matrix(1.00, 0.00, -0.00, -1.00, 373.4, 44.0)"> </text><text xml:space="preserve" font-family="Helvetica-Light" font-size="34.5" fill="#000000" transform="matrix(1.00, 0.00, -0.00, -1.00, 383.0, 44.0)">a</text><text xml:space="preserve" font-family="Helvetica-Light" font-size="34.5" fill="#000000" transform="matrix(1.00, 0.00, -0.00, -1.00, 402.2, 44.0)"> </text><text xml:space="preserve" font-family="Helvetica-Light" font-size="34.5" fill="#000000" transform="matrix(1.00, 0.00, -0.00, -1.00, 411.8, 44.0)">s</text><text xml:space="preserve" font-family="Helvetica-Light" font-size="34.5" fill="#000000" transform="matrix(1.00, 0.00, -0.00, -1.00, 429.0, 44.0)">h</text><text xml:space="preserve" font-family="Helvetica-Light" font-size="34.5" fill="#000000" transform="matrix(1.00, 0.00, -0.00, -1.00, 448.2, 44.0)">a</text><text xml:space="preserve" font-family="Helvetica-Light" font-size="34.5" fill="#000000" transform="matrix(1.00, 0.00, -0.00, -1.00, 467.4, 44.0)">r</text><text xml:space="preserve" font-family="Helvetica-Light" font-size="34.5" fill="#000000" transform="matrix(1.00, 0.00, -0.00, -1.00, 478.3, 44.0)">e</text><text xml:space="preserve" font-family="Helvetica-Light" font-size="34.5" fill="#000000" transform="matrix(1.00, 0.00, -0.00, -1.00, 497.4, 44.0)">d</text><text xml:space="preserve" font-family="Helvetica-Light" font-size="34.5" fill="#000000" transform="matrix(1.00, 0.00, -0.00, -1.00, 518.5, 44.0)"> </text><text xml:space="preserve" font-family="Helvetica-Light" font-size="34.5" fill="#000000" transform="matrix(1.00, 0.00, -0.00, -1.00, 528.1, 44.0)">w</text><text xml:space="preserve" font-family="Helvetica-Light" font-size="34.5" fill="#000000" transform="matrix(1.00, 0.00, -0.00, -1.00, 553.0, 44.0)">o</text><text xml:space="preserve" font-family="Helvetica-Light" font-size="34.5" fill="#000000" transform="matrix(1.00, 0.00, -0.00, -1.00, 572.2, 44.0)">r</text><text xml:space="preserve" font-family="Helvetica-Light" font-size="34.5" fill="#000000" transform="matrix(1.00, 0.00, -0.00, -1.00, 583.7, 44.0)">k</text><text xml:space="preserve" font-family="Helvetica-Light" font-size="34.5" fill="#000000" transform="matrix(1.00, 0.00, -0.00, -1.00, 600.9, 44.0)">s</text><text xml:space="preserve" font-family="Helvetica-Light" font-size="34.5" fill="#000000" transform="matrix(1.00, 0.00, -0.00, -1.00, 618.2, 44.0)">t</text><text xml:space="preserve" font-family="Helvetica-Light" font-size="34.5" fill="#000000" transform="matrix(1.00, 0.00, -0.00, -1.00, 627.8, 44.0)">a</text><text xml:space="preserve" font-family="Helvetica-Light" font-size="34.5" fill="#000000" transform="matrix(1.00, 0.00, -0.00, -1.00, 647.0, 44.0)">t</text><text xml:space="preserve" font-family="Helvetica-Light" font-size="34.5" fill="#000000" transform="matrix(1.00, 0.00, -0.00, -1.00, 656.6, 44.0)">i</text><text xml:space="preserve" font-family="Helvetica-Light" font-size="34.5" fill="#000000" transform="matrix(1.00, 0.00, -0.00, -1.00, 664.2, 44.0)">o</text><text xml:space="preserve" font-family="Helvetica-Light" font-size="34.5" fill="#000000" transform="matrix(1.00, 0.00, -0.00, -1.00, 683.4, 44.0)">n</text><text xml:space="preserve" font-family="Helvetica-Light" font-size="34.5" fill="#000000" transform="matrix(1.00, 0.00, -0.00, -1.00, 702.6, 44.0)"> </text><text xml:space="preserve" font-family="Helvetica-Light" font-size="34.5" fill="#000000" transform="matrix(1.00, 0.00, -0.00, -1.00, 712.2, 44.0)">o</text><text xml:space="preserve" font-family="Helvetica-Light" font-size="34.5" fill="#000000" transform="matrix(1.00, 0.00, -0.00, -1.00, 731.3, 44.0)">r</text><text xml:space="preserve" font-family="Helvetica-Light" font-size="34.5" fill="#000000" transform="matrix(1.00, 0.00, -0.00, -1.00, 742.8, 44.0)"> </text><text xml:space="preserve" font-family="Helvetica-Light" font-size="34.5" fill="#000000" transform="matrix(1.00, 0.00, -0.00, -1.00, 752.4, 44.0)">s</text><text xml:space="preserve" font-family="Helvetica-Light" font-size="34.5" fill="#000000" transform="matrix(1.00, 0.00, -0.00, -1.00, 769.7, 44.0)">m</text><text xml:space="preserve" font-family="Helvetica-Light" font-size="34.5" fill="#000000" transform="matrix(1.00, 0.00, -0.00, -1.00, 798.4, 44.0)">a</text><text xml:space="preserve" font-family="Helvetica-Light" font-size="34.5" fill="#000000" transform="matrix(1.00, 0.00, -0.00, -1.00, 817.6, 44.0)">l</text><text xml:space="preserve" font-family="Helvetica-Light" font-size="34.5" fill="#000000" transform="matrix(1.00, 0.00, -0.00, -1.00, 825.3, 44.0)">l</text><text xml:space="preserve" font-family="Helvetica-Light" font-size="34.5" fill="#000000" transform="matrix(1.00, 0.00, -0.00, -1.00, 832.9, 44.0)"> </text><text xml:space="preserve" font-family="Helvetica-Light" font-size="34.5" fill="#000000" transform="matrix(1.00, 0.00, -0.00, -1.00, 34.0, 2.0)">c</text><text xml:space="preserve" font-family="Helvetica-Light" font-size="34.5" fill="#000000" transform="matrix(1.00, 0.00, -0.00, -1.00, 53.2, 2.0)">l</text><text xml:space="preserve" font-family="Helvetica-Light" font-size="34.5" fill="#000000" transform="matrix(1.00, 0.00, -0.00, -1.00, 60.8, 2.0)">u</text><text xml:space="preserve" font-family="Helvetica-Light" font-size="34.5" fill="#000000" transform="matrix(1.00, 0.00, -0.00, -1.00, 80.0, 2.0)">s</text><text xml:space="preserve" font-family="Helvetica-Light" font-size="34.5" fill="#000000" transform="matrix(1.00, 0.00, -0.00, -1.00, 97.3, 2.0)">t</text><text xml:space="preserve" font-family="Helvetica-Light" font-size="34.5" fill="#000000" transform="matrix(1.00, 0.00, -0.00, -1.00, 106.9, 2.0)">e</text><text xml:space="preserve" font-family="Helvetica-Light" font-size="34.5" fill="#000000" transform="matrix(1.00, 0.00, -0.00, -1.00, 126.0, 2.0)">r</text></g></svg>