<?xml version="1.0" encoding="UTF-8" standalone="no"?><svg xmlns="http://www.w3.org/2000/svg" xmlns:xlink="http://www.w3.org/1999/xlink" clip-rule="evenodd" stroke-miterlimit="4.00" viewBox="0 0 1024 768"><desc>SVG generated by Keynote</desc><defs></defs><g transform="matrix(1.00, 0.00, -0.00, -1.00, 0.0, 768.0)"><g><clipPath id="clip-173"><path d="M 0.0 768.0 L 1024.0 768.0 L 1024.0 0.0 L 0.0 0.0 Z M 0.0 768.0 "></path></clipPath><g clip-path="url(#clip-173)"><image xlink:href="../../A6AB71EB-7077-4CA4-A4BC-733F3D27A118/assets/AC8A38799F83CDE46BAD7F0B4FE74D5F.jpeg" width="1024.00" height="768.00" transform="matrix(1.00, 0.00, -0.00, -1.00, 0.0, 768.0)"></image></g></g><g><clipPath id="clip-174"><path d="M 43.6 611.4 L 980.4 611.4 L 980.4 700.1 L 43.6 700.1 Z M 43.6 611.4 "></path></clipPath><g clip-path="url(#clip-174)"><text xml:space="preserve" font-family="Helvetica" font-size="73.9" fill="#000000" transform="matrix(1.00, 0.00, -0.00, -1.00, 105.0, 628.0)">W</text><text xml:space="preserve" font-family="Helvetica" font-size="73.9" fill="#000000" transform="matrix(1.00, 0.00, -0.00, -1.00, 174.8, 628.0)">h</text><text xml:space="preserve" font-family="Helvetica" font-size="73.9" fill="#000000" transform="matrix(1.00, 0.00, -0.00, -1.00, 215.9, 628.0)">e</text><text xml:space="preserve" font-family="Helvetica" font-size="73.9" fill="#000000" transform="matrix(1.00, 0.00, -0.00, -1.00, 257.0, 628.0)">n</text><text xml:space="preserve" font-family="Helvetica" font-size="73.9" fill="#000000" transform="matrix(1.00, 0.00, -0.00, -1.00, 298.1, 628.0)"> </text><text xml:space="preserve" font-family="Helvetica" font-size="73.9" fill="#000000" transform="matrix(1.00, 0.00, -0.00, -1.00, 318.7, 628.0)">t</text><text xml:space="preserve" font-family="Helvetica" font-size="73.9" fill="#000000" transform="matrix(1.00, 0.00, -0.00, -1.00, 339.2, 628.0)">o</text><text xml:space="preserve" font-family="Helvetica" font-size="73.9" fill="#000000" transform="matrix(1.00, 0.00, -0.00, -1.00, 380.3, 628.0)"> </text><text xml:space="preserve" font-family="Helvetica" font-size="73.9" fill="#000000" transform="matrix(1.00, 0.00, -0.00, -1.00, 400.8, 628.0)">u</text><text xml:space="preserve" font-family="Helvetica" font-size="73.9" fill="#000000" transform="matrix(1.00, 0.00, -0.00, -1.00, 441.9, 628.0)">s</text><text xml:space="preserve" font-family="Helvetica" font-size="73.9" fill="#000000" transform="matrix(1.00, 0.00, -0.00, -1.00, 478.9, 628.0)">e</text><text xml:space="preserve" font-family="Helvetica" font-size="73.9" fill="#000000" transform="matrix(1.00, 0.00, -0.00, -1.00, 520.0, 628.0)"> </text><text xml:space="preserve" font-family="Helvetica" font-size="73.9" fill="#000000" transform="matrix(1.00, 0.00, -0.00, -1.00, 540.6, 628.0)">J</text><text xml:space="preserve" font-family="Helvetica" font-size="73.9" fill="#000000" transform="matrix(1.00, 0.00, -0.00, -1.00, 577.5, 628.0)">u</text><text xml:space="preserve" font-family="Helvetica" font-size="73.9" fill="#000000" transform="matrix(1.00, 0.00, -0.00, -1.00, 618.6, 628.0)">p</text><text xml:space="preserve" font-family="Helvetica" font-size="73.9" fill="#000000" transform="matrix(1.00, 0.00, -0.00, -1.00, 659.8, 628.0)">y</text><text xml:space="preserve" font-family="Helvetica" font-size="73.9" fill="#000000" transform="matrix(1.00, 0.00, -0.00, -1.00, 696.7, 628.0)">t</text><text xml:space="preserve" font-family="Helvetica" font-size="73.9" fill="#000000" transform="matrix(1.00, 0.00, -0.00, -1.00, 717.3, 628.0)">e</text><text xml:space="preserve" font-family="Helvetica" font-size="73.9" fill="#000000" transform="matrix(1.00, 0.00, -0.00, -1.00, 758.4, 628.0)">r</text><text xml:space="preserve" font-family="Helvetica" font-size="73.9" fill="#000000" transform="matrix(1.00, 0.00, -0.00, -1.00, 783.0, 628.0)">H</text><text xml:space="preserve" font-family="Helvetica" font-size="73.9" fill="#000000" transform="matrix(1.00, 0.00, -0.00, -1.00, 836.4, 628.0)">u</text><text xml:space="preserve" font-family="Helvetica" font-size="73.9" fill="#000000" transform="matrix(1.00, 0.00, -0.00, -1.00, 877.5, 628.0)">b</text></g></g><text xml:space="preserve" font-family="Helvetica-Light" font-size="25.9" fill="#000000" transform="matrix(1.00, 0.00, -0.00, -1.00, 97.1, 517.4)">•</text><text xml:space="preserve" font-family="Helvetica-Light" font-size="34.5" fill="#000000" transform="matrix(1.00, 0.00, -0.00, -1.00, 131.0, 514.0)">A</text><text xml:space="preserve" font-family="Helvetica-Light" font-size="34.5" fill="#000000" transform="matrix(1.00, 0.00, -0.00, -1.00, 154.0, 514.0)"> </text><text xml:space="preserve" font-family="Helvetica-Light" font-size="34.5" fill="#000000" transform="matrix(1.00, 0.00, -0.00, -1.00, 163.6, 514.0)">c</text><text xml:space="preserve" font-family="Helvetica-Light" font-size="34.5" fill="#000000" transform="matrix(1.00, 0.00, -0.00, -1.00, 182.8, 514.0)">l</text><text xml:space="preserve" font-family="Helvetica-Light" font-size="34.5" fill="#000000" transform="matrix(1.00, 0.00, -0.00, -1.00, 190.4, 514.0)">a</text><text xml:space="preserve" font-family="Helvetica-Light" font-size="34.5" fill="#000000" transform="matrix(1.00, 0.00, -0.00, -1.00, 209.6, 514.0)">s</text><text xml:space="preserve" font-family="Helvetica-Light" font-size="34.5" fill="#000000" transform="matrix(1.00, 0.00, -0.00, -1.00, 226.9, 514.0)">s</text><text xml:space="preserve" font-family="Helvetica-Light" font-size="34.5" fill="#000000" transform="matrix(1.00, 0.00, -0.00, -1.00, 244.1, 514.0)"> </text><text xml:space="preserve" font-family="Helvetica-Light" font-size="34.5" fill="#000000" transform="matrix(1.00, 0.00, -0.00, -1.00, 253.7, 514.0)">w</text><text xml:space="preserve" font-family="Helvetica-Light" font-size="34.5" fill="#000000" transform="matrix(1.00, 0.00, -0.00, -1.00, 278.6, 514.0)">h</text><text xml:space="preserve" font-family="Helvetica-Light" font-size="34.5" fill="#000000" transform="matrix(1.00, 0.00, -0.00, -1.00, 297.8, 514.0)">e</text><text xml:space="preserve" font-family="Helvetica-Light" font-size="34.5" fill="#000000" transform="matrix(1.00, 0.00, -0.00, -1.00, 317.0, 514.0)">r</text><text xml:space="preserve" font-family="Helvetica-Light" font-size="34.5" fill="#000000" transform="matrix(1.00, 0.00, -0.00, -1.00, 327.9, 514.0)">e</text><text xml:space="preserve" font-family="Helvetica-Light" font-size="34.5" fill="#000000" transform="matrix(1.00, 0.00, -0.00, -1.00, 347.0, 514.0)"> </text><text xml:space="preserve" font-family="Helvetica-Light" font-size="34.5" fill="#000000" transform="matrix(1.00, 0.00, -0.00, -1.00, 356.6, 514.0)">s</text><text xml:space="preserve" font-family="Helvetica-Light" font-size="34.5" fill="#000000" transform="matrix(1.00, 0.00, -0.00, -1.00, 373.9, 514.0)">t</text><text xml:space="preserve" font-family="Helvetica-Light" font-size="34.5" fill="#000000" transform="matrix(1.00, 0.00, -0.00, -1.00, 383.5, 514.0)">u</text><text xml:space="preserve" font-family="Helvetica-Light" font-size="34.5" fill="#000000" transform="matrix(1.00, 0.00, -0.00, -1.00, 402.7, 514.0)">d</text><text xml:space="preserve" font-family="Helvetica-Light" font-size="34.5" fill="#000000" transform="matrix(1.00, 0.00, -0.00, -1.00, 423.7, 514.0)">e</text><text xml:space="preserve" font-family="Helvetica-Light" font-size="34.5" fill="#000000" transform="matrix(1.00, 0.00, -0.00, -1.00, 442.9, 514.0)">n</text><text xml:space="preserve" font-family="Helvetica-Light" font-size="34.5" fill="#000000" transform="matrix(1.00, 0.00, -0.00, -1.00, 462.1, 514.0)">t</text><text xml:space="preserve" font-family="Helvetica-Light" font-size="34.5" fill="#000000" transform="matrix(1.00, 0.00, -0.00, -1.00, 471.7, 514.0)">s</text><text xml:space="preserve" font-family="Helvetica-Light" font-size="34.5" fill="#000000" transform="matrix(1.00, 0.00, -0.00, -1.00, 488.9, 514.0)"> </text><text xml:space="preserve" font-family="Helvetica-Light" font-size="34.5" fill="#000000" transform="matrix(1.00, 0.00, -0.00, -1.00, 498.5, 514.0)">c</text><text xml:space="preserve" font-family="Helvetica-Light" font-size="34.5" fill="#000000" transform="matrix(1.00, 0.00, -0.00, -1.00, 517.7, 514.0)">a</text><text xml:space="preserve" font-family="Helvetica-Light" font-size="34.5" fill="#000000" transform="matrix(1.00, 0.00, -0.00, -1.00, 536.9, 514.0)">n</text><text xml:space="preserve" font-family="Helvetica-Light" font-size="34.5" fill="#000000" transform="matrix(1.00, 0.00, -0.00, -1.00, 556.1, 514.0)"> </text><text xml:space="preserve" font-family="Helvetica-Light" font-size="34.5" fill="#000000" transform="matrix(1.00, 0.00, -0.00, -1.00, 565.7, 514.0)">d</text><text xml:space="preserve" font-family="Helvetica-Light" font-size="34.5" fill="#000000" transform="matrix(1.00, 0.00, -0.00, -1.00, 586.7, 514.0)">o</text><text xml:space="preserve" font-family="Helvetica-Light" font-size="34.5" fill="#000000" transform="matrix(1.00, 0.00, -0.00, -1.00, 605.9, 514.0)"> </text><text xml:space="preserve" font-family="Helvetica-Light" font-size="34.5" fill="#000000" transform="matrix(1.00, 0.00, -0.00, -1.00, 615.5, 514.0)">h</text><text xml:space="preserve" font-family="Helvetica-Light" font-size="34.5" fill="#000000" transform="matrix(1.00, 0.00, -0.00, -1.00, 634.7, 514.0)">o</text><text xml:space="preserve" font-family="Helvetica-Light" font-size="34.5" fill="#000000" transform="matrix(1.00, 0.00, -0.00, -1.00, 653.9, 514.0)">m</text><text xml:space="preserve" font-family="Helvetica-Light" font-size="34.5" fill="#000000" transform="matrix(1.00, 0.00, -0.00, -1.00, 682.6, 514.0)">e</text><text xml:space="preserve" font-family="Helvetica-Light" font-size="34.5" fill="#000000" transform="matrix(1.00, 0.00, -0.00, -1.00, 701.8, 514.0)">w</text><text xml:space="preserve" font-family="Helvetica-Light" font-size="34.5" fill="#000000" transform="matrix(1.00, 0.00, -0.00, -1.00, 726.7, 514.0)">o</text><text xml:space="preserve" font-family="Helvetica-Light" font-size="34.5" fill="#000000" transform="matrix(1.00, 0.00, -0.00, -1.00, 745.9, 514.0)">r</text><text xml:space="preserve" font-family="Helvetica-Light" font-size="34.5" fill="#000000" transform="matrix(1.00, 0.00, -0.00, -1.00, 757.4, 514.0)">k</text><text xml:space="preserve" font-family="Helvetica-Light" font-size="34.5" fill="#000000" transform="matrix(1.00, 0.00, -0.00, -1.00, 774.6, 514.0)"> </text><text xml:space="preserve" font-family="Helvetica-Light" font-size="34.5" fill="#000000" transform="matrix(1.00, 0.00, -0.00, -1.00, 784.2, 514.0)">(</text><text xml:space="preserve" font-family="Helvetica-Light" font-size="34.5" fill="#000000" transform="matrix(1.00, 0.00, -0.00, -1.00, 795.7, 514.0)">n</text><text xml:space="preserve" font-family="Helvetica-Light" font-size="34.5" fill="#000000" transform="matrix(1.00, 0.00, -0.00, -1.00, 814.9, 514.0)">b</text><text xml:space="preserve" font-family="Helvetica-Light" font-size="34.5" fill="#000000" transform="matrix(1.00, 0.00, -0.00, -1.00, 836.0, 514.0)">g</text><text xml:space="preserve" font-family="Helvetica-Light" font-size="34.5" fill="#000000" transform="matrix(1.00, 0.00, -0.00, -1.00, 857.1, 514.0)">r</text><text xml:space="preserve" font-family="Helvetica-Light" font-size="34.5" fill="#000000" transform="matrix(1.00, 0.00, -0.00, -1.00, 868.5, 514.0)">a</text><text xml:space="preserve" font-family="Helvetica-Light" font-size="34.5" fill="#000000" transform="matrix(1.00, 0.00, -0.00, -1.00, 887.7, 514.0)">d</text><text xml:space="preserve" font-family="Helvetica-Light" font-size="34.5" fill="#000000" transform="matrix(1.00, 0.00, -0.00, -1.00, 908.8, 514.0)">e</text><text xml:space="preserve" font-family="Helvetica-Light" font-size="34.5" fill="#000000" transform="matrix(1.00, 0.00, -0.00, -1.00, 928.0, 514.0)">r</text><text xml:space="preserve" font-family="Helvetica-Light" font-size="34.5" fill="#000000" transform="matrix(1.00, 0.00, -0.00, -1.00, 939.5, 514.0)">)</text><text xml:space="preserve" font-family="Helvetica-Light" font-size="25.9" fill="#000000" transform="matrix(1.00, 0.00, -0.00, -1.00, 97.1, 434.7)">•</text><text xml:space="preserve" font-family="Helvetica-Light" font-size="34.5" fill="#000000" transform="matrix(1.00, 0.00, -0.00, -1.00, 131.0, 431.0)">A</text><text xml:space="preserve" font-family="Helvetica-Light" font-size="34.5" fill="#000000" transform="matrix(1.00, 0.00, -0.00, -1.00, 154.0, 431.0)"> </text><text xml:space="preserve" font-family="Helvetica-Light" font-size="34.5" fill="#000000" transform="matrix(1.00, 0.00, -0.00, -1.00, 163.6, 431.0)">s</text><text xml:space="preserve" font-family="Helvetica-Light" font-size="34.5" fill="#000000" transform="matrix(1.00, 0.00, -0.00, -1.00, 180.9, 431.0)">h</text><text xml:space="preserve" font-family="Helvetica-Light" font-size="34.5" fill="#000000" transform="matrix(1.00, 0.00, -0.00, -1.00, 200.0, 431.0)">o</text><text xml:space="preserve" font-family="Helvetica-Light" font-size="34.5" fill="#000000" transform="matrix(1.00, 0.00, -0.00, -1.00, 219.2, 431.0)">r</text><text xml:space="preserve" font-family="Helvetica-Light" font-size="34.5" fill="#000000" transform="matrix(1.00, 0.00, -0.00, -1.00, 231.3, 431.0)">t</text><text xml:space="preserve" font-family="Helvetica-Light" font-size="34.5" fill="#000000" transform="matrix(1.00, 0.00, -0.00, -1.00, 240.9, 431.0)">-</text><text xml:space="preserve" font-family="Helvetica-Light" font-size="34.5" fill="#000000" transform="matrix(1.00, 0.00, -0.00, -1.00, 252.4, 431.0)">l</text><text xml:space="preserve" font-family="Helvetica-Light" font-size="34.5" fill="#000000" transform="matrix(1.00, 0.00, -0.00, -1.00, 260.1, 431.0)">i</text><text xml:space="preserve" font-family="Helvetica-Light" font-size="34.5" fill="#000000" transform="matrix(1.00, 0.00, -0.00, -1.00, 267.7, 431.0)">v</text><text xml:space="preserve" font-family="Helvetica-Light" font-size="34.5" fill="#000000" transform="matrix(1.00, 0.00, -0.00, -1.00, 285.0, 431.0)">e</text><text xml:space="preserve" font-family="Helvetica-Light" font-size="34.5" fill="#000000" transform="matrix(1.00, 0.00, -0.00, -1.00, 304.2, 431.0)">d</text><text xml:space="preserve" font-family="Helvetica-Light" font-size="34.5" fill="#000000" transform="matrix(1.00, 0.00, -0.00, -1.00, 325.2, 431.0)"> </text><text xml:space="preserve" font-family="Helvetica-Light" font-size="34.5" fill="#000000" transform="matrix(1.00, 0.00, -0.00, -1.00, 334.8, 431.0)">w</text><text xml:space="preserve" font-family="Helvetica-Light" font-size="34.5" fill="#000000" transform="matrix(1.00, 0.00, -0.00, -1.00, 359.7, 431.0)">o</text><text xml:space="preserve" font-family="Helvetica-Light" font-size="34.5" fill="#000000" transform="matrix(1.00, 0.00, -0.00, -1.00, 378.9, 431.0)">r</text><text xml:space="preserve" font-family="Helvetica-Light" font-size="34.5" fill="#000000" transform="matrix(1.00, 0.00, -0.00, -1.00, 390.4, 431.0)">k</text><text xml:space="preserve" font-family="Helvetica-Light" font-size="34.5" fill="#000000" transform="matrix(1.00, 0.00, -0.00, -1.00, 407.7, 431.0)">s</text><text xml:space="preserve" font-family="Helvetica-Light" font-size="34.5" fill="#000000" transform="matrix(1.00, 0.00, -0.00, -1.00, 424.9, 431.0)">h</text><text xml:space="preserve" font-family="Helvetica-Light" font-size="34.5" fill="#000000" transform="matrix(1.00, 0.00, -0.00, -1.00, 444.1, 431.0)">o</text><text xml:space="preserve" font-family="Helvetica-Light" font-size="34.5" fill="#000000" transform="matrix(1.00, 0.00, -0.00, -1.00, 463.3, 431.0)">p</text><text xml:space="preserve" font-family="Helvetica-Light" font-size="34.5" fill="#000000" transform="matrix(1.00, 0.00, -0.00, -1.00, 484.3, 431.0)">,</text><text xml:space="preserve" font-family="Helvetica-Light" font-size="34.5" fill="#000000" transform="matrix(1.00, 0.00, -0.00, -1.00, 493.9, 431.0)"> </text><text xml:space="preserve" font-family="Helvetica-Light" font-size="34.5" fill="#000000" transform="matrix(1.00, 0.00, -0.00, -1.00, 503.5, 431.0)">e</text><text xml:space="preserve" font-family="Helvetica-Light" font-size="34.5" fill="#000000" transform="matrix(1.00, 0.00, -0.00, -1.00, 522.7, 431.0)">s</text><text xml:space="preserve" font-family="Helvetica-Light" font-size="34.5" fill="#000000" transform="matrix(1.00, 0.00, -0.00, -1.00, 540.0, 431.0)">p</text><text xml:space="preserve" font-family="Helvetica-Light" font-size="34.5" fill="#000000" transform="matrix(1.00, 0.00, -0.00, -1.00, 561.0, 431.0)">e</text><text xml:space="preserve" font-family="Helvetica-Light" font-size="34.5" fill="#000000" transform="matrix(1.00, 0.00, -0.00, -1.00, 580.2, 431.0)">c</text><text xml:space="preserve" font-family="Helvetica-Light" font-size="34.5" fill="#000000" transform="matrix(1.00, 0.00, -0.00, -1.00, 599.4, 431.0)">i</text><text xml:space="preserve" font-family="Helvetica-Light" font-size="34.5" fill="#000000" transform="matrix(1.00, 0.00, -0.00, -1.00, 607.1, 431.0)">a</text><text xml:space="preserve" font-family="Helvetica-Light" font-size="34.5" fill="#000000" transform="matrix(1.00, 0.00, -0.00, -1.00, 626.2, 431.0)">l</text><text xml:space="preserve" font-family="Helvetica-Light" font-size="34.5" fill="#000000" transform="matrix(1.00, 0.00, -0.00, -1.00, 633.9, 431.0)">l</text><text xml:space="preserve" font-family="Helvetica-Light" font-size="34.5" fill="#000000" transform="matrix(1.00, 0.00, -0.00, -1.00, 641.6, 431.0)">y</text><text xml:space="preserve" font-family="Helvetica-Light" font-size="34.5" fill="#000000" transform="matrix(1.00, 0.00, -0.00, -1.00, 658.8, 431.0)"> </text><text xml:space="preserve" font-family="Helvetica-Light" font-size="34.5" fill="#000000" transform="matrix(1.00, 0.00, -0.00, -1.00, 668.4, 431.0)">i</text><text xml:space="preserve" font-family="Helvetica-Light" font-size="34.5" fill="#000000" transform="matrix(1.00, 0.00, -0.00, -1.00, 676.1, 431.0)">f</text><text xml:space="preserve" font-family="Helvetica-Light" font-size="34.5" fill="#000000" transform="matrix(1.00, 0.00, -0.00, -1.00, 685.7, 431.0)"> </text><text xml:space="preserve" font-family="Helvetica-Light" font-size="34.5" fill="#000000" transform="matrix(1.00, 0.00, -0.00, -1.00, 695.2, 431.0)">i</text><text xml:space="preserve" font-family="Helvetica-Light" font-size="34.5" fill="#000000" transform="matrix(1.00, 0.00, -0.00, -1.00, 702.9, 431.0)">n</text><text xml:space="preserve" font-family="Helvetica-Light" font-size="34.5" fill="#000000" transform="matrix(1.00, 0.00, -0.00, -1.00, 722.1, 431.0)">s</text><text xml:space="preserve" font-family="Helvetica-Light" font-size="34.5" fill="#000000" transform="matrix(1.00, 0.00, -0.00, -1.00, 739.3, 431.0)">t</text><text xml:space="preserve" font-family="Helvetica-Light" font-size="34.5" fill="#000000" transform="matrix(1.00, 0.00, -0.00, -1.00, 748.9, 431.0)">a</text><text xml:space="preserve" font-family="Helvetica-Light" font-size="34.5" fill="#000000" transform="matrix(1.00, 0.00, -0.00, -1.00, 768.1, 431.0)">l</text><text xml:space="preserve" font-family="Helvetica-Light" font-size="34.5" fill="#000000" transform="matrix(1.00, 0.00, -0.00, -1.00, 775.8, 431.0)">l</text><text xml:space="preserve" font-family="Helvetica-Light" font-size="34.5" fill="#000000" transform="matrix(1.00, 0.00, -0.00, -1.00, 783.4, 431.0)">a</text><text xml:space="preserve" font-family="Helvetica-Light" font-size="34.5" fill="#000000" transform="matrix(1.00, 0.00, -0.00, -1.00, 802.6, 431.0)">t</text><text xml:space="preserve" font-family="Helvetica-Light" font-size="34.5" fill="#000000" transform="matrix(1.00, 0.00, -0.00, -1.00, 812.2, 431.0)">i</text><text xml:space="preserve" font-family="Helvetica-Light" font-size="34.5" fill="#000000" transform="matrix(1.00, 0.00, -0.00, -1.00, 819.9, 431.0)">o</text><text xml:space="preserve" font-family="Helvetica-Light" font-size="34.5" fill="#000000" transform="matrix(1.00, 0.00, -0.00, -1.00, 839.0, 431.0)">n</text><text xml:space="preserve" font-family="Helvetica-Light" font-size="34.5" fill="#000000" transform="matrix(1.00, 0.00, -0.00, -1.00, 858.2, 431.0)"> </text><text xml:space="preserve" font-family="Helvetica-Light" font-size="34.5" fill="#000000" transform="matrix(1.00, 0.00, -0.00, -1.00, 867.8, 431.0)">i</text><text xml:space="preserve" font-family="Helvetica-Light" font-size="34.5" fill="#000000" transform="matrix(1.00, 0.00, -0.00, -1.00, 875.5, 431.0)">s</text><text xml:space="preserve" font-family="Helvetica-Light" font-size="34.5" fill="#000000" transform="matrix(1.00, 0.00, -0.00, -1.00, 892.7, 431.0)"> </text><text xml:space="preserve" font-family="Helvetica-Light" font-size="34.5" fill="#000000" transform="matrix(1.00, 0.00, -0.00, -1.00, 131.0, 389.0)">h</text><text xml:space="preserve" font-family="Helvetica-Light" font-size="34.5" fill="#000000" transform="matrix(1.00, 0.00, -0.00, -1.00, 150.2, 389.0)">a</text><text xml:space="preserve" font-family="Helvetica-Light" font-size="34.5" fill="#000000" transform="matrix(1.00, 0.00, -0.00, -1.00, 169.4, 389.0)">r</text><text xml:space="preserve" font-family="Helvetica-Light" font-size="34.5" fill="#000000" transform="matrix(1.00, 0.00, -0.00, -1.00, 180.2, 389.0)">d</text><text xml:space="preserve" font-family="Helvetica-Light" font-size="25.9" fill="#000000" transform="matrix(1.00, 0.00, -0.00, -1.00, 97.1, 309.9)">•</text><text xml:space="preserve" font-family="Helvetica-Light" font-size="34.5" fill="#000000" transform="matrix(1.00, 0.00, -0.00, -1.00, 131.0, 306.0)">A</text><text xml:space="preserve" font-family="Helvetica-Light" font-size="34.5" fill="#000000" transform="matrix(1.00, 0.00, -0.00, -1.00, 154.0, 306.0)"> </text><text xml:space="preserve" font-family="Helvetica-Light" font-size="34.5" fill="#000000" transform="matrix(1.00, 0.00, -0.00, -1.00, 163.6, 306.0)">r</text><text xml:space="preserve" font-family="Helvetica-Light" font-size="34.5" fill="#000000" transform="matrix(1.00, 0.00, -0.00, -1.00, 174.5, 306.0)">e</text><text xml:space="preserve" font-family="Helvetica-Light" font-size="34.5" fill="#000000" transform="matrix(1.00, 0.00, -0.00, -1.00, 193.7, 306.0)">s</text><text xml:space="preserve" font-family="Helvetica-Light" font-size="34.5" fill="#000000" transform="matrix(1.00, 0.00, -0.00, -1.00, 210.9, 306.0)">e</text><text xml:space="preserve" font-family="Helvetica-Light" font-size="34.5" fill="#000000" transform="matrix(1.00, 0.00, -0.00, -1.00, 230.1, 306.0)">a</text><text xml:space="preserve" font-family="Helvetica-Light" font-size="34.5" fill="#000000" transform="matrix(1.00, 0.00, -0.00, -1.00, 249.3, 306.0)">r</text><text xml:space="preserve" font-family="Helvetica-Light" font-size="34.5" fill="#000000" transform="matrix(1.00, 0.00, -0.00, -1.00, 260.1, 306.0)">c</text><text xml:space="preserve" font-family="Helvetica-Light" font-size="34.5" fill="#000000" transform="matrix(1.00, 0.00, -0.00, -1.00, 279.3, 306.0)">h</text><text xml:space="preserve" font-family="Helvetica-Light" font-size="34.5" fill="#000000" transform="matrix(1.00, 0.00, -0.00, -1.00, 298.5, 306.0)"> </text><text xml:space="preserve" font-family="Helvetica-Light" font-size="34.5" fill="#000000" transform="matrix(1.00, 0.00, -0.00, -1.00, 308.1, 306.0)">g</text><text xml:space="preserve" font-family="Helvetica-Light" font-size="34.5" fill="#000000" transform="matrix(1.00, 0.00, -0.00, -1.00, 329.2, 306.0)">r</text><text xml:space="preserve" font-family="Helvetica-Light" font-size="34.5" fill="#000000" transform="matrix(1.00, 0.00, -0.00, -1.00, 340.0, 306.0)">o</text><text xml:space="preserve" font-family="Helvetica-Light" font-size="34.5" fill="#000000" transform="matrix(1.00, 0.00, -0.00, -1.00, 359.2, 306.0)">u</text><text xml:space="preserve" font-family="Helvetica-Light" font-size="34.5" fill="#000000" transform="matrix(1.00, 0.00, -0.00, -1.00, 378.4, 306.0)">p</text><text xml:space="preserve" font-family="Helvetica-Light" font-size="34.5" fill="#000000" transform="matrix(1.00, 0.00, -0.00, -1.00, 399.5, 306.0)"> </text><text xml:space="preserve" font-family="Helvetica-Light" font-size="34.5" fill="#000000" transform="matrix(1.00, 0.00, -0.00, -1.00, 409.1, 306.0)">w</text><text xml:space="preserve" font-family="Helvetica-Light" font-size="34.5" fill="#000000" transform="matrix(1.00, 0.00, -0.00, -1.00, 434.0, 306.0)">i</text><text xml:space="preserve" font-family="Helvetica-Light" font-size="34.5" fill="#000000" transform="matrix(1.00, 0.00, -0.00, -1.00, 441.6, 306.0)">t</text><text xml:space="preserve" font-family="Helvetica-Light" font-size="34.5" fill="#000000" transform="matrix(1.00, 0.00, -0.00, -1.00, 451.2, 306.0)">h</text><text xml:space="preserve" font-family="Helvetica-Light" font-size="34.5" fill="#000000" transform="matrix(1.00, 0.00, -0.00, -1.00, 470.4, 306.0)"> </text><text xml:space="preserve" font-family="Helvetica-Light" font-size="34.5" fill="#000000" transform="matrix(1.00, 0.00, -0.00, -1.00, 480.0, 306.0)">a</text><text xml:space="preserve" font-family="Helvetica-Light" font-size="34.5" fill="#000000" transform="matrix(1.00, 0.00, -0.00, -1.00, 499.2, 306.0)"> </text><text xml:space="preserve" font-family="Helvetica-Light" font-size="34.5" fill="#000000" transform="matrix(1.00, 0.00, -0.00, -1.00, 508.8, 306.0)">s</text><text xml:space="preserve" font-family="Helvetica-Light" font-size="34.5" fill="#000000" transform="matrix(1.00, 0.00, -0.00, -1.00, 526.0, 306.0)">h</text><text xml:space="preserve" font-family="Helvetica-Light" font-size="34.5" fill="#000000" transform="matrix(1.00, 0.00, -0.00, -1.00, 545.2, 306.0)">a</text><text xml:space="preserve" font-family="Helvetica-Light" font-size="34.5" fill="#000000" transform="matrix(1.00, 0.00, -0.00, -1.00, 564.4, 306.0)">r</text><text xml:space="preserve" font-family="Helvetica-Light" font-size="34.5" fill="#000000" transform="matrix(1.00, 0.00, -0.00, -1.00, 575.3, 306.0)">e</text><text xml:space="preserve" font-family="Helvetica-Light" font-size="34.5" fill="#000000" transform="matrix(1.00, 0.00, -0.00, -1.00, 594.4, 306.0)">d</text><text xml:space="preserve" font-family="Helvetica-Light" font-size="34.5" fill="#000000" transform="matrix(1.00, 0.00, -0.00, -1.00, 615.5, 306.0)"> </text><text xml:space="preserve" font-family="Helvetica-Light" font-size="34.5" fill="#000000" transform="matrix(1.00, 0.00, -0.00, -1.00, 625.1, 306.0)">w</text><text xml:space="preserve" font-family="Helvetica-Light" font-size="34.5" fill="#000000" transform="matrix(1.00, 0.00, -0.00, -1.00, 650.0, 306.0)">o</text><text xml:space="preserve" font-family="Helvetica-Light" font-size="34.5" fill="#000000" transform="matrix(1.00, 0.00, -0.00, -1.00, 669.2, 306.0)">r</text><text xml:space="preserve" font-family="Helvetica-Light" font-size="34.5" fill="#000000" transform="matrix(1.00, 0.00, -0.00, -1.00, 680.7, 306.0)">k</text><text xml:space="preserve" font-family="Helvetica-Light" font-size="34.5" fill="#000000" transform="matrix(1.00, 0.00, -0.00, -1.00, 697.9, 306.0)">s</text><text xml:space="preserve" font-family="Helvetica-Light" font-size="34.5" fill="#000000" transform="matrix(1.00, 0.00, -0.00, -1.00, 715.2, 306.0)">t</text><text xml:space="preserve" font-family="Helvetica-Light" font-size="34.5" fill="#000000" transform="matrix(1.00, 0.00, -0.00, -1.00, 724.8, 306.0)">a</text><text xml:space="preserve" font-family="Helvetica-Light" font-size="34.5" fill="#000000" transform="matrix(1.00, 0.00, -0.00, -1.00, 744.0, 306.0)">t</text><text xml:space="preserve" font-family="Helvetica-Light" font-size="34.5" fill="#000000" transform="matrix(1.00, 0.00, -0.00, -1.00, 753.6, 306.0)">i</text><text xml:space="preserve" font-family="Helvetica-Light" font-size="34.5" fill="#000000" transform="matrix(1.00, 0.00, -0.00, -1.00, 761.2, 306.0)">o</text><text xml:space="preserve" font-family="Helvetica-Light" font-size="34.5" fill="#000000" transform="matrix(1.00, 0.00, -0.00, -1.00, 780.4, 306.0)">n</text><text xml:space="preserve" font-family="Helvetica-Light" font-size="34.5" fill="#000000" transform="matrix(1.00, 0.00, -0.00, -1.00, 799.6, 306.0)"> </text><text xml:space="preserve" font-family="Helvetica-Light" font-size="34.5" fill="#000000" transform="matrix(1.00, 0.00, -0.00, -1.00, 809.2, 306.0)">o</text><text xml:space="preserve" font-family="Helvetica-Light" font-size="34.5" fill="#000000" transform="matrix(1.00, 0.00, -0.00, -1.00, 828.3, 306.0)">r</text><text xml:space="preserve" font-family="Helvetica-Light" font-size="34.5" fill="#000000" transform="matrix(1.00, 0.00, -0.00, -1.00, 839.8, 306.0)"> </text><text xml:space="preserve" font-family="Helvetica-Light" font-size="34.5" fill="#000000" transform="matrix(1.00, 0.00, -0.00, -1.00, 849.4, 306.0)">s</text><text xml:space="preserve" font-family="Helvetica-Light" font-size="34.5" fill="#000000" transform="matrix(1.00, 0.00, -0.00, -1.00, 866.7, 306.0)">m</text><text xml:space="preserve" font-family="Helvetica-Light" font-size="34.5" fill="#000000" transform="matrix(1.00, 0.00, -0.00, -1.00, 895.4, 306.0)">a</text><text xml:space="preserve" font-family="Helvetica-Light" font-size="34.5" fill="#000000" transform="matrix(1.00, 0.00, -0.00, -1.00, 914.6, 306.0)">l</text><text xml:space="preserve" font-family="Helvetica-Light" font-size="34.5" fill="#000000" transform="matrix(1.00, 0.00, -0.00, -1.00, 922.3, 306.0)">l</text><text xml:space="preserve" font-family="Helvetica-Light" font-size="34.5" fill="#000000" transform="matrix(1.00, 0.00, -0.00, -1.00, 929.9, 306.0)"> </text><text xml:space="preserve" font-family="Helvetica-Light" font-size="34.5" fill="#000000" transform="matrix(1.00, 0.00, -0.00, -1.00, 131.0, 264.0)">c</text><text xml:space="preserve" font-family="Helvetica-Light" font-size="34.5" fill="#000000" transform="matrix(1.00, 0.00, -0.00, -1.00, 150.2, 264.0)">l</text><text xml:space="preserve" font-family="Helvetica-Light" font-size="34.5" fill="#000000" transform="matrix(1.00, 0.00, -0.00, -1.00, 157.8, 264.0)">u</text><text xml:space="preserve" font-family="Helvetica-Light" font-size="34.5" fill="#000000" transform="matrix(1.00, 0.00, -0.00, -1.00, 177.0, 264.0)">s</text><text xml:space="preserve" font-family="Helvetica-Light" font-size="34.5" fill="#000000" transform="matrix(1.00, 0.00, -0.00, -1.00, 194.3, 264.0)">t</text><text xml:space="preserve" font-family="Helvetica-Light" font-size="34.5" fill="#000000" transform="matrix(1.00, 0.00, -0.00, -1.00, 203.9, 264.0)">e</text><text xml:space="preserve" font-family="Helvetica-Light" font-size="34.5" fill="#000000" transform="matrix(1.00, 0.00, -0.00, -1.00, 223.0, 264.0)">r</text><text xml:space="preserve" font-family="Helvetica-Light" font-size="25.9" fill="#000000" transform="matrix(1.00, 0.00, -0.00, -1.00, 97.1, 185.2)">•</text><text xml:space="preserve" font-family="Helvetica-Light" font-size="34.5" fill="#000000" transform="matrix(1.00, 0.00, -0.00, -1.00, 131.0, 182.0)">O</text><text xml:space="preserve" font-family="Helvetica-Light" font-size="34.5" fill="#000000" transform="matrix(1.00, 0.00, -0.00, -1.00, 157.8, 182.0)">n</text><text xml:space="preserve" font-family="Helvetica-Light" font-size="34.5" fill="#000000" transform="matrix(1.00, 0.00, -0.00, -1.00, 177.0, 182.0)">-</text><text xml:space="preserve" font-family="Helvetica-Light" font-size="34.5" fill="#000000" transform="matrix(1.00, 0.00, -0.00, -1.00, 188.5, 182.0)">s</text><text xml:space="preserve" font-family="Helvetica-Light" font-size="34.5" fill="#000000" transform="matrix(1.00, 0.00, -0.00, -1.00, 205.8, 182.0)">i</text><text xml:space="preserve" font-family="Helvetica-Light" font-size="34.5" fill="#000000" transform="matrix(1.00, 0.00, -0.00, -1.00, 213.4, 182.0)">t</text><text xml:space="preserve" font-family="Helvetica-Light" font-size="34.5" fill="#000000" transform="matrix(1.00, 0.00, -0.00, -1.00, 223.0, 182.0)">e</text><text xml:space="preserve" font-family="Helvetica-Light" font-size="34.5" fill="#000000" transform="matrix(1.00, 0.00, -0.00, -1.00, 242.2, 182.0)"> </text><text xml:space="preserve" font-family="Helvetica-Light" font-size="34.5" fill="#000000" transform="matrix(1.00, 0.00, -0.00, -1.00, 251.8, 182.0)">c</text><text xml:space="preserve" font-family="Helvetica-Light" font-size="34.5" fill="#000000" transform="matrix(1.00, 0.00, -0.00, -1.00, 271.0, 182.0)">o</text><text xml:space="preserve" font-family="Helvetica-Light" font-size="34.5" fill="#000000" transform="matrix(1.00, 0.00, -0.00, -1.00, 290.1, 182.0)">m</text><text xml:space="preserve" font-family="Helvetica-Light" font-size="34.5" fill="#000000" transform="matrix(1.00, 0.00, -0.00, -1.00, 318.9, 182.0)">p</text><text xml:space="preserve" font-family="Helvetica-Light" font-size="34.5" fill="#000000" transform="matrix(1.00, 0.00, -0.00, -1.00, 340.0, 182.0)">u</text><text xml:space="preserve" font-family="Helvetica-Light" font-size="34.5" fill="#000000" transform="matrix(1.00, 0.00, -0.00, -1.00, 359.1, 182.0)">t</text><text xml:space="preserve" font-family="Helvetica-Light" font-size="34.5" fill="#000000" transform="matrix(1.00, 0.00, -0.00, -1.00, 368.7, 182.0)">i</text><text xml:space="preserve" font-family="Helvetica-Light" font-size="34.5" fill="#000000" transform="matrix(1.00, 0.00, -0.00, -1.00, 376.4, 182.0)">n</text><text xml:space="preserve" font-family="Helvetica-Light" font-size="34.5" fill="#000000" transform="matrix(1.00, 0.00, -0.00, -1.00, 395.6, 182.0)">g</text><text xml:space="preserve" font-family="Helvetica-Light" font-size="34.5" fill="#000000" transform="matrix(1.00, 0.00, -0.00, -1.00, 416.7, 182.0)"> </text><text xml:space="preserve" font-family="Helvetica-Light" font-size="34.5" fill="#000000" transform="matrix(1.00, 0.00, -0.00, -1.00, 426.3, 182.0)">r</text><text xml:space="preserve" font-family="Helvetica-Light" font-size="34.5" fill="#000000" transform="matrix(1.00, 0.00, -0.00, -1.00, 437.1, 182.0)">e</text><text xml:space="preserve" font-family="Helvetica-Light" font-size="34.5" fill="#000000" transform="matrix(1.00, 0.00, -0.00, -1.00, 456.3, 182.0)">s</text><text xml:space="preserve" font-family="Helvetica-Light" font-size="34.5" fill="#000000" transform="matrix(1.00, 0.00, -0.00, -1.00, 473.6, 182.0)">o</text><text xml:space="preserve" font-family="Helvetica-Light" font-size="34.5" fill="#000000" transform="matrix(1.00, 0.00, -0.00, -1.00, 492.7, 182.0)">u</text><text xml:space="preserve" font-family="Helvetica-Light" font-size="34.5" fill="#000000" transform="matrix(1.00, 0.00, -0.00, -1.00, 511.9, 182.0)">r</text><text xml:space="preserve" font-family="Helvetica-Light" font-size="34.5" fill="#000000" transform="matrix(1.00, 0.00, -0.00, -1.00, 522.8, 182.0)">c</text><text xml:space="preserve" font-family="Helvetica-Light" font-size="34.5" fill="#000000" transform="matrix(1.00, 0.00, -0.00, -1.00, 542.0, 182.0)">e</text><text xml:space="preserve" font-family="Helvetica-Light" font-size="34.5" fill="#000000" transform="matrix(1.00, 0.00, -0.00, -1.00, 561.1, 182.0)">s</text><text xml:space="preserve" font-family="Helvetica-Light" font-size="34.5" fill="#000000" transform="matrix(1.00, 0.00, -0.00, -1.00, 578.4, 182.0)"> </text><text xml:space="preserve" font-family="Helvetica-Light" font-size="34.5" fill="#000000" transform="matrix(1.00, 0.00, -0.00, -1.00, 588.0, 182.0)">f</text><text xml:space="preserve" font-family="Helvetica-Light" font-size="34.5" fill="#000000" transform="matrix(1.00, 0.00, -0.00, -1.00, 597.6, 182.0)">o</text><text xml:space="preserve" font-family="Helvetica-Light" font-size="34.5" fill="#000000" transform="matrix(1.00, 0.00, -0.00, -1.00, 616.8, 182.0)">r</text><text xml:space="preserve" font-family="Helvetica-Light" font-size="34.5" fill="#000000" transform="matrix(1.00, 0.00, -0.00, -1.00, 628.2, 182.0)"> </text><text xml:space="preserve" font-family="Helvetica-Light" font-size="34.5" fill="#000000" transform="matrix(1.00, 0.00, -0.00, -1.00, 637.8, 182.0)">r</text><text xml:space="preserve" font-family="Helvetica-Light" font-size="34.5" fill="#000000" transform="matrix(1.00, 0.00, -0.00, -1.00, 648.7, 182.0)">e</text><text xml:space="preserve" font-family="Helvetica-Light" font-size="34.5" fill="#000000" transform="matrix(1.00, 0.00, -0.00, -1.00, 667.9, 182.0)">s</text><text xml:space="preserve" font-family="Helvetica-Light" font-size="34.5" fill="#000000" transform="matrix(1.00, 0.00, -0.00, -1.00, 685.1, 182.0)">e</text><text xml:space="preserve" font-family="Helvetica-Light" font-size="34.5" fill="#000000" transform="matrix(1.00, 0.00, -0.00, -1.00, 704.3, 182.0)">a</text><text xml:space="preserve" font-family="Helvetica-Light" font-size="34.5" fill="#000000" transform="matrix(1.00, 0.00, -0.00, -1.00, 723.5, 182.0)">r</text><text xml:space="preserve" font-family="Helvetica-Light" font-size="34.5" fill="#000000" transform="matrix(1.00, 0.00, -0.00, -1.00, 734.4, 182.0)">c</text><text xml:space="preserve" font-family="Helvetica-Light" font-size="34.5" fill="#000000" transform="matrix(1.00, 0.00, -0.00, -1.00, 753.6, 182.0)">h</text><text xml:space="preserve" font-family="Helvetica-Light" font-size="34.5" fill="#000000" transform="matrix(1.00, 0.00, -0.00, -1.00, 772.7, 182.0)">e</text><text xml:space="preserve" font-family="Helvetica-Light" font-size="34.5" fill="#000000" transform="matrix(1.00, 0.00, -0.00, -1.00, 791.9, 182.0)">r</text><text xml:space="preserve" font-family="Helvetica-Light" font-size="34.5" fill="#000000" transform="matrix(1.00, 0.00, -0.00, -1.00, 803.4, 182.0)">s</text><text xml:space="preserve" font-family="Helvetica-Light" font-size="34.5" fill="#000000" transform="matrix(1.00, 0.00, -0.00, -1.00, 820.7, 182.0)"> </text><text xml:space="preserve" font-family="Helvetica-Light" font-size="34.5" fill="#000000" transform="matrix(1.00, 0.00, -0.00, -1.00, 830.2, 182.0)">a</text><text xml:space="preserve" font-family="Helvetica-Light" font-size="34.5" fill="#000000" transform="matrix(1.00, 0.00, -0.00, -1.00, 849.4, 182.0)">n</text><text xml:space="preserve" font-family="Helvetica-Light" font-size="34.5" fill="#000000" transform="matrix(1.00, 0.00, -0.00, -1.00, 868.6, 182.0)">d</text><text xml:space="preserve" font-family="Helvetica-Light" font-size="34.5" fill="#000000" transform="matrix(1.00, 0.00, -0.00, -1.00, 889.7, 182.0)"> </text><text xml:space="preserve" font-family="Helvetica-Light" font-size="34.5" fill="#000000" transform="matrix(1.00, 0.00, -0.00, -1.00, 131.0, 140.0)">a</text><text xml:space="preserve" font-family="Helvetica-Light" font-size="34.5" fill="#000000" transform="matrix(1.00, 0.00, -0.00, -1.00, 150.2, 140.0)">n</text><text xml:space="preserve" font-family="Helvetica-Light" font-size="34.5" fill="#000000" transform="matrix(1.00, 0.00, -0.00, -1.00, 169.4, 140.0)">a</text><text xml:space="preserve" font-family="Helvetica-Light" font-size="34.5" fill="#000000" transform="matrix(1.00, 0.00, -0.00, -1.00, 188.5, 140.0)">l</text><text xml:space="preserve" font-family="Helvetica-Light" font-size="34.5" fill="#000000" transform="matrix(1.00, 0.00, -0.00, -1.00, 196.2, 140.0)">y</text><text xml:space="preserve" font-family="Helvetica-Light" font-size="34.5" fill="#000000" transform="matrix(1.00, 0.00, -0.00, -1.00, 213.5, 140.0)">s</text><text xml:space="preserve" font-family="Helvetica-Light" font-size="34.5" fill="#000000" transform="matrix(1.00, 0.00, -0.00, -1.00, 230.7, 140.0)">t</text><text xml:space="preserve" font-family="Helvetica-Light" font-size="34.5" fill="#000000" transform="matrix(1.00, 0.00, -0.00, -1.00, 240.3, 140.0)">s</text><text xml:space="preserve" font-family="Helvetica-Light" font-size="34.5" fill="#000000" transform="matrix(1.00, 0.00, -0.00, -1.00, 257.5, 140.0)"> </text><text xml:space="preserve" font-family="Helvetica-Light" font-size="34.5" fill="#000000" transform="matrix(1.00, 0.00, -0.00, -1.00, 267.1, 140.0)">a</text><text xml:space="preserve" font-family="Helvetica-Light" font-size="34.5" fill="#000000" transform="matrix(1.00, 0.00, -0.00, -1.00, 286.3, 140.0)">t</text><text xml:space="preserve" font-family="Helvetica-Light" font-size="34.5" fill="#000000" transform="matrix(1.00, 0.00, -0.00, -1.00, 295.9, 140.0)"> </text><text xml:space="preserve" font-family="Helvetica-Light" font-size="34.5" fill="#000000" transform="matrix(1.00, 0.00, -0.00, -1.00, 305.5, 140.0)">a</text><text xml:space="preserve" font-family="Helvetica-Light" font-size="34.5" fill="#000000" transform="matrix(1.00, 0.00, -0.00, -1.00, 324.7, 140.0)">n</text><text xml:space="preserve" font-family="Helvetica-Light" font-size="34.5" fill="#000000" transform="matrix(1.00, 0.00, -0.00, -1.00, 343.9, 140.0)"> </text><text xml:space="preserve" font-family="Helvetica-Light" font-size="34.5" fill="#000000" transform="matrix(1.00, 0.00, -0.00, -1.00, 353.5, 140.0)">i</text><text xml:space="preserve" font-family="Helvetica-Light" font-size="34.5" fill="#000000" transform="matrix(1.00, 0.00, -0.00, -1.00, 361.1, 140.0)">n</text><text xml:space="preserve" font-family="Helvetica-Light" font-size="34.5" fill="#000000" transform="matrix(1.00, 0.00, -0.00, -1.00, 380.3, 140.0)">s</text><text xml:space="preserve" font-family="Helvetica-Light" font-size="34.5" fill="#000000" transform="matrix(1.00, 0.00, -0.00, -1.00, 397.5, 140.0)">t</text><text xml:space="preserve" font-family="Helvetica-Light" font-size="34.5" fill="#000000" transform="matrix(1.00, 0.00, -0.00, -1.00, 407.1, 140.0)">i</text><text xml:space="preserve" font-family="Helvetica-Light" font-size="34.5" fill="#000000" transform="matrix(1.00, 0.00, -0.00, -1.00, 414.8, 140.0)">t</text><text xml:space="preserve" font-family="Helvetica-Light" font-size="34.5" fill="#000000" transform="matrix(1.00, 0.00, -0.00, -1.00, 424.4, 140.0)">u</text><text xml:space="preserve" font-family="Helvetica-Light" font-size="34.5" fill="#000000" transform="matrix(1.00, 0.00, -0.00, -1.00, 443.6, 140.0)">t</text><text xml:space="preserve" font-family="Helvetica-Light" font-size="34.5" fill="#000000" transform="matrix(1.00, 0.00, -0.00, -1.00, 453.2, 140.0)">i</text><text xml:space="preserve" font-family="Helvetica-Light" font-size="34.5" fill="#000000" transform="matrix(1.00, 0.00, -0.00, -1.00, 460.8, 140.0)">o</text><text xml:space="preserve" font-family="Helvetica-Light" font-size="34.5" fill="#000000" transform="matrix(1.00, 0.00, -0.00, -1.00, 480.0, 140.0)">n</text><text xml:space="preserve" font-family="Futura-Medium" font-size="14.0" fill="#9A958D" transform="matrix(1.00, 0.00, -0.00, -1.00, 504.0, 22.0)">1</text><text xml:space="preserve" font-family="Futura-Medium" font-size="14.0" fill="#9A958D" transform="matrix(1.00, 0.00, -0.00, -1.00, 511.9, 22.0)">8</text></g></svg>