<?xml version="1.0" encoding="UTF-8" standalone="no"?><svg xmlns="http://www.w3.org/2000/svg" xmlns:xlink="http://www.w3.org/1999/xlink" clip-rule="evenodd" stroke-miterlimit="4.00" viewBox="0 0 797 71"><desc>SVG generated by Keynote</desc><defs></defs><g transform="matrix(1.00, 0.00, -0.00, -1.00, 0.0, 71.0)"><text xml:space="preserve" font-family="Helvetica-Light" font-size="25.9" fill="#000000" transform="matrix(1.00, 0.00, -0.00, -1.00, 0.1, 47.7)">•</text><text xml:space="preserve" font-family="Helvetica-Light" font-size="34.5" fill="#000000" transform="matrix(1.00, 0.00, -0.00, -1.00, 34.0, 44.0)">A</text><text xml:space="preserve" font-family="Helvetica-Light" font-size="34.5" fill="#000000" transform="matrix(1.00, 0.00, -0.00, -1.00, 57.0, 44.0)"> </text><text xml:space="preserve" font-family="Helvetica-Light" font-size="34.5" fill="#000000" transform="matrix(1.00, 0.00, -0.00, -1.00, 66.6, 44.0)">s</text><text xml:space="preserve" font-family="Helvetica-Light" font-size="34.5" fill="#000000" transform="matrix(1.00, 0.00, -0.00, -1.00, 83.9, 44.0)">h</text><text xml:space="preserve" font-family="Helvetica-Light" font-size="34.5" fill="#000000" transform="matrix(1.00, 0.00, -0.00, -1.00, 103.0, 44.0)">o</text><text xml:space="preserve" font-family="Helvetica-Light" font-size="34.5" fill="#000000" transform="matrix(1.00, 0.00, -0.00, -1.00, 122.2, 44.0)">r</text><text xml:space="preserve" font-family="Helvetica-Light" font-size="34.5" fill="#000000" transform="matrix(1.00, 0.00, -0.00, -1.00, 134.3, 44.0)">t</text><text xml:space="preserve" font-family="Helvetica-Light" font-size="34.5" fill="#000000" transform="matrix(1.00, 0.00, -0.00, -1.00, 143.9, 44.0)">-</text><text xml:space="preserve" font-family="Helvetica-Light" font-size="34.5" fill="#000000" transform="matrix(1.00, 0.00, -0.00, -1.00, 155.4, 44.0)">l</text><text xml:space="preserve" font-family="Helvetica-Light" font-size="34.5" fill="#000000" transform="matrix(1.00, 0.00, -0.00, -1.00, 163.1, 44.0)">i</text><text xml:space="preserve" font-family="Helvetica-Light" font-size="34.5" fill="#000000" transform="matrix(1.00, 0.00, -0.00, -1.00, 170.7, 44.0)">v</text><text xml:space="preserve" font-family="Helvetica-Light" font-size="34.5" fill="#000000" transform="matrix(1.00, 0.00, -0.00, -1.00, 188.0, 44.0)">e</text><text xml:space="preserve" font-family="Helvetica-Light" font-size="34.5" fill="#000000" transform="matrix(1.00, 0.00, -0.00, -1.00, 207.2, 44.0)">d</text><text xml:space="preserve" font-family="Helvetica-Light" font-size="34.5" fill="#000000" transform="matrix(1.00, 0.00, -0.00, -1.00, 228.2, 44.0)"> </text><text xml:space="preserve" font-family="Helvetica-Light" font-size="34.5" fill="#000000" transform="matrix(1.00, 0.00, -0.00, -1.00, 237.8, 44.0)">w</text><text xml:space="preserve" font-family="Helvetica-Light" font-size="34.5" fill="#000000" transform="matrix(1.00, 0.00, -0.00, -1.00, 262.7, 44.0)">o</text><text xml:space="preserve" font-family="Helvetica-Light" font-size="34.5" fill="#000000" transform="matrix(1.00, 0.00, -0.00, -1.00, 281.9, 44.0)">r</text><text xml:space="preserve" font-family="Helvetica-Light" font-size="34.5" fill="#000000" transform="matrix(1.00, 0.00, -0.00, -1.00, 293.4, 44.0)">k</text><text xml:space="preserve" font-family="Helvetica-Light" font-size="34.5" fill="#000000" transform="matrix(1.00, 0.00, -0.00, -1.00, 310.7, 44.0)">s</text><text xml:space="preserve" font-family="Helvetica-Light" font-size="34.5" fill="#000000" transform="matrix(1.00, 0.00, -0.00, -1.00, 327.9, 44.0)">h</text><text xml:space="preserve" font-family="Helvetica-Light" font-size="34.5" fill="#000000" transform="matrix(1.00, 0.00, -0.00, -1.00, 347.1, 44.0)">o</text><text xml:space="preserve" font-family="Helvetica-Light" font-size="34.5" fill="#000000" transform="matrix(1.00, 0.00, -0.00, -1.00, 366.3, 44.0)">p</text><text xml:space="preserve" font-family="Helvetica-Light" font-size="34.5" fill="#000000" transform="matrix(1.00, 0.00, -0.00, -1.00, 387.3, 44.0)">,</text><text xml:space="preserve" font-family="Helvetica-Light" font-size="34.5" fill="#000000" transform="matrix(1.00, 0.00, -0.00, -1.00, 396.9, 44.0)"> </text><text xml:space="preserve" font-family="Helvetica-Light" font-size="34.5" fill="#000000" transform="matrix(1.00, 0.00, -0.00, -1.00, 406.5, 44.0)">e</text><text xml:space="preserve" font-family="Helvetica-Light" font-size="34.5" fill="#000000" transform="matrix(1.00, 0.00, -0.00, -1.00, 425.7, 44.0)">s</text><text xml:space="preserve" font-family="Helvetica-Light" font-size="34.5" fill="#000000" transform="matrix(1.00, 0.00, -0.00, -1.00, 443.0, 44.0)">p</text><text xml:space="preserve" font-family="Helvetica-Light" font-size="34.5" fill="#000000" transform="matrix(1.00, 0.00, -0.00, -1.00, 464.0, 44.0)">e</text><text xml:space="preserve" font-family="Helvetica-Light" font-size="34.5" fill="#000000" transform="matrix(1.00, 0.00, -0.00, -1.00, 483.2, 44.0)">c</text><text xml:space="preserve" font-family="Helvetica-Light" font-size="34.5" fill="#000000" transform="matrix(1.00, 0.00, -0.00, -1.00, 502.4, 44.0)">i</text><text xml:space="preserve" font-family="Helvetica-Light" font-size="34.5" fill="#000000" transform="matrix(1.00, 0.00, -0.00, -1.00, 510.1, 44.0)">a</text><text xml:space="preserve" font-family="Helvetica-Light" font-size="34.5" fill="#000000" transform="matrix(1.00, 0.00, -0.00, -1.00, 529.2, 44.0)">l</text><text xml:space="preserve" font-family="Helvetica-Light" font-size="34.5" fill="#000000" transform="matrix(1.00, 0.00, -0.00, -1.00, 536.9, 44.0)">l</text><text xml:space="preserve" font-family="Helvetica-Light" font-size="34.5" fill="#000000" transform="matrix(1.00, 0.00, -0.00, -1.00, 544.6, 44.0)">y</text><text xml:space="preserve" font-family="Helvetica-Light" font-size="34.5" fill="#000000" transform="matrix(1.00, 0.00, -0.00, -1.00, 561.8, 44.0)"> </text><text xml:space="preserve" font-family="Helvetica-Light" font-size="34.5" fill="#000000" transform="matrix(1.00, 0.00, -0.00, -1.00, 571.4, 44.0)">i</text><text xml:space="preserve" font-family="Helvetica-Light" font-size="34.5" fill="#000000" transform="matrix(1.00, 0.00, -0.00, -1.00, 579.1, 44.0)">f</text><text xml:space="preserve" font-family="Helvetica-Light" font-size="34.5" fill="#000000" transform="matrix(1.00, 0.00, -0.00, -1.00, 588.7, 44.0)"> </text><text xml:space="preserve" font-family="Helvetica-Light" font-size="34.5" fill="#000000" transform="matrix(1.00, 0.00, -0.00, -1.00, 598.2, 44.0)">i</text><text xml:space="preserve" font-family="Helvetica-Light" font-size="34.5" fill="#000000" transform="matrix(1.00, 0.00, -0.00, -1.00, 605.9, 44.0)">n</text><text xml:space="preserve" font-family="Helvetica-Light" font-size="34.5" fill="#000000" transform="matrix(1.00, 0.00, -0.00, -1.00, 625.1, 44.0)">s</text><text xml:space="preserve" font-family="Helvetica-Light" font-size="34.5" fill="#000000" transform="matrix(1.00, 0.00, -0.00, -1.00, 642.3, 44.0)">t</text><text xml:space="preserve" font-family="Helvetica-Light" font-size="34.5" fill="#000000" transform="matrix(1.00, 0.00, -0.00, -1.00, 651.9, 44.0)">a</text><text xml:space="preserve" font-family="Helvetica-Light" font-size="34.5" fill="#000000" transform="matrix(1.00, 0.00, -0.00, -1.00, 671.1, 44.0)">l</text><text xml:space="preserve" font-family="Helvetica-Light" font-size="34.5" fill="#000000" transform="matrix(1.00, 0.00, -0.00, -1.00, 678.8, 44.0)">l</text><text xml:space="preserve" font-family="Helvetica-Light" font-size="34.5" fill="#000000" transform="matrix(1.00, 0.00, -0.00, -1.00, 686.4, 44.0)">a</text><text xml:space="preserve" font-family="Helvetica-Light" font-size="34.5" fill="#000000" transform="matrix(1.00, 0.00, -0.00, -1.00, 705.6, 44.0)">t</text><text xml:space="preserve" font-family="Helvetica-Light" font-size="34.5" fill="#000000" transform="matrix(1.00, 0.00, -0.00, -1.00, 715.2, 44.0)">i</text><text xml:space="preserve" font-family="Helvetica-Light" font-size="34.5" fill="#000000" transform="matrix(1.00, 0.00, -0.00, -1.00, 722.9, 44.0)">o</text><text xml:space="preserve" font-family="Helvetica-Light" font-size="34.5" fill="#000000" transform="matrix(1.00, 0.00, -0.00, -1.00, 742.0, 44.0)">n</text><text xml:space="preserve" font-family="Helvetica-Light" font-size="34.5" fill="#000000" transform="matrix(1.00, 0.00, -0.00, -1.00, 761.2, 44.0)"> </text><text xml:space="preserve" font-family="Helvetica-Light" font-size="34.5" fill="#000000" transform="matrix(1.00, 0.00, -0.00, -1.00, 770.8, 44.0)">i</text><text xml:space="preserve" font-family="Helvetica-Light" font-size="34.5" fill="#000000" transform="matrix(1.00, 0.00, -0.00, -1.00, 778.5, 44.0)">s</text><text xml:space="preserve" font-family="Helvetica-Light" font-size="34.5" fill="#000000" transform="matrix(1.00, 0.00, -0.00, -1.00, 795.7, 44.0)"> </text><text xml:space="preserve" font-family="Helvetica-Light" font-size="34.5" fill="#000000" transform="matrix(1.00, 0.00, -0.00, -1.00, 34.0, 2.0)">h</text><text xml:space="preserve" font-family="Helvetica-Light" font-size="34.5" fill="#000000" transform="matrix(1.00, 0.00, -0.00, -1.00, 53.2, 2.0)">a</text><text xml:space="preserve" font-family="Helvetica-Light" font-size="34.5" fill="#000000" transform="matrix(1.00, 0.00, -0.00, -1.00, 72.4, 2.0)">r</text><text xml:space="preserve" font-family="Helvetica-Light" font-size="34.5" fill="#000000" transform="matrix(1.00, 0.00, -0.00, -1.00, 83.2, 2.0)">d</text></g></svg>