<?xml version="1.0" encoding="UTF-8" standalone="no"?><svg xmlns="http://www.w3.org/2000/svg" xmlns:xlink="http://www.w3.org/1999/xlink" clip-rule="evenodd" stroke-miterlimit="4.00" viewBox="0 0 794 78"><desc>SVG generated by Keynote</desc><defs></defs><g transform="matrix(1.00, 0.00, -0.00, -1.00, 0.0, 78.0)"><text xml:space="preserve" font-family="Helvetica-Light" font-size="25.9" fill="#000000" transform="matrix(1.00, 0.00, -0.00, -1.00, 0.1, 54.2)">•</text><text xml:space="preserve" font-family="Helvetica-Light" font-size="34.5" fill="#000000" transform="matrix(1.00, 0.00, -0.00, -1.00, 34.0, 51.0)">O</text><text xml:space="preserve" font-family="Helvetica-Light" font-size="34.5" fill="#000000" transform="matrix(1.00, 0.00, -0.00, -1.00, 60.8, 51.0)">n</text><text xml:space="preserve" font-family="Helvetica-Light" font-size="34.5" fill="#000000" transform="matrix(1.00, 0.00, -0.00, -1.00, 80.0, 51.0)">-</text><text xml:space="preserve" font-family="Helvetica-Light" font-size="34.5" fill="#000000" transform="matrix(1.00, 0.00, -0.00, -1.00, 91.5, 51.0)">s</text><text xml:space="preserve" font-family="Helvetica-Light" font-size="34.5" fill="#000000" transform="matrix(1.00, 0.00, -0.00, -1.00, 108.8, 51.0)">i</text><text xml:space="preserve" font-family="Helvetica-Light" font-size="34.5" fill="#000000" transform="matrix(1.00, 0.00, -0.00, -1.00, 116.4, 51.0)">t</text><text xml:space="preserve" font-family="Helvetica-Light" font-size="34.5" fill="#000000" transform="matrix(1.00, 0.00, -0.00, -1.00, 126.0, 51.0)">e</text><text xml:space="preserve" font-family="Helvetica-Light" font-size="34.5" fill="#000000" transform="matrix(1.00, 0.00, -0.00, -1.00, 145.2, 51.0)"> </text><text xml:space="preserve" font-family="Helvetica-Light" font-size="34.5" fill="#000000" transform="matrix(1.00, 0.00, -0.00, -1.00, 154.8, 51.0)">c</text><text xml:space="preserve" font-family="Helvetica-Light" font-size="34.5" fill="#000000" transform="matrix(1.00, 0.00, -0.00, -1.00, 174.0, 51.0)">o</text><text xml:space="preserve" font-family="Helvetica-Light" font-size="34.5" fill="#000000" transform="matrix(1.00, 0.00, -0.00, -1.00, 193.1, 51.0)">m</text><text xml:space="preserve" font-family="Helvetica-Light" font-size="34.5" fill="#000000" transform="matrix(1.00, 0.00, -0.00, -1.00, 221.9, 51.0)">p</text><text xml:space="preserve" font-family="Helvetica-Light" font-size="34.5" fill="#000000" transform="matrix(1.00, 0.00, -0.00, -1.00, 243.0, 51.0)">u</text><text xml:space="preserve" font-family="Helvetica-Light" font-size="34.5" fill="#000000" transform="matrix(1.00, 0.00, -0.00, -1.00, 262.1, 51.0)">t</text><text xml:space="preserve" font-family="Helvetica-Light" font-size="34.5" fill="#000000" transform="matrix(1.00, 0.00, -0.00, -1.00, 271.7, 51.0)">i</text><text xml:space="preserve" font-family="Helvetica-Light" font-size="34.5" fill="#000000" transform="matrix(1.00, 0.00, -0.00, -1.00, 279.4, 51.0)">n</text><text xml:space="preserve" font-family="Helvetica-Light" font-size="34.5" fill="#000000" transform="matrix(1.00, 0.00, -0.00, -1.00, 298.6, 51.0)">g</text><text xml:space="preserve" font-family="Helvetica-Light" font-size="34.5" fill="#000000" transform="matrix(1.00, 0.00, -0.00, -1.00, 319.7, 51.0)"> </text><text xml:space="preserve" font-family="Helvetica-Light" font-size="34.5" fill="#000000" transform="matrix(1.00, 0.00, -0.00, -1.00, 329.3, 51.0)">r</text><text xml:space="preserve" font-family="Helvetica-Light" font-size="34.5" fill="#000000" transform="matrix(1.00, 0.00, -0.00, -1.00, 340.1, 51.0)">e</text><text xml:space="preserve" font-family="Helvetica-Light" font-size="34.5" fill="#000000" transform="matrix(1.00, 0.00, -0.00, -1.00, 359.3, 51.0)">s</text><text xml:space="preserve" font-family="Helvetica-Light" font-size="34.5" fill="#000000" transform="matrix(1.00, 0.00, -0.00, -1.00, 376.6, 51.0)">o</text><text xml:space="preserve" font-family="Helvetica-Light" font-size="34.5" fill="#000000" transform="matrix(1.00, 0.00, -0.00, -1.00, 395.7, 51.0)">u</text><text xml:space="preserve" font-family="Helvetica-Light" font-size="34.5" fill="#000000" transform="matrix(1.00, 0.00, -0.00, -1.00, 414.9, 51.0)">r</text><text xml:space="preserve" font-family="Helvetica-Light" font-size="34.5" fill="#000000" transform="matrix(1.00, 0.00, -0.00, -1.00, 425.8, 51.0)">c</text><text xml:space="preserve" font-family="Helvetica-Light" font-size="34.5" fill="#000000" transform="matrix(1.00, 0.00, -0.00, -1.00, 445.0, 51.0)">e</text><text xml:space="preserve" font-family="Helvetica-Light" font-size="34.5" fill="#000000" transform="matrix(1.00, 0.00, -0.00, -1.00, 464.1, 51.0)">s</text><text xml:space="preserve" font-family="Helvetica-Light" font-size="34.5" fill="#000000" transform="matrix(1.00, 0.00, -0.00, -1.00, 481.4, 51.0)"> </text><text xml:space="preserve" font-family="Helvetica-Light" font-size="34.5" fill="#000000" transform="matrix(1.00, 0.00, -0.00, -1.00, 491.0, 51.0)">f</text><text xml:space="preserve" font-family="Helvetica-Light" font-size="34.5" fill="#000000" transform="matrix(1.00, 0.00, -0.00, -1.00, 500.6, 51.0)">o</text><text xml:space="preserve" font-family="Helvetica-Light" font-size="34.5" fill="#000000" transform="matrix(1.00, 0.00, -0.00, -1.00, 519.8, 51.0)">r</text><text xml:space="preserve" font-family="Helvetica-Light" font-size="34.5" fill="#000000" transform="matrix(1.00, 0.00, -0.00, -1.00, 531.2, 51.0)"> </text><text xml:space="preserve" font-family="Helvetica-Light" font-size="34.5" fill="#000000" transform="matrix(1.00, 0.00, -0.00, -1.00, 540.8, 51.0)">r</text><text xml:space="preserve" font-family="Helvetica-Light" font-size="34.5" fill="#000000" transform="matrix(1.00, 0.00, -0.00, -1.00, 551.7, 51.0)">e</text><text xml:space="preserve" font-family="Helvetica-Light" font-size="34.5" fill="#000000" transform="matrix(1.00, 0.00, -0.00, -1.00, 570.9, 51.0)">s</text><text xml:space="preserve" font-family="Helvetica-Light" font-size="34.5" fill="#000000" transform="matrix(1.00, 0.00, -0.00, -1.00, 588.1, 51.0)">e</text><text xml:space="preserve" font-family="Helvetica-Light" font-size="34.5" fill="#000000" transform="matrix(1.00, 0.00, -0.00, -1.00, 607.3, 51.0)">a</text><text xml:space="preserve" font-family="Helvetica-Light" font-size="34.5" fill="#000000" transform="matrix(1.00, 0.00, -0.00, -1.00, 626.5, 51.0)">r</text><text xml:space="preserve" font-family="Helvetica-Light" font-size="34.5" fill="#000000" transform="matrix(1.00, 0.00, -0.00, -1.00, 637.4, 51.0)">c</text><text xml:space="preserve" font-family="Helvetica-Light" font-size="34.5" fill="#000000" transform="matrix(1.00, 0.00, -0.00, -1.00, 656.6, 51.0)">h</text><text xml:space="preserve" font-family="Helvetica-Light" font-size="34.5" fill="#000000" transform="matrix(1.00, 0.00, -0.00, -1.00, 675.7, 51.0)">e</text><text xml:space="preserve" font-family="Helvetica-Light" font-size="34.5" fill="#000000" transform="matrix(1.00, 0.00, -0.00, -1.00, 694.9, 51.0)">r</text><text xml:space="preserve" font-family="Helvetica-Light" font-size="34.5" fill="#000000" transform="matrix(1.00, 0.00, -0.00, -1.00, 706.4, 51.0)">s</text><text xml:space="preserve" font-family="Helvetica-Light" font-size="34.5" fill="#000000" transform="matrix(1.00, 0.00, -0.00, -1.00, 723.7, 51.0)"> </text><text xml:space="preserve" font-family="Helvetica-Light" font-size="34.5" fill="#000000" transform="matrix(1.00, 0.00, -0.00, -1.00, 733.2, 51.0)">a</text><text xml:space="preserve" font-family="Helvetica-Light" font-size="34.5" fill="#000000" transform="matrix(1.00, 0.00, -0.00, -1.00, 752.4, 51.0)">n</text><text xml:space="preserve" font-family="Helvetica-Light" font-size="34.5" fill="#000000" transform="matrix(1.00, 0.00, -0.00, -1.00, 771.6, 51.0)">d</text><text xml:space="preserve" font-family="Helvetica-Light" font-size="34.5" fill="#000000" transform="matrix(1.00, 0.00, -0.00, -1.00, 792.7, 51.0)"> </text><text xml:space="preserve" font-family="Helvetica-Light" font-size="34.5" fill="#000000" transform="matrix(1.00, 0.00, -0.00, -1.00, 34.0, 9.0)">a</text><text xml:space="preserve" font-family="Helvetica-Light" font-size="34.5" fill="#000000" transform="matrix(1.00, 0.00, -0.00, -1.00, 53.2, 9.0)">n</text><text xml:space="preserve" font-family="Helvetica-Light" font-size="34.5" fill="#000000" transform="matrix(1.00, 0.00, -0.00, -1.00, 72.4, 9.0)">a</text><text xml:space="preserve" font-family="Helvetica-Light" font-size="34.5" fill="#000000" transform="matrix(1.00, 0.00, -0.00, -1.00, 91.5, 9.0)">l</text><text xml:space="preserve" font-family="Helvetica-Light" font-size="34.5" fill="#000000" transform="matrix(1.00, 0.00, -0.00, -1.00, 99.2, 9.0)">y</text><text xml:space="preserve" font-family="Helvetica-Light" font-size="34.5" fill="#000000" transform="matrix(1.00, 0.00, -0.00, -1.00, 116.5, 9.0)">s</text><text xml:space="preserve" font-family="Helvetica-Light" font-size="34.5" fill="#000000" transform="matrix(1.00, 0.00, -0.00, -1.00, 133.7, 9.0)">t</text><text xml:space="preserve" font-family="Helvetica-Light" font-size="34.5" fill="#000000" transform="matrix(1.00, 0.00, -0.00, -1.00, 143.3, 9.0)">s</text><text xml:space="preserve" font-family="Helvetica-Light" font-size="34.5" fill="#000000" transform="matrix(1.00, 0.00, -0.00, -1.00, 160.5, 9.0)"> </text><text xml:space="preserve" font-family="Helvetica-Light" font-size="34.5" fill="#000000" transform="matrix(1.00, 0.00, -0.00, -1.00, 170.1, 9.0)">a</text><text xml:space="preserve" font-family="Helvetica-Light" font-size="34.5" fill="#000000" transform="matrix(1.00, 0.00, -0.00, -1.00, 189.3, 9.0)">t</text><text xml:space="preserve" font-family="Helvetica-Light" font-size="34.5" fill="#000000" transform="matrix(1.00, 0.00, -0.00, -1.00, 198.9, 9.0)"> </text><text xml:space="preserve" font-family="Helvetica-Light" font-size="34.5" fill="#000000" transform="matrix(1.00, 0.00, -0.00, -1.00, 208.5, 9.0)">a</text><text xml:space="preserve" font-family="Helvetica-Light" font-size="34.5" fill="#000000" transform="matrix(1.00, 0.00, -0.00, -1.00, 227.7, 9.0)">n</text><text xml:space="preserve" font-family="Helvetica-Light" font-size="34.5" fill="#000000" transform="matrix(1.00, 0.00, -0.00, -1.00, 246.9, 9.0)"> </text><text xml:space="preserve" font-family="Helvetica-Light" font-size="34.5" fill="#000000" transform="matrix(1.00, 0.00, -0.00, -1.00, 256.5, 9.0)">i</text><text xml:space="preserve" font-family="Helvetica-Light" font-size="34.5" fill="#000000" transform="matrix(1.00, 0.00, -0.00, -1.00, 264.1, 9.0)">n</text><text xml:space="preserve" font-family="Helvetica-Light" font-size="34.5" fill="#000000" transform="matrix(1.00, 0.00, -0.00, -1.00, 283.3, 9.0)">s</text><text xml:space="preserve" font-family="Helvetica-Light" font-size="34.5" fill="#000000" transform="matrix(1.00, 0.00, -0.00, -1.00, 300.5, 9.0)">t</text><text xml:space="preserve" font-family="Helvetica-Light" font-size="34.5" fill="#000000" transform="matrix(1.00, 0.00, -0.00, -1.00, 310.1, 9.0)">i</text><text xml:space="preserve" font-family="Helvetica-Light" font-size="34.5" fill="#000000" transform="matrix(1.00, 0.00, -0.00, -1.00, 317.8, 9.0)">t</text><text xml:space="preserve" font-family="Helvetica-Light" font-size="34.5" fill="#000000" transform="matrix(1.00, 0.00, -0.00, -1.00, 327.4, 9.0)">u</text><text xml:space="preserve" font-family="Helvetica-Light" font-size="34.5" fill="#000000" transform="matrix(1.00, 0.00, -0.00, -1.00, 346.6, 9.0)">t</text><text xml:space="preserve" font-family="Helvetica-Light" font-size="34.5" fill="#000000" transform="matrix(1.00, 0.00, -0.00, -1.00, 356.2, 9.0)">i</text><text xml:space="preserve" font-family="Helvetica-Light" font-size="34.5" fill="#000000" transform="matrix(1.00, 0.00, -0.00, -1.00, 363.8, 9.0)">o</text><text xml:space="preserve" font-family="Helvetica-Light" font-size="34.5" fill="#000000" transform="matrix(1.00, 0.00, -0.00, -1.00, 383.0, 9.0)">n</text></g></svg>