<?xml version="1.0" encoding="UTF-8" standalone="no"?><svg xmlns="http://www.w3.org/2000/svg" xmlns:xlink="http://www.w3.org/1999/xlink" clip-rule="evenodd" stroke-miterlimit="4.00" viewBox="0 0 1024 768"><desc>SVG generated by Keynote</desc><defs></defs><g transform="matrix(1.00, 0.00, -0.00, -1.00, 0.0, 768.0)"><g><clipPath id="clip-571"><path d="M 0.0 768.0 L 1024.0 768.0 L 1024.0 0.0 L 0.0 0.0 Z M 0.0 768.0 "></path></clipPath><g clip-path="url(#clip-571)"><image xlink:href="../../A6AB71EB-7077-4CA4-A4BC-733F3D27A118/assets/AC8A38799F83CDE46BAD7F0B4FE74D5F.jpeg" width="1024.00" height="768.00" transform="matrix(1.00, 0.00, -0.00, -1.00, 0.0, 768.0)"></image></g></g><text xml:space="preserve" font-family="Futura-Medium" font-size="104.0" fill="#5B5753" transform="matrix(1.00, 0.00, -0.00, -1.00, 201.0, 413.0)">R</text><text xml:space="preserve" font-family="Futura-Medium" font-size="104.0" fill="#5B5753" transform="matrix(1.00, 0.00, -0.00, -1.00, 265.7, 413.0)">E</text><text xml:space="preserve" font-family="Futura-Medium" font-size="104.0" fill="#5B5753" transform="matrix(1.00, 0.00, -0.00, -1.00, 326.6, 413.0)">S</text><text xml:space="preserve" font-family="Futura-Medium" font-size="104.0" fill="#5B5753" transform="matrix(1.00, 0.00, -0.00, -1.00, 389.3, 413.0)">O</text><text xml:space="preserve" font-family="Futura-Medium" font-size="104.0" fill="#5B5753" transform="matrix(1.00, 0.00, -0.00, -1.00, 484.2, 413.0)">U</text><text xml:space="preserve" font-family="Futura-Medium" font-size="104.0" fill="#5B5753" transform="matrix(1.00, 0.00, -0.00, -1.00, 563.2, 413.0)">R</text><text xml:space="preserve" font-family="Futura-Medium" font-size="104.0" fill="#5B5753" transform="matrix(1.00, 0.00, -0.00, -1.00, 626.1, 413.0)">C</text><text xml:space="preserve" font-family="Futura-Medium" font-size="104.0" fill="#5B5753" transform="matrix(1.00, 0.00, -0.00, -1.00, 701.1, 413.0)">E</text><text xml:space="preserve" font-family="Futura-Medium" font-size="104.0" fill="#5B5753" transform="matrix(1.00, 0.00, -0.00, -1.00, 762.0, 413.0)">S</text><text xml:space="preserve" font-family="Futura-Medium" font-size="104.0" fill="#5B5753" transform="matrix(1.00, 0.00, -0.00, -1.00, 824.7, 413.0)"> </text><text xml:space="preserve" font-family="Futura-Medium" font-size="104.0" fill="#5B5753" transform="matrix(1.00, 0.00, -0.00, -1.00, 250.0, 275.0)">A</text><text xml:space="preserve" font-family="Futura-Medium" font-size="104.0" fill="#5B5753" transform="matrix(1.00, 0.00, -0.00, -1.00, 329.1, 275.0)">N</text><text xml:space="preserve" font-family="Futura-Medium" font-size="104.0" fill="#5B5753" transform="matrix(1.00, 0.00, -0.00, -1.00, 419.0, 275.0)">D</text><text xml:space="preserve" font-family="Futura-Medium" font-size="104.0" fill="#5B5753" transform="matrix(1.00, 0.00, -0.00, -1.00, 496.6, 275.0)"> </text><text xml:space="preserve" font-family="Futura-Medium" font-size="104.0" fill="#5B5753" transform="matrix(1.00, 0.00, -0.00, -1.00, 530.7, 275.0)">H</text><text xml:space="preserve" font-family="Futura-Medium" font-size="104.0" fill="#5B5753" transform="matrix(1.00, 0.00, -0.00, -1.00, 609.2, 275.0)">E</text><text xml:space="preserve" font-family="Futura-Medium" font-size="104.0" fill="#5B5753" transform="matrix(1.00, 0.00, -0.00, -1.00, 670.1, 275.0)">L</text><text xml:space="preserve" font-family="Futura-Medium" font-size="104.0" fill="#5B5753" transform="matrix(1.00, 0.00, -0.00, -1.00, 718.4, 275.0)">P</text><text xml:space="preserve" font-family="Futura-Medium" font-size="14.0" fill="#9A958D" transform="matrix(1.00, 0.00, -0.00, -1.00, 503.0, 22.0)">2</text><text xml:space="preserve" font-family="Futura-Medium" font-size="14.0" fill="#9A958D" transform="matrix(1.00, 0.00, -0.00, -1.00, 511.9, 22.0)">2</text><image xlink:href="../../A6AB71EB-7077-4CA4-A4BC-733F3D27A118/assets/869041A4D72A9D33C3AE1818195F4319.png" width="797.00" height="139.00" transform="matrix(0.48, 0.00, -0.00, -0.48, 68.0, 690.0)"></image></g></svg>