<?xml version="1.0" encoding="UTF-8" standalone="no"?><svg xmlns="http://www.w3.org/2000/svg" xmlns:xlink="http://www.w3.org/1999/xlink" clip-rule="evenodd" stroke-miterlimit="4.00" viewBox="0 0 1024 768"><desc>SVG generated by Keynote</desc><defs></defs><g transform="matrix(1.00, 0.00, -0.00, -1.00, 0.0, 768.0)"><g><clipPath id="clip-16"><path d="M 0.0 768.0 L 1024.0 768.0 L 1024.0 0.0 L 0.0 0.0 Z M 0.0 768.0 "></path></clipPath><g clip-path="url(#clip-16)"><image xlink:href="../../A6AB71EB-7077-4CA4-A4BC-733F3D27A118/assets/AC8A38799F83CDE46BAD7F0B4FE74D5F.jpeg" width="1024.00" height="768.00" transform="matrix(1.00, 0.00, -0.00, -1.00, 0.0, 768.0)"></image></g></g><text xml:space="preserve" font-family="Avenir-MediumOblique" font-style="italic" font-size="26.0" fill="#AB6153" transform="matrix(1.00, 0.00, -0.00, -1.00, 385.0, 231.0)">—</text><text xml:space="preserve" font-family="Avenir-MediumOblique" font-style="italic" font-size="26.0" fill="#AB6153" transform="matrix(1.00, 0.00, -0.00, -1.00, 411.5, 231.0)"> </text><text xml:space="preserve" font-family="Avenir-MediumOblique" font-style="italic" font-size="26.0" fill="#AB6153" transform="matrix(1.00, 0.00, -0.00, -1.00, 419.3, 231.0)">L</text><text xml:space="preserve" font-family="Avenir-MediumOblique" font-style="italic" font-size="26.0" fill="#AB6153" transform="matrix(1.00, 0.00, -0.00, -1.00, 433.3, 231.0)">e</text><text xml:space="preserve" font-family="Avenir-MediumOblique" font-style="italic" font-size="26.0" fill="#AB6153" transform="matrix(1.00, 0.00, -0.00, -1.00, 448.3, 231.0)">o</text><text xml:space="preserve" font-family="Avenir-MediumOblique" font-style="italic" font-size="26.0" fill="#AB6153" transform="matrix(1.00, 0.00, -0.00, -1.00, 464.2, 231.0)">n</text><text xml:space="preserve" font-family="Avenir-MediumOblique" font-style="italic" font-size="26.0" fill="#AB6153" transform="matrix(1.00, 0.00, -0.00, -1.00, 479.2, 231.0)">a</text><text xml:space="preserve" font-family="Avenir-MediumOblique" font-style="italic" font-size="26.0" fill="#AB6153" transform="matrix(1.00, 0.00, -0.00, -1.00, 493.2, 231.0)">r</text><text xml:space="preserve" font-family="Avenir-MediumOblique" font-style="italic" font-size="26.0" fill="#AB6153" transform="matrix(1.00, 0.00, -0.00, -1.00, 502.9, 231.0)">d</text><text xml:space="preserve" font-family="Avenir-MediumOblique" font-style="italic" font-size="26.0" fill="#AB6153" transform="matrix(1.00, 0.00, -0.00, -1.00, 519.3, 231.0)">o</text><text xml:space="preserve" font-family="Avenir-MediumOblique" font-style="italic" font-size="26.0" fill="#AB6153" transform="matrix(1.00, 0.00, -0.00, -1.00, 535.3, 231.0)"> </text><text xml:space="preserve" font-family="Avenir-MediumOblique" font-style="italic" font-size="26.0" fill="#AB6153" transform="matrix(1.00, 0.00, -0.00, -1.00, 543.0, 231.0)">d</text><text xml:space="preserve" font-family="Avenir-MediumOblique" font-style="italic" font-size="26.0" fill="#AB6153" transform="matrix(1.00, 0.00, -0.00, -1.00, 559.4, 231.0)">a</text><text xml:space="preserve" font-family="Avenir-MediumOblique" font-style="italic" font-size="26.0" fill="#AB6153" transform="matrix(1.00, 0.00, -0.00, -1.00, 573.4, 231.0)"> </text><text xml:space="preserve" font-family="Avenir-MediumOblique" font-style="italic" font-size="26.0" fill="#AB6153" transform="matrix(1.00, 0.00, -0.00, -1.00, 581.2, 231.0)">V</text><text xml:space="preserve" font-family="Avenir-MediumOblique" font-style="italic" font-size="26.0" fill="#AB6153" transform="matrix(1.00, 0.00, -0.00, -1.00, 597.6, 231.0)">i</text><text xml:space="preserve" font-family="Avenir-MediumOblique" font-style="italic" font-size="26.0" fill="#AB6153" transform="matrix(1.00, 0.00, -0.00, -1.00, 604.4, 231.0)">n</text><text xml:space="preserve" font-family="Avenir-MediumOblique" font-style="italic" font-size="26.0" fill="#AB6153" transform="matrix(1.00, 0.00, -0.00, -1.00, 619.3, 231.0)">c</text><text xml:space="preserve" font-family="Avenir-MediumOblique" font-style="italic" font-size="26.0" fill="#AB6153" transform="matrix(1.00, 0.00, -0.00, -1.00, 632.4, 231.0)">i</text><text xml:space="preserve" font-family="Futura-Medium" font-size="58.0" fill="#5B5753" transform="matrix(1.00, 0.00, -0.00, -1.00, 90.0, 439.0)">T</text><text xml:space="preserve" font-family="Futura-Medium" font-size="58.0" fill="#5B5753" transform="matrix(1.00, 0.00, -0.00, -1.00, 122.6, 439.0)">H</text><text xml:space="preserve" font-family="Futura-Medium" font-size="58.0" fill="#5B5753" transform="matrix(1.00, 0.00, -0.00, -1.00, 169.8, 439.0)">E</text><text xml:space="preserve" font-family="Futura-Medium" font-size="58.0" fill="#5B5753" transform="matrix(1.00, 0.00, -0.00, -1.00, 207.3, 439.0)"> </text><text xml:space="preserve" font-family="Futura-Medium" font-size="58.0" fill="#5B5753" transform="matrix(1.00, 0.00, -0.00, -1.00, 229.8, 439.0)">N</text><text xml:space="preserve" font-family="Futura-Medium" font-size="58.0" fill="#5B5753" transform="matrix(1.00, 0.00, -0.00, -1.00, 283.8, 439.0)">O</text><text xml:space="preserve" font-family="Futura-Medium" font-size="58.0" fill="#5B5753" transform="matrix(1.00, 0.00, -0.00, -1.00, 340.3, 439.0)">B</text><text xml:space="preserve" font-family="Futura-Medium" font-size="58.0" fill="#5B5753" transform="matrix(1.00, 0.00, -0.00, -1.00, 379.2, 439.0)">L</text><text xml:space="preserve" font-family="Futura-Medium" font-size="58.0" fill="#5B5753" transform="matrix(1.00, 0.00, -0.00, -1.00, 409.6, 439.0)">E</text><text xml:space="preserve" font-family="Futura-Medium" font-size="58.0" fill="#5B5753" transform="matrix(1.00, 0.00, -0.00, -1.00, 447.1, 439.0)">S</text><text xml:space="preserve" font-family="Futura-Medium" font-size="58.0" fill="#5B5753" transform="matrix(1.00, 0.00, -0.00, -1.00, 486.4, 439.0)">T</text><text xml:space="preserve" font-family="Futura-Medium" font-size="58.0" fill="#5B5753" transform="matrix(1.00, 0.00, -0.00, -1.00, 519.0, 439.0)"> </text><text xml:space="preserve" font-family="Futura-Medium" font-size="58.0" fill="#5B5753" transform="matrix(1.00, 0.00, -0.00, -1.00, 541.5, 439.0)">P</text><text xml:space="preserve" font-family="Futura-Medium" font-size="58.0" fill="#5B5753" transform="matrix(1.00, 0.00, -0.00, -1.00, 577.5, 439.0)">L</text><text xml:space="preserve" font-family="Futura-Medium" font-size="58.0" fill="#5B5753" transform="matrix(1.00, 0.00, -0.00, -1.00, 607.9, 439.0)">E</text><text xml:space="preserve" font-family="Futura-Medium" font-size="58.0" fill="#5B5753" transform="matrix(1.00, 0.00, -0.00, -1.00, 645.3, 439.0)">A</text><text xml:space="preserve" font-family="Futura-Medium" font-size="58.0" fill="#5B5753" transform="matrix(1.00, 0.00, -0.00, -1.00, 692.9, 439.0)">S</text><text xml:space="preserve" font-family="Futura-Medium" font-size="58.0" fill="#5B5753" transform="matrix(1.00, 0.00, -0.00, -1.00, 731.4, 439.0)">U</text><text xml:space="preserve" font-family="Futura-Medium" font-size="58.0" fill="#5B5753" transform="matrix(1.00, 0.00, -0.00, -1.00, 778.8, 439.0)">R</text><text xml:space="preserve" font-family="Futura-Medium" font-size="58.0" fill="#5B5753" transform="matrix(1.00, 0.00, -0.00, -1.00, 818.4, 439.0)">E</text><text xml:space="preserve" font-family="Futura-Medium" font-size="58.0" fill="#5B5753" transform="matrix(1.00, 0.00, -0.00, -1.00, 855.9, 439.0)"> </text><text xml:space="preserve" font-family="Futura-Medium" font-size="58.0" fill="#5B5753" transform="matrix(1.00, 0.00, -0.00, -1.00, 878.4, 439.0)">I</text><text xml:space="preserve" font-family="Futura-Medium" font-size="58.0" fill="#5B5753" transform="matrix(1.00, 0.00, -0.00, -1.00, 900.1, 439.0)">S</text><text xml:space="preserve" font-family="Futura-Medium" font-size="58.0" fill="#5B5753" transform="matrix(1.00, 0.00, -0.00, -1.00, 938.6, 439.0)"> </text><text xml:space="preserve" font-family="Futura-Medium" font-size="58.0" fill="#5B5753" transform="matrix(1.00, 0.00, -0.00, -1.00, 327.0, 362.0)">T</text><text xml:space="preserve" font-family="Futura-Medium" font-size="58.0" fill="#5B5753" transform="matrix(1.00, 0.00, -0.00, -1.00, 359.6, 362.0)">H</text><text xml:space="preserve" font-family="Futura-Medium" font-size="58.0" fill="#5B5753" transform="matrix(1.00, 0.00, -0.00, -1.00, 406.8, 362.0)">E</text><text xml:space="preserve" font-family="Futura-Medium" font-size="58.0" fill="#5B5753" transform="matrix(1.00, 0.00, -0.00, -1.00, 444.3, 362.0)"> </text><text xml:space="preserve" font-family="Futura-Medium" font-size="58.0" fill="#5B5753" transform="matrix(1.00, 0.00, -0.00, -1.00, 466.8, 362.0)">J</text><text xml:space="preserve" font-family="Futura-Medium" font-size="58.0" fill="#5B5753" transform="matrix(1.00, 0.00, -0.00, -1.00, 495.3, 362.0)">O</text><text xml:space="preserve" font-family="Futura-Medium" font-size="58.0" fill="#5B5753" transform="matrix(1.00, 0.00, -0.00, -1.00, 549.3, 362.0)">Y</text><text xml:space="preserve" font-family="Futura-Medium" font-size="58.0" fill="#5B5753" transform="matrix(1.00, 0.00, -0.00, -1.00, 588.8, 362.0)"> </text><text xml:space="preserve" font-family="Futura-Medium" font-size="58.0" fill="#5B5753" transform="matrix(1.00, 0.00, -0.00, -1.00, 611.3, 362.0)">O</text><text xml:space="preserve" font-family="Futura-Medium" font-size="58.0" fill="#5B5753" transform="matrix(1.00, 0.00, -0.00, -1.00, 667.7, 362.0)">F</text><text xml:space="preserve" font-family="Futura-Medium" font-size="58.0" fill="#5B5753" transform="matrix(1.00, 0.00, -0.00, -1.00, 701.9, 362.0)"> </text><text xml:space="preserve" font-family="Futura-Medium" font-size="58.0" fill="#AB6253" transform="matrix(1.00, 0.00, -0.00, -1.00, 217.0, 285.0)">U</text><text xml:space="preserve" font-family="Futura-Medium" font-size="58.0" fill="#AB6253" transform="matrix(1.00, 0.00, -0.00, -1.00, 264.5, 285.0)">N</text><text xml:space="preserve" font-family="Futura-Medium" font-size="58.0" fill="#AB6253" transform="matrix(1.00, 0.00, -0.00, -1.00, 318.1, 285.0)">D</text><text xml:space="preserve" font-family="Futura-Medium" font-size="58.0" fill="#AB6253" transform="matrix(1.00, 0.00, -0.00, -1.00, 364.8, 285.0)">E</text><text xml:space="preserve" font-family="Futura-Medium" font-size="58.0" fill="#AB6253" transform="matrix(1.00, 0.00, -0.00, -1.00, 402.3, 285.0)">R</text><text xml:space="preserve" font-family="Futura-Medium" font-size="58.0" fill="#AB6253" transform="matrix(1.00, 0.00, -0.00, -1.00, 441.8, 285.0)">S</text><text xml:space="preserve" font-family="Futura-Medium" font-size="58.0" fill="#AB6253" transform="matrix(1.00, 0.00, -0.00, -1.00, 481.1, 285.0)">T</text><text xml:space="preserve" font-family="Futura-Medium" font-size="58.0" fill="#AB6253" transform="matrix(1.00, 0.00, -0.00, -1.00, 511.4, 285.0)">A</text><text xml:space="preserve" font-family="Futura-Medium" font-size="58.0" fill="#AB6253" transform="matrix(1.00, 0.00, -0.00, -1.00, 559.0, 285.0)">N</text><text xml:space="preserve" font-family="Futura-Medium" font-size="58.0" fill="#AB6253" transform="matrix(1.00, 0.00, -0.00, -1.00, 612.6, 285.0)">D</text><text xml:space="preserve" font-family="Futura-Medium" font-size="58.0" fill="#AB6253" transform="matrix(1.00, 0.00, -0.00, -1.00, 659.3, 285.0)">I</text><text xml:space="preserve" font-family="Futura-Medium" font-size="58.0" fill="#AB6253" transform="matrix(1.00, 0.00, -0.00, -1.00, 681.0, 285.0)">N</text><text xml:space="preserve" font-family="Futura-Medium" font-size="58.0" fill="#AB6253" transform="matrix(1.00, 0.00, -0.00, -1.00, 735.1, 285.0)">G</text><text xml:space="preserve" font-family="Futura-Medium" font-size="58.0" fill="#5B5753" transform="matrix(1.00, 0.00, -0.00, -1.00, 788.6, 285.0)">.</text><text xml:space="preserve" font-family="Baskerville-SemiBold" font-weight="bold" font-size="90.0" fill="#5B5753" transform="matrix(1.00, 0.00, -0.00, -1.00, 486.0, 127.0)">”</text><text xml:space="preserve" font-family="Baskerville-SemiBold" font-weight="bold" font-size="90.0" fill="#5B5753" transform="matrix(1.00, 0.00, -0.00, -1.00, 486.0, 481.0)">“</text><text xml:space="preserve" font-family="Futura-Medium" font-size="14.0" fill="#9A958D" transform="matrix(1.00, 0.00, -0.00, -1.00, 508.0, 22.0)">4</text></g></svg>