<?xml version="1.0" encoding="UTF-8" standalone="no"?><svg xmlns="http://www.w3.org/2000/svg" xmlns:xlink="http://www.w3.org/1999/xlink" clip-rule="evenodd" stroke-miterlimit="4.00" viewBox="0 0 1024 768"><desc>SVG generated by Keynote</desc><defs></defs><g transform="matrix(1.00, 0.00, -0.00, -1.00, 0.0, 768.0)"><g><clipPath id="clip-51"><path d="M 0.0 768.0 L 1024.0 768.0 L 1024.0 0.0 L 0.0 0.0 Z M 0.0 768.0 "></path></clipPath><g clip-path="url(#clip-51)"><image xlink:href="../../A6AB71EB-7077-4CA4-A4BC-733F3D27A118/assets/AC8A38799F83CDE46BAD7F0B4FE74D5F.jpeg" width="1024.00" height="768.00" transform="matrix(1.00, 0.00, -0.00, -1.00, 0.0, 768.0)"></image></g></g><image xlink:href="../../298E91F3-9693-41C6-9793-FC6420E38CF8/assets/3BA9F9C72F3D26968AA794A26435CDD1.png" width="481.00" height="1023.00" transform="matrix(1.00, 0.00, -0.00, -1.00, 300.0, 844.7)"></image><g><clipPath id="clip-52"><path d="M 340.0 629.0 L 741.0 629.0 L 741.0 40.0 L 340.0 40.0 Z M 340.0 628.7 "></path></clipPath><g clip-path="url(#clip-52)"><image xlink:href="../../298E91F3-9693-41C6-9793-FC6420E38CF8/assets/F413BAF093146F39625390A17E74CDC5.png" width="401.00" height="506.00" transform="matrix(1.00, 0.00, -0.00, -1.00, 340.0, 587.0)"></image></g></g><text xml:space="preserve" font-family="Futura-Medium" font-size="14.0" fill="#9A958D" transform="matrix(1.00, 0.00, -0.00, -1.00, 507.0, 22.0)">9</text><text xml:space="preserve" font-family="Futura-Medium" font-size="49.6" fill="#5B5753" transform="matrix(1.00, 0.00, -0.00, -1.00, 52.0, 646.0)">J</text><text xml:space="preserve" font-family="Futura-Medium" font-size="49.6" fill="#5B5753" transform="matrix(1.00, 0.00, -0.00, -1.00, 73.3, 646.0)">U</text><text xml:space="preserve" font-family="Futura-Medium" font-size="49.6" fill="#5B5753" transform="matrix(1.00, 0.00, -0.00, -1.00, 111.0, 646.0)">P</text><text xml:space="preserve" font-family="Futura-Medium" font-size="49.6" fill="#5B5753" transform="matrix(1.00, 0.00, -0.00, -1.00, 138.7, 646.0)">Y</text><text xml:space="preserve" font-family="Futura-Medium" font-size="49.6" fill="#5B5753" transform="matrix(1.00, 0.00, -0.00, -1.00, 171.9, 646.0)">T</text><text xml:space="preserve" font-family="Futura-Medium" font-size="49.6" fill="#5B5753" transform="matrix(1.00, 0.00, -0.00, -1.00, 196.8, 646.0)">E</text><text xml:space="preserve" font-family="Futura-Medium" font-size="49.6" fill="#5B5753" transform="matrix(1.00, 0.00, -0.00, -1.00, 225.9, 646.0)">R</text><text xml:space="preserve" font-family="Futura-Medium" font-size="49.6" fill="#5B5753" transform="matrix(1.00, 0.00, -0.00, -1.00, 256.7, 646.0)"> </text><text xml:space="preserve" font-family="Futura-Medium" font-size="49.6" fill="#5B5753" transform="matrix(1.00, 0.00, -0.00, -1.00, 273.0, 646.0)">N</text><text xml:space="preserve" font-family="Futura-Medium" font-size="49.6" fill="#5B5753" transform="matrix(1.00, 0.00, -0.00, -1.00, 316.2, 646.0)">O</text><text xml:space="preserve" font-family="Futura-Medium" font-size="49.6" fill="#5B5753" transform="matrix(1.00, 0.00, -0.00, -1.00, 360.1, 646.0)">T</text><text xml:space="preserve" font-family="Futura-Medium" font-size="49.6" fill="#5B5753" transform="matrix(1.00, 0.00, -0.00, -1.00, 385.0, 646.0)">E</text><text xml:space="preserve" font-family="Futura-Medium" font-size="49.6" fill="#5B5753" transform="matrix(1.00, 0.00, -0.00, -1.00, 414.1, 646.0)">B</text><text xml:space="preserve" font-family="Futura-Medium" font-size="49.6" fill="#5B5753" transform="matrix(1.00, 0.00, -0.00, -1.00, 444.1, 646.0)">O</text><text xml:space="preserve" font-family="Futura-Medium" font-size="49.6" fill="#5B5753" transform="matrix(1.00, 0.00, -0.00, -1.00, 489.3, 646.0)">O</text><text xml:space="preserve" font-family="Futura-Medium" font-size="49.6" fill="#5B5753" transform="matrix(1.00, 0.00, -0.00, -1.00, 534.6, 646.0)">K</text><image xlink:href="../../298E91F3-9693-41C6-9793-FC6420E38CF8/assets/2BEB04814166571CA43F15681A9AD392.png" width="225.00" height="312.00" transform="matrix(1.00, 0.00, -0.00, -1.00, 53.7, 686.0)"></image><g><clipPath id="clip-53"><path d="M 94.0 603.0 L 239.0 603.0 L 239.0 458.0 L 94.0 458.0 Z M 93.7 603.2 "></path></clipPath><g clip-path="url(#clip-53)"><image xlink:href="../../298E91F3-9693-41C6-9793-FC6420E38CF8/assets/0B95DC140BB2091A593B1CC8CC21A55A.png" width="145.00" height="145.00" transform="matrix(1.00, 0.00, -0.00, -1.00, 94.0, 603.0)"></image></g></g><g><clipPath id="clip-54"><path d="M 167.0 527.0 L 220.0 527.0 L 220.0 474.0 L 167.0 474.0 Z M 167.4 527.0 "></path></clipPath><g clip-path="url(#clip-54)"><image xlink:href="../../239C642B-A6A2-4F69-9F57-A3F2235CE1B1/assets/6F7E3E4165FBC596A84F39DA6CB74DB3.png" width="66.00" height="66.00" transform="matrix(0.80, 0.00, -0.00, -0.80, 167.0, 527.0)"></image></g></g><text xml:space="preserve" font-family="Avenir-Medium" font-size="24.0" fill="#FEFFFF" transform="matrix(1.00, 0.00, -0.00, -1.00, 562.0, 155.0)">P</text><text xml:space="preserve" font-family="Avenir-Medium" font-size="24.0" fill="#FEFFFF" transform="matrix(1.00, 0.00, -0.00, -1.00, 576.2, 155.0)">y</text><text xml:space="preserve" font-family="Avenir-Medium" font-size="24.0" fill="#FEFFFF" transform="matrix(1.00, 0.00, -0.00, -1.00, 588.2, 155.0)">t</text><text xml:space="preserve" font-family="Avenir-Medium" font-size="24.0" fill="#FEFFFF" transform="matrix(1.00, 0.00, -0.00, -1.00, 597.1, 155.0)">h</text><text xml:space="preserve" font-family="Avenir-Medium" font-size="24.0" fill="#FEFFFF" transform="matrix(1.00, 0.00, -0.00, -1.00, 610.5, 155.0)">o</text><text xml:space="preserve" font-family="Avenir-Medium" font-size="24.0" fill="#FEFFFF" transform="matrix(1.00, 0.00, -0.00, -1.00, 624.7, 155.0)">n</text><text xml:space="preserve" font-family="Avenir-Medium" font-size="24.0" fill="#FEFFFF" transform="matrix(1.00, 0.00, -0.00, -1.00, 520.0, 189.0)">R</text><text xml:space="preserve" font-family="Avenir-Medium" font-size="24.0" fill="#FEFFFF" transform="matrix(1.00, 0.00, -0.00, -1.00, 430.0, 220.0)">J</text><text xml:space="preserve" font-family="Avenir-Medium" font-size="24.0" fill="#FEFFFF" transform="matrix(1.00, 0.00, -0.00, -1.00, 441.6, 220.0)">u</text><text xml:space="preserve" font-family="Avenir-Medium" font-size="24.0" fill="#FEFFFF" transform="matrix(1.00, 0.00, -0.00, -1.00, 454.9, 220.0)">l</text><text xml:space="preserve" font-family="Avenir-Medium" font-size="24.0" fill="#FEFFFF" transform="matrix(1.00, 0.00, -0.00, -1.00, 460.7, 220.0)">i</text><text xml:space="preserve" font-family="Avenir-Medium" font-size="24.0" fill="#FEFFFF" transform="matrix(1.00, 0.00, -0.00, -1.00, 466.4, 220.0)">a</text></g></svg>