<?xml version="1.0" encoding="UTF-8" standalone="no"?><svg xmlns="http://www.w3.org/2000/svg" xmlns:xlink="http://www.w3.org/1999/xlink" clip-rule="evenodd" stroke-miterlimit="4.00" viewBox="0 0 788 84"><desc>SVG generated by Keynote</desc><defs></defs><g transform="matrix(1.00, 0.00, -0.00, -1.00, 0.0, 84.0)"><text xml:space="preserve" font-family="LucidaGrande" font-size="24.3" fill="#AB6153" transform="matrix(1.00, 0.00, -0.00, -1.00, 0.0, 58.8)">•</text><text xml:space="preserve" font-family="HumorSans" font-size="32.4" fill="#5B5753" transform="matrix(1.00, 0.00, -0.00, -1.00, 27.0, 58.0)">W</text><text xml:space="preserve" font-family="HumorSans" font-size="32.4" fill="#5B5753" transform="matrix(1.00, 0.00, -0.00, -1.00, 52.7, 58.0)">h</text><text xml:space="preserve" font-family="HumorSans" font-size="32.4" fill="#5B5753" transform="matrix(1.00, 0.00, -0.00, -1.00, 72.7, 58.0)">o</text><text xml:space="preserve" font-family="HumorSans" font-size="32.4" fill="#5B5753" transform="matrix(1.00, 0.00, -0.00, -1.00, 97.0, 58.0)"> </text><text xml:space="preserve" font-family="Avenir-Book" font-size="32.4" fill="#5B5753" transform="matrix(1.00, 0.00, -0.00, -1.00, 113.2, 58.0)">S</text><text xml:space="preserve" font-family="Avenir-Book" font-size="32.4" fill="#5B5753" transform="matrix(1.00, 0.00, -0.00, -1.00, 131.9, 58.0)">c</text><text xml:space="preserve" font-family="Avenir-Book" font-size="32.4" fill="#5B5753" transform="matrix(1.00, 0.00, -0.00, -1.00, 148.1, 58.0)">i</text><text xml:space="preserve" font-family="Avenir-Book" font-size="32.4" fill="#5B5753" transform="matrix(1.00, 0.00, -0.00, -1.00, 156.6, 58.0)">e</text><text xml:space="preserve" font-family="Avenir-Book" font-size="32.4" fill="#5B5753" transform="matrix(1.00, 0.00, -0.00, -1.00, 175.2, 58.0)">n</text><text xml:space="preserve" font-family="Avenir-Book" font-size="32.4" fill="#5B5753" transform="matrix(1.00, 0.00, -0.00, -1.00, 193.9, 58.0)">t</text><text xml:space="preserve" font-family="Avenir-Book" font-size="32.4" fill="#5B5753" transform="matrix(1.00, 0.00, -0.00, -1.00, 205.3, 58.0)">i</text><text xml:space="preserve" font-family="Avenir-Book" font-size="32.4" fill="#5B5753" transform="matrix(1.00, 0.00, -0.00, -1.00, 213.7, 58.0)">s</text><text xml:space="preserve" font-family="Avenir-Book" font-size="32.4" fill="#5B5753" transform="matrix(1.00, 0.00, -0.00, -1.00, 228.2, 58.0)">t</text><text xml:space="preserve" font-family="Avenir-Book" font-size="32.4" fill="#5B5753" transform="matrix(1.00, 0.00, -0.00, -1.00, 239.6, 58.0)">s</text><text xml:space="preserve" font-family="Avenir-Book" font-size="32.4" fill="#5B5753" transform="matrix(1.00, 0.00, -0.00, -1.00, 254.0, 58.0)">,</text><text xml:space="preserve" font-family="Avenir-Book" font-size="32.4" fill="#5B5753" transform="matrix(1.00, 0.00, -0.00, -1.00, 263.7, 58.0)"> </text><text xml:space="preserve" font-family="Avenir-Book" font-size="32.4" fill="#5B5753" transform="matrix(1.00, 0.00, -0.00, -1.00, 273.3, 58.0)">r</text><text xml:space="preserve" font-family="Avenir-Book" font-size="32.4" fill="#5B5753" transform="matrix(1.00, 0.00, -0.00, -1.00, 284.2, 58.0)">e</text><text xml:space="preserve" font-family="Avenir-Book" font-size="32.4" fill="#5B5753" transform="matrix(1.00, 0.00, -0.00, -1.00, 302.8, 58.0)">s</text><text xml:space="preserve" font-family="Avenir-Book" font-size="32.4" fill="#5B5753" transform="matrix(1.00, 0.00, -0.00, -1.00, 317.3, 58.0)">e</text><text xml:space="preserve" font-family="Avenir-Book" font-size="32.4" fill="#5B5753" transform="matrix(1.00, 0.00, -0.00, -1.00, 335.9, 58.0)">a</text><text xml:space="preserve" font-family="Avenir-Book" font-size="32.4" fill="#5B5753" transform="matrix(1.00, 0.00, -0.00, -1.00, 353.4, 58.0)">r</text><text xml:space="preserve" font-family="Avenir-Book" font-size="32.4" fill="#5B5753" transform="matrix(1.00, 0.00, -0.00, -1.00, 364.2, 58.0)">c</text><text xml:space="preserve" font-family="Avenir-Book" font-size="32.4" fill="#5B5753" transform="matrix(1.00, 0.00, -0.00, -1.00, 380.5, 58.0)">h</text><text xml:space="preserve" font-family="Avenir-Book" font-size="32.4" fill="#5B5753" transform="matrix(1.00, 0.00, -0.00, -1.00, 399.1, 58.0)">e</text><text xml:space="preserve" font-family="Avenir-Book" font-size="32.4" fill="#5B5753" transform="matrix(1.00, 0.00, -0.00, -1.00, 417.8, 58.0)">r</text><text xml:space="preserve" font-family="Avenir-Book" font-size="32.4" fill="#5B5753" transform="matrix(1.00, 0.00, -0.00, -1.00, 429.2, 58.0)">s</text><text xml:space="preserve" font-family="Avenir-Book" font-size="32.4" fill="#5B5753" transform="matrix(1.00, 0.00, -0.00, -1.00, 443.7, 58.0)">,</text><text xml:space="preserve" font-family="Avenir-Book" font-size="32.4" fill="#5B5753" transform="matrix(1.00, 0.00, -0.00, -1.00, 453.3, 58.0)"> </text><text xml:space="preserve" font-family="Avenir-Book" font-size="32.4" fill="#5B5753" transform="matrix(1.00, 0.00, -0.00, -1.00, 463.0, 58.0)">e</text><text xml:space="preserve" font-family="Avenir-Book" font-size="32.4" fill="#5B5753" transform="matrix(1.00, 0.00, -0.00, -1.00, 481.6, 58.0)">n</text><text xml:space="preserve" font-family="Avenir-Book" font-size="32.4" fill="#5B5753" transform="matrix(1.00, 0.00, -0.00, -1.00, 500.3, 58.0)">g</text><text xml:space="preserve" font-family="Avenir-Book" font-size="32.4" fill="#5B5753" transform="matrix(1.00, 0.00, -0.00, -1.00, 520.7, 58.0)">i</text><text xml:space="preserve" font-family="Avenir-Book" font-size="32.4" fill="#5B5753" transform="matrix(1.00, 0.00, -0.00, -1.00, 529.2, 58.0)">n</text><text xml:space="preserve" font-family="Avenir-Book" font-size="32.4" fill="#5B5753" transform="matrix(1.00, 0.00, -0.00, -1.00, 547.8, 58.0)">e</text><text xml:space="preserve" font-family="Avenir-Book" font-size="32.4" fill="#5B5753" transform="matrix(1.00, 0.00, -0.00, -1.00, 566.5, 58.0)">e</text><text xml:space="preserve" font-family="Avenir-Book" font-size="32.4" fill="#5B5753" transform="matrix(1.00, 0.00, -0.00, -1.00, 585.2, 58.0)">r</text><text xml:space="preserve" font-family="Avenir-Book" font-size="32.4" fill="#5B5753" transform="matrix(1.00, 0.00, -0.00, -1.00, 596.6, 58.0)">s</text><text xml:space="preserve" font-family="Avenir-Book" font-size="32.4" fill="#5B5753" transform="matrix(1.00, 0.00, -0.00, -1.00, 611.0, 58.0)">,</text><text xml:space="preserve" font-family="Avenir-Book" font-size="32.4" fill="#5B5753" transform="matrix(1.00, 0.00, -0.00, -1.00, 620.7, 58.0)"> </text><text xml:space="preserve" font-family="Avenir-Book" font-size="32.4" fill="#5B5753" transform="matrix(1.00, 0.00, -0.00, -1.00, 630.3, 58.0)">m</text><text xml:space="preserve" font-family="Avenir-Book" font-size="32.4" fill="#5B5753" transform="matrix(1.00, 0.00, -0.00, -1.00, 658.6, 58.0)">a</text><text xml:space="preserve" font-family="Avenir-Book" font-size="32.4" fill="#5B5753" transform="matrix(1.00, 0.00, -0.00, -1.00, 676.0, 58.0)">n</text><text xml:space="preserve" font-family="Avenir-Book" font-size="32.4" fill="#5B5753" transform="matrix(1.00, 0.00, -0.00, -1.00, 694.7, 58.0)">a</text><text xml:space="preserve" font-family="Avenir-Book" font-size="32.4" fill="#5B5753" transform="matrix(1.00, 0.00, -0.00, -1.00, 712.2, 58.0)">g</text><text xml:space="preserve" font-family="Avenir-Book" font-size="32.4" fill="#5B5753" transform="matrix(1.00, 0.00, -0.00, -1.00, 732.6, 58.0)">e</text><text xml:space="preserve" font-family="Avenir-Book" font-size="32.4" fill="#5B5753" transform="matrix(1.00, 0.00, -0.00, -1.00, 751.3, 58.0)">r</text><text xml:space="preserve" font-family="Avenir-Book" font-size="32.4" fill="#5B5753" transform="matrix(1.00, 0.00, -0.00, -1.00, 762.7, 58.0)">s</text><text xml:space="preserve" font-family="Avenir-Book" font-size="32.4" fill="#5B5753" transform="matrix(1.00, 0.00, -0.00, -1.00, 777.1, 58.0)">,</text><text xml:space="preserve" font-family="Avenir-Book" font-size="32.4" fill="#5B5753" transform="matrix(1.00, 0.00, -0.00, -1.00, 786.8, 58.0)"> </text><text xml:space="preserve" font-family="Avenir-Book" font-size="32.4" fill="#5B5753" transform="matrix(1.00, 0.00, -0.00, -1.00, 27.0, 10.0)">t</text><text xml:space="preserve" font-family="Avenir-Book" font-size="32.4" fill="#5B5753" transform="matrix(1.00, 0.00, -0.00, -1.00, 38.4, 10.0)">e</text><text xml:space="preserve" font-family="Avenir-Book" font-size="32.4" fill="#5B5753" transform="matrix(1.00, 0.00, -0.00, -1.00, 57.1, 10.0)">a</text><text xml:space="preserve" font-family="Avenir-Book" font-size="32.4" fill="#5B5753" transform="matrix(1.00, 0.00, -0.00, -1.00, 74.5, 10.0)">c</text><text xml:space="preserve" font-family="Avenir-Book" font-size="32.4" fill="#5B5753" transform="matrix(1.00, 0.00, -0.00, -1.00, 90.8, 10.0)">h</text><text xml:space="preserve" font-family="Avenir-Book" font-size="32.4" fill="#5B5753" transform="matrix(1.00, 0.00, -0.00, -1.00, 109.5, 10.0)">e</text><text xml:space="preserve" font-family="Avenir-Book" font-size="32.4" fill="#5B5753" transform="matrix(1.00, 0.00, -0.00, -1.00, 128.1, 10.0)">r</text><text xml:space="preserve" font-family="Avenir-Book" font-size="32.4" fill="#5B5753" transform="matrix(1.00, 0.00, -0.00, -1.00, 139.5, 10.0)">s</text><text xml:space="preserve" font-family="Avenir-Book" font-size="32.4" fill="#5B5753" transform="matrix(1.00, 0.00, -0.00, -1.00, 154.0, 10.0)">,</text><text xml:space="preserve" font-family="Avenir-Book" font-size="32.4" fill="#5B5753" transform="matrix(1.00, 0.00, -0.00, -1.00, 163.6, 10.0)"> </text><text xml:space="preserve" font-family="Avenir-Book" font-size="32.4" fill="#5B5753" transform="matrix(1.00, 0.00, -0.00, -1.00, 173.3, 10.0)">y</text><text xml:space="preserve" font-family="Avenir-Book" font-size="32.4" fill="#5B5753" transform="matrix(1.00, 0.00, -0.00, -1.00, 189.6, 10.0)">o</text><text xml:space="preserve" font-family="Avenir-Book" font-size="32.4" fill="#5B5753" transform="matrix(1.00, 0.00, -0.00, -1.00, 209.4, 10.0)">u</text></g></svg>