<?xml version="1.0" encoding="UTF-8" standalone="no"?><svg xmlns="http://www.w3.org/2000/svg" xmlns:xlink="http://www.w3.org/1999/xlink" clip-rule="evenodd" stroke-miterlimit="4.00" viewBox="0 0 877 85"><desc>SVG generated by Keynote</desc><defs></defs><g transform="matrix(1.00, 0.00, -0.00, -1.00, 0.0, 85.0)"><text xml:space="preserve" font-family="LucidaGrande" font-size="24.3" fill="#AB6153" transform="matrix(1.00, 0.00, -0.00, -1.00, 0.0, 60.2)">•</text><text xml:space="preserve" font-family="HumorSans" font-size="32.4" fill="#5B5753" transform="matrix(1.00, 0.00, -0.00, -1.00, 27.0, 59.0)">w</text><text xml:space="preserve" font-family="HumorSans" font-size="32.4" fill="#5B5753" transform="matrix(1.00, 0.00, -0.00, -1.00, 48.5, 59.0)">h</text><text xml:space="preserve" font-family="HumorSans" font-size="32.4" fill="#5B5753" transform="matrix(1.00, 0.00, -0.00, -1.00, 68.5, 59.0)">y</text><text xml:space="preserve" font-family="HumorSans" font-size="32.4" fill="#5B5753" transform="matrix(1.00, 0.00, -0.00, -1.00, 85.8, 59.0)"> </text><text xml:space="preserve" font-family="Avenir-Book" font-size="32.4" fill="#5B5753" transform="matrix(1.00, 0.00, -0.00, -1.00, 102.1, 59.0)">U</text><text xml:space="preserve" font-family="Avenir-Book" font-size="32.4" fill="#5B5753" transform="matrix(1.00, 0.00, -0.00, -1.00, 125.0, 59.0)">n</text><text xml:space="preserve" font-family="Avenir-Book" font-size="32.4" fill="#5B5753" transform="matrix(1.00, 0.00, -0.00, -1.00, 143.6, 59.0)">d</text><text xml:space="preserve" font-family="Avenir-Book" font-size="32.4" fill="#5B5753" transform="matrix(1.00, 0.00, -0.00, -1.00, 164.1, 59.0)">e</text><text xml:space="preserve" font-family="Avenir-Book" font-size="32.4" fill="#5B5753" transform="matrix(1.00, 0.00, -0.00, -1.00, 182.7, 59.0)">r</text><text xml:space="preserve" font-family="Avenir-Book" font-size="32.4" fill="#5B5753" transform="matrix(1.00, 0.00, -0.00, -1.00, 194.1, 59.0)">s</text><text xml:space="preserve" font-family="Avenir-Book" font-size="32.4" fill="#5B5753" transform="matrix(1.00, 0.00, -0.00, -1.00, 208.6, 59.0)">t</text><text xml:space="preserve" font-family="Avenir-Book" font-size="32.4" fill="#5B5753" transform="matrix(1.00, 0.00, -0.00, -1.00, 220.0, 59.0)">a</text><text xml:space="preserve" font-family="Avenir-Book" font-size="32.4" fill="#5B5753" transform="matrix(1.00, 0.00, -0.00, -1.00, 237.4, 59.0)">n</text><text xml:space="preserve" font-family="Avenir-Book" font-size="32.4" fill="#5B5753" transform="matrix(1.00, 0.00, -0.00, -1.00, 256.1, 59.0)">d</text><text xml:space="preserve" font-family="Avenir-Book" font-size="32.4" fill="#5B5753" transform="matrix(1.00, 0.00, -0.00, -1.00, 276.6, 59.0)">i</text><text xml:space="preserve" font-family="Avenir-Book" font-size="32.4" fill="#5B5753" transform="matrix(1.00, 0.00, -0.00, -1.00, 285.0, 59.0)">n</text><text xml:space="preserve" font-family="Avenir-Book" font-size="32.4" fill="#5B5753" transform="matrix(1.00, 0.00, -0.00, -1.00, 303.6, 59.0)">g</text><text xml:space="preserve" font-family="Avenir-Book" font-size="32.4" fill="#5B5753" transform="matrix(1.00, 0.00, -0.00, -1.00, 324.1, 59.0)"> </text><text xml:space="preserve" font-family="Avenir-Book" font-size="32.4" fill="#5B5753" transform="matrix(1.00, 0.00, -0.00, -1.00, 333.7, 59.0)">t</text><text xml:space="preserve" font-family="Avenir-Book" font-size="32.4" fill="#5B5753" transform="matrix(1.00, 0.00, -0.00, -1.00, 345.1, 59.0)">h</text><text xml:space="preserve" font-family="Avenir-Book" font-size="32.4" fill="#5B5753" transform="matrix(1.00, 0.00, -0.00, -1.00, 363.8, 59.0)">e</text><text xml:space="preserve" font-family="Avenir-Book" font-size="32.4" fill="#5B5753" transform="matrix(1.00, 0.00, -0.00, -1.00, 382.5, 59.0)"> </text><text xml:space="preserve" font-family="Avenir-Book" font-size="32.4" fill="#5B5753" transform="matrix(1.00, 0.00, -0.00, -1.00, 392.1, 59.0)">m</text><text xml:space="preserve" font-family="Avenir-Book" font-size="32.4" fill="#5B5753" transform="matrix(1.00, 0.00, -0.00, -1.00, 420.4, 59.0)">a</text><text xml:space="preserve" font-family="Avenir-Book" font-size="32.4" fill="#5B5753" transform="matrix(1.00, 0.00, -0.00, -1.00, 437.8, 59.0)">j</text><text xml:space="preserve" font-family="Avenir-Book" font-size="32.4" fill="#5B5753" transform="matrix(1.00, 0.00, -0.00, -1.00, 446.3, 59.0)">o</text><text xml:space="preserve" font-family="Avenir-Book" font-size="32.4" fill="#5B5753" transform="matrix(1.00, 0.00, -0.00, -1.00, 466.1, 59.0)">r</text><text xml:space="preserve" font-family="Avenir-Book" font-size="32.4" fill="#5B5753" transform="matrix(1.00, 0.00, -0.00, -1.00, 477.5, 59.0)"> </text><text xml:space="preserve" font-family="Avenir-Book" font-size="32.4" fill="#5B5753" transform="matrix(1.00, 0.00, -0.00, -1.00, 487.2, 59.0)">p</text><text xml:space="preserve" font-family="Avenir-Book" font-size="32.4" fill="#5B5753" transform="matrix(1.00, 0.00, -0.00, -1.00, 507.6, 59.0)">a</text><text xml:space="preserve" font-family="Avenir-Book" font-size="32.4" fill="#5B5753" transform="matrix(1.00, 0.00, -0.00, -1.00, 525.1, 59.0)">r</text><text xml:space="preserve" font-family="Avenir-Book" font-size="32.4" fill="#5B5753" transform="matrix(1.00, 0.00, -0.00, -1.00, 536.5, 59.0)">t</text><text xml:space="preserve" font-family="Avenir-Book" font-size="32.4" fill="#5B5753" transform="matrix(1.00, 0.00, -0.00, -1.00, 547.9, 59.0)">s</text><text xml:space="preserve" font-family="Avenir-Book" font-size="32.4" fill="#5B5753" transform="matrix(1.00, 0.00, -0.00, -1.00, 562.4, 59.0)"> </text><text xml:space="preserve" font-family="Avenir-Book" font-size="32.4" fill="#5B5753" transform="matrix(1.00, 0.00, -0.00, -1.00, 572.0, 59.0)">t</text><text xml:space="preserve" font-family="Avenir-Book" font-size="32.4" fill="#5B5753" transform="matrix(1.00, 0.00, -0.00, -1.00, 583.4, 59.0)">h</text><text xml:space="preserve" font-family="Avenir-Book" font-size="32.4" fill="#5B5753" transform="matrix(1.00, 0.00, -0.00, -1.00, 602.1, 59.0)">a</text><text xml:space="preserve" font-family="Avenir-Book" font-size="32.4" fill="#5B5753" transform="matrix(1.00, 0.00, -0.00, -1.00, 619.5, 59.0)">t</text><text xml:space="preserve" font-family="Avenir-Book" font-size="32.4" fill="#5B5753" transform="matrix(1.00, 0.00, -0.00, -1.00, 630.9, 59.0)"> </text><text xml:space="preserve" font-family="Avenir-Book" font-size="32.4" fill="#5B5753" transform="matrix(1.00, 0.00, -0.00, -1.00, 640.6, 59.0)">m</text><text xml:space="preserve" font-family="Avenir-Book" font-size="32.4" fill="#5B5753" transform="matrix(1.00, 0.00, -0.00, -1.00, 668.9, 59.0)">a</text><text xml:space="preserve" font-family="Avenir-Book" font-size="32.4" fill="#5B5753" transform="matrix(1.00, 0.00, -0.00, -1.00, 686.3, 59.0)">k</text><text xml:space="preserve" font-family="Avenir-Book" font-size="32.4" fill="#5B5753" transform="matrix(1.00, 0.00, -0.00, -1.00, 702.6, 59.0)">e</text><text xml:space="preserve" font-family="Avenir-Book" font-size="32.4" fill="#5B5753" transform="matrix(1.00, 0.00, -0.00, -1.00, 721.2, 59.0)"> </text><text xml:space="preserve" font-family="Avenir-Book" font-size="32.4" fill="#5B5753" transform="matrix(1.00, 0.00, -0.00, -1.00, 730.9, 59.0)">u</text><text xml:space="preserve" font-family="Avenir-Book" font-size="32.4" fill="#5B5753" transform="matrix(1.00, 0.00, -0.00, -1.00, 749.6, 59.0)">p</text><text xml:space="preserve" font-family="Avenir-Book" font-size="32.4" fill="#5B5753" transform="matrix(1.00, 0.00, -0.00, -1.00, 770.0, 59.0)"> </text><text xml:space="preserve" font-family="Avenir-Book" font-size="32.4" fill="#5B5753" transform="matrix(1.00, 0.00, -0.00, -1.00, 27.0, 11.0)">J</text><text xml:space="preserve" font-family="Avenir-Book" font-size="32.4" fill="#5B5753" transform="matrix(1.00, 0.00, -0.00, -1.00, 43.3, 11.0)">u</text><text xml:space="preserve" font-family="Avenir-Book" font-size="32.4" fill="#5B5753" transform="matrix(1.00, 0.00, -0.00, -1.00, 61.9, 11.0)">p</text><text xml:space="preserve" font-family="Avenir-Book" font-size="32.4" fill="#5B5753" transform="matrix(1.00, 0.00, -0.00, -1.00, 82.4, 11.0)">y</text><text xml:space="preserve" font-family="Avenir-Book" font-size="32.4" fill="#5B5753" transform="matrix(1.00, 0.00, -0.00, -1.00, 98.6, 11.0)">t</text><text xml:space="preserve" font-family="Avenir-Book" font-size="32.4" fill="#5B5753" transform="matrix(1.00, 0.00, -0.00, -1.00, 110.0, 11.0)">e</text><text xml:space="preserve" font-family="Avenir-Book" font-size="32.4" fill="#5B5753" transform="matrix(1.00, 0.00, -0.00, -1.00, 128.7, 11.0)">r</text><text xml:space="preserve" font-family="Avenir-Book" font-size="32.4" fill="#5B5753" transform="matrix(1.00, 0.00, -0.00, -1.00, 140.1, 11.0)">H</text><text xml:space="preserve" font-family="Avenir-Book" font-size="32.4" fill="#5B5753" transform="matrix(1.00, 0.00, -0.00, -1.00, 164.1, 11.0)">u</text><text xml:space="preserve" font-family="Avenir-Book" font-size="32.4" fill="#5B5753" transform="matrix(1.00, 0.00, -0.00, -1.00, 182.8, 11.0)">b</text><text xml:space="preserve" font-family="Avenir-Book" font-size="32.4" fill="#5B5753" transform="matrix(1.00, 0.00, -0.00, -1.00, 203.3, 11.0)"> </text><text xml:space="preserve" font-family="Avenir-Book" font-size="32.4" fill="#5B5753" transform="matrix(1.00, 0.00, -0.00, -1.00, 212.9, 11.0)">t</text><text xml:space="preserve" font-family="Avenir-Book" font-size="32.4" fill="#5B5753" transform="matrix(1.00, 0.00, -0.00, -1.00, 224.3, 11.0)">o</text><text xml:space="preserve" font-family="Avenir-Book" font-size="32.4" fill="#5B5753" transform="matrix(1.00, 0.00, -0.00, -1.00, 244.2, 11.0)"> </text><text xml:space="preserve" font-family="Avenir-Book" font-size="32.4" fill="#5B5753" transform="matrix(1.00, 0.00, -0.00, -1.00, 253.8, 11.0)">h</text><text xml:space="preserve" font-family="Avenir-Book" font-size="32.4" fill="#5B5753" transform="matrix(1.00, 0.00, -0.00, -1.00, 272.5, 11.0)">e</text><text xml:space="preserve" font-family="Avenir-Book" font-size="32.4" fill="#5B5753" transform="matrix(1.00, 0.00, -0.00, -1.00, 291.2, 11.0)">l</text><text xml:space="preserve" font-family="Avenir-Book" font-size="32.4" fill="#5B5753" transform="matrix(1.00, 0.00, -0.00, -1.00, 299.6, 11.0)">p</text><text xml:space="preserve" font-family="Avenir-Book" font-size="32.4" fill="#5B5753" transform="matrix(1.00, 0.00, -0.00, -1.00, 320.0, 11.0)"> </text><text xml:space="preserve" font-family="Avenir-Book" font-size="32.4" fill="#5B5753" transform="matrix(1.00, 0.00, -0.00, -1.00, 329.7, 11.0)">w</text><text xml:space="preserve" font-family="Avenir-Book" font-size="32.4" fill="#5B5753" transform="matrix(1.00, 0.00, -0.00, -1.00, 353.7, 11.0)">i</text><text xml:space="preserve" font-family="Avenir-Book" font-size="32.4" fill="#5B5753" transform="matrix(1.00, 0.00, -0.00, -1.00, 362.1, 11.0)">t</text><text xml:space="preserve" font-family="Avenir-Book" font-size="32.4" fill="#5B5753" transform="matrix(1.00, 0.00, -0.00, -1.00, 373.6, 11.0)">h</text><text xml:space="preserve" font-family="Avenir-Book" font-size="32.4" fill="#5B5753" transform="matrix(1.00, 0.00, -0.00, -1.00, 392.2, 11.0)"> </text><text xml:space="preserve" font-family="Avenir-Book" font-size="32.4" fill="#5B5753" transform="matrix(1.00, 0.00, -0.00, -1.00, 401.9, 11.0)">p</text><text xml:space="preserve" font-family="Avenir-Book" font-size="32.4" fill="#5B5753" transform="matrix(1.00, 0.00, -0.00, -1.00, 422.3, 11.0)">l</text><text xml:space="preserve" font-family="Avenir-Book" font-size="32.4" fill="#5B5753" transform="matrix(1.00, 0.00, -0.00, -1.00, 430.7, 11.0)">a</text><text xml:space="preserve" font-family="Avenir-Book" font-size="32.4" fill="#5B5753" transform="matrix(1.00, 0.00, -0.00, -1.00, 448.2, 11.0)">n</text><text xml:space="preserve" font-family="Avenir-Book" font-size="32.4" fill="#5B5753" transform="matrix(1.00, 0.00, -0.00, -1.00, 466.9, 11.0)">n</text><text xml:space="preserve" font-family="Avenir-Book" font-size="32.4" fill="#5B5753" transform="matrix(1.00, 0.00, -0.00, -1.00, 485.5, 11.0)">i</text><text xml:space="preserve" font-family="Avenir-Book" font-size="32.4" fill="#5B5753" transform="matrix(1.00, 0.00, -0.00, -1.00, 493.9, 11.0)">n</text><text xml:space="preserve" font-family="Avenir-Book" font-size="32.4" fill="#5B5753" transform="matrix(1.00, 0.00, -0.00, -1.00, 512.6, 11.0)">g</text><text xml:space="preserve" font-family="Avenir-Book" font-size="32.4" fill="#5B5753" transform="matrix(1.00, 0.00, -0.00, -1.00, 533.1, 11.0)">,</text><text xml:space="preserve" font-family="Avenir-Book" font-size="32.4" fill="#5B5753" transform="matrix(1.00, 0.00, -0.00, -1.00, 542.7, 11.0)"> </text><text xml:space="preserve" font-family="Avenir-Book" font-size="32.4" fill="#5B5753" transform="matrix(1.00, 0.00, -0.00, -1.00, 552.4, 11.0)">t</text><text xml:space="preserve" font-family="Avenir-Book" font-size="32.4" fill="#5B5753" transform="matrix(1.00, 0.00, -0.00, -1.00, 563.8, 11.0)">r</text><text xml:space="preserve" font-family="Avenir-Book" font-size="32.4" fill="#5B5753" transform="matrix(1.00, 0.00, -0.00, -1.00, 575.2, 11.0)">i</text><text xml:space="preserve" font-family="Avenir-Book" font-size="32.4" fill="#5B5753" transform="matrix(1.00, 0.00, -0.00, -1.00, 583.6, 11.0)">a</text><text xml:space="preserve" font-family="Avenir-Book" font-size="32.4" fill="#5B5753" transform="matrix(1.00, 0.00, -0.00, -1.00, 601.1, 11.0)">l</text><text xml:space="preserve" font-family="Avenir-Book" font-size="32.4" fill="#5B5753" transform="matrix(1.00, 0.00, -0.00, -1.00, 609.5, 11.0)">,</text><text xml:space="preserve" font-family="Avenir-Book" font-size="32.4" fill="#5B5753" transform="matrix(1.00, 0.00, -0.00, -1.00, 619.1, 11.0)"> </text><text xml:space="preserve" font-family="Avenir-Book" font-size="32.4" fill="#5B5753" transform="matrix(1.00, 0.00, -0.00, -1.00, 628.8, 11.0)">a</text><text xml:space="preserve" font-family="Avenir-Book" font-size="32.4" fill="#5B5753" transform="matrix(1.00, 0.00, -0.00, -1.00, 646.3, 11.0)">n</text><text xml:space="preserve" font-family="Avenir-Book" font-size="32.4" fill="#5B5753" transform="matrix(1.00, 0.00, -0.00, -1.00, 664.9, 11.0)">d</text><text xml:space="preserve" font-family="Avenir-Book" font-size="32.4" fill="#5B5753" transform="matrix(1.00, 0.00, -0.00, -1.00, 685.4, 11.0)"> </text><text xml:space="preserve" font-family="Avenir-Book" font-size="32.4" fill="#5B5753" transform="matrix(1.00, 0.00, -0.00, -1.00, 695.0, 11.0)">d</text><text xml:space="preserve" font-family="Avenir-Book" font-size="32.4" fill="#5B5753" transform="matrix(1.00, 0.00, -0.00, -1.00, 715.5, 11.0)">e</text><text xml:space="preserve" font-family="Avenir-Book" font-size="32.4" fill="#5B5753" transform="matrix(1.00, 0.00, -0.00, -1.00, 734.1, 11.0)">p</text><text xml:space="preserve" font-family="Avenir-Book" font-size="32.4" fill="#5B5753" transform="matrix(1.00, 0.00, -0.00, -1.00, 754.6, 11.0)">l</text><text xml:space="preserve" font-family="Avenir-Book" font-size="32.4" fill="#5B5753" transform="matrix(1.00, 0.00, -0.00, -1.00, 763.0, 11.0)">o</text><text xml:space="preserve" font-family="Avenir-Book" font-size="32.4" fill="#5B5753" transform="matrix(1.00, 0.00, -0.00, -1.00, 782.9, 11.0)">y</text><text xml:space="preserve" font-family="Avenir-Book" font-size="32.4" fill="#5B5753" transform="matrix(1.00, 0.00, -0.00, -1.00, 799.1, 11.0)">m</text><text xml:space="preserve" font-family="Avenir-Book" font-size="32.4" fill="#5B5753" transform="matrix(1.00, 0.00, -0.00, -1.00, 827.4, 11.0)">e</text><text xml:space="preserve" font-family="Avenir-Book" font-size="32.4" fill="#5B5753" transform="matrix(1.00, 0.00, -0.00, -1.00, 846.0, 11.0)">n</text><text xml:space="preserve" font-family="Avenir-Book" font-size="32.4" fill="#5B5753" transform="matrix(1.00, 0.00, -0.00, -1.00, 864.7, 11.0)">t</text></g></svg>